<?xml version="1.0" encoding="utf-8"?>
<!-- Generator: Adobe Illustrator 22.0.1, SVG Export Plug-In . SVG Version: 6.00 Build 0)  -->
<svg version="1.1" id="Layer_1" xmlns="http://www.w3.org/2000/svg" xmlns:xlink="http://www.w3.org/1999/xlink" x="0px" y="0px"
	 viewBox="0 0 6141.1 2472.2" style="enable-background:new 0 0 6141.1 2472.2;" xml:space="preserve">
<g>
	<path d="M3111.3,1145c-1.2,0.2-1.9,3.6-2.4,4.6c0.1,0.3,0.2,0.5,0.3,0.8c0,0-1.4,0.8-1.4,0.8c-0.5,3.3-3.7,4.6-4.3,8.1
		c2.1-0.1,3.3,0.8,6,0.8c-0.1,0.7-0.1,0.1,0,0.8c1.3-0.2,4.5,0.5,6.2,1.4c0.2,0.3,0.4,0.5,0.5,0.8c0.5,0.1,1.1,0.2,1.6,0.3
		c0.2,1.1,0.9,1.6,2.2,1.4c0.1,0.3,0.2,0.5,0.3,0.8c0.2-0.1,0.4-0.2,0.5-0.3c0.3,0.4,0.5,0.7,0.8,1.1c0.2,0,0.4,0,0.5,0
		c0.2,0.2,0.3,1.4,0.5,1.6c0.4,0.1,0.7,0.2,1.1,0.3c0.3,1,0.9,1.6,1.9,1.9c0.5,2,2.6,3.8,3.2,5.4c0.2,0.1,0.4,0.2,0.5,0.3
		c0.2,0.8,0.4,1.6,0.5,2.4l0.5,0.5c-0.6,2.5-0.7,5-0.3,7.6c-1.6,1-7.8,9.6-7.8,11.6c-0.4,0.3-0.7,0.5-1.1,0.8
		c-0.1,0.9-0.2,1.8-0.3,2.7c-0.3,0.1-0.5,0.2-0.8,0.3c0,0,0.3,0.7,0.3,1.1c-2.4,0.3-2.9,2.1-4.3,3.2c-0.5,0.1-1.1,0.2-1.6,0.3
		c0,0.2,0,0.4,0,0.5c-0.2,0.2-0.9,1-1.1,1.1c-0.2-0.1-0.4-0.2-0.5-0.3c-0.2,0.3-0.4,0.5-0.5,0.8c-1.1,0.6-3.2,1.5-4.1,1.9
		c-0.5,0-1.1,0-1.6,0c-0.3,0.4-0.5,0.7-0.8,1.1c-7.1,0-14.3,3.9-20.8-0.8c0-0.2,0-0.4,0-0.5c-1.6,0.1-2.6-0.5-3-1.9
		c-0.4,0-0.7,0-1.1,0c-3.1-1.7-9.1-5.1-9.5-9.2c0.5-0.4,0.4-0.2,0.5-1.1c-2.4-2-3.9-6.3-0.5-7.8c0-1.8,1-4.2,3-4.3
		c1.3,1.2,3.5,1.7,5.7,1.9c1.6,7,11.4,9.1,16.8,7c0.4,0.1,0.7,0.2,1.1,0.3c0.2-0.3,0.4-0.5,0.5-0.8c0.8-0.4,1.4-0.1,2.2-0.5
		c0.2-0.3,0.4-0.5,0.5-0.8c4.4-2.4,8.5-4.6,11.1-8.9c0-0.3,0-0.5,0-0.8c0.5-1,1.2-1.1,1.4-2.7c-0.2-0.3-0.2-0.2-0.3-0.8
		c-1.6-1.7-3.5-2.7-6-3c0-0.2,0-0.4,0-0.5c-0.4,0.1-0.7,0.2-1.1,0.3c-3.9-1-10.8-2.4-14.9-1.1c-0.1,0.2-0.2,0.4-0.3,0.5
		c-4.3-1.4-8.6-0.1-13.3-1.9c-0.1-0.3,0-1.7-0.3-2.2c-0.2,0-0.4,0-0.5,0l-0.5-1.4c0.1-0.4,0.2-0.7,0.3-1.1c-0.4-1-1.2-1.1-1.4-2.7
		c1.6-1.3,2.2-4.3,2.2-6.2c0.3-0.4,4.8-4.6,5.1-4.9c0.4,0,0.7,0,1.1,0c0-0.2,0-0.4,0-0.5c0.5-0.4,0.9-0.7,1.4-1.1c0-0.4,0-0.7,0-1.1
		c0.2-0.4,1.1-0.9,1.4-1.4c0-0.4,0-0.7,0-1.1c0.3-0.5,1.3-0.7,1.6-1.1c0.1-0.5,0.2-0.9,0.3-1.4c0.4-0.1,0.7-0.2,1.1-0.3
		c1.3-1.3,3.4-7.5,4.1-9.2c-0.1,0-0.2,0-0.3,0c-1.9,0.1-3.3,0.9-4.3,2.4c-1.8,0.3-6.8,3.2-7,5.4c-0.4,0-0.7,0-1.1,0
		c-1,1.1-2,2.2-3,3.2c-0.5,0-1.1,0-1.6,0c-0.4,1.8-1.7,3.1-3.8,3.8c-1.8,0.3-3.2-0.3-4.1-1.9c-2,0-3.2-1.8-3.8-3.8
		c3.4-2.5,0.1-6.8,0-9.5c1.2,0,2.4-0.1,3.2-0.3c0.9-3.3,4.2-4.8,6.5-6.8c0-0.2,0-0.4,0-0.5c0.3,0,0.5,0,0.8,0c0-0.2,0-0.4,0-0.5
		c0.3-0.2,0.5-0.4,0.8-0.5c0-0.5,0-0.9,0-1.4c0.3-0.4,4.2-2.6,4.9-3c0-0.5,0-1.1,0-1.6c2.5-0.2,7.2-1.4,8.7-2.7
		c2.2,1,4.9-1.5,7.3-0.5c0.1,0.2,0.2,0.4,0.3,0.5c1.5,0.5,3.3-0.6,5.1,0.3c0.2,0.3,0.4,0.5,0.5,0.8c2.1,0.1,3.5,1,4.1,2.7
		c0.4,0.1,0.7,0.2,1.1,0.3c0.1,0.5,0.2,0.9,0.3,1.4c0.6,0.5,1.3,0.9,1.9,1.4c0,0.4,0,0.7,0,1.1c0.3,0.2,0.5,0.4,0.8,0.5
		C3111.1,1134.1,3111.5,1139.7,3111.3,1145z"/>
	<path d="M3045.3,1181.8c-0.3,3-3.2,4.4-4.3,6.8c-0.7-0.1-0.1-0.1-0.8,0c-0.6,1.3-1.7,2-2.2,3.2c8.2,0.4,30.2-3.4,33.3,7.8
		c-0.2,0.2-0.7,1.3-0.8,2.2c1.2,0.4,1.6,1.1,1.4,2.2c-0.9,0.5-1.8,0.8-2.7,1.1c0.7,0.5,0.8,0.8,0.8,1.9c-0.5,0.4-0.6,1-0.8,1.6
		c-8.7,3.7-23.9,0.5-33.6,2.2c-0.1,0.2-0.2,0.4-0.3,0.5c-5.5,0-31.8,7.3-32.2-1.9c0.5-1-0.4-6.6,0-7.3c0.2,0,0.4,0,0.5,0
		c0.6-0.7,0.7-1.5,0.5-2.4c0.4-0.5,1.5-0.8,1.9-1.4c-0.7-2.3,6.5-7.4,8.9-7.8c0-0.3,0-0.5,0-0.8c0.6-1.2,1.5-1.8,2.7-1.9
		c0.1,0,0.2,0,0.3,0c1.1-1.4-0.2-2.5,2.7-2.4c0.1-2.9,3.2-3,3.8-5.4c3.1-2.8,5.4-5.2,7.6-8.4c-0.1-0.2-0.2-0.4-0.3-0.5
		c0.2,0,0.4,0,0.5,0c0.5-0.6,0.1-1.4,0.5-2.2c1.1-0.6,1.8-1.5,1.9-3c1,0,1.2-0.6,0.8-1.6c0.3-0.1,0.5-0.2,0.8-0.3
		c0.3-0.5-0.4-0.9-0.3-1.1c0.2,0,0.4,0,0.5,0c0-0.5,0-1.1,0-1.6c0.3-0.1,0.5-0.2,0.8-0.3c0.9-2,1.4-4.8,1.4-8.7
		c-4.8,0.3-8.2,3.9-11.4,6.5c-4.5,0.9-5.7,7.6-10.3,7.8c-1.9,1.1-5.8-1.1-8.1-1.6c-0.3-4.8-1.3-6.3-1.1-11.6
		c0.5-0.2,1.1-0.4,1.6-0.5c0-0.4,0-0.7,0-1.1c0.4-0.1,0.7-0.2,1.1-0.3c0-0.3,0-0.5,0-0.8c0.4-0.1,0.7-0.2,1.1-0.3
		c3.1-3.2,5.1-6.1,8.9-8.9c0.1-0.3,0.2-0.5,0.3-0.8c1.2-1.3,2.5-1.8,4.1-1.6c0-0.2,0-0.4,0-0.5c10.8-7.2,23-4.2,29,5.7
		c0.2,0,0.4,0,0.5,0c0,0.2,0,0.4,0,0.5c0.3,0.2,0.5,0.4,0.8,0.5c1.5,2.8,1.2,14.3-0.3,17c-0.2,0-0.4,0-0.5,0c0,0.4,0,0.7,0,1.1
		c-0.2,0.1-0.4,0.2-0.5,0.3c0.1,0.3,0.2,0.5,0.3,0.8c-1.2,4.5-3.4,10.9-6.2,14.6c-0.3,0.1-0.5,0.2-0.8,0.3
		C3046.3,1180.6,3047.2,1181.5,3045.3,1181.8z"/>
	<path d="M3075.1,1251.1c0.1,0,0.2,0,0.3,0c1.1-3.8-1.1-8.2-1.1-11.9c-1.1-0.9-2.9-2.9-3.5-3.8c0-0.3,0-0.5,0-0.8
		c-2.1-2.6-6.2-5.8-9.7-5.7c-1-0.7-5.5-3.1-7-2.2c-0.9-0.3,0-0.6-0.8-1.4c-0.3,0-0.5,0-0.8,0c-0.1-0.3-0.2-0.5-0.3-0.8
		c-7.4-5.3-13.2,3-16.8,7.8c-0.3,0.1-0.5,0.2-0.8,0.3c-0.3,0.4-0.2,1-0.5,1.4c-0.2,0-0.4,0-0.5,0c0,0.3,0,0.5,0,0.8
		c-0.2,0-0.4,0-0.5,0c0,0.2,0,0.4,0,0.5c-1.1,0.5-1.6,1.4-1.6,2.7c-0.2,0-0.4,0-0.5,0c0,0.4,0,0.7,0,1.1c-0.7,0.9-1.3,1.8-2.4,2.2
		c-0.8,1.3-1.1,2.5-1.1,4.1c-0.3,0.1-0.5,0.2-0.8,0.3c0,4.3-1.4,9.8,0.3,13.8c0.2,0.1,0.4,0.2,0.5,0.3c-0.1,0.5-0.2,1.1-0.3,1.6
		c0.2,0,0.4,0,0.5,0c0.6,0.8,0.5,1.9,0.5,2.4c1.4,1.7,4,4.8,3.8,7c0.2,0,0.4,0,0.5,0c0,0.2,0,0.4,0,0.5c0.2-0.1,0.4-0.2,0.5-0.3
		c0.9,0.8,1.1,1.5,1.1,2.4c0.4,0.6,1.2,1.1,1.6,1.6c0,0.2,0,0.4,0,0.5c0.6,0.6,2.2,0.6,3,1.1c0,0.2,0,0.4,0,0.5c0.5,0,1.1,0,1.6,0
		c0.1,0.2,0.2,0.4,0.3,0.5c3.9,1.9,19.6,5,20.3-3c1.6-0.3,4.7-3.5,5.4-4.6c0-0.3,0-0.5,0-0.8c2-2.3,4.3-3.7,6-7c0-0.5,0-0.9,0-1.4
		c0.3-0.1,0.5-0.2,0.8-0.3C3073.2,1257.9,3075.8,1253.2,3075.1,1251.1z M3048.3,1260.8c-1.7,0.4-2.4-0.7-3.8-0.8
		c-2.3-7.9-0.5-11.1,3.5-18.1c0.7,0.1,1,0.3,1.9,0.3c0,0.2,0,0.4,0,0.5c-0.5-0.2-0.2,0-0.5-0.3c-0.5,0-0.9,0-1.4,0
		c0.4,0.5,0.9,0.4,1.4,0.8c1-0.1,0.7,0.4,0.8-0.5c0.4,0.3,0.7,0.9,1.1,1.1c3.7,0,5.7,2.8,8.4,4.6
		C3059.2,1255.7,3054.4,1259.2,3048.3,1260.8z"/>
	<path d="M3138.9,1268.1c0.6-2.8-1.6-8.1-3.2-10c-0.5-2.2-2.4-3.5-2.7-5.7c-1.4-0.3-3.2-1.6-4.9-1.9c1.2-2.1,2-4.4,2.2-6.8
		c0.2,0,0.4,0,0.5,0c-0.7-6.7,1.8-15.7-5.1-20.3c-0.5,0-0.9,0-1.4,0c-0.3-0.2-0.8-0.9-1.1-1.1c-0.3,0-0.5,0-0.8,0
		c-0.1-0.4-0.2-0.7-0.3-1.1c-5.1,0-19.1-7.4-23.5-4.9c0,0.2,0,0.4,0,0.5c-2.2-1.6-7,3.7-8.7,4.1c-0.1,0.4-0.2,0.7-0.3,1.1
		c-0.5,0.5-1.1,0.9-1.6,1.4c0,0.3,0,0.5,0,0.8c-1.3,1.6-3.8,4.4-6,4.9c0.7,0.7-1.5,2.1-1.6,2.4c0.1,0.4,0.2,0.7,0.3,1.1
		c-3.6,7.3-5,13.6-1.1,20.8c0,0.3,0,0.5,0,0.8c0.8,1.3,2.7,1.9,3.2,3.5c0.1,0,0.2,0,0.3,0c-2.2,2.5-4.5,5.3-6.5,7.6
		c-0.2,0-0.4,0-0.5,0c-1.4,1.3-1.7,2.5-1.9,4.3c-0.2,0.1-0.4,0.2-0.5,0.3c-0.4,1.4,0.5,3-0.5,4.9c0.2,0,0.4,0,0.5,0
		c0.7,1.2,0.5,2.2,0.8,3.5c-0.2-0.2-0.3-0.3-0.5-0.5c0,0.2,0,0.4,0,0.5c-0.5,1,0.6,2.1,0.8,3c-0.1,0.2-0.2,0.4-0.3,0.5
		c0.2,0.1,0.4,0.2,0.5,0.3c0,0.4,0,0.7,0,1.1c0.8,0.3,1.3,1,1.4,1.9c0.2,0,0.4,0,0.5,0c0,0.4,0,0.7,0,1.1c0.3,0.2,0.5,0.4,0.8,0.5
		c0.7,2.2,2,3.9,4.1,5.1c0.3,0,0.5,0,0.8,0c0.2,0.5,0.4,1.1,0.5,1.6c2.7,0.6,6.4,2.6,9.2,2.4c-1.1,1.6-7.5,3.2-9.2,3.2
		c-0.2,0.3-0.4,0.5-0.5,0.8c-6.2,0.9-7.8,4.8-13,8.1c0.6,1,4,6.9,3.8,7.8c1.7,0.3,2.6,0.5,3.2,1.9c0.6-0.1,2.5,0.1,2.7,0
		c0.2-0.3,0.4-0.5,0.5-0.8c2.2-0.5,6.6,0,9.2-1.4c0-0.2,0-0.4,0-0.5c2.4,0.2,4.8-0.4,7-1.6c0.4,0.1,0.7,0.2,1.1,0.3
		c0-0.2,0-0.4,0-0.5c2.7-1.8,7.2,0.1,9.7-1.6c0.2,0,0.4,0,0.5,0c-0.1,2.2-1.1,2.6-1.4,4.3c-0.3,0-0.5,0-0.8,0
		c-0.1,5-3.1,6.5-3.5,11.6c-2.3,1.1-2.8,2-5.4,2.7c-0.3-0.1-0.5-0.2-0.8-0.3c-2.6,0.7-7.8,1.8-10,2.9c-3.4,1.7-6.6,6.7-9.5,7.6
		c0,0.8,0,1.6,0,2.4c0.3,0,0.5,0,0.8,0c0.9,2.3,1.9,4.1,3.8,5.4c-0.1,0.2-0.2,0.4-0.3,0.5c3.3,2.8,6.9,0.2,10.3,1.4
		c0.5-0.1,1.1-0.2,1.6-0.3c-0.3,4.2-2.8,7.7-3.2,11.9c-0.2,0.1-0.4,0.2-0.5,0.3c0,0.5,0,0.9,0,1.4c-0.2,0-0.4,0-0.5,0
		c0,0.6,0,1.3,0,1.9c-0.2,0.1-0.4,0.2-0.5,0.3c0,0.3,0,0.5,0,0.8c-0.2,0-0.4,0-0.5,0c0,0.4,0,0.7,0,1.1c-0.2,0.1-0.4,0.2-0.5,0.3
		c0,3.5-2.2,6.4-2.2,10c-0.2,0-0.4,0-0.5,0c0,0.3,0,0.5,0,0.8c-0.2,0-0.4,0-0.5,0c0.5,0.6-0.1,1.7-0.5,2.2c-0.1,0.9,0.3,1.3,1.1,1.4
		c0.2,1.2,1.2,2.1,2.2,2.4c-0.8,3.8,0.7,2.6,3.2,4.1c0,0.1,0,0.2,0,0.3c0.1,0.1,2.3,1.7,2.4,1.9c1.6-0.2,1.3-1.1,2.2-1.9
		c0.3,0.1,0.5,0.2,0.8,0.3c2.9-1.4,4.9-4.8,6-7.6c-0.1-0.3-0.5-0.5-0.3-1.1c0.3-0.2,0.5-0.4,0.8-0.5c0-0.5,0-0.9,0-1.4l0.5-0.5
		c0-2.5,1.2-4.5,1.6-7c0.2,0,0.4,0,0.5,0c0-0.5,0-1.1,0-1.6c0.2,0,0.4,0,0.5,0c0-1.9,1.1-2.8,1.1-4.6c0.2,0,0.4,0,0.5,0
		c0.3-3.3,1.5-5.8,2.7-8.9c-0.1-0.3-0.2-0.5-0.3-0.8c0.2-0.6,1.1-1.2,1.4-1.6c0-0.6,0-1.3,0-1.9c0.2-0.1,0.4-0.2,0.5-0.3
		c0-0.4,0-0.7,0-1.1c0.2,0,0.4,0,0.5,0c0.6-1,0.2-2.3,0.8-3.2c0.3-0.1,0.5-0.2,0.8-0.3c-0.1-0.2-0.2-0.4-0.3-0.5
		c1.4-0.1,17.9-1,17.3-4.3c1.3,0.5,2.1,0,2.4-1.4c0.9,0,4.6-0.5,5.4-1.1c0.2,0,0.4,0,0.5,0c1-1.2-0.8-4.5,1.1-6.2c0-1.2,0-2.3,0-3.5
		c-3-4.2-14.6-4.2-18.7-2.7c0-0.1,0-0.2,0-0.3c-0.1,0-0.2,0-0.3,0c0.3-1.5,1-2.8,1.6-4.1c0.2,0.1,0.4,0.2,0.5,0.3
		c-0.1-0.5-0.2-0.9-0.3-1.4c0.2-0.5,1.1-1.2,1.4-1.6c-0.3-0.9,0.6-1.4,1.1-2.2c0-0.3,0-0.5,0-0.8c0.2,0,0.4,0,0.5,0
		c0-0.4,0-0.7,0-1.1c0.2,0,0.4,0,0.5,0c-0.3-1.7,0.2-2.9,1.6-3.8c-0.2-0.3-0.3-0.5-0.3-1.1c0.3,0,0.5,0,0.8,0
		c-0.3-0.9,1.8-5.6,2.7-6.2c-0.1-2.6-1.5-7.3-3.8-8.9c-0.3,0.1-6.6-1.2-6.8-1.4c-0.1,0-0.2,0-0.3,0c0-0.1,0-0.2,0-0.3
		c0.5-0.2,1.1-0.4,1.6-0.5c0.6-0.8,4.7-3.6,5.1-3.8c0-0.3,0-0.5,0-0.8c1.5-0.3,6.2-5.3,7.3-6.5c-0.1-0.2-0.2-0.4-0.3-0.5l0.5-0.8
		c0.3-0.1,0.5-0.2,0.8-0.3c0.9-3,2.9-5,3.2-8.1c0.2,0,0.4,0,0.5,0C3138.4,1272.9,3138.9,1268.4,3138.9,1268.1z M3099.4,1234
		c4.5-0.1,14.2-3.2,16.8,3.2c2.2,5.4-6.4,11.2-10.8,11.1c0,0.3,0,0.5,0,0.8c-2.2,0.2-4.9-0.2-7,0.3c-0.9-1.2-2.1-2-3.5-2.2
		c-0.8-0.8-0.2-1.4-1.6-2.2C3093.3,1239,3096.9,1238,3099.4,1234z M3122.7,1269.7c-3.1,6.3-5.7,6.2-10.8,9.7
		c-0.2-0.1-0.4-0.2-0.5-0.3c-3.3,1-18.6,2.4-19.8-3.5c-1.8-9.7,26.6-10.1,31.7-9.2C3123.2,1267.1,3122.9,1269.3,3122.7,1269.7z"/>
	<path d="M3072.9,1272.2c0.3,0.4,0.3,0.6,0,1.1C3072.9,1272.9,3072.9,1272.5,3072.9,1272.2z"/>
	<path d="M3072.9,1273.5c0.3,0.3,0.1,0,0.3,0.5c-0.1,0-0.2,0-0.3,0C3072.9,1273.9,3072.9,1273.7,3072.9,1273.5z"/>
	<path d="M3072.9,1274.9c0.3,0.3,0.1,0,0.3,0.5c-0.1,0-0.2,0-0.3,0C3072.9,1275.2,3072.9,1275,3072.9,1274.9z"/>
	<path d="M3072.9,1275.9c0.2,0,0.4,0,0.5,0c0,0.2,0,0.4,0,0.5c-0.2,0-0.4,0-0.5,0C3072.9,1276.3,3072.9,1276.1,3072.9,1275.9z"/>
	<path d="M3046.9,1288.4c0,0.3,0,0.5,0,0.8c5,1.3,8.9,15.3,7.6,19.7c0.6,0.1,0.3-0.3,0.5,0.3c-1.3,1.8,1.6,15.4,2.7,17.3
		c0.2,0,0.4,0,0.5,0c0,0.5,0,1.1,0,1.6c1.3,3.2,1.9,8.9,3.8,11.6c0.2,0,0.4,0,0.5,0c0.2,2.9,1.1,8.7-0.5,11.1c-0.2,0-0.4,0-0.5,0
		c-0.7,1.2,0.4,2.5-1.1,3.2c0-0.1,0-0.2,0-0.3c-0.1,0-0.2,0-0.3,0c0.7,3-10.4,0.3-11.6,0c-0.9-2.8-2.2-6.7-3.2-8.7
		c0.1-0.3,0.2-0.5,0.3-0.8c-1-2.3-2.1-4.6-2.4-7.3c-0.2,0-0.4,0-0.5,0c0.1-0.3,0.2-0.5,0.3-0.8c0,0-0.2-1.2-0.3-1.4
		c-0.2,0-0.4,0-0.5,0c0-0.5,0-0.9,0-1.4c-0.2,0-0.4,0-0.5,0c0-0.5,0-0.9,0-1.4c-0.2,0-0.4,0-0.5,0c0-2.1-0.4-4.4-1.6-6.2
		c0.4-1,0.2-1.7-0.5-2.2c-1.2-3.9-2.2-11.5-2.2-15.4c-0.2,0.1-0.4,0.2-0.5,0.3c0-1.1,0-2.2,0-3.2c-0.7-0.9,0-2.4-0.5-3.5
		c-0.2,0-0.4,0-0.5,0c0-3.5-3.5-7.4,1.4-10.5c0.3,0,0.5,0,0.8,0c0.3-0.3,0-0.8,0.3-1.1c0.2,0,0.4,0,0.5,0c-0.1-0.2-0.2-0.4-0.3-0.5
		C3041.1,1287.2,3043.4,1288,3046.9,1288.4z"/>
	<path d="M3016.1,1321.4c0-0.3,0-0.5,0-0.8c-0.2,0-0.4,0-0.5,0c0-0.3,0-0.5,0-0.8c-1.1,0.6-1.9,0.2-2.2-1.4c-0.2,0-0.4,0-0.5,0
		c0-0.4,0-0.7,0-1.1c-0.8-1.1-3.2-1.9-3.8-2.7c0-0.4,0-0.7,0-1.1c-0.2,0-0.4,0-0.5,0c0-0.5,0-0.9,0-1.4c-0.2,0-0.4,0-0.5,0
		c0-0.3,0-0.5,0-0.8c-0.2,0-0.4,0-0.5,0c0-0.3,0-0.5,0-0.8c-0.2,0-0.4,0-0.5,0c-0.3-0.4-0.3-1.4-0.5-1.6c-0.4-0.1-0.7-0.2-1.1-0.3
		c0.1-0.2,0.2-0.4,0.3-0.5c-1.1-1.2-2.6-1.5-3-3.5c0.4-0.3,0.7-0.8,0.8-1.4l-0.8-0.5c-0.6-1.2,0.9-4.6-0.5-4.9c0.2,0,0.4,0,0.5,0
		c0.2-0.9,0.4-1.8,0.5-2.7c1.6-0.8,2.8-2,3.8-3.5c0-0.1,0-0.2,0-0.3c1.8-0.3,3.5,0,5.1,0.8c0.2,0.3,0.4,0.5,0.5,0.8
		c2.1,1,5.1,2.7,6.5,5.1c-0.1,0.3-0.2,0.5-0.3,0.8c0.2,0.2,0.9,0,1.1,0.3c0,3.4,4.8,9.4,3.8,13.3c-0.2,0-0.4,0-0.5,0
		C3021.3,1320.3,3026.6,1323.4,3016.1,1321.4z"/>
	<path d="M3021.7,1321.9c0,0.2,0,0.4,0,0.5c0.2,0,0.4,0,0.5,0c0-0.1,0-0.2,0-0.3C3022.1,1322.1,3021.9,1322,3021.7,1321.9z"/>
</g>
</svg>
