<?xml version="1.0" encoding="utf-8"?>
<!-- Generator: Adobe Illustrator 22.0.1, SVG Export Plug-In . SVG Version: 6.00 Build 0)  -->
<svg version="1.1" id="Layer_1" xmlns="http://www.w3.org/2000/svg" xmlns:xlink="http://www.w3.org/1999/xlink" x="0px" y="0px"
	 viewBox="0 0 6141.1 2472.2" style="enable-background:new 0 0 6141.1 2472.2;" xml:space="preserve">
<g>
	<path d="M3250.6,1317.6c0.1,0-0.3,1.2-1,3.4c-0.7,2.2-1.8,5.4-2.9,9.5c-2.3,8.2-5.4,20.2-6.2,35c-0.5,14.8-1.1,32.4,0.7,51
		c0.3,4.7,1.2,9.4,1.9,14.2c0.3,2.4,1,4.8,1.4,7.2c0.5,2.4,1,4.8,1.6,7.2c1.4,4.8,2.7,9.6,4.1,14.5c1.5,4.9,2.9,9.9,3.9,15
		c0.5,2.6,0.9,5.1,1.1,7.8c0.1,1.3,0.2,2.7,0.1,4.1c-0.1,1.4-0.2,2.8-1,4.4c-0.2,0.4-0.5,0.8-0.9,1.2c-0.5,0.4-0.9,0.7-1.5,0.8
		c-0.6,0.2-1.1,0.1-1.6,0c-0.4-0.1-0.9-0.3-1.3-0.5c-1.5-0.7-2.5-1.7-3.4-2.7c-1.9-2-3.4-4.1-4.9-6.3c-2.9-4.4-5.3-8.9-7.6-13.4
		c-2.1-4.6-4.2-9.2-6.3-13.8c-0.5-1.1-1-2.3-1.4-3.4c-0.4-1.2-0.9-2.3-1.3-3.5c-0.9-2.3-1.8-4.6-2.6-6.9c-0.9-2.3-1.8-4.5-2.6-6.8
		c-0.8-2.3-1.5-4.5-2.2-6.7c-1.5-4.4-2.9-8.8-4.3-13c-1.3-4.3-2.5-8.5-3.7-12.5c-1.2-4.1-2.4-8-3.5-11.8c-1-3.8-2-7.5-2.9-11
		c-1.8-7-3.6-13.4-4.9-19.1c-2.6-11.3-4.6-19.4-5.5-23.3c-3.3-15.5-6.1-29.6-7.6-39.9c-1.6-10.3-2.3-16.7-1.9-16.8
		c0.5-0.1,2.1,6.2,4.3,16.3c2.3,10.5,5.2,24.3,8.5,39.6c0.9,3.9,2.8,12,5.4,23.2c1.2,5.6,3.1,12,4.9,19c0.9,3.5,1.9,7.2,2.9,11
		c1.1,3.8,2.3,7.7,3.4,11.7c1.2,4,2.4,8.2,3.7,12.5c1.4,4.2,2.8,8.6,4.3,13c0.7,2.2,1.5,4.4,2.2,6.7c0.8,2.2,1.7,4.5,2.5,6.7
		c0.9,2.3,1.7,4.5,2.6,6.8c0.4,1.1,0.9,2.3,1.3,3.4c0.4,1.2,0.9,2.3,1.4,3.4c2,4.5,4.1,9,6.2,13.6c2.3,4.5,4.7,8.9,7.4,13.1
		c1.4,2.1,2.8,4.1,4.5,5.9c0.8,0.8,1.7,1.7,2.5,2.1c0.2,0.1,0.4,0.1,0.5,0.2c0.1,0,0.3,0.1,0.3,0c0.1,0,0.1-0.1,0.2-0.1
		c0.1-0.1,0.2-0.2,0.3-0.4c0.4-0.7,0.6-1.9,0.6-3.1c0.1-1.2,0-2.4,0-3.6c-0.2-2.5-0.6-5-1-7.5c-0.9-5-2.2-9.9-3.7-14.7
		c-1.4-4.9-2.7-9.8-4.1-14.7c-0.6-2.4-1-4.9-1.5-7.3c-0.5-2.4-1.1-4.8-1.4-7.3c-0.6-4.9-1.5-9.6-1.8-14.4c-0.2-2.4-0.4-4.7-0.6-7
		c-0.1-2.3-0.2-4.6-0.2-6.9c-0.2-4.5-0.1-9-0.1-13.3c0.1-4.3,0.2-8.5,0.3-12.5c0.2-4,0.2-7.9,0.5-11.7c1.1-15,4.5-27,7.1-35.2
		c1.3-4.1,2.6-7.3,3.4-9.4C3249.9,1318.7,3250.5,1317.6,3250.6,1317.6z"/>
	<path d="M3360.2,1311"/>
	<path d="M3256.7,1388.6c-0.2,0-0.4-1.7,0.1-4.5c0.4-2.8,1.2-6.8,2.2-11.6c2.1-9.6,5.2-22.4,8.1-35.5c5.9-26.3,10.5-54.2,11.1-59.3
		c0.8-5.1,1.6-9.8,2.4-13.1c0.8-3.3,1.5-5.4,1.9-5.3c0.5,0.1,0.6,2.2,0.5,5.6c-0.1,3.4-0.6,8.1-1.4,13.3
		c-0.7,5.2-5.3,33.2-11.6,59.5c-3.1,13.2-6.5,25.9-9.1,35.3c-1.3,4.7-2.4,8.6-3.1,11.3C3257.2,1387,3257,1388.5,3256.7,1388.6z"/>
	<path d="M3239.2,1408.4c0.2-0.1,1.2,1.3,3,3.7c1.8,2.4,4.4,5.9,7.8,9.8c3.4,4,7.7,8.1,13.1,11.9c2.7,1.9,5.5,3.8,8.5,5.6
		c3,1.8,6,3.6,9.2,4.8c1.6,0.7,3.2,1.2,4.7,1.3c0.7,0,1.4-0.1,1.7-0.3c0.3-0.2,0.5-0.6,0.6-1.2c0.2-1.3-0.2-3-0.7-4.6
		c-0.5-1.6-1.2-3.2-1.9-4.7c-1.4-3.1-3.2-6-4.9-8.7c-1.7-2.7-3.5-5.3-5.2-7.8c-3.3-5-6.2-9.3-8.4-12.8c-2.1-3.5-3.7-6-4.4-7.2
		c-5.8-9.5-9.5-17.9-8.7-18.3c0.9-0.5,5.8,7.1,11.6,16.5c0.7,1.2,2.2,3.7,4.4,7.1c2.1,3.4,5.1,7.7,8.3,12.7c1.6,2.5,3.4,5.1,5.2,7.9
		c1.8,2.8,3.5,5.8,5,9.1c0.8,1.6,1.4,3.3,2,5.1c0.5,1.8,1,3.7,0.7,6c-0.2,1.1-0.8,2.5-2.1,3.3c-1.2,0.8-2.5,0.8-3.5,0.8
		c-2.1-0.2-4-0.8-5.7-1.5c-3.5-1.5-6.6-3.3-9.6-5.2c-3-1.9-5.8-3.9-8.5-5.9c-1.4-1-2.7-2-3.9-3.1c-1.2-1.1-2.5-2.1-3.5-3.2
		c-1.1-1.1-2.1-2.2-3.1-3.2c-0.9-1.1-1.8-2.2-2.6-3.2c-3.3-4.1-5.7-7.8-7.2-10.4C3239.7,1410.1,3239,1408.5,3239.2,1408.4z"/>
	<path d="M3272,1077.1c-0.1,0.1-1.1-0.9-2.9-2.7c-0.9-0.9-2.2-1.8-3.6-3c-0.8-0.5-1.6-1-2.5-1.6c-0.4-0.3-0.9-0.6-1.4-0.8
		c-0.5-0.2-1-0.5-1.6-0.7c-4.2-2-9.9-3.4-16.5-3c-6.5,0.4-13.8,2.6-20.8,6.7c-7.1,4-13.9,9.8-20.3,16.8c-3.2,3.4-6.3,7.3-9.7,11
		c-1.7,1.9-3.4,3.8-5.1,5.7c-1.8,1.9-3.5,3.8-5.3,5.7c-7.3,7.6-15.2,15.2-23.7,22.4c-8.5,7.2-17.6,14.1-27.4,20.1
		c-9.8,6-20.2,11.1-31.2,14.8c-10.9,3.6-22.2,5.9-33.5,6c-11.2,0.1-22.1-1.9-32.1-5.3c-10-3.3-19-7.8-27.2-12.6
		c-8.2-4.8-15.4-9.9-21.9-14.7c-6.5-4.8-12.3-9.2-17.6-12.9c-10.2-7.6-19.3-9.3-23.5-10.2c-16.9-3.2-33-0.5-43.2,4.2
		c-2.6,1.2-4.7,2.5-6.6,3.7c-1.8,1.3-3.3,2.5-4.4,3.7c-2.2,2.2-3.2,3.8-3.4,3.6c-0.2-0.1,0.4-1.9,2.4-4.5c1-1.3,2.4-2.8,4.2-4.3
		c1.8-1.5,4.1-3,6.7-4.4c10.4-5.5,27.2-8.8,44.9-5.4c2.2,0.4,5.6,1.2,10,2.7c2.1,0.8,4.6,1.8,7.1,3.1c2.5,1.3,5,3.1,7.7,4.9
		c5.3,3.7,11.1,8.2,17.6,12.9c6.5,4.7,13.6,9.8,21.6,14.5c8,4.7,16.8,9.1,26.5,12.3c9.7,3.2,20.2,5.2,31,5.2
		c10.8,0,21.9-2.2,32.5-5.7c10.7-3.5,20.9-8.5,30.6-14.4c9.7-5.8,18.7-12.6,27.2-19.7c8.5-7.1,16.3-14.6,23.6-22
		c1.8-1.9,3.6-3.8,5.4-5.6c1.7-1.9,3.4-3.8,5.1-5.6c3.4-3.7,6.5-7.4,9.8-10.9c6.6-7,13.7-12.9,21-16.9c7.3-4.1,14.9-6.3,21.7-6.6
		c6.8-0.3,12.7,1.4,17,3.6c0.5,0.3,1.1,0.5,1.6,0.8c0.5,0.3,0.9,0.6,1.4,0.9c0.9,0.6,1.7,1.2,2.5,1.7c1.4,1.3,2.6,2.3,3.5,3.2
		C3271.3,1076,3272.1,1077.1,3272,1077.1z"/>
	<path d="M3249.4,1064.5c0,0,0.3-0.3,0.9-0.8c0.6-0.5,1.5-1.2,2.8-1.9c2.6-1.5,6.6-3.4,12.2-4.6c5.5-1.1,12.5-1.4,20.3,0.5
		c3.8,1,7.8,2.5,11.7,4.9c3.8,2.3,7.4,5.6,10.2,9.7c2.8,4.1,4.8,9.1,5.5,14.4c0.8,5.3,0.4,10.9-0.7,16.5c-1.2,5.5-3.1,11-5.5,16.5
		c-2.4,5.3-4.8,10.8-7.2,16.4c-4.7,11.2-9.1,23.1-12.6,35.4c-1.7,6.2-3.2,12.5-4.1,18.9c-0.9,6.4-1.2,13-0.3,19.3
		c0.9,6.3,3.5,12.5,8.1,16.7c0.6,0.5,1.2,1,1.8,1.5l1.2,0.8c0.5,0.5,1.7,0.8,1.2,1.7l-1.2,5.6c-0.3,1.7-0.9,3.3-1.3,4.9
		c-0.4,1.6-1,3.2-1.5,4.8c-2.2,6.4-5,12.5-8.5,18.2c-3.5,5.7-7.5,10.9-11.9,15.7c-4.4,4.8-9.2,9.2-14.1,13.1c-2.5,2-5,3.9-7.5,5.7
		c-1.3,0.9-2.5,1.8-3.9,2.6c-1.4,0.9-2.8,1.6-4.3,2.2c-6,2.3-12.4,2.5-18.3,1.8c-5.9-0.7-11.5-2.2-16.7-4.1
		c-10.5-3.8-19.6-8.7-27.5-14.1c-2-1.3-3.9-2.7-5.7-4.1c-0.9-0.7-1.8-1.4-2.6-2.2l-1-0.9c-0.1-0.1-0.2-0.2-0.3-0.3l0-0.4l0-0.8
		c0-0.6,0-1.2-0.1-1.7c0-1.1-0.1-2.2-0.1-3.2c0-1,0.1-2.1,0.1-3.1c0-2,0.2-4,0.3-5.9c0.5-7.6,1.4-14,2.2-19.2
		c0.8-5.2,1.5-9.1,2-11.7c3.7-20.3,8.8-38.2,13.1-51c2.2-6.4,4.2-11.5,5.8-14.9c1.6-3.4,2.6-5.3,2.8-5.2c0.5,0.2-2.5,8-6.2,20.8
		c-3.7,12.9-8.4,30.8-12.1,50.9c-0.5,2.5-1.2,6.4-1.9,11.5c-0.8,5.1-1.7,11.5-2.2,18.9c-0.1,1.9-0.3,3.8-0.3,5.7c0,1-0.1,2-0.1,3
		c0,1,0.1,2,0.1,3.1c0,0.5,0,1,0,1.5c0,0,0,0,0,0l0.2,0.2c0.8,0.7,1.6,1.4,2.5,2.1c1.7,1.4,3.5,2.7,5.4,4
		c7.6,5.2,16.6,10.1,26.7,13.7c5.1,1.8,10.4,3.3,16,3.9c5.5,0.7,11.4,0.5,16.7-1.6c1.3-0.5,2.6-1.1,3.8-1.9c1.2-0.7,2.5-1.7,3.7-2.5
		c2.5-1.8,5-3.6,7.4-5.5c4.8-3.9,9.5-8.1,13.8-12.8c4.3-4.7,8.2-9.7,11.6-15.2c3.4-5.5,6.2-11.4,8.3-17.5c0.6-1.5,1.1-3.1,1.5-4.7
		c0.4-1.6,0.9-3.1,1.3-4.7l0.9-4.2c0,0,0-0.1-0.1-0.1l-0.9-0.6c-0.7-0.5-1.3-1.1-2-1.7c-2.6-2.4-4.7-5.4-6.1-8.5
		c-1.5-3.2-2.4-6.6-2.9-10c-1-6.8-0.6-13.6,0.4-20.2c1-6.6,2.5-13,4.3-19.3c3.6-12.5,8.2-24.4,13-35.7c2.4-5.6,4.8-11.1,7.3-16.4
		c2.4-5.3,4.3-10.6,5.5-15.9c1.2-5.3,1.6-10.7,0.9-15.7c-0.7-5-2.4-9.7-5-13.6c-2.6-3.9-5.9-7-9.6-9.3c-3.6-2.3-7.4-3.8-11.1-4.8
		c-7.4-1.9-14.3-1.8-19.7-0.9c-5.4,0.9-9.5,2.6-12.1,4c-1.3,0.6-2.3,1.3-2.9,1.7C3249.8,1064.4,3249.4,1064.5,3249.4,1064.5z"/>
	<path d="M3019.5,1433.4c0.1,0,0.1,0.3,0.3,1c0.2,0.7,0.3,1.7,0.4,3c0.1,1.3,0.2,2.9,0.4,4.8c0.1,1,0.1,2,0.2,3.1
		c0,1.1,0.1,2.3,0.1,3.5c0.1,4.9,0.2,10.9,0.3,17.8c-0.1,6.9-0.2,14.7-0.4,23.1c-0.1,4.3-0.2,8.7-0.2,13.3
		c-0.1,4.6-0.2,9.3-0.1,14.2c0.1,4.9,0.4,9.9,1.2,14.9c0.4,2.5,0.9,5,1.9,7.2c0.5,1.1,1.1,2.1,1.9,2.7c0.7,0.5,1.5,0.6,2.4,0.1
		c1.9-1,3.6-3.2,5-5.4c1.4-2.2,2.7-4.6,3.8-7.1c2.3-5,4.1-10.3,5.7-15.7c3.3-10.8,6.1-22.1,8.5-33.5c2.3-11.4,4.2-23,5.7-34.6
		c1.3-11.6,2.1-23.1,2.3-34.3c-0.1-5.6,0-11.2-0.5-16.6c-0.2-2.7-0.3-5.4-0.6-8.1c-0.3-2.7-0.7-5.3-1-7.9c-1.7-10.4-4-20.3-7.4-29.1
		c-6.5-17.9-15.1-32.5-22.2-43.5c-7.2-11-12.7-18.7-15.4-22.4c-5.3-7.3-10.3-14.3-14.8-20.7c-2.2-3.3-4.4-6.3-6.2-9.3
		c-1.9-3-3.6-5.7-5-8.4c-0.7-1.3-1.4-2.5-2.1-3.7c-0.6-1.2-1.1-2.4-1.6-3.5c-1-2.2-1.9-4-2.3-5.6c-1-3.2-1.5-5-1.3-5
		c0.6-0.2,3,6.7,9.4,16.6c1.5,2.5,3.3,5.2,5.3,8c1.9,2.9,4.1,5.8,6.4,9c4.6,6.3,9.7,13.3,15,20.6c2.6,3.7,8.2,11.4,15.5,22.5
		c7.1,11.1,15.9,25.9,22.5,44.2c3.5,9.1,5.9,19.2,7.6,29.8c0.3,2.7,0.7,5.4,1,8.1c0.4,2.7,0.4,5.5,0.6,8.2
		c0.5,5.5,0.3,11.2,0.4,16.9c-0.2,11.4-1.1,23-2.4,34.7c-1.5,11.6-3.4,23.3-5.9,34.8c-2.4,11.5-5.3,22.8-8.7,33.8
		c-1.7,5.5-3.6,10.9-6,16c-1.2,2.6-2.5,5.1-4.1,7.4c-1.6,2.3-3.2,4.7-6.1,6.3c-0.7,0.3-1.6,0.6-2.6,0.6c-0.2,0-0.5,0-0.7-0.1
		l-0.7-0.2c-0.5-0.1-0.8-0.4-1.2-0.7c-1.4-1.1-2.1-2.5-2.6-3.7c-1.1-2.6-1.6-5.3-2-7.9c-0.8-5.2-1-10.3-1.1-15.2
		c-0.1-4.9,0-9.7,0.2-14.3c0.1-4.6,0.3-9,0.4-13.3c0.3-8.5,0.5-16.2,0.8-23.1c0.1-6.8,0.1-12.8,0.2-17.7c0-1.2,0-2.4,0-3.5
		c0-1.1-0.1-2.1-0.1-3.1c0-1.9-0.1-3.5-0.1-4.8c0-1.3-0.1-2.3-0.1-3C3019.5,1433.8,3019.5,1433.4,3019.5,1433.4z"/>
	<path d="M2906.1,1558.2c-0.1,0,0.1-1,0.5-2.8c0.3-0.9,0.6-1.9,1.1-3.2c0.6-1.2,1.1-2.6,2-4.1c3.2-6.1,9.4-13.8,17.7-22.2
		c16.6-16.8,41.7-36.2,66.3-57c6.2-5.2,12.3-10.6,18.2-16c5.9-5.5,11.6-11,16.1-17.2c9.2-12.3,14-26.7,15.8-39.6
		c1.9-13,1-24.6-0.1-33.5c-1.2-8.9-2.8-15.3-3.5-18.3c-6-24.1-14.9-42.3-13.9-42.8c0.4-0.2,3.1,4.1,6.6,11.6
		c3.5,7.5,7.6,18.1,10.7,30.4c0.7,3.1,2.3,9.5,3.6,18.7c1.1,9.1,2,21.1,0.1,34.5c-1.9,13.3-6.9,28.2-16.6,41.1
		c-1.2,1.6-2.4,3.2-3.8,4.7c-1.3,1.6-2.7,3-4.1,4.5c-2.8,2.9-5.8,5.6-8.7,8.4c-6,5.5-12.2,10.8-18.4,16
		c-24.9,20.7-50.1,39.8-66.9,56.2c-8.4,8.1-14.7,15.5-18.1,21.3C2907,1554.4,2906.4,1558.3,2906.1,1558.2z"/>
	<path d="M3022.8,1478.3c0.3,0.3-2.5,3.3-7.1,7.4c-4.6,4.1-10.9,9.5-18.2,14.1c-1.9,1.1-3.8,2.2-5.9,3c-1.1,0.4-2.2,0.7-3.5,0.8
		c-1.2,0.1-3-0.2-4.1-1.5c-1.1-1.3-1.2-2.7-1.3-3.8c0-1.2,0.1-2.2,0.3-3.3c0.3-2,0.9-3.9,1.5-5.6c2.3-6.7,4.8-11.4,5.5-12.9
		c2.9-5.9,6.2-10.2,7-9.7c0.8,0.5-1.1,5.4-3.9,11.2c-0.7,1.5-3.1,6.1-5.4,12.5c-0.5,1.6-1.1,3.3-1.4,5.1c-0.2,0.9-0.3,1.8-0.2,2.6
		c0,0.8,0.2,1.5,0.5,1.8c0.2,0.3,0.7,0.5,1.5,0.4c0.8,0,1.7-0.3,2.6-0.6c1.8-0.6,3.7-1.6,5.4-2.6c7.1-4.2,13.6-9.4,18.4-13.1
		C3019.3,1480.4,3022.5,1478,3022.8,1478.3z"/>
	<path d="M2929.1,1362.1c-0.2,0.1-2.1-1.9-4.6-6.3c-2.4-4.3-5.4-11-6.4-19.7c-0.1-1.1-0.2-2.2-0.3-3.3c0-0.6,0-1.1-0.1-1.7
		c0-0.6,0.1-1.2,0.1-1.8c0-0.6,0.1-1.2,0.1-1.8c0.1-0.6,0.2-1.2,0.3-1.8c0.2-1.2,0.4-2.4,0.8-3.6c1.2-4.9,2.9-9.8,4.4-15
		c1.5-5.2,2.7-10.6,3.3-16.2c0.5-5.6,0.4-11.3-0.5-17c-0.2-1.4-0.6-2.8-0.9-4.2c-0.3-1.4-0.5-2.8-1.1-4.2c-1-2.7-1.7-5.5-2.9-8.1
		c-0.6-1.3-1.2-2.6-1.7-4c-0.5-1.3-1.3-2.5-2-3.8c-1.4-2.5-2.7-5-4.2-7.4c-5.9-9.8-11.5-19.1-16.2-27.6c-4.7-8.5-8.3-16.4-10.5-22.7
		c-1.2-3.2-1.9-6-2.6-8.2c-0.5-2.3-1-4-1.2-5.2c-1.9-9.1-2.2-17.4-2.1-23.4c0.1-6,0.7-9.7,1.1-9.7c0.5,0,0.8,3.7,1.3,9.6
		c0.4,5.9,1.2,14,3,22.8c0.3,1.1,0.7,2.8,1.2,5c0.7,2.2,1.4,4.9,2.5,8c2.2,6.2,5.7,13.8,10.3,22.3c4.6,8.5,10.2,17.8,16,27.6
		c1.5,2.4,2.9,5,4.3,7.6c0.7,1.3,1.5,2.6,2,3.9c0.6,1.4,1.2,2.7,1.8,4.1c1.3,2.7,2,5.6,3,8.5c0.5,1.4,0.7,2.9,1.1,4.4
		c0.3,1.5,0.7,2.9,0.9,4.4c0.8,6,0.9,12,0.3,17.8c-0.7,5.8-2,11.4-3.6,16.6c-1.6,5.2-3.4,10.1-4.6,14.8c-0.4,1.2-0.6,2.3-0.8,3.5
		c-0.1,0.6-0.2,1.1-0.3,1.7c0,0.6-0.1,1.1-0.1,1.7c0,0.6-0.1,1.1-0.1,1.6c0,0.6,0,1.1,0,1.6c0,1.1,0,2.2,0.2,3.2
		c0.7,8.4,3.3,15,5.4,19.4C2927.6,1359.6,2929.3,1361.9,2929.1,1362.1z"/>
	<path d="M2701.4,1400.6c0-0.1,0.8,0.1,2.2,0.7c1.4,0.5,3.3,1.4,5.9,2.4c5.1,2,12.4,4.6,21.6,7c9.1,2.4,20,4.6,31.8,6
		c11.9,1.4,24.7,2.1,37.7,1.7c13-0.3,26.1-1.7,38.3-4.4c12.2-2.6,23.6-6.6,32.5-12.2c9.1-5.7,17-10.8,23.1-14.8
		c6.1-4,10.4-7.1,12.5-8.6c8.1-5.8,15.1-11.5,19.2-16.5c1.1-1.2,1.9-2.4,2.7-3.4c0.7-1,1.2-2,1.7-2.8c0.7-1.6,1.3-2.5,1.5-2.5
		c0.2,0.1,0.1,1.1-0.3,3c-0.3,0.9-0.7,2-1.3,3.2c-0.7,1.2-1.4,2.6-2.4,3.9c-3.9,5.6-10.9,11.8-19.2,17.8c-2.1,1.5-6.4,4.6-12.6,8.6
		c-6.2,4.1-14.1,9.1-23.2,14.8c-9.4,5.8-21.1,9.8-33.6,12.5c-12.5,2.6-25.8,4-38.9,4.2c-13.1,0.3-26.1-0.6-38.1-2.2
		c-11.9-1.6-22.9-4-32-6.7c-9.1-2.7-16.5-5.6-21.5-7.9c-2.5-1.1-4.4-2.1-5.7-2.9C2702,1401.1,2701.3,1400.7,2701.4,1400.6z"/>
	<path d="M2987.7,1176.2c0.2,0,0.3,2-0.5,5.4c-0.8,3.4-2.5,8.2-5.7,13.3c-1.5,2.6-3.4,5.3-5.7,8c-2.2,2.7-4.7,5.4-7.5,8
		c-1.4,1.3-2.9,2.6-4.4,3.8c-0.9,0.7-1.8,1.4-2.7,2.1l-1.1,0.8l-1.1-0.7l-1.6-1.1c-1.7-1.1-3.3-2.4-4.9-3.7
		c-1.6-1.3-3.1-2.8-4.6-4.2c-5.9-6-10.8-13-14.3-20.3c-0.8-1.8-1.7-3.6-2.5-5.5c-0.7-1.9-1.3-3.7-2-5.5c-0.6-1.8-1-3.6-1.5-5.4
		c-0.2-0.9-0.5-1.7-0.7-2.6c-0.2-0.9-0.3-1.7-0.5-2.6c-0.3-1.7-0.6-3.3-0.8-4.9c-0.1-1.6-0.3-3.1-0.4-4.6c-0.3-2.9-0.3-5.6-0.3-8
		c0-1.2,0-2.3,0-3.3c0-1,0.1-1.9,0.2-2.7c0.2-1.6,0.3-2.9,0.3-3.7c1.4-12.8,5.6-22.5,6.3-22.2c1.1,0.3-1.6,10.2-2.9,22.6
		c-0.1,0.8-0.2,2-0.3,3.6c-0.1,0.8-0.2,1.7-0.2,2.6c0,1,0,2,0,3.2c0,2.3-0.1,4.9,0.2,7.7c0.1,1.4,0.2,2.9,0.4,4.4
		c0.2,1.5,0.5,3.1,0.8,4.7c0.1,0.8,0.3,1.6,0.4,2.5c0.2,0.8,0.4,1.7,0.6,2.5c0.5,1.7,0.9,3.4,1.4,5.2c0.6,1.7,1.2,3.5,1.9,5.3
		c0.7,1.8,1.6,3.5,2.3,5.3c3.4,7,8,13.8,13.6,19.6c1.4,1.4,2.9,2.8,4.3,4.1c1.5,1.2,3,2.6,4.6,3.6l0.9,0.6l0.1,0.1l0.1-0.1
		c0.7-0.5,1.3-1,2-1.5c1.5-1.2,3-2.4,4.3-3.6c2.8-2.5,5.3-5,7.5-7.6c2.2-2.5,4.2-5.1,5.8-7.5c3.3-4.9,5.2-9.4,6.3-12.6
		C2987.2,1178.1,2987.5,1176.2,2987.7,1176.2z"/>
	<path d="M2916.3,1243.7c-0.1-0.2,1.1-1.3,2.1-3.8c1-2.5,1.5-6.5,0.9-11.3c-0.2-1.2-0.5-2.4-0.8-3.7c-0.1-0.6-0.3-1.3-0.4-1.9
		c-0.2-0.7-0.4-1.3-0.6-2c-0.8-2.7-1.6-5.7-2.3-8.7c-1.6-6.1-3-12.7-4-19.5c-1-6.8-1.7-13.7-1.8-20.4c-0.1-6.7,0.4-13,1.2-18.7
		c1.7-11.3,5.3-19.3,6.5-21.7c2.3-4.9,5-9,7.4-11.5c2.3-2.6,4.1-3.9,4.4-3.6c0.8,0.7-4.5,7.3-8.7,16.6c-1.1,2.3-4.5,9.9-6.2,20.8
		c-0.9,5.4-1.4,11.6-1.3,18.1c0,6.5,0.6,13.3,1.5,20c0.9,6.7,2.2,13.2,3.6,19.3c0.7,3,1.4,5.9,2.1,8.7c0.2,0.7,0.3,1.4,0.5,2.1
		c0.1,0.7,0.2,1.4,0.4,2.1c0.2,1.4,0.5,2.6,0.6,3.9c0.4,5.1-0.5,9.4-1.9,12C2918.1,1243,2916.4,1243.9,2916.3,1243.7z"/>
	<path d="M2985.1,1205.1c-1.6,5.6-3.1,11.2-4.3,15.3c-0.6,2.1-1.2,3.8-1.6,5.1c-0.4,1.2-0.7,1.9-0.7,1.9s0.4-0.7,1.1-1.7
		c0.7-1.1,1.7-2.7,2.7-4.6c2.1-3.9,4.4-9.4,6.1-15.1c1.6-5.7,2.4-11.6,2.5-16.1c0-1.1,0-2.1-0.1-3.1c-0.1-0.9-0.2-1.7-0.3-2.3
		c-0.3-1.2-0.4-2-0.4-2s0,0.8-0.1,2c-0.1,0.7-0.2,1.4-0.3,2.3c-0.2,0.9-0.4,1.9-0.5,2.9C2988.3,1194,2986.7,1199.6,2985.1,1205.1z"
		/>
	<path d="M3241.1,1130.8c0.1,0-0.4,0.9-1.6,2.3c-1.2,1.4-3.1,3.2-5.8,5.4c-5.2,4.3-13.1,10-23.1,16.2c-19.8,12.4-47.9,27-78.5,37.5
		c-15.3,5.2-31.2,9.4-46.8,11.4c-15.6,1.9-30.8,1.1-43.9-1c-13.2-2.1-24.5-5.4-33.1-8.2c-8.7-2.8-14.8-5.2-17.7-6.3
		c-11.6-4.5-21.9-9.1-29.4-11.8c-3.8-1.4-6.9-2.2-9.1-2.6c-0.5-0.1-1-0.2-1.5-0.3c-0.4,0-0.8-0.1-1.1-0.1c-0.6-0.1-0.9-0.2-0.9-0.3
		c0-0.1,0.3-0.2,0.9-0.4c0.3-0.1,0.7-0.1,1.1-0.2c0.5,0,1,0,1.6,0c2.3,0,5.7,0.5,9.7,1.6c8,2.2,18.4,6.4,30,10.9
		c2.9,1.1,9,3.5,17.5,6.3c8.6,2.8,19.7,6,32.6,8.1c12.9,2.1,27.7,2.9,43,1.1c15.3-1.9,31-6,46.2-11c30.4-10.2,58.5-24.5,78.4-36.3
		c10-5.9,18-11.3,23.4-15.4c2.7-2,4.7-3.7,6-4.9C3240.4,1131.5,3241,1130.7,3241.1,1130.8z"/>
	<path d="M3245.5,1008.3c0.1,0,0,0.5-0.6,0.8c-0.6,0.4-1.6,0.6-2.7,0.5c-2.3-0.2-5.3-1.2-8.6-2.9l-0.8-0.4l-1-0.6
		c-0.2-0.1-0.2-0.3-0.1-0.5l0.1-0.6l0.1-1.1c0.1-1,0.3-2,0.5-3.1c0.1-0.6,0.3-1.1,0.6-1.8c0.4-0.8,1.1-1.5,1.9-1.7
		c0.4-0.1,0.9,0,1.3,0.1c0.2,0.1,0.4,0.2,0.6,0.3l0.4,0.2c0.3,0.2,0.4,0.2,0.6,0.3l0.7,0.2c2,0.5,4.2,0.9,6.5,1.2
		c1.1,0.2,2.3,0.4,3.4,0.6c0.6,0.1,1.2,0.2,1.8,0.4c0.3,0.1,0.6,0.1,1,0.3c0.4,0.1,0.9,0.5,1.3,0.8l1.1,1.7c0.4,0.5,0.7,1.1,1,1.6
		c0.2,0.4,0.5,0.8,0.7,1.3l0,0.1c0.1,0.1,0.1,0.1,0.1,0.1c0-0.1,0-0.2,0-0.2l0-0.1l0,0c0-0.3,0-0.7,0-1c-0.1-3.1,0.7-4.9,0.9-5.7
		c1-3,2.2-5.5,3-7.2c0.9-1.7,1.4-2.9,1.9-2.8c0.4,0,0.7,1.4,0.4,3.5c-0.3,2.1-1.2,4.8-2,7.5c-0.2,0.7-0.8,2.5-0.8,4.6l0,0.4
		c0,0.2,0,0.2,0,0.6c0.1,0.7,0.2,1.4,0.2,2.1c0.2,1.4,0.3,2.9,0.5,4.5c0.3,3.1,0.7,6.5,1.1,10.1c-2-3.6-4.1-7.4-6.3-11.4
		c-0.9-1.5-1.7-3-2.6-4.6c-0.3-0.5-0.6-1-0.8-1.4l-0.8-1.3c0,0,0,0-0.1-0.1c-0.1-0.1-0.4-0.1-0.6-0.2c-0.5-0.1-1-0.3-1.5-0.4
		l-3.3-0.7c-2.2-0.4-4.5-0.8-6.7-1.5c-0.3-0.1-0.6-0.2-0.9-0.3c-0.3-0.1-0.7-0.3-0.8-0.4l-0.3-0.2l-0.1-0.1c0,0-0.1-0.1-0.2-0.1
		c-0.1,0-0.2,0.1-0.3,0.2c-0.1,0.2-0.3,0.7-0.4,1.1c-0.3,0.9-0.5,1.8-0.6,2.8l0,0.2l0,0.1l0,0.1c0,0.1-0.1,0.2,0,0.2l0.2,0.1
		l0.1,0.1l0.3,0.2c3,1.8,5.8,3,7.7,3.5c1,0.2,1.7,0.2,2.2,0.1C3245.2,1008.5,3245.4,1008.2,3245.5,1008.3z"/>
	<path d="M3232.9,1044.6c0,0-0.1-0.2-0.3-0.6c-0.2-0.4-0.4-1-0.6-1.8c-0.5-1.6-1-3.9-1.3-6.8c-0.6-5.6-0.5-13.6,2.8-20.9
		c0.1-0.3,0.3-0.5,0.5-0.8c0.5-0.7,1.4-0.9,2.2-0.4c0.7,0.4,1,1.3,0.8,2c-0.1,0.3-0.2,0.5-0.3,0.7c-3,6.4-3.9,13.8-4.2,19.3
		c-0.1,2.8,0,5.1,0.1,6.7c0.1,0.8,0.2,1.4,0.3,1.9C3232.8,1044.3,3232.9,1044.6,3232.9,1044.6z"/>
	<path d="M3252.8,1036.6c-2.4,0.3-4.9,0.4-7,0.1l-1-0.2c-0.3-0.1-1,0-1.5,0c-0.5,0.2-1.1,0.4-1.4,0.9c-0.4,0.4-0.5,0.8-0.8,1.2
		c-0.5,1.3-0.8,2.3-1.2,3.3c0.5,0,1,0.1,1.6,0.1c0.2-0.3,0.7-0.5,0.5-0.5c0-0.1-0.1-0.1-0.1-0.1c-0.1-0.1-0.1-0.3-0.2-0.5
		c-0.1-0.2-0.1-0.4-0.2-0.6c-0.1-0.2-0.1-0.3-0.2-0.8c-0.2-1.5-0.4-2.8-0.4-4.2c-0.3-0.2-0.5-0.3-0.6-0.5c-0.1-0.1-0.1-0.2-0.2-0.3
		c-0.1,0-0.4,0-0.6,0c-0.4,0.1-0.7,0.4-1,0.6c-0.3,0.3-0.5,0.6-0.7,1c-0.4,0.8-0.7,1.5-0.9,2.3c-0.1,0.4-0.2,0.7-0.3,1.1
		c-0.1,0.3-0.1,0.5-0.2,0.8c-0.3,2-0.4,3.2-0.4,3.2s0.4-1.2,1-3c0.1-0.2,0.2-0.5,0.3-0.7c0.1-0.2,0.2-0.4,0.3-0.6
		c0.2-0.4,0.4-0.7,0.6-1c0.3-0.3,0.5-0.5,0.8-0.5c0.1,0,0.2,0,0.2,0.1l0,0.4c0,0.3,0,0.5,0,0.8c0,0.4,0,0.8-0.1,1.2c0,0,0,0.4,0,0.6
		c0,0.2,0.1,0.5,0.1,0.8c0,0.3,0.1,0.5,0.2,0.8c0.1,0.3,0.2,0.7,0.7,1.1l1.2,1.2l0.8-1.7c0.5-1,1-2.2,1.5-3.1
		c0.1-0.1,0.2-0.3,0.2-0.3c0,0,0.1,0,0.1,0l0.3,0.1l0.8,0.2c2.8,0.6,5.4,0.5,8.1,0.2c4.1-0.5,8.2-2,11.4-4.4
		c2.9-2.1,5.8-3.8,8.4-4.8c2.7-1.1,5-1.6,6.7-1.8c0.4,0,0.8-0.1,1.1-0.1c0.3,0,0.6,0,0.8,0c0.5,0,0.7,0,0.7,0s-0.2-0.1-0.7-0.2
		c-0.2-0.1-0.5-0.1-0.8-0.2c-0.3,0-0.7-0.1-1.2-0.1c-1.7-0.1-4.3-0.1-7.2,0.7c-2.9,0.7-6.3,2.1-9.5,4.1
		C3260,1035,3256.4,1036.1,3252.8,1036.6z"/>
	<path d="M3280.5,1024.2c0.1-2-0.9-3.8-1.9-4.9c-1-1.1-2-1.5-2-1.5s-0.3,1.1-0.5,2.3c-0.3,1.3-0.7,2.7-0.8,3.9
		c0,1.3,0.3,2.3,0.3,3.4c0,0.5-0.2,1-0.4,1.4c-0.2,0.3-0.3,0.6-0.3,0.6c0-0.1,1,0.5,2.6-0.3
		C3279.1,1028.3,3280.5,1026.2,3280.5,1024.2z"/>
	<path d="M3282.4,1019.3c0,0-0.1-0.2-0.3-0.5c-0.2-0.3-0.5-0.7-1-1.2c-0.9-0.9-2.5-1.8-4.5-2.8c-1.1-0.5-2.2-1-3.3-1.6
		c-1.2-0.6-2.4-1.1-3.8-2c-1.4-0.9-2.6-2.4-3.2-4c-0.6-1.6-0.9-3.3-1.1-4.7c0-0.2-0.1-0.5-0.1-0.7c0.1-0.8,0.7-1.5,1.5-1.6
		c0.8-0.1,1.6,0.4,1.9,1.1c0.1,0.2,0.1,0.4,0.1,0.7c0.4,3,0.8,5.5,2.7,6.9c0.9,0.8,2.1,1.6,3.2,2.3c1.1,0.7,2.1,1.4,3,2.1
		c1.8,1.4,3.3,2.8,4,3.9c0.4,0.6,0.6,1.1,0.7,1.4C3282.3,1019.1,3282.4,1019.3,3282.4,1019.3z"/>
	<path d="M3265.5,994c0.1-0.1,0.5,0.4,1.1,1.2c0.6,0.8,1.6,1.9,3.2,2.5c1.6,0.6,3.7,0.5,5.9-0.6c1.1-0.5,2.1-1.2,3.2-2.1l0.7-0.7
		l0.6-0.7c0.4-0.5,0.7-1.1,1-1.7c1.2-2.5,1.8-5.7,1.9-9c0.1-3.2-0.2-6.7-1.4-9.5c-0.7-1.6-1.3-2-2.6-2c-1.2,0-2.7,0.6-4,1.5
		c-1.3,0.9-2.4,2-3.3,3.2c-0.9,1.4-1.5,1.6-2.1,5.6l-0.8,0.2c-0.4,0.1-0.8,0.1-1,0.1c-0.3,0-0.5-0.1-0.8-0.2
		c-0.2-0.1-0.4-0.2-0.6-0.4c-0.1-0.1-0.2-0.2-0.3-0.3l-0.1-0.2l0-0.1l0,0l0,0c0.4-1.4,0.1-0.4,0.2-0.7l0,0l0,0l0,0
		c0,0.1,0,0.2,0,0.5c0,0.2,0,0.1,0,0.1s0,0-0.1,0l-0.1,0c0,0,0,0-0.2,0.1l-0.2,0.1l-0.6,0.4c-0.9,0.6-1.7,1.2-2.5,1.7
		c-0.4-2-0.8-4-1.1-5.9c-0.2-1.2-0.1-2.3-0.2-3.4c-0.1-1.1,0.1-2.1,0.1-3.1c0.1-1,0.1-1.9,0.4-2.8c0.4-1.7,0.7-3.2,1.1-4.3
		c0.4-1.1,0.7-2,0.9-2.5c0.3-1,0.9-1.9,1.4-2.7c0.5-0.9,0.9-1.7,1.5-2.4c1.1-1.4,2.1-2.8,3-3.7c2-1.9,3.4-2.8,3.7-2.5
		c0.8,0.8-3.5,5.6-6.4,12.7c-0.2,0.5-0.5,1.3-0.9,2.3c-0.4,1-0.6,2.4-1,3.9c-0.2,0.8-0.2,1.6-0.3,2.5c-0.1,0.9-0.2,1.8-0.1,2.8
		c0.1,1,0,2,0.2,3l0.1,0.8c0,0.2,0,0.1,0,0.1l0,0c0,0,0,0,0,0l0,0l0,0l0,0c-0.1,0-0.1,0,0,0l0.3-0.1c0.4-0.1,0.9-0.2,1.5-0.1
		c0.3,0.1,0.2,0.1,0.2,0.1l0,0c0,0,0,0,0,0c0-0.1,0,0,0.5-1.1c0.2-0.4,0.5-0.8,0.7-1.2c0.2-0.4,0.5-0.8,0.8-1.1
		c1.2-1.5,2.5-2.8,4.1-3.8c1.6-1,3.4-2,5.8-2c0.6,0,1.2,0.1,1.8,0.3c0.6,0.1,1.1,0.5,1.6,0.9c0.5,0.4,0.8,0.9,1.2,1.4
		c0.3,0.5,0.5,0.9,0.7,1.4c0.8,1.8,1.1,3.7,1.3,5.5c0.2,1.8,0.2,3.6,0.1,5.4c-0.2,3.5-1,6.9-2.5,9.9c-0.4,0.7-0.9,1.4-1.4,2.1
		l-0.9,0.9l-0.9,0.7c-1.2,0.9-2.5,1.7-3.8,2.2c-2.6,1.1-5.4,1.1-7.3,0.1c-1.9-1-2.8-2.5-3.3-3.5C3265.4,994.6,3265.3,994,3265.5,994
		z"/>
	<path d="M3291.2,1042.2c-0.2-0.1,0.5-2.5,2.5-6.4c2-3.8,5.3-9.3,10.7-14.6c2.6-2.7,5.2-5.7,8-8.9c2.6-3.4,5.5-6.8,7.8-10.9
		c0.6-1,1.3-1.9,1.8-3c0.5-1.1,1.1-2.1,1.6-3.2c0.5-1.1,1.2-2.1,1.6-3.3c0.4-1.1,0.9-2.3,1.3-3.4c1.8-4.6,2.9-9.5,3.8-14.5
		c0.5-2.5,0.8-5,1.2-7.6c0.4-2.4,0.2-4.7-0.5-7c-1.3-4.6-4.3-8.6-7.5-12.2c-6.6-7.1-14.3-12.7-21.2-17.5c-3.5-2.4-6.8-4.6-9.7-6.7
		c-1.5-1-2.9-2.1-4.3-3.1c-0.7-0.5-1.3-1-1.9-1.5c-0.6-0.4-1.2-0.8-1.8-1.2c-4.6-3.1-8.5-4.5-10.3-5.1c-7.2-2.6-14.3-3.5-19.3-3.5
		c-2.5,0-4.5,0.2-5.9,0.6c-0.7,0.1-1.2,0.3-1.5,0.4c-0.4,0.1-0.6,0.1-0.7,0c-0.1-0.1,0-0.3,0.3-0.6c0.3-0.3,0.7-0.7,1.4-1.1
		c1.4-0.8,3.5-1.4,6.2-1.7c5.4-0.7,12.9-0.1,20.6,2.7c1.9,0.7,6.1,2.1,11.1,5.5c0.6,0.4,1.3,0.9,1.9,1.4c0.6,0.5,1.2,0.9,1.9,1.4
		c1.3,1,2.7,2,4.2,3c3,2.1,6.3,4.3,9.7,6.7c6.9,4.9,14.8,10.5,21.7,18.1c3.4,3.8,6.6,8.2,8.1,13.5c0.8,2.6,1,5.6,0.5,8.3
		c-0.4,2.6-0.8,5.1-1.3,7.7c-1.1,5.1-2.3,10.2-4.2,14.9c-0.5,1.2-0.9,2.4-1.4,3.5c-0.4,1.2-1.1,2.2-1.7,3.4
		c-0.6,1.1-1.2,2.2-1.7,3.3c-0.6,1.1-1.3,2-2,3.1c-2.5,4.1-5.6,7.6-8.3,11c-3,3.2-5.8,6.2-8.4,8.8c-5.4,5-8.8,10.1-11.1,13.8
		C3292.4,1040.1,3291.4,1042.3,3291.2,1042.2z"/>
	<path d="M3285.6,950.7c0.1,0.1-0.2,0.5-0.7,1.3c-0.3,0.4-0.6,0.8-1,1.4c-0.2,0.3-0.4,0.6-0.6,0.9c-0.1,0.2-0.3,0.4-0.4,0.6
		c-0.2,0.2-0.3,0.5-0.5,0.8c-0.6,1-1.2,2-1.9,3.1c-0.4,0.6-0.7,1.1-1.1,1.7c0,0-0.1,0.1-0.1,0.1l0-0.1l-0.1-0.2l-0.2-0.5
		c-0.1-0.4-0.2-0.6-0.2-0.9c-0.2-0.6-0.3-1.3-0.4-2.1c-0.1-0.3-0.1-0.9-0.1-1.4c0-0.5,0-1,0-1.5c0-0.8,0.1-1.6,0.1-2.4
		c0.1-0.9,0-0.8,0-1l-0.3-0.1l-0.1,0l-0.5-0.1c-0.6-0.2-1.2-0.4-1.9-0.6c-1.3-0.4-2.5-0.8-3.8-1.2c-1.3-0.4-2.6-0.9-3.9-1.4
		c-1.3-0.5-2.6-1-3.9-1.5c-1.3-0.5-2.6-1-3.9-1.7c-1.3-0.6-2.6-1.2-3.8-1.9c-0.6-0.3-1.2-0.7-1.9-1c-0.6-0.4-1.2-0.8-1.8-1.3
		c-1.2-0.7-2.2-1.9-3.2-2.8c-1.8-2.2-3.1-4.7-3.6-7.1c-0.4-1.2-0.4-2.3-0.6-3.4c-0.1-1.1-0.1-2.1-0.1-3c0.1-3.8,0.2-6.2,0.2-7.3
		c0-3.2-0.3-5.9-0.8-7.9c-0.5-2-0.8-3.4-0.4-3.6c0.2-0.1,0.6,0.1,1,0.5c0.5,0.5,1,1.2,1.6,2.2c0.6,1,1.1,2.3,1.5,3.8
		c0.3,1.5,0.5,3.2,0.5,4.9c0,1.1-0.1,3.9-0.2,7.3c0,3.4,0.5,7.8,3.4,11.4c3,3.5,8.1,5.8,13.2,8c1.3,0.6,2.5,1.1,3.8,1.6
		c1.3,0.5,2.5,1,3.8,1.4c1.3,0.5,2.5,0.9,3.7,1.3c0.6,0.2,1.2,0.4,1.8,0.6c0.9,0.3,1.9,0.6,2.8,0.9c-0.2,1.6-0.3,3.1-0.5,4.6
		c-0.1,0.4-0.1,0.9-0.1,1.5c0,0.2,0,0.6,0.1,0.8c0.1-0.1,0.2-0.3,0.3-0.4c0.3-0.4,0.5-0.7,0.7-1l0.2-0.3c0.1-0.1,0.2-0.2,0.3-0.3
		c0.3-0.3,0.5-0.6,0.7-0.8c0.4-0.5,0.9-0.9,1.3-1.2C3285,950.8,3285.5,950.5,3285.6,950.7z"/>
	<path d="M3289.2,955.3c-0.3,0.3-0.8,0.6-0.9,0.6c0,0-0.1,0.1-0.2,0c-0.1-0.2-0.2-0.7-0.3-1.1c-0.1-0.4-0.1-0.8-0.2-1.2
		c-0.2-1.5-0.4-2.5-0.4-2.5s-0.2,1-0.5,2.5c-0.1,0.4-0.1,0.8-0.1,1.2c0,0.5-0.1,0.9,0.1,1.5c0,0.3,0.3,0.8,0.6,1
		c0.4,0.2,0.9,0.3,1.3,0.1c0.8-0.2,1.1-0.5,1.6-0.9c0.3-0.2,0.6-0.5,1.1-0.9c0.1,0,0.1-0.1,0.2-0.1l0,0c0,0,0.1,0,0.1,0
		c0,0,0.1,0,0.1,0.1c0,0.1,0.1,0.3,0.1,0.5c0,0.4,0,0.8,0,1.2c0,1.5,0,2.5,0,2.5s0.4-0.9,0.9-2.4c0.1-0.4,0.2-0.8,0.3-1.2
		c0-0.3,0.1-0.4,0.1-0.8c0-0.3-0.1-0.8-0.3-1.1c-0.2-0.4-0.7-0.5-1.1-0.5c-0.2,0.1-0.4,0.1-0.6,0.2c-0.2,0.1-0.3,0.1-0.5,0.2
		C3290,954.6,3289.6,955,3289.2,955.3z"/>
	<path d="M3303,959.6c-0.5-0.2-1.1-0.6-1.6-0.9c-0.5-0.4-1.1-0.8-1.6-1.2c-1.1-0.7-2.3-1.4-3.6-1.3c-1.3,0.1-1.9,1.1-2.1,1.6
		c-0.3,0.6-0.3,0.9-0.3,0.9s0.2-0.3,0.6-0.8c0.4-0.4,1.1-1,1.9-0.9c0.8,0.1,1.8,0.8,2.7,1.6c0.5,0.5,1,0.9,1.5,1.3
		c0.6,0.5,1.2,0.9,1.9,1.2c1.4,0.7,3.2,0.6,4.5,0.1c1.3-0.4,2.5-1.1,2.9-0.8c0.5,0.5,0.7,1.5,0.8,2c0.1,0.6,0.2,0.9,0.2,0.9
		s0-0.4,0.1-1c0-0.3,0-0.7,0-1.1c0-0.2,0-0.5-0.1-0.7c0-0.3-0.2-0.5-0.4-0.8c-0.6-0.6-1.5-0.5-2-0.3c-0.6,0.1-1.2,0.3-1.8,0.4
		C3305.3,960.2,3304.1,960.1,3303,959.6z"/>
	<path d="M3238.4,978.7c0.8-2.1,2.3-3.9,4.1-5.3c0.5-0.3,0.9-0.7,1.4-1l0.4-0.2c0.1-0.1,0.4-0.3,0.6-0.4l1.3-0.7l1.2-0.7l0.1,0
		c0,0,0,0-0.1-0.1l-0.1-0.1l-0.2-0.2l-0.5-0.5c-0.6-0.6-1.1-1.1-1.7-1.7c-0.4-0.5-0.6-0.7-0.9-1.1c-0.3-0.3-0.6-0.6-0.8-1
		c-0.4-0.7-0.8-1.3-1-1.8c-0.4-1-0.7-1.7-0.7-1.7s0.1,0.7,0.2,1.9c0.1,0.6,0.3,1.3,0.5,2.1c0.3,0.8,0.8,1.7,1.2,2.5
		c0.1,0.2,0.2,0.4,0.4,0.7c0,0.1,0.1,0.2,0.1,0.3l-0.4,0.1l-0.3,0.1c-0.1,0,0,0-0.2,0l-0.4,0.2c-0.6,0.2-1.1,0.6-1.7,0.9
		c-2.3,1.3-4.6,3.6-5.7,6.5c-1.1,2.9-1.1,5.8-0.8,8.4c0.3,2.6,1,4.9,1.7,6.8c0.7,1.9,1.3,3.5,1.8,4.5c0.5,1,0.8,1.7,0.8,1.7
		s-0.1-0.7-0.3-1.8c-0.2-1.2-0.4-2.8-0.7-4.8c-0.2-2-0.4-4.2-0.4-6.6C3237.3,983.4,3237.6,980.9,3238.4,978.7z"/>
	<path d="M3242.4,955c0,0,0-0.5,0.1-1.3c0-0.8,0.3-2,0.6-3.3c0.8-2.7,2.7-5.9,5-8.7c0.1-0.1,0.2-0.2,0.3-0.3c0.6-0.5,1.5-0.5,2.2,0
		c0.7,0.5,0.8,1.4,0.5,2.1c-0.1,0.1-0.1,0.2-0.2,0.3c-2.2,2.7-4.6,5.2-6.1,7.3c-0.7,1.1-1.4,2-1.7,2.7
		C3242.6,954.5,3242.4,955,3242.4,955z"/>
	<path d="M3236.3,998.7c-0.1,0.4-2.3,0.2-5.2-1.5c-1.4-0.9-3.1-2.1-4.2-4.2c-0.5-1-1-2.2-1-3.5l-0.1-0.5l0-0.5c0-0.4,0.1-0.8,0.2-1
		c0.2-0.6,0.4-1.2,0.6-1.7c1-2.2,2.3-4,3.5-5.8c1.2-1.8,2.4-3.4,3.5-4.8c2.1-2.9,3.7-5,4.2-5.7c1.9-2.7,3.8-4.6,4.6-4.2
		c0.9,0.4,0.2,3.4-1.8,6.1c-0.5,0.7-2.1,2.9-4.3,5.8c-2.1,2.8-5,6.3-6.9,9.9c-0.2,0.4-0.4,0.9-0.6,1.3c-0.1,0.2-0.1,0.4-0.1,0.5
		l-0.1,0.2l0,0.3c0,0.9,0.2,1.7,0.5,2.5c0.6,1.6,1.9,2.8,3,3.8C3234.5,997.5,3236.5,998.2,3236.3,998.7z"/>
	<path d="M3239.2,955c0,0,0.6,0,1.6-0.1c1,0,2.5,0,4.3,0.3c1.8,0.3,4.1,0.8,6.2,2.6c0.3,0.3,0.5,0.4,0.8,0.8
		c0.3,0.4,0.6,0.8,0.8,1.2l0.3,0.7l0.2,0.7c0.2,0.5,0.2,0.9,0.3,1.4l0.2,1.5l-0.1,0.2l0,0.6c0.1,0.2-0.3,0-0.5-0.1l-0.7-0.4
		l-0.7-0.4l-0.4-0.2l-0.3-0.1c-0.6-0.2-1.4-0.5-2-0.5c-2.2-0.1-4.6,0.1-7.1,0.3l-1,0.1l-0.5,0c-0.3,0-0.6,0-0.9-0.1
		c-0.6-0.2-1.1-0.5-1.6-1c-0.4-0.5-0.6-0.8-0.8-1.1c-0.8-1.4-1.2-2.8-1.2-4.6c0-0.3,0.1-0.5,0.1-0.8c0.1-0.3,0.2-0.6,0.3-0.8
		c0.4-0.7,1.2-1.1,1.7-1C3238.9,954.2,3239.1,954.6,3239.2,955c0.1,0.4,0.1,0.8,0.1,1.1c0,0.1,0.2,0.3,0.2,0.3c0,0,0.1,0.1,0.2,0.1
		c0,0,0.1,0,0.1,0c0,0.1,0,0.1,0,0.1c0,0.1,0,0.2,0,0.2c0,0.8,0.3,2,0.7,2.8c0.1,0.2,0.3,0.5,0.3,0.5c0,0,0,0,0,0c0,0,0,0,0,0l0.4,0
		l0.9,0c2.5-0.1,5.1-0.1,7.6,0.3c0.2,0.1,0.3,0.1,0.6,0.2c0.1,0,0.2,0.1,0.3,0.2c0,0,0-0.1,0.1-0.2c0-0.2,0-0.4-0.1-0.6
		c-0.1-0.2-0.2-0.4-0.6-0.9c-1.4-1.6-3.5-2.4-5.1-3c-1.7-0.5-3.1-0.8-4.1-0.9C3239.8,955,3239.2,955,3239.2,955z"/>
	<path d="M2955.8,1062.4c-0.1-0.2,0.5-0.7,1.5-1.6c0.9-0.9,2.1-2.4,2.4-4.4c0.1-0.5,0-1,0-1.6c-0.2-0.5-0.2-1.1-0.4-1.6
		c-0.4-1.1-1.2-2.3-2-3.5c-0.7-1.2-1.7-2.5-2.6-3.7c-0.9-1.3-1.9-2.6-2.8-3.9c-1-1.3-1.9-2.7-2.8-4.1l-0.6-0.9l-0.3-0.5l-0.2-0.2
		c-0.1-0.1-0.1-0.2,0-0.2l1-1.8c0.4-0.6,0.7-1.3,1-2c1.1-2.7,1.6-5.5,1.8-8c0.4-5.1-0.3-9-0.5-10.2c-0.8-4.8-1.4-8.7-0.5-9.1
		c0.9-0.3,3,3.4,3.9,8.5c0.2,1.3,0.9,5.4,0.5,11c-0.2,2.8-0.9,5.9-2.2,9c-0.3,0.8-0.7,1.5-1.1,2.3c-0.2,0.3-0.1,0.2-0.1,0.2l0,0
		c0,0,0,0,0.1,0.2c0.9,1.3,1.7,2.7,2.6,4c0.9,1.3,1.8,2.7,2.7,4c0.9,1.3,1.8,2.6,2.5,4c0.7,1.3,1.5,2.6,2,4.1
		c0.2,0.7,0.3,1.5,0.4,2.2c-0.1,0.7,0,1.4-0.2,2.1c-0.7,2.7-2.4,4.2-3.7,4.9C2956.7,1062.5,2955.9,1062.6,2955.8,1062.4z"/>
	<path d="M2945.3,1076.2c-0.3-0.4,0.9-1.7,2.7-3.6c1.7-2,4.1-4.6,5.4-7.8l0.5-1.2c0.1-0.4,0.2-0.8,0.3-1.2c0.2-0.8,0.2-1.6,0.3-2.4
		c-0.1-1.5-0.4-3-1-4.3c-1.1-2.5-2.5-4.2-2.9-4.8c-1.7-2.1-2.7-4.4-1.9-5.1c0.7-0.6,2.8,0.6,4.7,2.9c0.4,0.6,2,2.5,3.3,5.6
		c0.7,1.5,1.1,3.5,1.1,5.5c-0.1,1-0.1,2.1-0.4,3.1c-0.1,0.5-0.2,1-0.4,1.5l-0.6,1.4c-1.8,3.7-4.6,6.3-6.8,8
		C2947.2,1075.7,2945.6,1076.5,2945.3,1076.2z"/>
	<path d="M2957.2,1029.9c0.4,0-1.2,4.8-5.2,7.2c-0.1,0-0.2,0.1-0.3,0.1c-0.1,0-0.2,0.1-0.4,0.1c-0.2,0-0.5,0-0.7,0
		c-0.4-0.1-0.8-0.4-1-0.9c-0.4-0.9,0-1.9,0.6-2.2C2953.5,1032.2,2957.4,1030.1,2957.2,1029.9z"/>
	<path d="M2959.9,1032.1c0.2,0-0.4,1.3-1.9,2.7c-1.4,1.3-3.6,2.9-6.5,3.3c-0.1,0-0.2,0-0.3,0c-1-0.1-1.7-1-1.5-1.7
		c0.2-0.8,0.7-1.4,1.3-1.6c0.1,0,0.1,0,0.2-0.1c1.9-0.2,4.3-0.8,6-1.3C2958.9,1032.8,2960,1032.2,2959.9,1032.1z"/>
	<path d="M2944,1091.2c-1.9,1.1-4.4,1.5-6.7,1.8c-2.4,0.3-4.7,0.4-6.6,0.5c-4,0.2-6.6,0.4-6.6,0.4s2.6,0.7,6.5,1.4
		c2,0.3,4.3,0.7,6.9,0.7c2.6,0,5.5-0.2,8.2-1.7c1.4-0.7,2.6-1.8,3.4-3.1c0.9-1.3,1.4-2.7,1.6-4.1c0.5-2.7,0.2-5.2-0.2-7.2
		c-0.4-2-0.9-3.6-1.3-4.7c-0.4-1.1-0.6-1.7-0.6-1.7s0,0.7,0.1,1.8c0.1,1.2,0.1,2.8,0.1,4.8c0,1.9-0.3,4.2-0.9,6.3
		C2947.2,1088.4,2945.9,1090.2,2944,1091.2z"/>
	<path d="M2876.2,1053.1c0.1,0.1-0.8,0.9-2.5,2.3c-1.7,1.4-4.2,3.6-6.4,6.9c-0.6,0.8-1,1.8-1.5,2.7c-0.5,1-0.8,2.1-1.2,3.2
		c-0.6,2.4-1.5,5-2.7,7.7c-1.2,2.6-2.8,5.4-5.1,7.8c-1.2,1.2-2.6,2.3-4.3,3c-1.7,0.7-3.7,0.9-5.6,0.4l-3.6-0.9l3.6-1.3
		c1.5-0.5,3.1-1.3,3.8-2.5c0.7-1.1,0.5-2.6-0.7-3.6c-1.1-1.1-2.8-1.6-4.3-1.4c-1.5,0.2-3,1.2-4.1,2.6c-2.2,2.8-3.2,6.9-2.1,10.4
		c0.7,1.8,1.6,3.4,3,4.7c1.4,1.2,3.2,1.9,5.1,2.2c3.9,0.6,8.1-0.3,12.1-1.6c4-1.4,8-3.2,11.6-5.5c0.5-0.3,0.9-0.5,1.4-0.8l1.3-0.9
		l1.3-0.9l1.1-1.1c1.5-1.4,2.8-3.1,4.2-4.8c2.8-3.5,6.1-6.6,9.5-9.4l8.7-7.4l-6.4,9.6c-1.4,2-2.4,4.7-3.1,7.2
		c-0.3,1.3-0.6,2.6-0.7,3.8c-0.1,1.2,0.1,2.4,0.5,2.9c0.2,0.2,0.3,0.3,0.7,0.4c0.4,0.1,0.7,0,0.9,0c0.5-0.2,1.1-1.2,1.5-2.3
		c0.4-1.1,0.8-2.4,1.2-3.7c0.2-0.7,0.4-1.3,0.7-2c0.3-0.6,0.7-1.5,1.1-1.9c3.1-4.5,6.9-8.1,10.7-11.1c3.8-3,7.5-5.7,11-8.1
		c3.5-2.4,6.8-4.7,9.8-6.7c3-2,5.5-3.9,7.6-5.7c4.2-3.7,6.3-7.1,7.3-9c2.6-4.6,3.1-9.6,2.6-14.2c-0.4-4.6-1.9-8.6-2.7-12.3
		c-0.9-3.6-0.9-6.8-0.8-8.9c0.4-2.1,0.7-3.2,1-3.2c0.2,0,0.3,1.2,0.4,3.2c0.3,2,0.6,4.8,1.8,8.2c0.6,1.8,1.2,3.7,1.9,5.6
		c0.6,2.1,1.3,4.5,1.6,6.9c0.3,2.5,0.5,5.2,0,8c-0.4,2.8-1.4,5.6-2.8,8.2c-1.1,2.1-3.6,5.9-8.1,9.9c-2.2,1.9-5,4-8,6
		c-3,2-6.3,4.2-9.8,6.6c-3.5,2.4-7.1,5-10.8,8c-3.7,2.9-7.2,6.3-10,10.3c-1.3,1.7-1.7,4.3-2.8,7c-0.3,0.7-0.6,1.4-1.1,2.1
		c-0.4,0.7-1.1,1.5-2.1,2c-1,0.5-2.2,0.5-3.1,0.3c-0.5,0-1-0.3-1.5-0.6c-0.5-0.3-0.8-0.7-1.2-1.1c-1.2-1.8-1.1-3.5-1.1-5.1
		c0.1-1.5,0.4-3,0.8-4.4c0.9-2.9,1.8-5.5,3.6-8.2c0.8,0.7,1.5,1.5,2.3,2.2c-3.2,2.7-6.4,5.6-9.1,8.9c-1.4,1.7-2.8,3.5-4.5,5.1
		l-1.3,1.2l-1.4,1l-1.4,1c-0.5,0.3-1,0.6-1.5,0.9c-3.9,2.4-8,4.3-12.3,5.7c-4.3,1.3-8.8,2.3-13.5,1.6c-2.3-0.4-4.6-1.3-6.5-2.9
		c-1.8-1.6-3-3.8-3.7-5.9c-1.4-4.6-0.1-9.4,2.7-12.9c1.4-1.7,3.4-3.2,5.8-3.5c2.3-0.2,4.7,0.5,6.3,2.2c0.8,0.8,1.5,1.9,1.7,3.1
		c0.2,1.2-0.1,2.5-0.7,3.5c-1.3,2-3.3,2.8-5.1,3.4c0-0.7,0-1.4-0.1-2.2c2.9,0.8,5.9-0.5,8-2.7c2.1-2.1,3.7-4.6,4.9-7.1
		c1.2-2.5,2.2-5,2.9-7.3c0.5-1.2,0.9-2.4,1.4-3.4c0.6-1,1.1-2,1.8-2.9c2.5-3.4,5.2-5.4,7-6.7
		C2875.1,1053.6,2876.1,1053,2876.2,1053.1z"/>
	<path d="M2874,1078.2c0,0,0.3-1.2,1.3-3c1-1.9,3-4.2,5.9-6.5c0.8-0.5,1.5-1.1,2.3-1.7c0.8-0.5,1.8-1,2.7-1.5c1.9-1,3.8-1.9,5.7-2.9
		c3.8-2.1,7.2-4.9,8.5-9.1c0.1-0.3,0.2-0.6,0.3-1c0.4-0.7,1.2-1.1,2-0.8c0.8,0.2,1.3,1,1.2,1.8c-0.1,0.3-0.2,0.7-0.3,1.1
		c-0.8,2.4-2.2,4.9-4.2,6.6c-0.4,0.5-1,0.8-1.5,1.2l-1.5,1.1c-1,0.6-2.1,1.1-3.1,1.7c-2.1,0.9-4.3,1.7-6,2.5
		c-0.9,0.4-1.8,0.7-2.7,1.1c-0.8,0.4-1.6,0.9-2.4,1.3c-2.9,1.8-5.2,3.8-6.4,5.4C2874.5,1077.1,2874,1078.2,2874,1078.2z"/>
	<path d="M2894.6,1051.8c0,0-0.3,0-0.8,0c-0.5,0-1.2,0-2.2-0.1c-0.9-0.2-2.1-0.3-3.3-1c-1.2-0.6-2.5-1.6-3.5-3
		c-2-2.9-2.4-7.1-1.9-11.2c0.5-4.1,1.8-8.3,3.7-12.3c0.2-0.3,0.3-0.6,0.5-0.9c0.5-0.7,1.5-0.8,2.2-0.4c0.7,0.5,1,1.3,0.8,2
		c-0.1,0.3-0.3,0.6-0.4,0.8c-1.8,3.6-3.2,7.5-3.9,11.2c-0.8,3.7-0.7,7.3,0.6,9.9c1.3,2.6,3.8,3.8,5.5,4.3c0.9,0.2,1.6,0.4,2.1,0.5
		C2894.3,1051.7,2894.6,1051.8,2894.6,1051.8z"/>
	<path d="M2914.3,1028.8c-2.2,3.2-4.7,6.1-7.7,8.1c-1.4,1-3,1.7-4.5,2.2c-1.5,0.3-3.1,0.6-4.5,0.3c-2.8-0.3-5-1.7-6.2-2.9
		c-0.3-0.3-0.5-0.6-0.7-0.9c-0.2-0.3-0.4-0.5-0.4-0.7c-0.2-0.4-0.3-0.7-0.3-0.7s0.1,0.3,0.2,0.7c0,0.2,0.1,0.5,0.3,0.8
		c0.2,0.3,0.3,0.7,0.6,1.1c1,1.5,3.1,3.4,6.3,4.2c1.6,0.5,3.4,0.5,5.3,0.3c1.8-0.3,3.8-0.9,5.6-2c3.6-2,6.6-5.2,9-8.6
		c2.4-3.4,4.4-7.2,5.4-11.1c0.6-1.9,0.8-3.9,0.8-5.8c-0.1-1.9-0.5-3.7-1.4-5.2c-0.9-1.4-2-2.5-3.3-3.1c-0.6-0.4-1.2-0.5-1.7-0.7
		c-0.5-0.2-1-0.2-1.5-0.3c-0.9-0.2-1.6-0.1-2.1-0.1c-0.5,0-0.7,0-0.7,0s0.3,0,0.7,0.1c0.5,0.1,1.2,0.1,2,0.5c1.6,0.5,4,1.7,5,4.3
		c0.5,1.3,0.6,2.8,0.6,4.3c-0.2,1.6-0.5,3.3-1.2,4.9C2918.6,1022.2,2916.5,1025.6,2914.3,1028.8z"/>
	<path d="M2849.8,1046.1c-3.7,2.2-6.4,5.8-7.8,8.6c-0.3,0.7-0.6,1.4-0.8,2c-0.2,0.6-0.3,1.2-0.4,1.6c-0.2,0.8-0.3,1.4-0.3,1.4
		s0.3-0.5,0.8-1.2c0.3-0.4,0.6-0.8,0.9-1.3c0.4-0.5,0.9-1,1.3-1.6c2-2.2,4.9-4.7,8.2-6.7c0.8-0.6,1.7-0.9,2.5-1.4
		c0.8-0.4,1.6-1,2.5-1.4c1.7-0.8,3.2-1.7,4.6-2.2c2.8-1.2,4.7-2.1,4.7-2.1s-2,0.1-5.1,0.4c-1.6,0.2-3.3,0.7-5.2,1.2
		c-1,0.2-1.9,0.7-2.8,1.1C2851.7,1045.1,2850.7,1045.4,2849.8,1046.1z"/>
	<path d="M2854.5,1040c0,0,0.4-0.3,1.1-0.8c0.3-0.3,0.8-0.6,1.3-0.9c0.5-0.3,1.1-0.7,1.8-1c0.7-0.3,1.4-0.7,2.2-0.9
		c0.8-0.3,1.7-0.6,2.6-0.8c1.8-0.5,3.8-0.8,6-0.5c0.2,0,0.3,0.1,0.5,0.1c0.4,0.2,0.6,0.6,0.5,0.9c-0.1,0.4-0.5,0.7-0.9,0.7
		c-0.1,0-0.3,0-0.4-0.1c-1.7-0.2-3.7-0.1-5.4,0.3c-0.9,0.1-1.7,0.3-2.5,0.5c-0.8,0.2-1.6,0.4-2.3,0.6c-0.7,0.2-1.3,0.4-1.9,0.7
		c-0.6,0.2-1,0.4-1.4,0.6C2855,1039.7,2854.5,1040,2854.5,1040z"/>
	<path d="M2841.9,1064c0.2,0.1-0.7,1.7-3.3,3.2c-0.7,0.3-1.5,0.7-2.5,0.8c-0.5,0.1-1.1,0-1.6-0.2c-0.3-0.1-0.5-0.3-0.8-0.4
		c-0.2-0.2-0.4-0.4-0.7-0.6c-0.5-0.4-0.6-1-1-1.5c-0.2-0.6-0.4-1.1-0.5-1.7c-0.1-0.6-0.2-1.2-0.3-1.8c-0.1-0.6-0.1-1.2-0.1-1.9
		c0-2.6,0.3-5.5,1.4-8.3c1.1-2.8,2.9-5.6,5.1-8c4.4-4.9,10.4-8.5,16.5-11.8c6.1-3.3,12.5-6.1,18.5-8.9c3-1.4,5.9-2.7,8.3-4.3
		c2.3-1.5,3.9-4,5.5-6.2c0.8-1.2,1.6-2.3,2.3-3.4c0.8-1.1,1.6-2.1,2.3-3.1c0.7-1,1.5-1.9,2.3-2.7c0.8-0.8,1.4-1.7,2.2-2.3
		c2.9-2.8,5.3-4.4,6.4-5.3c4.6-3,9.2-4.8,12.5-5.9c3.4-1,5.5-1.4,5.7-0.9c0.2,0.4-1.7,1.6-4.7,3.2c-3,1.7-7.3,3.7-11.5,6.5
		c-1,0.8-3.2,2.3-5.9,4.9c-0.7,0.6-1.3,1.4-2,2.2c-0.7,0.8-1.5,1.6-2.1,2.6c-0.7,0.9-1.4,1.9-2.2,3c-0.8,1.1-1.5,2.2-2.3,3.4
		c-0.8,1.2-1.7,2.4-2.7,3.6c-0.5,0.6-1.1,1.2-1.7,1.8c-0.6,0.6-1.3,1.1-2,1.6c-2.8,1.9-5.9,3.2-8.9,4.6c-6.1,2.7-12.4,5.5-18.4,8.6
		c-6,3.1-11.8,6.6-16,10.9c-2.1,2.2-3.7,4.6-4.8,7.1c-1.1,2.5-1.4,5.1-1.6,7.4c0,0.6,0,1.2,0,1.8c0,0.6,0.1,1.1,0.1,1.6
		c0.1,0.5,0.2,1,0.3,1.4c0.2,0.4,0.3,0.9,0.6,1.1c0.9,1.3,2.7,0.9,3.9,0.4C2840.6,1065,2841.8,1063.8,2841.9,1064z"/>
	<path d="M2818.9,1035.7c0.1-0.1,0.4,0.2,0.8,0.8c0.3,0.7,0.7,1.8,0.3,3.2c-0.3,1.4-1.2,3-2.7,4.2c-0.8,0.6-1.8,1.2-3.1,1.2
		c-0.6,0.1-1.3-0.1-1.9-0.2c-0.3-0.2-0.6-0.3-0.9-0.5l-0.4-0.2l-0.4-0.3c-0.5-0.4-1-0.9-1.3-1.5c-0.4-0.5-0.8-1.1-1-1.7
		c-0.6-1.2-1.1-2.4-1.3-3.8c-0.3-1.4-0.3-2.9,0.1-4.5c0.4-1.5,1.2-3,2.2-4.2c2-2.4,4.8-4.1,7.5-5.5c2.8-1.4,5.7-2.5,8.7-3.5
		c11.9-3.8,24.3-6.4,34.1-9.2c9.8-2.6,16.6-5.8,18.5-7c4.1-2.2,7.2-4.7,8.9-7.1c0.9-1.2,1.5-2.2,2-3c0.5-0.7,0.9-1.1,1.1-1
		c0.2,0.1,0.3,0.6,0.1,1.5c-0.1,0.9-0.4,2.2-1.1,3.7c-1.4,3.2-5,6.5-9.3,8.8c-2.1,1.3-9.3,4.7-19.3,7.2c-9.9,2.8-22.3,5.2-34.1,8.8
		c-2.9,0.9-5.8,1.9-8.4,3.2c-2.6,1.2-5.1,2.7-6.8,4.6c-0.8,0.9-1.5,2-1.8,3.1c-0.3,1.1-0.3,2.3-0.2,3.4c0.4,2.3,1.4,4.6,2.7,5.9
		c1.3,1.4,3.1,1.1,4.5,0.2c1.3-0.9,2.2-2.2,2.6-3.3c0.5-1.1,0.3-2,0.2-2.7C2818.9,1036.2,2818.8,1035.8,2818.9,1035.7z"/>
	<path d="M2844.6,1030.8c-0.1,0.5-6.1-0.4-12.3,0.6c-3.1,0.4-6.2,1.3-8.5,2.4c-2.3,1-3.9,2.1-4.3,2.5c-2,1.4-2.9,2.8-3.4,2.7
		c-0.1,0-0.2-0.2-0.2-0.5c0-0.3,0.1-0.6,0.3-1c0.4-0.8,1.2-1.8,2.2-2.5c0.5-0.4,2.2-1.6,4.7-2.7c2.5-1.1,5.8-1.9,9-2.3
		C2838.5,1029.2,2844.6,1030.5,2844.6,1030.8z"/>
	<path d="M2770.2,1063.6c0.3,0,0,1.3,0.6,3.2c0.3,0.9,1,1.8,2.2,2.1c1.2,0.4,2.9,0.4,4.6,0.1c7.1-1.1,16.2-5.3,25.2-10
		c9-4.8,17.9-10.2,24.6-15.1c1.7-1.2,3.1-2.5,4.5-3.6c1.4-1.1,2.6-2.2,3.7-3.1c0.5-0.5,1-0.9,1.5-1.3c0.4-0.4,0.8-0.8,1.1-1.2
		c0.7-0.7,1.2-1.2,1.5-1.6c2.5-2.8,4.1-5.7,5.5-7.9c1.4-2.2,2.4-3.5,2.9-3.3c0.4,0.2,0.2,1.8-0.7,4.3c-0.8,2.4-2.3,6.1-5.1,9.2
		c-0.3,0.4-0.9,0.9-1.6,1.7c-0.4,0.4-0.8,0.8-1.2,1.2c-0.5,0.4-1,0.9-1.5,1.4c-1.1,1-2.4,2.1-3.8,3.2c-1.4,1.1-2.9,2.4-4.7,3.7
		c-6.9,5-16,10.4-25.2,15.1c-9.2,4.6-18.6,8.6-26.3,9.3c-1.9,0.1-3.8,0.1-5.4-0.6c-1.6-0.7-2.6-2.2-2.8-3.3
		C2769.4,1064.7,2770.1,1063.6,2770.2,1063.6z"/>
	<path d="M2794.4,1112.5c-0.2,0-0.1-1.8,1-4.8c1.1-2.9,3.4-6.8,6.7-11c0.8-1.1,1.7-2.1,2.6-3.3c1-1.1,2-2.2,3.1-3.3
		c1.1-1.1,2.2-2.2,3.4-3.3c0.5-0.5,1-1,1.4-1.5c0.1-0.2,0.3-0.3,0.4-0.5l0.3-0.4l0.1-0.2c-0.1,0-0.2,0.1-0.3,0.1
		c-0.4,0.2-0.8,0.3-1.2,0.5c-1.6,0.5-3.2,1-4.8,1.5c-1.7,0.6-3.6,0.9-5.4,1.3l-5.5,1.1c-1.8,0.2-3.6,0.5-5.5,0.7
		c-3.6,0.4-7.2,1.1-10.9,1.2c-3.6,0.1-7.3-0.1-10.7-1.2c-3.4-1-6.6-3-8.7-5.6c-1.1-1.3-1.8-2.8-2.4-4.2c-0.5-1.5-0.9-2.9-1.1-4.3
		c-0.4-2.8-0.2-5.3,0.2-7.5c0.7-4.3,2.2-7.2,2.9-8.6c0.7-1.3,1.7-2.7,2.9-3.7c1.1-0.9,2.1-1.7,3.3-2.4c1.1-0.7,2.3-1.2,3.6-1.6
		c1.3-0.3,2.8-0.3,4,0.6c1.1,0.8,1.5,2,1.6,2.8c0.1,0.9,0,1.6-0.1,2.1c-0.3,1.1-0.7,1.6-0.9,1.6c-0.3,0-0.3-0.7-0.5-1.6
		c-0.1-0.5-0.2-1.1-0.4-1.6c-0.2-0.6-0.6-1.1-1-1.2c-0.4-0.2-1.1-0.2-1.9,0.1c-0.8,0.3-1.7,0.8-2.6,1.5c-0.9,0.6-1.8,1.4-2.8,2.3
		c-0.9,0.7-1.5,1.6-2.1,2.8c-0.6,1.1-1.9,3.6-2.5,7.5c-0.3,1.9-0.5,4.1-0.2,6.4c0.3,2.3,1.1,4.8,2.8,6.8c1.6,2,4.1,3.7,7,4.5
		c2.9,0.9,6.2,1.2,9.6,1.1c3.4-0.1,7-0.7,10.6-1.1c1.8-0.2,3.6-0.4,5.4-0.6l5.3-1c1.8-0.3,3.5-0.6,5.2-1.2c0.9-0.2,1.7-0.5,2.5-0.7
		l1.3-0.4l0.6-0.2c0.2,0,0.7-0.2,1-0.3c2.8-1,5.6-1.9,8.3-2.8l1-0.3l0.5-0.2l0.2-0.1c0,0,0.1,0,0.1,0l-0.1,0.1l-1.4,1.7
		c-0.9,1.1-1.8,2.2-2.8,3.3c-0.9,1.1-1.6,2-2.8,3.1c-0.7,0.7-1.3,1.3-2,2c-1.2,1.1-2.3,2.2-3.4,3.2c-1.1,1.1-2.1,2.1-3.1,3.1
		c-0.9,1.1-1.9,2.1-2.7,3.1c-3.4,4-5.8,7.6-7.2,10.3C2795.1,1110.8,2794.7,1112.5,2794.4,1112.5z"/>
	<path d="M2793.2,1102.3c0.2,0,0.1,1.3,0.2,3.4c0,1,0.1,2.3,0.5,3.7c0.4,1.3,1.1,2.8,2.4,3.5c0.4,0.1,0.7,0.4,1.1,0.4l0.6,0.1
		c0.2,0,0.5,0,0.7,0c0.5,0,1,0.1,1.4,0.1c0.5,0,1-0.1,1.5-0.1c2-0.2,4-0.8,5.8-2c3.7-2.4,6.6-6.5,9.3-10.7c2.7-4.3,5.3-8.8,7.9-13.1
		c2.6-4.3,5.6-8.3,9-11.2c3.3-3,6.9-4.8,9.7-5.9c2.9-1,5-1.6,5.9-1.8c4-0.9,7.6-1.2,10.2-1.2c2.6,0,4.3,0.2,4.3,0.7
		c0.1,0.5-1.5,1.1-4,1.7c-2.5,0.7-6,1.3-9.8,2.2c-0.9,0.2-2.9,0.7-5.5,1.6c-2.6,1-5.7,2.5-8.7,5.2c-3,2.6-5.9,6.3-8.4,10.4
		c-2.6,4.2-5.3,8.7-8.1,13c-1.4,2.2-3,4.3-4.7,6.2c-1.7,1.9-3.6,3.8-5.8,5c-2.2,1.3-4.7,2-7,2.1c-0.6,0-1.1,0-1.7,0
		c-0.5-0.1-1.1-0.1-1.6-0.2c-0.3,0-0.5,0-0.8-0.1l-0.8-0.2c-0.6-0.1-1.1-0.4-1.5-0.7c-2-1.2-2.6-3.3-2.9-4.8c-0.3-1.6-0.2-3-0.1-4.1
		C2792.5,1103.4,2793,1102.2,2793.2,1102.3z"/>
	<path d="M2799.4,1124c-3.8-0.6-7.4-2.2-9.7-4.9c-2.2-2.7-3-6.2-3.1-9.2c-0.1-3,0.3-5.6,0.7-7.4c0.2-0.9,0.4-1.6,0.6-2
		c0.1-0.5,0.2-0.7,0.2-0.7s-0.1,0.2-0.4,0.7c-0.3,0.4-0.6,1.1-0.9,1.9c-0.7,1.7-1.6,4.2-1.9,7.5c-0.3,3.2,0.1,7.3,2.5,11
		c1.3,1.7,3,3.4,5,4.4l1.5,0.8c0.5,0.3,1.1,0.4,1.6,0.6c1.1,0.3,2.2,0.7,3.3,0.8c1.1,0.1,2.2,0.4,3.3,0.4c1.1,0,2.1,0,3.2,0
		c1.1,0,2.1-0.1,3.2-0.2c1-0.1,2.1-0.2,3.1-0.4c1-0.2,1.9-0.4,2.9-0.5c0.9-0.2,1.8-0.5,2.7-0.7c1.8-0.4,3.4-1,4.9-1.5
		c6-2.1,9.7-4.1,9.7-4.1s-4,1.2-10.1,2.4c-1.5,0.3-3.2,0.6-4.9,0.9c-0.9,0.1-1.8,0.3-2.7,0.4c-0.9,0.1-1.9,0.2-2.8,0.3
		c-0.9,0.1-1.9,0.1-2.9,0.1c-1,0-2,0.1-3,0c-1,0-2-0.1-3-0.1C2801.4,1124.4,2800.4,1124.1,2799.4,1124z"/>
	<path d="M2754.3,1177.8c-0.3-0.3,1.8-3,5.1-6.8c3.2-3.9,7.3-9.4,10.8-15.3c1-1.4,1.7-3.1,2.5-4.6c0.8-1.5,1.6-3,2.4-4.5
		c1.3-3.1,2.8-6,3.8-8.6c2.2-5.3,3.7-9.4,4.1-10.7c1.9-5.1,4.1-9,5-8.6c0.9,0.3,0.1,4.7-1.8,9.8c-0.5,1.3-2,5.4-4.2,10.8
		c-1.1,2.7-2.6,5.6-4,8.8c-0.8,1.5-1.7,3.1-2.5,4.6c-0.9,1.5-1.7,3.2-2.7,4.6c-3.8,6-8.3,11.4-11.9,15.1
		C2757.1,1176,2754.6,1178.2,2754.3,1177.8z"/>
	<path d="M2751.3,1173c0,0-0.8,0.7-2.1,1.8c-1.4,1.1-3.4,2.8-6,4.5c-2.6,1.7-5.8,3.5-9.7,4.8c-1.9,0.6-4,1.1-6.3,1.1
		c-1.1,0-2.3-0.2-3.5-0.6c-1.2-0.4-2.6-1.3-3.2-3c-0.2-0.5-0.2-1.1-0.2-1.6c0.3-1.4,1.5-1.6,2.1-1.2c0.7,0.5,1.1,1.2,1.3,1.4
		c0,0.1,0,0.2,0.1,0.3c0.1,0.3,0.5,0.7,1.2,1c0.7,0.3,1.5,0.4,2.4,0.5c1.8,0.1,3.6-0.2,5.4-0.6c3.6-0.8,6.8-2.2,9.6-3.5
		c2.7-1.3,5-2.5,6.6-3.4C2750.3,1173.5,2751.3,1173,2751.3,1173z"/>
	<path d="M2787.5,1164.4c0.2,0.1-0.8,1.5-2.6,3.7c-1.8,2.2-4.4,5.4-7.8,9.1c-3.4,3.7-7.5,7.8-12.4,11.8c-4.9,4-10.6,7.9-17.1,10.6
		c-6.5,2.7-13.9,3.9-20.8,2.4c-3.4-0.7-6.5-1.8-9.5-3.4c-2.9-1.6-5.6-3.7-7.2-6.5c-1.7-2.8-2.1-6-1.6-8.7c0.5-2.7,1.6-4.9,2.8-6.7
		c2.4-3.5,5.1-5.2,6.4-5.9c1.3-0.7,2.7-1.2,4.2-1.4c0.4-0.1,0.7-0.1,1.1-0.1c0.4,0,0.7,0,1,0.1c0.6,0.1,1.2,0.1,1.9,0.3
		c1.2,0.2,2.4,0.6,3.5,1.3l0.8,0.6c0.2,0.2,0.5,0.5,0.7,0.8c0.2,0.3,0.4,0.6,0.5,1c0.1,0.3,0.2,0.7,0.2,1c0,1.3-0.6,2.2-1.2,2.8
		c-0.5,0.6-1.1,1-1.6,1.2c-0.9,0.5-1.5,0.5-1.7,0.3c-0.1-0.2,0.2-0.6,0.8-1.4c0.3-0.4,0.6-0.8,0.8-1.3c0.3-0.5,0.4-1.1,0.3-1.5
		c-0.1-0.4-0.4-0.7-1.1-1c-0.7-0.3-1.6-0.5-2.6-0.6c-0.5-0.1-1.1-0.1-1.6-0.1c-0.3,0-0.5,0-0.8,0c-0.2,0-0.5,0-0.7,0.1
		c-1,0.2-2,0.5-3,1.1c-1,0.5-3.2,1.9-5.2,4.8c-1,1.4-1.9,3.2-2.2,5.3c-0.3,2-0.1,4.3,1.1,6.4c2.4,4.2,8.3,7,14.4,8.4
		c6.1,1.3,12.9,0.4,19-2c6.2-2.4,11.7-6.1,16.6-9.9c4.9-3.8,9.1-7.7,12.6-11.2c3.5-3.4,6.3-6.4,8.3-8.4
		C2786.1,1165.4,2787.3,1164.3,2787.5,1164.4z"/>
	<path d="M2832.2,1124c-0.3-5.2,1.4-10.6,2.8-14.7c1.3-3.7,2.5-6.7,2.5-6.7s-0.4,0.6-1.2,1.6c-0.7,1-1.7,2.5-2.9,4.4
		c-1.1,1.9-2.3,4.1-3.2,6.8c-0.9,2.6-1.6,5.7-1.4,8.8c0.2,3.1,1.3,6.2,2.8,8.6c0.4,0.6,0.9,1.1,1.3,1.7c0.4,0.5,0.8,1.1,1.3,1.5
		c1,0.8,1.8,1.8,2.7,2.3c0.9,0.6,1.7,1.2,2.5,1.7c0.8,0.4,1.5,0.7,2.1,1c1.1,0.5,1.8,0.9,1.8,0.9s-0.6-0.5-1.5-1.3
		c-0.5-0.4-1.1-0.9-1.7-1.5c-0.6-0.6-1.3-1.3-2-2.1c-0.8-0.7-1.3-1.7-2.1-2.6c-0.4-0.4-0.7-1-1-1.5c-0.3-0.5-0.6-1-0.9-1.6
		C2833,1129.1,2832.4,1126.6,2832.2,1124z"/>
	<path d="M2808.8,1144.7c0,0,0.9-0.4,2.2-0.9c1.4-0.5,3.4-1.5,5.5-2.7c1-0.7,2.2-1.4,3.2-2.4c0.5-0.5,1.1-0.9,1.6-1.5l1.5-1.7
		c1.9-2.4,3.7-5.3,5.3-8.3c0.1-0.2,0.3-0.5,0.4-0.7c0.5-0.6,1.4-0.8,2.2-0.4c0.7,0.4,1.1,1.2,0.8,2c-0.1,0.2-0.2,0.5-0.4,0.7
		c-1.7,3.1-3.8,6.1-6.1,8.5l-1.9,1.7c-0.6,0.6-1.3,0.9-2,1.4c-1.3,0.9-2.7,1.5-3.9,2c-2.5,1-4.6,1.5-6.2,1.7
		C2809.7,1144.6,2808.8,1144.7,2808.8,1144.7z"/>
	<path d="M2800.4,1186.9c0.2-0.1,0.9,1.1,0.8,3.6c-0.1,0.6-0.2,1.3-0.6,2c-0.3,0.7-1,1.4-1.8,1.8c-1.7,0.9-3.7,0.9-5.8,0.5
		c-2.1-0.4-4.4-1.8-5.7-4c-1.4-2.1-2-4.7-2.3-7.3c-0.3-2.6-0.2-5.3,0.2-8c0.4-2.6,0.6-5.3,1.3-8c1-5.4,2.7-10.8,5-15.6
		c0.6-1.2,1.1-2.4,1.8-3.5c0.7-1.1,1.3-2.2,2-3.3c1.5-2,2.9-4,4.6-5.7c0.4-0.4,0.8-0.8,1.1-1.3c0.4-0.4,0.8-0.7,1.2-1.1
		c0.8-0.7,1.6-1.4,2.4-2c1.6-1.2,3-2.3,4.4-3c0.7-0.4,1.3-0.8,1.9-1.1c0.6-0.3,1.2-0.6,1.7-0.8c1-0.5,1.8-0.8,2.3-1
		c4-1.6,7.9-2.3,10.7-2.4c2.8-0.1,4.5,0.2,4.6,0.7c0,0.5-1.6,1-4.2,1.7c-2.6,0.7-6.1,1.7-9.8,3.2c-0.5,0.2-1.2,0.5-2.1,1
		c-0.5,0.2-1,0.4-1.5,0.7c-0.5,0.3-1.1,0.7-1.8,1c-1.3,0.7-2.6,1.7-4.1,2.8c-0.7,0.5-1.4,1.2-2.2,1.9c-0.4,0.3-0.7,0.7-1.1,1
		c-0.3,0.4-0.7,0.8-1.1,1.2c-1.5,1.5-2.8,3.3-4.3,5.2c-0.6,1-1.3,2-1.9,3.1c-0.7,1-1.1,2.2-1.7,3.3c-2.2,4.6-3.9,9.6-5,14.8
		c-0.7,2.6-1,5.2-1.4,7.8c-0.4,2.5-0.6,5-0.4,7.4c0.2,2.3,0.7,4.6,1.7,6.3c1,1.7,2.5,2.9,4.2,3.3c1.7,0.4,3.4,0.5,4.6,0
		c1.2-0.5,1.8-1.6,2-2.6C2800.5,1188.2,2800.2,1186.9,2800.4,1186.9z"/>
	<path d="M2873.4,1136.4c0.2,0.1-0.7,2.3-2.3,5.8c-0.9,1.6-2,3.5-3.2,5.6c-0.7,1-1.4,2-2.1,3c-0.8,1-1.4,2.1-2.3,3.1
		c-1.7,1.9-3.3,4-5.2,5.7c-0.9,0.9-1.8,1.7-2.7,2.5c-0.9,0.8-1.8,1.4-2.7,2.1c-0.9,0.6-1.6,1.3-2.4,1.8c-0.8,0.5-1.5,0.9-2.1,1.3
		c-1.3,0.8-2.2,1.3-2.6,1.6c-1.7,1-3.5,1.5-4.7,2c-1.3,0.4-2.1,0.5-2.1,0.3c-0.2-0.5,2.6-2,6-3.8c0.4-0.2,1.3-0.8,2.5-1.5
		c0.6-0.4,1.3-0.8,2.1-1.2c0.7-0.5,1.5-1.1,2.3-1.7c0.8-0.6,1.7-1.3,2.6-2c0.8-0.8,1.7-1.6,2.6-2.4c1.9-1.6,3.5-3.6,5.2-5.4
		c0.9-0.9,1.5-2,2.3-2.9c0.7-1,1.5-1.9,2.2-2.9c1.2-1.9,2.3-3.7,3.4-5.4C2872,1138.5,2873.3,1136.3,2873.4,1136.4z"/>
	<path d="M2828.3,1174.9c0,0.2-1.5,0.8-4.4,1.3c-2.9,0.5-7.2,0.9-12.4-0.1c-2.6-0.5-5.3-1.5-7.9-3.2c-1.3-0.8-2.6-1.9-3.6-3.3
		c-0.5-0.7-1-1.6-1.2-2.6c-0.2-0.9-0.3-1.8-0.1-2.8c0.2-1,0.7-2.1,1.4-2.8c0.8-0.8,1.7-1.2,2.6-1.5c1.9-0.6,3.7-0.7,5.5-0.6
		c3.6,0.2,6.8,0.7,10,0.1c6.3-1.4,12-5.7,17.2-9.7c2.6-2.1,5.2-4.1,7.3-6.3c2.2-2.1,4.1-4.4,5.7-6.6c3.2-4.5,4.9-9.1,6-12.7
		c1-3.7,1.4-6.4,1.6-7.7c0.8-5.2,1.2-10.1,1.8-13.6c0.6-3.5,1.4-5.6,1.9-5.6c0.5,0.1,0.6,2.3,0.6,5.8c0,3.5-0.1,8.4-0.9,13.8
		c-0.2,1.4-0.6,4.2-1.7,8.2c-1.1,3.9-3,8.9-6.5,13.7c-1.8,2.4-3.8,4.8-6.2,7.1c-2.4,2.3-5,4.3-7.6,6.4c-1.3,1.1-2.8,2.1-4.2,3.1
		c-1.4,1-2.8,2-4.4,2.9l-2.3,1.3c-0.8,0.5-1.7,0.8-2.5,1.1c-0.9,0.3-1.6,0.8-2.6,1l-2.7,0.7c-3.8,0.6-7.4,0-10.6-0.3
		c-3.1-0.2-6.6,0.3-6.8,2.6c-0.1,0.6-0.1,1.2,0,1.9c0.1,0.5,0.4,1.1,0.7,1.6c0.7,1.1,1.8,2,2.9,2.8c2.2,1.6,4.7,2.5,7.1,3.1
		c4.7,1.2,8.9,1.1,11.8,0.9C2826.6,1174.9,2828.2,1174.6,2828.3,1174.9z"/>
	<path d="M2891.6,1129.2c0.2-0.1,1,0.6,2,2.2c0.5,0.8,1,1.8,1.3,3.1c0.3,1.3,0.6,2.9,0.1,4.6c-0.4,1.7-1.7,3.5-3.4,4.6
		c-1.7,1.1-3.7,1.8-5.7,2.2c-2.1,0.3-4.4,0.5-6.7-0.3c-2.3-0.7-4.3-2.3-5.7-4.3c-1.4-2-2.2-4.3-2.5-6.7c-0.2-2.3,0-4.7,0.4-6.8
		c0.9-4.4,3.4-8.1,4.9-10.9c3.2-6.1,3.8-11.1,3.9-12.6c0.1-3,0-5.8-0.6-7.7c-0.2-1-0.5-1.8-0.6-2.4c-0.1-0.6-0.1-1,0.1-1.2
		c0.2-0.1,0.5,0,1.1,0.4c0.5,0.4,1.2,1.1,1.7,2.2c1.3,2,2,5.3,1.8,8.9c-0.1,1.7-0.8,7.5-4.3,14c-1.7,3.4-3.8,6.3-4.7,10.1
		c-0.4,1.9-0.6,3.8-0.5,5.7c0.2,1.9,0.8,3.8,1.8,5.3c1,1.5,2.5,2.7,4.2,3.3c1.7,0.6,3.5,0.6,5.3,0.4c3.7-0.4,6.8-2.2,7.6-4.7
		c0.8-2.6,0-5.1-0.6-6.7C2891.9,1130.3,2891.4,1129.4,2891.6,1129.2z"/>
	<path d="M2888.4,1135.5c-0.1,0.1-0.4,0-0.9-0.3c-0.5-0.3-1.3-0.9-1.8-2c-0.6-1.1-0.5-2.8,0.2-4.3c0.7-1.5,1.7-3,3-4.4
		c5.2-5.7,13.5-11.5,21.6-17.8c4-3.2,8.1-6.4,11.2-10c3.1-3.6,5.2-7.7,6.2-11.5c1-3.9,1.2-7.5,1.1-10.3c-0.1-2.8-0.4-4.8-0.5-5.8
		c-1.2-7.6-2.6-14-1.6-14.3c0.5-0.1,1.3,1.3,2.3,3.7c1,2.5,2.1,6,2.7,10c0.1,1,0.5,3.1,0.6,6.2c0.1,3,0,6.9-1.2,11.3
		c-1.2,4.3-3.5,8.9-7,12.8c-3.5,3.9-7.7,7.1-11.8,10.3c-8.3,6.2-16.7,11.7-22,16.8c-2.6,2.5-4.2,5.2-3.6,7c0.3,0.9,0.8,1.5,1.2,1.9
		C2888.2,1135.1,2888.4,1135.4,2888.4,1135.5z"/>
	<path d="M2795.9,1185.2c0,0-0.6-0.1-1.1-1c-0.5-0.9-0.6-2.3-0.3-3.9c0.5-3.1,2.4-7.2,5.8-10c0.1-0.1,0.3-0.2,0.4-0.3
		c0.8-0.4,1.8-0.1,2.2,0.6c0.4,0.7,0.3,1.6-0.1,2.1c-0.1,0.1-0.2,0.2-0.3,0.3c-2.7,2.2-5.1,5.3-6.3,7.8c-0.6,1.3-0.9,2.4-0.8,3.2
		C2795.4,1184.8,2795.9,1185.2,2795.9,1185.2z"/>
	<path d="M2844.4,1170.3c0,0-0.5,0.1-1.5,0.4c-1,0.2-2.4,0.6-4.3,0.6c-0.9,0-2,0-3.1-0.2c-1.1-0.2-2.3-0.6-3.5-0.7
		c-0.6-0.1-1.2-0.1-1.7,0.1c-0.3,0.1-0.5,0.3-0.8,0.4c-0.2,0.2-0.4,0.3-0.5,0.6c-0.6,0.9-0.3,2.4,0.4,3.6c1.3,2.5,4.3,4.3,7.6,4.8
		c3.3,0.6,7.1,0.1,10.6-1.1c3.4-1.3,6.5-3.7,8.4-6.9c1-1.6,1.7-3.5,2.2-5.3c0.5-1.9,0.7-3.9,0.6-5.8c0-0.6-0.1-1.1-0.2-1.6
		c0-0.2,0.1-0.6,0.4-0.8c0.2-0.2,0.5-0.6,0.7-0.9c0.3-0.3,0.7-0.4,1.1-0.2c0.5,0.3,0.8,0.6,1,1.1c0.2,0.8,0.3,1.5,0.3,2.2
		c0.2,4.7-1.1,9.1-3.4,13c-2.4,3.9-6.3,6.7-10.3,8c-4.1,1.2-8.1,1.6-12,0.7c-3.8-0.9-7.2-3.1-8.7-6.4c-0.7-1.6-1.1-3.5,0-5.1
		c0.2-0.4,0.7-0.6,1-0.9c0.4-0.2,0.7-0.3,1.1-0.4c0.8-0.2,1.6-0.2,2.2,0c1.4,0.3,2.4,0.8,3.5,1c1.1,0.3,2.1,0.4,3,0.5
		c1.8,0.1,3.3-0.1,4.2-0.3C2843.9,1170.4,2844.4,1170.3,2844.4,1170.3z"/>
	<path d="M2946.3,1024.9c-0.5-0.2,1.2-4.9,2.9-12.3c0.8-3.7,1.6-8.1,1.7-12.8c0.1-4.7-0.6-9.8-3-14c-1.2-2.1-2.9-3.9-4.9-5.2
		c-2-1.4-4.3-2.2-6.6-2.8c-4.7-1-9.4-0.7-13.4,0.2c-2,0.5-3.8,1.1-5.3,1.9c-1.6,0.8-3.1,1.6-4.4,2.4c-2.6,1.5-4.5,2.5-5.4,3
		c-1.9,1-3.8,1.7-5.7,2.1c-1.9,0.4-3.7,0.4-5.1,0.1c-2.9-0.6-4.3-1.7-4.1-2.1c0.2-0.5,1.8-0.2,4.3-0.3c1.2-0.1,2.6-0.3,4.2-0.8
		c1.5-0.5,3.2-1.2,4.9-2.1c0.9-0.4,2.7-1.4,5.3-2.9c1.3-0.7,2.8-1.6,4.5-2.4c1.8-0.9,3.9-1.6,6.1-2.1c4.4-1,9.6-1.4,14.9-0.1
		c2.6,0.6,5.3,1.7,7.6,3.3c2.4,1.6,4.3,3.8,5.7,6.3c2.8,5,3.2,10.7,3,15.6c-0.3,5-1.3,9.5-2.4,13.2
		C2949,1020.5,2946.7,1025,2946.3,1024.9z"/>
	<path d="M2869.4,993.5c-0.7,0-1.4,0-2.1,0c-0.3,0-0.7,0-1-0.1c-0.3,0-0.5-0.1-0.8-0.1c-0.9-0.2-1.4-0.7-1.7-1.6
		c-0.6-1.9,0.3-4.6,1.5-5.7l0.5-0.4c0.2,0,0.3-0.1,0.5-0.2c0.4-0.1,0.9-0.1,1.2-0.1c0.7,0,1.2,0.6,1.2,1.1c0.2,1.2-0.2,2-0.1,2
		c0,0,0.5-0.6,0.7-2c0.1-0.8-0.3-1.8-1.5-2.2c-0.6-0.2-1.1-0.3-1.7-0.3c-0.3,0-0.7,0.1-1,0.1c-0.3,0.1-0.6,0.3-1,0.4
		c-1.2,0.7-2.1,1.8-2.8,3.2c-0.6,1.3-1.1,2.9-0.8,4.8c0.1,0.5,0.2,0.9,0.4,1.4c0.2,0.5,0.5,0.9,0.8,1.3c0.3,0.4,0.8,0.7,1.2,1.1
		c0.4,0.3,0.9,0.5,1.4,0.7c0.5,0.1,0.9,0.2,1.4,0.3c0.4,0.1,0.8,0.1,1.2,0.1c0.8,0,1.6,0,2.4,0c3.2-0.2,6.1-0.8,8.8-1.4
		c1.4-0.3,2.6-0.6,3.8-0.7c1.2-0.2,2.3-0.2,3,0c0.6,0.2,0.8,0.9,0.7,1.8c-0.1,0.8-0.3,1.6-0.5,2.2c-0.2,0.6-0.4,1.1-0.5,1.4
		c-0.1,0.3-0.2,0.5-0.2,0.5s0.1-0.2,0.3-0.4c0.2-0.3,0.5-0.7,0.9-1.3c0.4-0.6,0.8-1.3,1.1-2.2c0.1-0.5,0.3-1,0.2-1.7
		c0-0.7-0.4-1.5-1.1-2c-1.3-0.9-2.7-0.9-4.1-1c-1.4,0-2.8,0-4.2,0.2C2875.2,993,2872.2,993.4,2869.4,993.5z"/>
	<path d="M2868.5,988.4c-0.1-0.2,0.2-0.7,0.5-1.8c0.3-1.2,1.1-3,2.6-4.6c0.7-0.9,1.6-1.6,2.6-2.5c0.9-0.9,2.1-1.6,3.3-2.3
		c2.6-1.4,5.8-2.1,8.9-1.8c3.1,0.2,6,1,8.7,1.5c2.7,0.5,5.2,1,7.5,1c1.1,0.1,2.2,0,3.2,0c1,0,1.9-0.1,2.6-0.2
		c1.5-0.1,2.7-0.3,3.2-0.4c1.1-0.2,2.1-0.4,3-0.4c0.9-0.1,1.8-0.3,2.5-0.3c1.5-0.1,2.5,0.1,2.6,0.6c0.2,0.5-0.6,1.2-1.9,2
		c-0.7,0.4-1.5,0.8-2.4,1.1c-1,0.3-2,0.6-3.2,0.8c-0.6,0.1-1.8,0.3-3.5,0.4c-0.8,0.1-1.8,0.2-2.9,0.2c-1.1,0-2.2,0.1-3.5-0.1
		c-2.5-0.1-5.2-0.6-8-1.3c-2.8-0.6-5.6-1.4-8.2-1.7c-2.7-0.3-5.2,0.1-7.4,1.1c-1.1,0.6-2.2,1.1-3.1,1.8c-0.9,0.7-1.8,1.3-2.6,2
		c-1.5,1.3-2.4,2.6-3.1,3.6C2869.5,988.3,2868.6,988.7,2868.5,988.4z"/>
</g>
</svg>
