<?xml version="1.0" encoding="utf-8"?>
<!-- Generator: Adobe Illustrator 22.0.1, SVG Export Plug-In . SVG Version: 6.00 Build 0)  -->
<svg version="1.1" id="Layer_1" xmlns="http://www.w3.org/2000/svg" xmlns:xlink="http://www.w3.org/1999/xlink" x="0px" y="0px"
	 viewBox="0 0 6141.1 2472.2" style="enable-background:new 0 0 6141.1 2472.2;" xml:space="preserve">
<g>
	<path d="M2856.7,1244.2c-1.4-5.8-8.9-15.3-8.9-18.6c-2.4,0-5.4-4.1-7.7-5.6c-4.8-3.1-9.2-4.3-14.6-6.3c-5-1.9-11.3-3.8-16.3-5.6
		c-5.8-2.1-12.9-3.6-18.6-5.2c-2.5-0.7-12.1-2.4-14.5-5.5c-4.8-6.1,4-6.8,9.3-7.5c-0.8-0.8-1.5-0.4-1.5-1.5c3.6,0.7,7.9,0,11.1,0.7
		c3.2,0.7,3.4,3.1,5.9,2.2c-0.8,0.8-1.5,0.4-1.5,1.5c10.5,0.3,15.3-0.1,16.3-7.8c0.5-3.5,2.3-4.2,0-8.2c-1.5-2.6-4.5-3.2-3.7-4.8
		c-3.8,0-6.6-2.3-10.4-3c-5.2-0.9-11.7-2.8-18.6-1.5c-2,0.4-6.6,3.9-8.2,4.5c-4.7,1.5-9.1,3.7-13,5.9c-6.9,4-13.5,5.5-14.5,16.3
		c-0.6,6.3,7.3,20.8,16.3,20.8c-1.3,2.5,3.4,3.6,5.2,3c0,3.8,3,1.1,4.5,1.5c-1.3,2.5,23.1,7.8,28.2,8.9c0,1.1-8.6,7.3-10.4,8.9
		c0-2.6-5.7,7.1-5.9,8.2c-0.9,3.6-0.4,7,0.4,10.4c1.3,5.3,4,10.9,9.5,15c5,3.7,8.8,4.2,15.4,5c5.6,0.7,14,2.1,20.1,0.7
		c2.5-0.6,4.8-2.2,8.2-2.2c-0.6-1.2,8.5-4.4,11.1-6.7c3.7-3.2,7.2-12.7,7.4-12.6C2857.5,1253.7,2859.3,1244.2,2856.7,1244.2z
		 M2832.2,1253.1c0,2.6-15.6,4.2-18.6,3c-3.1-1.3-1.9-4.5-7.4-4.5c1.2-6.1,0.3-8.6-1-14.9c-0.3-1.6-4.1-3.9-0.5-6.6
		c0.4-0.3,5.7,1.6,5.2,1.5c4.7,1.3,10,2.5,14.9,5.2C2827.9,1238.5,2840.9,1250.2,2832.2,1253.1z"/>
	<path d="M2863.8,1174.9C2863.4,1175.2,2863.8,1175.1,2863.8,1174.9L2863.8,1174.9z"/>
	<path d="M2840.4,1161.3c3,0,2.4,10.4,7.4,10.4c0.7,0.5-1,3,3,3c-1.8,3.6,11.9,4.6,11.9,0c5.7,0-0.1-14.3-0.3-18.8
		c-0.5-9.4,1-14.6-7.1-17.9c-4.3-1.7-7.1-1.6-10.6,1.1C2837.4,1144.6,2840.4,1152.6,2840.4,1161.3z"/>
	<path d="M2898.5,1268c0-7.5-5-13.8-6.7-19.3c-2.8-9-5.7-18-7.4-28.2c-1.2-7-3.1-17.8-10.4-22.7c-4.7-3.2-10.6-2.8-14.1-0.3
		c-7.9,5.4-4.5,13.6-4.5,19.3c1.6,0-0.1-0.7,1.5-0.7c-2.6,3.2,6,20.2,6.7,23c2.1,8,4.6,16.1,6.7,23.8c1.1,4,5.1,20.3,9.7,23
		c5.7,3.4,13,4.9,18.4-0.2C2900.6,1283.5,2901.6,1268,2898.5,1268z"/>
	<path d="M2931.7,1277.6c-1.6,0-8.9-30.6-9.7-34.2c-2.6-12.6-4.9-27.3-6.7-39.4c-2-13.4-2.8-25.4-4.5-37.5c-0.8-5.9-1.9-15.5-3-21.2
		c-0.6-3,0-4.4-1.1-6.7c-1.3-2.7-2.2-0.9-4.1-3c-1.6-1.7-3.1-1.2-2.2-3c-8.6,0-16.1,1.2-15.6,13.3c0.4,9.7,2.4,16,3,23.1
		c1,12.2,3.2,28.5,5.6,42.3c2.4,14.1,4.7,31.5,7.1,44.9c1.2,6.6,3.4,13.2,5.2,18.9c1.4,4.7,4.7,12.1,6.7,15.6
		c1.6,2.8,2.9,4.9,7.1,5.2c2.3,0.1,6.3,0.2,7.3-0.3c0.2-0.1-1-1.1-1-1.2c0.2,0,7-3.8,6.5-2.8
		C2933.8,1288.8,2931.7,1280.2,2931.7,1277.6z"/>
	<path d="M2948,1171.4c0-0.1,3.7,2.4,3.7,5.2c1.6,0-0.1-0.7,1.5-0.7c-1.5,3,7.3,11.2,13.4,10.4c6.1-0.8,9.3-4.1,8.9-12.6
		c-0.2-4.8-2.2-8.2-5.2-13.4c-1.4-2.5-6.1-7.8-5.9-8.2c-7,0-8.7-6.7-16.3,0.4C2943.7,1156.5,2941.5,1168.1,2948,1171.4z"/>
	<path d="M3062.5,1239c-1.3-5.3-13.2-7.9-16.3-8.9c-1.6-0.5-5.3-2.6-6.7-3c-8.7-2-13-0.7-23.8-0.7c0-12.4,6.7-24.5-1.9-37.8
		c-8.7-13.3-23.9-11.3-34.5-4.6c-10.4,6.6-17.4,16.1-23.8,27.5c-2.5,4.5-3.9,8.4-5.2,12.6c-2.3,7.1-1.5,16.6-1.5,24.5
		c1.6,0-0.1-0.7,1.5-0.7c-2.6,5.2,11.5,4.2,15.1,1c5.6-5,4.1-12,5.3-17.3c1.6-7.2,9.3-28.3,21.2-29.7c1.4,7,2.3,13.9,0,20.8
		c-1.4,4.1-3.7,7.6-5.9,11.9c-2.2,4.3-5.5,10.1-3.2,15c3.2,6.8,16.1,5.6,15.1,3.6c1.8,0.9,4.8,0.7,3.7-1.5c1.6,1.6,4.9,0.9,3.7-1.5
		c4.4,1.1,1.8,0,7.4,0c-1-2.1,2.2-0.8,5.4-1.1c2.6-0.2,7-0.8,8.6-0.8c1.5,0,4.7,1,5.3,1.2c2.5,0.7,8,3.7,11.1,3.7
		c0.7,6.3-14.2,14.1-18.6,15.6c-11.7,3.9-27.6,4.2-36.8-1.5c-4.6-2.8-10.4-6-16.5-3.3c-5.1,2.3-7.9,9.6-6.2,14
		c1.6,4.2,9.2,9.4,12.6,11.5c8,4.9,18.4,3.5,29.7,3c-1.3,5-7,33.2,0.6,33.4c8.2,0.3,14.8,4.4,18.3-6c2.5-7.3,4-24.2-4.1-28.2
		c3.9-3.6,11.7-4,15.6-5.9c7.7-3.9,11.8-5.2,17.8-11.9C3059.9,1269.2,3078.4,1241.9,3062.5,1239z M3020.8,1248.6
		c-0.2-1.7,1-2,3.7-0.7c-0.2,0.5-0.2,0.7,0.1,0.8C3023.4,1248.6,3022.1,1248.6,3020.8,1248.6z"/>
	<path d="M3012.7,1249.4L3012.7,1249.4C3012.6,1249.3,3012.6,1249.4,3012.7,1249.4z"/>
	<path d="M3282.3,1204.1c2.9,0,0.3-29.2,0-31.9c-0.7-5.9-1.3-13.1-3-17.8c-1.2-3.2-6.7-10-6.7-14.1c-3.7,1.4-8.8,2.1-8.9,6.7
		c-5.1-3.9-3.7,13.3-3.7,15.1c-0.2,16.8,1.4,36-1.5,52.5c-0.3,1.5-2.5,10.1-3.7,10.4c-3.3,0.8-3.6-7.3-4.1-8.9
		c-2-6-3.7-11.2-4.8-16.3c-2-9.4,2.4-54.7-20.7-44.5c-16.7,7.3-5,38-3,51.9c-2.9,0-16.1,12.4-20.1,15.3c-5.6,4.1-20.8,10-20.8-2.7
		c6.2,0.3,8.5-8.2,12.6-8.2c0.2-0.7,0-1-0.7-0.7c3-3.6,6-4.7,8.5-8.1c4.2-5.6,7.9-8.7,8.1-16c0.3-12.1-7.9-25.1-20.3-24.6
		c-11.5,0.5-20.9,3.9-29.6,14.1c-5.4,6.4-6.2,15.7-7.6,24.9c-4.2,0-4.1-14.3-4.4-17.2c-0.4-4.2-1-9.9-5.2-14
		c-11.4-10.9-23.7,2.6-21.9,15.7c1,6.9,9.4,17.7,4.5,25.6c-2.5,4.1-9.7,9.3-13.1,13c3.2-3.4-6.3,4.1-3.4,2.9c-1.6,0.7-1.1,1.7-3,1.7
		c-2.3-0.1-5.5-2-6.9-3.8c-3-3.6-2.1-18.1-1.9-23c0.2-4.7,2.4-10.4,3.8-15.3c0.9-3.3,4.5-9.6,3.3-13.7c-1.5-5-9.7-8.7-15.5-6.5
		c-18.4,6.8-16.9,49.3-12.7,64.5c2.8,10,14.2,20.4,26.8,21.5c3.7,0.3,11.6-1.7,14.9-4.5c4.1-3.5,15.7-12.4,17.1-17.8
		c5.7,1.9,10.9,23.2,11.9,26c4.2,11.5,5.5,23.1,4.9,38c-0.5,13.4-15,30.2-28.6,25.9c-5.1-1.6-10.9-7-14.4-10.6
		c-2.6-2.6-4.2-6.6-4.5-10.9c-0.9-11.2,14.1-24.4,21-33.7c2.8-3.7,9.9-9,8-12.9c-4.3-8.7-14-0.8-19,2.7
		c-20.5,14.2-40.8,33.6-27.1,60.1c3.4,6.6,6.6,10.9,14.1,16.2c2.7,1.9,30,20,30,10.6c7.4,3.7,41.9-16.5,37.2-26
		c3.1,1.5,8.1-19.6,8.2-21.4c0.9-14.2-0.8-25.9-3.7-38c-0.6-2.4-4.3-9.8-3-10.8c2.1-1.5,15.4,5,18.6,5.4c13,1.4,34.6-6.5,38.6-22.8
		c4.3,1.2,5.9,8.9,8.8,12.2c4.3,4.9,12,8.4,18.1,10.5c3.7,1.3,8.4,2.9,11.8,1.1c2.5-1.3,8-7.8,6.7-10.4
		C3276.7,1243.6,3282.3,1209.4,3282.3,1204.1z M3179,1195.2c0.2,1-0.2,1.2-1.5,0.7c0.1-3.1,2.9-14.1,7.4-13.1
		C3190.2,1183.9,3182.7,1195.2,3179,1195.2z"/>
	<path d="M3392.3,1226.4c-1.4-8.1-7.6-10.3-14.1-12.6c-1.7-0.6-7.1-2.5-7.8-3.4c-4.1-5.2,2.8-18.6,2.7-26
		c-0.1-16.4-8.3-28.3-22.6-33.2c-10-3.5-21.7-0.5-30,2.1c-6.9,2.1-13.9,4.9-20.6,9.2c-6,3.9-15.3,13.2-14.4,21.3
		c0.9,7.6,11.4,13.1,18.4,9.8c6.1-2.9,5.3-10.1,11.1-13.8c4.9-3.1,15.5-5.9,21.6-6.7c19.8-2.7,6.7,19.9,8.7,27.4
		c-8-1-10.7-5.1-17.6-6.8c-6.2-1.4-16.7,1.5-22.4,4.1c-14.6,6.8-29.8,30.4-21.6,44.7c7.7,13.5,13.6,15.6,28.2,14.8
		c5.7-0.3,7.8-1.2,11.4-2.9c4.6-2.1,16.3-11.6,20.5-11.6c0-6.4,14.2-13,20.1-11.1c4.6,1.5,7.9,4.4,14.4,3.9
		c3.4-0.3,7.7-0.9,10.6-2.9C3390.5,1231.7,3396.2,1226.4,3392.3,1226.4z M3332.1,1224.1c-5.5,1.3-31.4,20.8-21-0.1
		c2.3-4.6,3-7.1,9.9-7.2c5.2-0.1,8.8,4.4,12.6,3.6C3333.1,1221.7,3332.6,1222.9,3332.1,1224.1z"/>
</g>
</svg>
