<?xml version="1.0" encoding="utf-8"?>
<!-- Generator: Adobe Illustrator 25.2.0, SVG Export Plug-In . SVG Version: 6.00 Build 0)  -->
<svg version="1.1" id="Layer_1" xmlns="http://www.w3.org/2000/svg" xmlns:xlink="http://www.w3.org/1999/xlink" x="0px" y="0px"
	 viewBox="0 0 425.2 425.2" style="enable-background:new 0 0 425.2 425.2;" xml:space="preserve">
<g>
	<path d="M261.5,283.7c0,0-0.2,0.4-0.6,1.2c-0.4,0.8-1.1,1.9-1.8,3.4c-1.4,3-3.4,7.3-4.7,12.9c-1.2,5.6-2.6,12.2-3.2,19.4
		c-0.2,1.8-0.2,3.7-0.2,5.5c0,0.9,0.1,1.9,0,2.8c0,0.9,0.1,1.9,0.1,2.8c0.2,1.9,0.4,3.8,0.6,5.8c0.2,2,0.4,4,0.5,6c0,1,0,2-0.1,3
		c-0.1,0.5-0.1,1-0.2,1.6c-0.1,0.5-0.3,1.1-0.7,1.6c-0.1,0.1-0.2,0.3-0.4,0.4c-0.2,0.1-0.4,0.2-0.6,0.2c-0.2,0-0.4,0-0.6-0.1
		c-0.1-0.1-0.3-0.2-0.5-0.3c-0.5-0.4-0.8-0.8-1.1-1.3c-0.6-0.9-1-1.8-1.4-2.7c-0.8-1.9-1.4-3.7-2-5.6c-0.5-1.9-1-3.8-1.5-5.7
		c-0.1-0.5-0.2-0.9-0.3-1.4c-0.1-0.5-0.2-0.9-0.3-1.4c-0.2-0.9-0.4-1.9-0.5-2.8c-0.2-0.9-0.4-1.8-0.5-2.8c-0.1-0.9-0.3-1.8-0.4-2.7
		c-0.3-1.8-0.5-3.5-0.7-5.2c-0.2-1.7-0.4-3.4-0.6-5c-0.2-1.6-0.4-3.2-0.5-4.7c-0.1-1.5-0.2-3-0.4-4.4c-0.2-2.8-0.5-5.3-0.6-7.6
		c-0.2-4.5-0.4-7.7-0.5-9.2c-0.2-6.1-0.3-11.7-0.2-15.7c0.1-4,0.3-6.5,0.4-6.5c0.2,0,0.4,2.5,0.5,6.5c0.2,4.1,0.3,9.6,0.5,15.6
		c0.1,1.5,0.2,4.8,0.5,9.2c0.1,2.2,0.4,4.8,0.6,7.6c0.1,1.4,0.2,2.9,0.4,4.4c0.2,1.5,0.3,3.1,0.5,4.7c0.2,1.6,0.4,3.3,0.6,5
		c0.2,1.7,0.5,3.5,0.7,5.2c0.1,0.9,0.3,1.8,0.4,2.7c0.2,0.9,0.3,1.8,0.5,2.7c0.2,0.9,0.3,1.8,0.5,2.8c0.1,0.4,0.2,0.9,0.3,1.4
		c0.1,0.5,0.2,0.9,0.3,1.4c0.5,1.8,0.9,3.7,1.4,5.6c0.6,1.9,1.2,3.7,1.9,5.5c0.4,0.9,0.8,1.7,1.3,2.6c0.2,0.4,0.5,0.8,0.8,1
		c0.1,0.1,0.1,0.1,0.2,0.1c0,0,0.1,0.1,0.1,0c0,0,0,0,0.1,0c0,0,0.1-0.1,0.1-0.1c0.2-0.2,0.4-0.7,0.4-1.1c0.1-0.4,0.2-0.9,0.2-1.4
		c0.1-1,0.1-1.9,0.1-2.9c0-2-0.2-3.9-0.4-5.8c-0.2-2-0.4-3.9-0.6-5.9c-0.1-1,0-1.9-0.1-2.9c0-0.9-0.1-1.9,0-2.9
		c0.1-1.9,0.1-3.8,0.3-5.6c0.1-0.9,0.2-1.8,0.2-2.7c0.1-0.9,0.2-1.8,0.4-2.6c0.2-1.7,0.6-3.4,0.9-5.1c0.3-1.6,0.7-3.2,1-4.7
		c0.3-1.5,0.6-3,1-4.4c1.4-5.6,3.6-10,5.1-12.9c0.8-1.5,1.5-2.6,1.9-3.3C261.2,284.1,261.5,283.7,261.5,283.7z"/>
	<path d="M303.6,288.7"/>
	<path d="M259,311.1c-0.1,0,0-0.7,0.3-1.7c0.3-1,0.9-2.5,1.6-4.3c1.5-3.5,3.5-8.2,5.5-12.9c4-9.6,7.7-19.9,8.3-21.8
		c0.7-1.9,1.3-3.6,1.8-4.8c0.5-1.2,0.9-2,1.1-1.9c0.2,0.1,0.1,0.9-0.2,2.2s-0.8,3-1.4,5c-0.6,1.9-4.3,12.3-8.5,21.8
		c-2.1,4.8-4.2,9.4-5.9,12.8c-0.8,1.7-1.5,3.1-2,4.1C259.3,310.5,259.1,311.1,259,311.1z"/>
	<path d="M251,317.5c0.1,0,0.4,0.6,0.9,1.6c0.5,1,1.3,2.5,2.3,4.3c1,1.8,2.4,3.6,4.2,5.4c0.9,0.9,1.8,1.8,2.8,2.7
		c1,0.9,2,1.8,3.2,2.5c0.6,0.4,1.1,0.7,1.7,0.8c0.3,0,0.5,0.1,0.7,0c0.1-0.1,0.2-0.2,0.3-0.4c0.2-0.5,0.1-1.2,0-1.8
		c-0.1-0.6-0.2-1.3-0.4-1.9c-0.3-1.3-0.8-2.5-1.3-3.6c-0.5-1.1-1-2.3-1.4-3.3c-0.9-2.1-1.7-4-2.3-5.4c-0.6-1.5-1-2.5-1.2-3
		c-1.6-4-2.4-7.5-2.1-7.6c0.4-0.1,1.7,3.1,3.3,7.1c0.2,0.5,0.6,1.6,1.2,3c0.6,1.4,1.4,3.3,2.3,5.4c0.4,1.1,0.9,2.2,1.4,3.4
		c0.5,1.2,0.9,2.4,1.3,3.8c0.2,0.7,0.3,1.4,0.4,2.1c0.1,0.7,0.1,1.5-0.1,2.3c-0.2,0.4-0.5,0.9-1,1.1c-0.5,0.2-1,0.1-1.4,0.1
		c-0.8-0.2-1.5-0.6-2.1-1c-1.2-0.8-2.3-1.7-3.3-2.6c-1-0.9-1.9-1.9-2.8-2.8c-0.5-0.5-0.9-0.9-1.3-1.4c-0.4-0.5-0.8-1-1.1-1.5
		c-0.3-0.5-0.6-1-1-1.4c-0.3-0.5-0.5-1-0.8-1.4c-1-1.8-1.6-3.4-2-4.4C251,318.1,250.9,317.5,251,317.5z"/>
	<path d="M286.1,193.7c0,0-0.4-0.4-0.9-1.2c-0.3-0.4-0.7-0.8-1.2-1.4c-0.3-0.2-0.5-0.5-0.8-0.8c-0.1-0.1-0.3-0.3-0.5-0.4
		c-0.2-0.1-0.3-0.3-0.6-0.4c-1.5-1-3.5-2-6.1-2.3c-2.5-0.3-5.4,0-8.4,1.1c-3,1-6,2.8-8.9,5c-1.4,1.1-2.9,2.3-4.4,3.5
		c-0.8,0.6-1.6,1.2-2.3,1.8c-0.8,0.6-1.6,1.2-2.4,1.8c-3.3,2.4-6.8,4.7-10.5,6.9c-3.7,2.2-7.7,4.2-11.8,5.8
		c-4.1,1.6-8.4,2.8-12.9,3.5c-4.4,0.6-8.8,0.7-13.1,0c-4.3-0.7-8.3-2.2-11.8-4.2c-3.6-1.9-6.7-4.3-9.5-6.6c-2.8-2.4-5.2-4.8-7.3-7.1
		c-2.1-2.3-4-4.3-5.8-6.1c-3.4-3.6-6.7-4.9-8.2-5.5c-6.2-2.4-12.5-2.4-16.7-1.4c-1.1,0.3-2,0.6-2.8,1c-0.8,0.4-1.4,0.7-1.9,1.1
		c-1,0.7-1.5,1.2-1.5,1.1c-0.1-0.1,0.3-0.7,1.2-1.5c0.5-0.4,1.1-0.9,1.9-1.3c0.8-0.4,1.8-0.9,2.8-1.2c4.3-1.4,10.9-1.5,17.4,1
		c0.8,0.3,2,0.8,3.6,1.7c0.7,0.4,1.6,1,2.5,1.7c0.9,0.7,1.7,1.5,2.6,2.4c1.8,1.8,3.7,3.9,5.8,6.1c2.2,2.2,4.5,4.7,7.2,7
		s5.8,4.6,9.2,6.5c3.5,1.9,7.3,3.4,11.4,4.1c4.1,0.7,8.5,0.7,12.7,0.1c4.3-0.6,8.5-1.8,12.6-3.4c4.1-1.5,8-3.5,11.7-5.6
		s7.2-4.4,10.5-6.8c0.8-0.6,1.6-1.2,2.4-1.8c0.8-0.6,1.6-1.2,2.3-1.8c1.5-1.2,3-2.4,4.5-3.5c3-2.2,6.1-4,9.1-5
		c3.1-1.1,6.1-1.4,8.7-1c2.6,0.4,4.7,1.4,6.2,2.5c0.2,0.1,0.4,0.3,0.6,0.4c0.2,0.1,0.3,0.3,0.5,0.4c0.3,0.3,0.6,0.6,0.8,0.8
		c0.4,0.6,0.8,1.1,1.1,1.5C285.9,193.3,286.1,193.8,286.1,193.7z"/>
	<path d="M278.3,187.4c0,0,0.1-0.1,0.4-0.2c0.3-0.1,0.7-0.4,1.2-0.5c1.1-0.4,2.7-0.8,5-0.9c2.2,0,4.8,0.3,7.7,1.6
		c1.4,0.6,2.8,1.5,4.1,2.7c1.3,1.1,2.4,2.6,3.2,4.4s1.2,3.8,1.1,5.8c-0.1,2.1-0.6,4.2-1.4,6.2c-0.8,2-1.9,4-3.2,5.9
		c-1.3,1.9-2.6,3.8-3.9,5.7c-2.6,3.9-5,8.2-7.2,12.6c-1.1,2.2-2.1,4.5-2.8,6.9c-0.8,2.4-1.3,4.9-1.4,7.3c-0.1,2.5,0.5,5,1.9,6.9
		c0.2,0.2,0.4,0.5,0.6,0.7l0.4,0.4c0.2,0.2,0.6,0.4,0.3,0.7l-0.8,2c-0.2,0.6-0.6,1.2-0.8,1.8c-0.3,0.6-0.6,1.1-0.9,1.7
		c-1.3,2.3-2.8,4.4-4.5,6.3s-3.6,3.6-5.6,5.2c-2,1.5-4.1,2.9-6.3,4c-1.1,0.6-2.2,1.1-3.2,1.7c-0.6,0.3-1.1,0.5-1.7,0.7
		c-0.6,0.2-1.2,0.4-1.8,0.5c-2.4,0.5-4.9,0.1-7.1-0.6c-2.2-0.7-4.2-1.6-6.1-2.7c-3.7-2.2-6.9-4.6-9.5-7.2c-0.7-0.6-1.3-1.3-1.9-1.9
		c-0.3-0.3-0.6-0.7-0.8-1l-0.3-0.4c0,0-0.1-0.1-0.1-0.1l0-0.2l0.1-0.3c0-0.2,0.1-0.5,0.1-0.7c0.1-0.4,0.1-0.8,0.2-1.2
		s0.2-0.8,0.2-1.2c0.1-0.8,0.3-1.5,0.5-2.2c0.7-2.9,1.5-5.2,2.1-7.1c0.7-1.9,1.2-3.4,1.6-4.3c2.8-7.5,6-13.9,8.5-18.5
		c1.3-2.3,2.4-4.1,3.2-5.3c0.8-1.2,1.4-1.8,1.4-1.8c0.2,0.1-1.5,2.9-3.8,7.5c-2.3,4.7-5.3,11.1-8.1,18.5c-0.4,0.9-0.9,2.4-1.5,4.2
		c-0.7,1.9-1.4,4.3-2.1,7c-0.2,0.7-0.4,1.4-0.5,2.1c-0.1,0.4-0.2,0.8-0.2,1.1s-0.1,0.8-0.2,1.2c0,0.2-0.1,0.4-0.1,0.6l0,0l0.1,0.1
		c0.3,0.3,0.5,0.6,0.8,1c0.6,0.6,1.1,1.3,1.8,1.9c2.5,2.5,5.6,5,9.2,7c1.8,1,3.7,2,5.8,2.6c2,0.6,4.3,1,6.5,0.5
		c0.5-0.1,1.1-0.2,1.6-0.5c0.5-0.2,1.1-0.5,1.6-0.7c1.1-0.5,2.1-1,3.2-1.6c2.1-1.2,4.2-2.4,6.1-3.9c2-1.5,3.8-3.1,5.4-5
		c1.7-1.9,3.1-3.9,4.4-6.1c0.3-0.5,0.6-1.1,0.9-1.7c0.3-0.6,0.6-1.1,0.8-1.7l0.6-1.5c0,0,0,0,0,0l-0.3-0.3c-0.2-0.2-0.4-0.5-0.6-0.8
		c-0.8-1.1-1.4-2.4-1.7-3.6c-0.4-1.3-0.5-2.7-0.4-4c0.1-2.7,0.7-5.2,1.5-7.7c0.8-2.4,1.8-4.8,3-7c2.2-4.5,4.8-8.7,7.4-12.7
		c1.3-2,2.6-3.9,3.9-5.7c1.3-1.9,2.4-3.7,3.2-5.7c0.8-1.9,1.3-4,1.4-5.9c0.1-1.9-0.2-3.9-1-5.5s-1.8-3.1-3-4.2
		c-1.2-1.1-2.6-2-3.9-2.6c-2.7-1.2-5.3-1.7-7.4-1.7c-2.1,0-3.8,0.3-4.9,0.7c-0.5,0.1-1,0.3-1.2,0.4
		C278.5,187.4,278.3,187.4,278.3,187.4z"/>
	<path d="M165.7,312c0,0,0,0.1,0,0.4s0,0.7-0.1,1.2c-0.1,0.5-0.1,1.1-0.2,1.9c0,0.4-0.1,0.8-0.1,1.2c-0.1,0.4-0.1,0.9-0.2,1.3
		c-0.3,1.9-0.7,4.2-1.1,6.8c-0.5,2.6-1.1,5.6-1.7,8.8c-0.3,1.6-0.7,3.3-1,5c-0.4,1.7-0.7,3.5-1,5.4c-0.3,1.9-0.5,3.8-0.6,5.7
		c0,1,0,2,0.2,2.9c0.1,0.5,0.3,0.9,0.5,1.2c0.2,0.2,0.5,0.3,0.9,0.2c0.8-0.3,1.6-1,2.3-1.7c0.7-0.7,1.3-1.6,1.9-2.4
		c1.2-1.7,2.3-3.6,3.2-5.6c2-3.9,3.8-8,5.5-12.2c1.7-4.2,3.2-8.5,4.5-12.8c1.3-4.3,2.4-8.6,3.2-12.9c0.3-2.1,0.8-4.3,0.9-6.3
		c0.1-1,0.3-2.1,0.3-3.1c0.1-1,0.1-2.1,0.2-3.1c0.1-4.1-0.1-8-0.8-11.6c-1.2-7.2-3.5-13.4-5.5-18.1c-2-4.7-3.6-8-4.3-9.6
		c-1.5-3.1-2.9-6.1-4.2-8.9c-0.6-1.4-1.2-2.7-1.7-4c-0.5-1.3-1-2.4-1.3-3.5c-0.2-0.5-0.4-1-0.5-1.5c-0.1-0.5-0.3-1-0.4-1.4
		c-0.2-0.9-0.4-1.7-0.5-2.3c-0.2-1.3-0.2-2-0.2-2c0.2,0,0.7,2.8,2.4,7c0.4,1.1,0.9,2.2,1.5,3.4c0.5,1.2,1.2,2.5,1.8,3.9
		c1.3,2.7,2.8,5.7,4.3,8.9c0.7,1.6,2.3,4.9,4.4,9.6c1.9,4.7,4.3,10.9,5.5,18.3c0.7,3.7,0.9,7.7,0.9,11.8c-0.1,1-0.1,2.1-0.2,3.1
		c0,1.1-0.2,2.1-0.3,3.2c-0.2,2.1-0.7,4.3-1,6.5c-0.9,4.3-2,8.7-3.3,13c-1.4,4.3-2.9,8.6-4.6,12.8c-1.7,4.2-3.6,8.3-5.6,12.3
		c-1,2-2.1,3.9-3.4,5.7c-0.6,0.9-1.3,1.8-2.1,2.5s-1.5,1.6-2.7,2c-0.3,0.1-0.6,0.1-1,0.1c-0.1,0-0.2,0-0.3-0.1l-0.3-0.1
		c-0.2-0.1-0.3-0.2-0.4-0.3c-0.5-0.5-0.6-1.1-0.7-1.6c-0.2-1.1-0.2-2.1-0.2-3.1c0.1-2,0.3-4,0.6-5.9c0.3-1.9,0.7-3.7,1.1-5.4
		c0.4-1.7,0.7-3.4,1.1-5c0.7-3.2,1.3-6.1,1.9-8.7c0.5-2.6,0.9-4.9,1.3-6.7c0.1-0.5,0.2-0.9,0.2-1.3c0.1-0.4,0.1-0.8,0.2-1.2
		c0.1-0.7,0.2-1.3,0.3-1.8s0.1-0.9,0.2-1.1C165.7,312.1,165.7,312,165.7,312z"/>
	<path d="M114.1,351.6c0,0,0.1-0.4,0.4-1c0.2-0.3,0.4-0.7,0.6-1.1c0.3-0.4,0.6-0.9,1-1.4c1.6-2.1,4.5-4.6,8.2-7.2
		c7.5-5.3,18.3-10.9,29.1-17.1c2.7-1.6,5.4-3.2,8-4.8c2.6-1.7,5.2-3.4,7.3-5.4c4.3-4,7.1-9.2,8.7-14c1.6-4.8,2.1-9.3,2.2-12.7
		c0.2-3.5,0-6-0.1-7.2c-0.6-9.6-2.8-17.1-2.4-17.2c0.2,0,0.9,1.8,1.7,4.9c0.8,3.1,1.7,7.4,2,12.3c0.1,1.2,0.2,3.8,0.1,7.4
		c-0.2,3.5-0.7,8.2-2.3,13.1c-1.6,4.9-4.5,10.2-9.1,14.5c-0.6,0.5-1.1,1.1-1.8,1.5c-0.6,0.5-1.2,1-1.9,1.4c-1.3,0.9-2.6,1.7-3.9,2.6
		c-2.7,1.7-5.4,3.3-8.1,4.8c-10.9,6.2-21.8,11.7-29.3,16.8c-3.7,2.5-6.6,4.9-8.3,6.9C114.7,350.3,114.2,351.7,114.1,351.6z"/>
	<path d="M163.9,329.2c0.1,0.1-1.2,1.1-3.2,2.3s-4.8,2.9-7.9,4.1c-0.8,0.3-1.6,0.6-2.4,0.7c-0.4,0.1-0.9,0.1-1.4,0.1
		c-0.5,0-1.1-0.3-1.5-0.9c-0.3-0.6-0.3-1.1-0.2-1.5c0.1-0.5,0.2-0.8,0.3-1.2c0.3-0.7,0.6-1.4,1-2c1.3-2.4,2.6-4,3-4.5
		c1.5-2,3.1-3.5,3.3-3.2c0.3,0.2-0.8,2-2.2,4c-0.4,0.5-1.6,2.1-2.9,4.4c-0.3,0.6-0.6,1.2-0.9,1.8c-0.1,0.3-0.2,0.7-0.3,1
		c-0.1,0.3,0,0.6,0.1,0.7c0.1,0.1,0.2,0.2,0.5,0.3c0.3,0.1,0.7,0,1-0.1c0.7-0.1,1.5-0.4,2.2-0.6c3-1.1,5.8-2.6,7.9-3.7
		C162.4,329.8,163.8,329.1,163.9,329.2z"/>
	<path d="M136.2,278.7c-0.1,0-0.7-0.9-1.3-2.7c-0.6-1.8-1.3-4.6-1.1-7.9c0-0.4,0.1-0.8,0.1-1.3c0-0.2,0.1-0.4,0.1-0.7
		c0-0.2,0.1-0.4,0.2-0.7c0-0.2,0.1-0.4,0.2-0.7c0.1-0.2,0.2-0.4,0.2-0.7c0.2-0.4,0.3-0.9,0.6-1.3c0.8-1.8,1.8-3.5,2.7-5.4
		c0.9-1.9,1.8-3.8,2.4-5.9c0.6-2.1,0.9-4.3,1-6.5c0-0.5,0-1.1-0.1-1.7c0-0.6,0-1.1-0.1-1.7c-0.2-1.1-0.3-2.2-0.5-3.3
		c-0.1-0.5-0.3-1.1-0.4-1.6c-0.1-0.5-0.3-1-0.5-1.6c-0.4-1-0.7-2.1-1.1-3.1c-1.6-4.1-3.1-8-4.3-11.6c-1.2-3.6-2-6.8-2.4-9.3
		c-0.2-1.3-0.3-2.4-0.4-3.3c0-0.9-0.1-1.6-0.1-2.1c-0.1-3.6,0.4-6.8,0.8-9c0.4-2.3,0.9-3.6,1.1-3.6c0.2,0,0.1,1.5-0.2,3.7
		c-0.3,2.3-0.5,5.4-0.4,8.9c0,0.4,0.1,1.1,0.1,2c0.1,0.9,0.2,2,0.4,3.2c0.4,2.5,1.2,5.6,2.4,9.2c1.2,3.5,2.7,7.5,4.2,11.6
		c0.4,1,0.8,2.1,1.1,3.2c0.2,0.5,0.4,1.1,0.5,1.6c0.1,0.6,0.3,1.1,0.4,1.7c0.3,1.1,0.4,2.3,0.6,3.4c0.1,0.6,0.1,1.2,0.1,1.7
		c0,0.6,0.1,1.2,0,1.7c-0.1,2.3-0.5,4.6-1.1,6.8c-0.7,2.2-1.5,4.2-2.5,6.1c-1,1.9-2,3.6-2.8,5.3c-0.2,0.4-0.4,0.8-0.5,1.3
		c-0.1,0.2-0.2,0.4-0.2,0.6c0,0.2-0.1,0.4-0.2,0.6c0,0.2-0.1,0.4-0.1,0.6c0,0.2-0.1,0.4-0.1,0.6c-0.1,0.4-0.2,0.8-0.1,1.2
		c-0.3,3.2,0.2,5.9,0.7,7.7C135.8,277.6,136.3,278.6,136.2,278.7z"/>
	<path d="M47,277.8c0,0,0.3,0.1,0.8,0.4c0.5,0.3,1.2,0.8,2.1,1.3c1.8,1.1,4.4,2.6,7.7,4.1c3.3,1.5,7.3,3.1,11.7,4.5
		c4.4,1.3,9.2,2.5,14.2,3.2c5,0.8,10,1.1,14.9,0.9c4.8-0.2,9.4-0.9,13.2-2.4c3.8-1.5,7.2-2.9,9.8-4c2.6-1.1,4.4-2,5.3-2.4
		c3.5-1.7,6.5-3.3,8.4-5c0.5-0.4,0.9-0.8,1.3-1.1c0.3-0.3,0.6-0.7,0.8-0.9c0.4-0.6,0.7-0.9,0.7-0.8c0.1,0.1,0,0.4-0.3,1.1
		c-0.2,0.3-0.4,0.7-0.7,1.1c-0.3,0.4-0.7,0.9-1.2,1.3c-1.9,1.9-4.9,3.7-8.5,5.5c-0.9,0.4-2.7,1.3-5.4,2.4c-2.6,1.1-6,2.5-9.8,4
		c-4,1.6-8.7,2.3-13.6,2.5c-4.9,0.1-10.1-0.2-15.1-1.1c-5-0.8-9.9-2-14.3-3.4c-4.4-1.4-8.4-3.1-11.7-4.7c-3.3-1.6-5.9-3.3-7.6-4.5
		c-0.9-0.6-1.5-1.1-2-1.5C47.2,278,47,277.8,47,277.8z"/>
	<path d="M171.2,212c0.1,0,0,0.8-0.6,2c-0.5,1.2-1.5,2.9-3.1,4.7c-0.7,0.9-1.7,1.8-2.7,2.7c-1,0.9-2.2,1.7-3.4,2.5
		c-0.6,0.4-1.3,0.8-1.9,1.1c-0.4,0.2-0.8,0.4-1.2,0.6l-0.5,0.2l-0.4-0.3L157,225c-0.6-0.5-1.1-1.1-1.6-1.7c-0.5-0.6-1-1.3-1.5-1.9
		c-1.8-2.7-3.2-5.7-4-8.7c-0.2-0.7-0.4-1.5-0.6-2.3c-0.1-0.8-0.2-1.5-0.4-2.2c-0.1-0.7-0.1-1.4-0.2-2.2c0-0.4-0.1-0.7-0.1-1
		c0-0.4,0-0.7,0-1c0-0.7,0-1.3,0-1.9c0.1-0.6,0.1-1.2,0.2-1.8c0.1-1.1,0.3-2.1,0.4-3.1c0.1-0.5,0.2-0.9,0.2-1.3s0.2-0.7,0.3-1
		c0.2-0.6,0.3-1.1,0.4-1.4c1.4-4.8,3.7-8.2,3.9-8c0.4,0.2-1.3,3.8-2.6,8.4c-0.1,0.3-0.2,0.7-0.4,1.3c-0.1,0.3-0.2,0.6-0.3,1
		c-0.1,0.4-0.1,0.8-0.2,1.2c-0.2,0.9-0.4,1.9-0.4,2.9c-0.1,0.5-0.1,1.1-0.1,1.7c0,0.6,0,1.2,0,1.8c0,0.3,0,0.6,0,1
		c0,0.3,0,0.7,0.1,1c0.1,0.7,0.1,1.4,0.2,2.1c0.1,0.7,0.2,1.4,0.4,2.1c0.1,0.7,0.4,1.4,0.5,2.2c0.8,2.9,2.1,5.8,3.8,8.4
		c0.4,0.6,0.9,1.3,1.4,1.9c0.5,0.6,1,1.2,1.5,1.7l0.3,0.3l0,0l0,0c0.3-0.1,0.6-0.3,0.9-0.4c0.7-0.4,1.3-0.7,1.9-1.1
		c1.2-0.8,2.4-1.5,3.4-2.4c1-0.8,1.9-1.7,2.7-2.5c1.6-1.6,2.6-3.2,3.3-4.4C170.9,212.7,171.1,212,171.2,212z"/>
	<path d="M139.5,232.8c0-0.1,0.5-0.4,1.1-1.3c0.6-0.9,1-2.4,1.1-4.2c0-0.5,0-0.9-0.1-1.5c0-0.2,0-0.5,0-0.7c0-0.3-0.1-0.5-0.1-0.8
		c-0.1-1.1-0.2-2.3-0.3-3.5c-0.2-2.4-0.3-5-0.2-7.7c0.1-2.7,0.3-5.3,0.7-7.9c0.4-2.6,1-4.9,1.7-7c1.4-4.2,3.3-7,4-7.8
		c1.2-1.7,2.5-3.1,3.6-3.9c1.1-0.8,1.8-1.2,1.9-1.1c0.3,0.3-2.2,2.5-4.4,5.7c-0.6,0.8-2.4,3.5-3.8,7.5c-0.7,2-1.3,4.3-1.7,6.8
		c-0.4,2.5-0.7,5.1-0.8,7.7s-0.1,5.2,0.1,7.6c0.1,1.2,0.1,2.3,0.2,3.5c0,0.3,0,0.6,0,0.8c0,0.3,0,0.5,0,0.8c0,0.5,0,1,0,1.5
		c-0.2,2-0.8,3.5-1.5,4.4C140.2,232.6,139.5,232.9,139.5,232.8z"/>
	<path d="M168.2,222.8c-1,2-1.9,4-2.7,5.5c-0.4,0.8-0.7,1.4-1,1.8c-0.2,0.4-0.4,0.7-0.4,0.7s0.2-0.2,0.5-0.6
		c0.3-0.4,0.8-0.9,1.3-1.6c1.1-1.3,2.3-3.3,3.4-5.3c1-2.1,1.7-4.2,2.1-5.9c0.1-0.4,0.1-0.8,0.2-1.2c0-0.3,0-0.7,0-0.9
		c0-0.5,0-0.8,0-0.8s-0.1,0.3-0.2,0.8c-0.1,0.3-0.2,0.5-0.3,0.9c-0.1,0.3-0.3,0.7-0.4,1.1C170.2,218.8,169.2,220.8,168.2,222.8z"/>
	<path d="M270.6,212.1c0,0-0.2,0.3-0.8,0.8c-0.6,0.5-1.4,1-2.6,1.7c-2.3,1.3-5.7,2.9-9.9,4.6c-8.4,3.4-20.1,7-32.4,8.9
		c-6.2,0.9-12.5,1.4-18.6,1.1c-6.1-0.3-11.8-1.7-16.6-3.4c-4.9-1.7-8.9-3.7-12-5.4c-3.1-1.7-5.3-3-6.3-3.6c-4.1-2.5-7.7-5-10.4-6.5
		c-1.3-0.8-2.5-1.3-3.3-1.6c-0.2-0.1-0.4-0.1-0.5-0.2c-0.2,0-0.3-0.1-0.4-0.1c-0.2-0.1-0.3-0.1-0.3-0.2c0,0,0.1-0.1,0.4-0.1
		c0.1,0,0.3,0,0.4,0c0.2,0,0.4,0.1,0.6,0.1c0.9,0.2,2.1,0.6,3.6,1.3c2.9,1.4,6.6,3.7,10.7,6.2c1,0.6,3.2,1.9,6.2,3.6
		c3.1,1.7,7.1,3.6,11.8,5.3c4.8,1.7,10.3,3,16.3,3.4c5.9,0.3,12.2-0.2,18.3-1c12.3-1.8,23.9-5.3,32.3-8.4c4.2-1.6,7.6-3.1,9.9-4.3
		c1.2-0.6,2-1.1,2.6-1.5C270.3,212.3,270.6,212,270.6,212.1z"/>
	<path d="M280.7,165.8c0,0,0,0.2-0.3,0.3c-0.3,0.1-0.6,0.1-1.1,0c-0.9-0.2-1.9-0.8-3.1-1.7l-0.3-0.2l-0.3-0.3
		c-0.1-0.1-0.1-0.1,0-0.2l0.1-0.2l0.1-0.4c0.1-0.4,0.3-0.7,0.4-1.1c0.1-0.2,0.2-0.4,0.4-0.6c0.2-0.3,0.5-0.5,0.8-0.5
		c0.2,0,0.3,0.1,0.5,0.1c0.1,0.1,0.1,0.1,0.2,0.2l0.1,0.1c0.1,0.1,0.1,0.1,0.2,0.2l0.3,0.1c0.7,0.3,1.5,0.6,2.4,0.9
		c0.4,0.2,0.8,0.3,1.3,0.5c0.2,0.1,0.4,0.2,0.7,0.3c0.1,0.1,0.2,0.1,0.4,0.2c0.1,0.1,0.3,0.3,0.4,0.4l0.3,0.7
		c0.1,0.2,0.2,0.5,0.3,0.7c0,0.2,0.1,0.3,0.2,0.5l0,0c0,0,0,0,0,0c0,0,0-0.1,0-0.1l0,0l0,0c0-0.1,0-0.3,0.1-0.4
		c0.2-1.2,0.6-1.8,0.7-2.1c0.6-1.1,1.2-1.9,1.6-2.5c0.5-0.6,0.7-1,0.9-0.9c0.2,0,0.2,0.6-0.1,1.4c-0.3,0.8-0.8,1.7-1.3,2.7
		c-0.1,0.3-0.5,0.9-0.6,1.7l0,0.2c0,0.1,0,0.1,0,0.2c0,0.3,0,0.5-0.1,0.8c0,0.5-0.1,1.1-0.1,1.7c-0.1,1.2-0.2,2.5-0.3,3.9
		c-0.5-1.5-1.1-3.1-1.6-4.8c-0.2-0.6-0.4-1.3-0.7-1.9c-0.1-0.2-0.2-0.4-0.2-0.6l-0.2-0.5c0,0,0,0,0,0s-0.1-0.1-0.2-0.1
		c-0.2-0.1-0.4-0.2-0.5-0.3l-1.2-0.5c-0.8-0.3-1.7-0.6-2.4-1c-0.1-0.1-0.2-0.1-0.3-0.2c-0.1-0.1-0.2-0.2-0.3-0.2l-0.1-0.1l0,0
		c0,0,0,0-0.1-0.1c0,0-0.1,0-0.1,0.1c-0.1,0.1-0.2,0.2-0.2,0.4c-0.2,0.3-0.3,0.7-0.4,1l0,0.1l0,0l0,0c0,0-0.1,0.1,0,0.1l0.1,0.1l0,0
		l0.1,0.1c1,0.9,2,1.5,2.7,1.9c0.4,0.1,0.6,0.2,0.8,0.2C280.6,165.8,280.6,165.7,280.7,165.8z"/>
	<path d="M273.4,178.7c0,0,0-0.1-0.1-0.2c0-0.2-0.1-0.4-0.1-0.7c-0.1-0.6-0.1-1.6,0-2.7c0.2-2.2,0.7-5.2,2.5-7.8
		c0.1-0.1,0.1-0.2,0.2-0.3c0.2-0.2,0.6-0.2,0.9,0c0.2,0.2,0.3,0.6,0.2,0.8c-0.1,0.1-0.1,0.2-0.2,0.2c-1.6,2.2-2.4,5-2.9,7.1
		c-0.2,1.1-0.3,1.9-0.4,2.6c0,0.3,0,0.5,0,0.7C273.4,178.6,273.4,178.7,273.4,178.7z"/>
	<path d="M281.5,177c-0.9,0-1.9-0.2-2.7-0.4l-0.4-0.1c-0.1-0.1-0.4-0.1-0.6-0.1c-0.2,0-0.4,0.1-0.6,0.2c-0.2,0.1-0.2,0.3-0.4,0.4
		c-0.3,0.5-0.5,0.8-0.7,1.2c0.2,0,0.4,0.1,0.6,0.1c0.1-0.1,0.3-0.1,0.2-0.2c0,0,0,0,0,0c0,0,0-0.1,0-0.2c0-0.1,0-0.2,0-0.2
		c0-0.1,0-0.1,0-0.3c0-0.6,0-1.1,0.1-1.6c-0.1-0.1-0.2-0.1-0.2-0.2c0,0,0-0.1-0.1-0.1c0,0-0.2,0-0.2,0c-0.2,0-0.3,0.1-0.4,0.2
		c-0.1,0.1-0.2,0.2-0.3,0.3c-0.2,0.3-0.4,0.5-0.5,0.8c-0.1,0.1-0.1,0.3-0.2,0.4c-0.1,0.1-0.1,0.2-0.1,0.3c-0.3,0.7-0.4,1.2-0.4,1.2
		s0.2-0.4,0.6-1.1c0.1-0.1,0.1-0.2,0.2-0.2s0.1-0.1,0.2-0.2c0.1-0.1,0.2-0.2,0.3-0.3c0.1-0.1,0.2-0.2,0.3-0.1c0,0,0.1,0,0.1,0.1
		l0,0.2c0,0.1,0,0.2-0.1,0.3c0,0.2-0.1,0.3-0.1,0.4c0,0,0,0.2,0,0.2c0,0.1,0,0.2,0,0.3c0,0.1,0,0.2,0,0.3c0,0.1,0,0.3,0.2,0.5
		l0.4,0.5l0.4-0.6c0.3-0.3,0.5-0.8,0.8-1.1c0,0,0.1-0.1,0.1-0.1l0,0l0.1,0.1l0.3,0.1c1,0.4,2,0.6,3.1,0.6c1.6,0.1,3.3-0.2,4.6-0.9
		c1.2-0.6,2.5-1,3.5-1.3c1.1-0.2,2-0.3,2.7-0.2c0.2,0,0.3,0,0.4,0c0.1,0,0.2,0,0.3,0.1c0.2,0,0.3,0,0.3,0s-0.1-0.1-0.3-0.1
		c-0.1-0.1-0.2-0.1-0.3-0.1c-0.1,0-0.3-0.1-0.4-0.1c-0.6-0.2-1.6-0.3-2.8-0.2c-1.2,0.1-2.5,0.4-3.9,0.9
		C284.4,176.9,282.9,177.1,281.5,177z"/>
	<path d="M292.9,174.2c0.2-0.8-0.1-1.5-0.4-2c-0.3-0.5-0.7-0.7-0.7-0.7s-0.2,0.4-0.3,0.8c-0.2,0.5-0.5,1-0.6,1.4
		c-0.1,0.5,0,0.9-0.1,1.3c0,0.2-0.1,0.4-0.2,0.5c-0.1,0.1-0.2,0.2-0.2,0.2c0,0,0.3,0.3,1,0.1C292.1,175.7,292.8,175,292.9,174.2z"/>
	<path d="M294,172.5c0,0,0-0.1-0.1-0.2c-0.1-0.1-0.1-0.3-0.3-0.5c-0.3-0.4-0.8-0.9-1.5-1.4c-0.4-0.3-0.8-0.5-1.1-0.8
		c-0.4-0.3-0.8-0.6-1.3-1c-0.5-0.4-0.8-1.1-0.9-1.7c-0.1-0.6-0.1-1.3-0.1-1.9c0-0.1,0-0.2,0-0.3c0.1-0.3,0.4-0.5,0.7-0.5
		c0.3,0,0.6,0.3,0.6,0.5c0,0.1,0,0.2,0,0.3c-0.1,1.2-0.1,2.1,0.6,2.8c0.3,0.4,0.7,0.8,1.1,1.1c0.4,0.3,0.7,0.7,1,1
		c0.6,0.7,1.1,1.3,1.3,1.8c0.1,0.3,0.2,0.5,0.2,0.6C293.9,172.4,294,172.5,294,172.5z"/>
	<path d="M289.3,161.7c0,0,0.2,0.2,0.3,0.5c0.2,0.3,0.5,0.8,1,1.2c0.6,0.3,1.4,0.4,2.3,0.2c0.5-0.1,0.9-0.3,1.4-0.6l0.3-0.2l0.3-0.2
		c0.2-0.2,0.3-0.4,0.5-0.6c0.6-0.9,1.1-2,1.3-3.3c0.3-1.2,0.4-2.6,0.1-3.7c-0.2-0.7-0.4-0.8-0.9-0.9c-0.5-0.1-1.1,0-1.6,0.3
		s-1,0.6-1.5,1c-0.4,0.5-0.7,0.5-1.2,2l-0.3,0c-0.2,0-0.3,0-0.4,0c-0.1,0-0.2-0.1-0.3-0.1c-0.1-0.1-0.1-0.1-0.2-0.2
		c0,0-0.1-0.1-0.1-0.1l0-0.1l0,0l0,0l0,0c0.2-0.5,0.1-0.1,0.1-0.3l0,0l0,0l0,0c0,0,0,0.1,0,0.2c0,0.1,0,0,0,0s0,0,0,0l0,0
		c0,0,0,0-0.1,0l-0.1,0l-0.3,0.1c-0.4,0.2-0.7,0.3-1.1,0.5c0-0.8,0-1.6,0-2.3c0-0.5,0.1-0.9,0.2-1.3c0-0.4,0.2-0.8,0.2-1.2
		c0.1-0.4,0.2-0.7,0.3-1c0.3-0.6,0.5-1.2,0.7-1.6c0.2-0.4,0.4-0.7,0.5-0.9c0.2-0.4,0.5-0.7,0.7-0.9c0.3-0.3,0.5-0.6,0.7-0.8
		c0.5-0.5,1-0.9,1.4-1.2c0.9-0.6,1.5-0.8,1.6-0.7c0.2,0.4-1.7,1.9-3.3,4.4c-0.1,0.2-0.3,0.5-0.5,0.8c-0.2,0.4-0.4,0.9-0.6,1.4
		c-0.1,0.3-0.2,0.6-0.3,0.9c-0.1,0.3-0.2,0.7-0.2,1.1c0,0.4-0.1,0.8-0.1,1.2l0,0.3c0,0.1,0,0,0,0l0,0l0,0l0,0l0,0l0,0c0,0,0,0,0,0
		l0.1,0c0.2,0,0.4,0,0.6,0.1c0.1,0.1,0.1,0.1,0.1,0.1l0,0l0,0c0,0,0,0,0.3-0.4c0.1-0.1,0.2-0.3,0.3-0.4s0.2-0.3,0.4-0.4
		c0.6-0.5,1.1-0.9,1.8-1.2c0.7-0.3,1.4-0.5,2.3-0.4c0.2,0,0.4,0.1,0.7,0.2c0.2,0.1,0.4,0.3,0.5,0.5c0.2,0.2,0.2,0.4,0.4,0.6
		c0.1,0.2,0.1,0.4,0.2,0.6c0.2,0.7,0.2,1.5,0.1,2.2c0,0.7-0.2,1.4-0.3,2.1c-0.3,1.3-0.9,2.6-1.6,3.6c-0.2,0.2-0.4,0.5-0.7,0.7
		l-0.4,0.3l-0.4,0.2c-0.5,0.3-1.1,0.5-1.6,0.6c-1.1,0.2-2.1,0-2.8-0.5c-0.7-0.5-0.9-1.1-1-1.6C289.2,161.9,289.2,161.7,289.3,161.7z
		"/>
	<path d="M295.7,181.8c-0.1-0.1,0.4-0.9,1.4-2.3c1-1.3,2.7-3.2,5.1-4.8c1.2-0.8,2.4-1.8,3.6-2.8c1.2-1.1,2.6-2.2,3.7-3.6
		c0.3-0.3,0.6-0.6,0.9-1c0.3-0.4,0.6-0.7,0.8-1.1c0.3-0.4,0.6-0.7,0.8-1.1c0.2-0.4,0.5-0.8,0.7-1.2c1-1.6,1.8-3.4,2.4-5.3
		c0.4-0.9,0.6-1.8,1-2.8c0.3-0.9,0.4-1.8,0.3-2.7c-0.2-1.8-1-3.6-2-5.2c-2-3.1-4.6-5.8-6.9-8.1c-1.2-1.2-2.3-2.2-3.2-3.2
		c-0.5-0.5-1-1-1.4-1.5c-0.2-0.2-0.4-0.5-0.6-0.7c-0.2-0.2-0.4-0.4-0.6-0.6c-1.5-1.5-2.9-2.3-3.6-2.6c-2.6-1.5-5.2-2.3-7.1-2.6
		c-1-0.2-1.7-0.2-2.3-0.2c-0.3,0-0.5,0-0.6,0c-0.2,0-0.2,0-0.3,0c0,0,0-0.1,0.2-0.2s0.3-0.2,0.6-0.3c0.6-0.2,1.4-0.3,2.5-0.2
		c2.1,0.1,4.9,0.8,7.6,2.4c0.7,0.4,2.2,1.2,3.8,2.8c0.2,0.2,0.4,0.4,0.6,0.7c0.2,0.2,0.4,0.4,0.6,0.7c0.4,0.5,0.9,0.9,1.4,1.4
		c1,1,2.1,2.1,3.2,3.2c2.3,2.3,4.9,5,7,8.4c1,1.7,1.9,3.6,2.2,5.7c0.1,1,0,2.2-0.4,3.2c-0.3,1-0.7,1.9-1,2.8
		c-0.8,1.9-1.6,3.7-2.6,5.4c-0.3,0.4-0.5,0.9-0.8,1.2c-0.2,0.4-0.6,0.8-0.9,1.2c-0.3,0.4-0.6,0.8-0.9,1.1c-0.3,0.4-0.6,0.7-1,1
		c-1.2,1.4-2.6,2.5-3.9,3.6c-1.4,1-2.6,2-3.8,2.8c-2.4,1.5-4,3.2-5.2,4.5C296.3,181.1,295.8,181.8,295.7,181.8z"/>
	<path d="M299.9,146.6c0,0-0.1,0.2-0.4,0.4c-0.1,0.1-0.3,0.3-0.5,0.5c-0.1,0.1-0.2,0.2-0.3,0.3c-0.1,0.1-0.1,0.1-0.2,0.2
		c-0.1,0.1-0.1,0.2-0.2,0.3c-0.3,0.3-0.6,0.7-0.9,1c-0.2,0.2-0.3,0.4-0.5,0.6l0,0l0,0l0-0.1l0-0.2c0-0.2,0-0.2,0-0.4
		c0-0.2,0-0.5,0-0.8c0-0.1,0-0.3,0.1-0.5s0.1-0.4,0.1-0.6c0.1-0.3,0.1-0.6,0.2-0.9c0.1-0.3,0.1-0.3,0.1-0.4L297,146l0,0l-0.2-0.1
		c-0.2-0.1-0.4-0.2-0.7-0.4c-0.5-0.2-0.9-0.5-1.4-0.7c-0.5-0.2-0.9-0.5-1.4-0.8c-0.5-0.3-0.9-0.6-1.4-0.8c-0.5-0.3-0.9-0.6-1.4-0.9
		c-0.5-0.3-0.9-0.6-1.3-1c-0.2-0.2-0.4-0.3-0.7-0.5c-0.2-0.2-0.4-0.4-0.6-0.6c-0.4-0.3-0.7-0.9-1-1.3c-0.5-1-0.9-2-0.9-2.9
		c-0.1-0.5,0-0.9,0-1.3c0-0.4,0.1-0.8,0.2-1.1c0.3-1.4,0.5-2.3,0.6-2.8c0.2-1.2,0.3-2.3,0.2-3.1c-0.1-0.8-0.1-1.3,0.1-1.4
		c0.1,0,0.2,0.1,0.3,0.3c0.2,0.2,0.3,0.5,0.5,0.9c0.2,0.4,0.3,0.9,0.3,1.5c0,0.6,0,1.3-0.1,1.9c-0.1,0.4-0.3,1.5-0.6,2.8
		c-0.2,1.3-0.3,3,0.5,4.6c0.9,1.5,2.7,2.8,4.5,3.9c0.5,0.3,0.9,0.6,1.3,0.9s0.9,0.6,1.3,0.8c0.5,0.3,0.9,0.5,1.3,0.7
		c0.2,0.1,0.4,0.2,0.6,0.4c0.3,0.2,0.7,0.4,1,0.5c-0.2,0.6-0.3,1.2-0.5,1.7c-0.1,0.1-0.1,0.3-0.1,0.6c0,0.1,0,0.2,0,0.3
		c0,0,0.1-0.1,0.1-0.1c0.1-0.1,0.2-0.2,0.3-0.3l0.1-0.1c0,0,0.1-0.1,0.1-0.1c0.1-0.1,0.2-0.2,0.3-0.3c0.2-0.2,0.4-0.3,0.6-0.4
		C299.6,146.6,299.8,146.5,299.9,146.6z"/>
	<path d="M300.9,148.6c-0.1,0.1-0.3,0.2-0.4,0.2c0,0,0,0-0.1,0c0-0.1,0-0.3,0-0.4c0-0.2,0-0.3,0-0.5c0-0.6,0-1,0-1s-0.1,0.4-0.4,0.9
		c-0.1,0.1-0.1,0.3-0.1,0.4c0,0.2-0.1,0.3-0.1,0.6c0,0.1,0.1,0.3,0.2,0.4c0.1,0.1,0.3,0.2,0.5,0.1c0.3,0,0.5-0.1,0.7-0.2
		c0.1-0.1,0.3-0.1,0.5-0.3c0,0,0,0,0.1,0l0,0l0,0c0,0,0,0,0,0c0,0,0,0.1,0,0.2c0,0.2-0.1,0.3-0.1,0.5c-0.1,0.6-0.2,1-0.2,1
		s0.2-0.3,0.5-0.9c0.1-0.1,0.1-0.3,0.2-0.4c0-0.1,0.1-0.1,0.1-0.3c0-0.1,0-0.3,0-0.4c0-0.2-0.2-0.2-0.4-0.3c-0.1,0-0.2,0-0.2,0
		c-0.1,0-0.1,0-0.2,0C301.3,148.4,301.1,148.5,300.9,148.6z"/>
	<path d="M305.9,151.2c-0.2-0.1-0.4-0.3-0.5-0.5c-0.2-0.2-0.4-0.4-0.5-0.6c-0.4-0.3-0.8-0.7-1.3-0.7c-0.5-0.1-0.8,0.3-0.9,0.5
		c-0.2,0.2-0.2,0.3-0.2,0.3s0.1-0.1,0.3-0.3c0.2-0.1,0.5-0.3,0.8-0.2c0.3,0.1,0.6,0.4,0.9,0.8c0.2,0.2,0.3,0.4,0.5,0.6
		c0.2,0.2,0.4,0.4,0.6,0.6c0.5,0.4,1.2,0.4,1.7,0.3c0.5-0.1,1-0.2,1.2-0.1c0.2,0.2,0.2,0.6,0.2,0.8c0,0.2,0,0.4,0,0.4s0-0.2,0.1-0.4
		c0-0.1,0-0.3,0.1-0.4c0-0.1,0-0.2,0-0.3c0-0.1,0-0.2-0.1-0.3c-0.2-0.3-0.5-0.3-0.7-0.3c-0.2,0-0.5,0-0.7,0
		C306.7,151.6,306.3,151.5,305.9,151.2z"/>
	<path d="M280,154c0.4-0.7,1.1-1.3,1.9-1.7c0.2-0.1,0.4-0.2,0.6-0.3l0.2,0c0,0,0.2-0.1,0.3-0.1l0.5-0.2l0.5-0.2l0,0c0,0,0,0,0,0l0,0
		l-0.1-0.1l-0.2-0.2c-0.2-0.3-0.3-0.5-0.5-0.8c-0.1-0.2-0.2-0.3-0.3-0.5c-0.1-0.1-0.2-0.3-0.2-0.4c-0.1-0.3-0.2-0.5-0.3-0.8
		c-0.1-0.4-0.1-0.7-0.1-0.7s0,0.3-0.1,0.7c0,0.2,0,0.5,0,0.8c0.1,0.3,0.2,0.7,0.3,1c0,0.1,0,0.2,0.1,0.3c0,0,0,0.1,0,0.1l-0.2,0
		l-0.1,0c0,0,0,0-0.1,0l-0.2,0c-0.2,0-0.5,0.2-0.7,0.2c-1,0.3-2,1.1-2.6,2.1c-0.6,1-0.8,2.1-0.9,3.1c-0.1,1,0,1.9,0.2,2.7
		c0.1,0.8,0.3,1.4,0.4,1.8c0.1,0.4,0.2,0.7,0.2,0.7s0-0.3,0-0.7c0-0.5,0-1.1,0.1-1.9c0.1-0.8,0.1-1.6,0.3-2.5
		C279.3,155.8,279.5,154.8,280,154z"/>
	<path d="M283.1,145.3c0,0,0-0.2,0.1-0.5c0.1-0.3,0.3-0.7,0.5-1.2c0.5-1,1.4-2.1,2.5-3c0,0,0.1-0.1,0.1-0.1c0.3-0.1,0.6-0.1,0.8,0.2
		c0.2,0.2,0.2,0.6,0,0.8c0,0-0.1,0.1-0.1,0.1c-1,0.9-2.1,1.7-2.8,2.4c-0.3,0.4-0.7,0.7-0.8,0.9C283.3,145.1,283.1,145.3,283.1,145.3
		z"/>
	<path d="M277.8,161.5c-0.1,0.1-0.9-0.1-1.9-0.9c-0.5-0.4-1-1-1.3-1.9c-0.1-0.4-0.2-0.9-0.1-1.4l0-0.2l0-0.2c0-0.2,0.1-0.3,0.1-0.4
		c0.1-0.2,0.2-0.4,0.3-0.6c0.5-0.8,1.1-1.4,1.7-2s1.1-1.1,1.7-1.6c1-1,1.7-1.6,2-1.9c0.9-0.9,1.8-1.5,2-1.3c0.3,0.2-0.2,1.3-1.1,2.2
		c-0.2,0.2-1,1-2,1.9c-1,0.9-2.3,2.1-3.3,3.3c-0.1,0.1-0.2,0.3-0.3,0.5c-0.1,0.1-0.1,0.1-0.1,0.2l-0.1,0.1l0,0.1c-0.1,0.3,0,0.7,0,1
		c0.1,0.6,0.5,1.2,0.9,1.6C277.2,160.9,277.9,161.3,277.8,161.5z"/>
	<path d="M281.9,145.1c0,0,0.2,0,0.6,0.1c0.4,0.1,1,0.2,1.6,0.4c0.7,0.2,1.5,0.6,2.2,1.4c0.1,0.1,0.2,0.2,0.2,0.4
		c0.1,0.2,0.2,0.3,0.2,0.5l0.1,0.3l0,0.3c0,0.2,0,0.4,0,0.6l0,0.6l-0.1,0.1l0,0.2c0,0.1-0.1,0-0.2-0.1l-0.2-0.2l-0.2-0.2l-0.1-0.1
		l-0.1-0.1c-0.2-0.1-0.5-0.3-0.7-0.3c-0.8-0.2-1.8-0.3-2.7-0.4l-0.4,0l-0.2,0c-0.1,0-0.2,0-0.3-0.1c-0.2-0.1-0.4-0.3-0.5-0.5
		c-0.1-0.2-0.2-0.3-0.2-0.5c-0.2-0.6-0.3-1.1-0.1-1.8c0-0.1,0.1-0.2,0.1-0.3c0.1-0.1,0.1-0.2,0.2-0.3c0.2-0.2,0.5-0.3,0.7-0.3
		C281.9,144.8,281.9,144.9,281.9,145.1c0,0.2,0,0.3,0,0.4c0,0,0.1,0.1,0.1,0.1s0,0,0.1,0.1l0,0c0,0,0,0,0,0c0,0,0,0.1,0,0.1
		c-0.1,0.3,0,0.8,0.1,1.1c0,0.1,0.1,0.2,0.1,0.2l0,0l0,0l0.2,0l0.3,0.1c1,0.1,1.9,0.3,2.9,0.6c0.1,0.1,0.1,0.1,0.2,0.1
		c0,0,0.1,0.1,0.1,0.1c0,0,0,0,0.1-0.1c0-0.1,0-0.2,0-0.2c0-0.1,0-0.2-0.2-0.4c-0.4-0.7-1.2-1.2-1.7-1.5c-0.6-0.3-1.1-0.5-1.5-0.6
		C282.2,145.1,281.9,145.1,281.9,145.1z"/>
	<path d="M166.9,166.6c0-0.1,0.2-0.2,0.7-0.5c0.4-0.3,1-0.8,1.2-1.5c0.1-0.2,0.1-0.4,0.1-0.6c0-0.2,0-0.4,0-0.6
		c-0.1-0.4-0.3-1-0.5-1.5c-0.2-0.5-0.5-1.1-0.7-1.6c-0.3-0.6-0.5-1.1-0.8-1.7c-0.3-0.6-0.5-1.2-0.8-1.7l-0.2-0.4l-0.1-0.2l-0.1-0.1
		c0,0,0-0.1,0-0.1l0.5-0.6c0.2-0.2,0.4-0.4,0.5-0.7c0.6-1,1-2,1.2-2.9c0.5-1.9,0.5-3.4,0.5-3.9c0-1.9,0.1-3.4,0.4-3.5
		c0.4-0.1,0.9,1.5,0.9,3.5c0,0.5,0,2.1-0.6,4.2c-0.3,1.1-0.7,2.2-1.5,3.3c-0.2,0.3-0.4,0.5-0.6,0.8c-0.1,0.1-0.1,0.1-0.1,0.1l0,0
		c0,0,0,0,0,0.1c0.3,0.6,0.5,1.1,0.7,1.7c0.3,0.6,0.5,1.1,0.8,1.7s0.5,1.1,0.7,1.7c0.2,0.5,0.4,1.1,0.5,1.7c0,0.3,0,0.6,0,0.9
		c-0.1,0.3-0.1,0.5-0.2,0.8c-0.5,1-1.2,1.4-1.7,1.6C167.2,166.7,166.9,166.6,166.9,166.6z"/>
	<path d="M161.9,171.1c-0.1-0.2,0.5-0.6,1.3-1.2c0.8-0.6,1.9-1.5,2.6-2.6l0.3-0.4c0.1-0.1,0.1-0.3,0.2-0.4c0.1-0.3,0.2-0.6,0.3-0.9
		c0.1-0.6,0.1-1.2-0.1-1.7c-0.2-1-0.7-1.8-0.8-2c-0.5-0.9-0.7-1.9-0.4-2.1c0.3-0.2,1,0.4,1.6,1.4c0.1,0.3,0.6,1.1,0.9,2.4
		c0.2,0.6,0.2,1.4,0,2.2c-0.1,0.4-0.2,0.8-0.4,1.2c-0.1,0.2-0.1,0.4-0.3,0.5l-0.3,0.5c-0.9,1.3-2.2,2.1-3.1,2.6
		C162.7,171,162,171.2,161.9,171.1z"/>
	<path d="M169.6,154.3c0.2,0-0.8,1.7-2.5,2.4c0,0-0.1,0-0.1,0s-0.1,0-0.2,0c-0.1,0-0.2,0-0.3,0c-0.1-0.1-0.3-0.2-0.3-0.4
		c-0.1-0.4,0.1-0.7,0.4-0.8C168,154.9,169.7,154.4,169.6,154.3z"/>
	<path d="M170.5,155.3c0.1,0-0.2,0.5-0.9,0.9c-0.6,0.4-1.6,0.9-2.7,0.8c0,0-0.1,0-0.1,0c-0.4-0.1-0.6-0.5-0.5-0.7
		c0.1-0.3,0.4-0.5,0.6-0.5c0,0,0,0,0.1,0c0.7,0.1,1.7,0,2.4-0.1C170.1,155.5,170.5,155.4,170.5,155.3z"/>
	<path d="M160.4,176.7c-0.8,0.3-1.8,0.3-2.7,0.2c-0.9,0-1.8-0.2-2.5-0.3c-1.5-0.2-2.5-0.3-2.5-0.3s0.9,0.4,2.4,1
		c0.7,0.3,1.6,0.6,2.6,0.7c1,0.2,2.1,0.3,3.2-0.1c0.6-0.2,1.1-0.5,1.5-0.9c0.4-0.4,0.7-0.9,0.9-1.4c0.4-1,0.4-2,0.4-2.8
		s-0.1-1.4-0.2-1.9c-0.1-0.4-0.1-0.7-0.1-0.7s0,0.3-0.1,0.7c0,0.5-0.2,1.1-0.3,1.8c-0.1,0.7-0.4,1.6-0.8,2.3
		C161.8,175.9,161.2,176.5,160.4,176.7z"/>
	<path d="M137.2,157.6c0,0-0.4,0.3-1.1,0.7s-1.8,1.1-2.9,2.2c-0.3,0.3-0.5,0.6-0.8,0.9c-0.3,0.3-0.4,0.7-0.7,1.1
		c-0.4,0.9-0.9,1.8-1.6,2.7c-0.6,0.9-1.4,1.9-2.5,2.6c-0.5,0.4-1.1,0.7-1.8,0.8c-0.7,0.1-1.5,0.1-2.2-0.2l-1.3-0.6l1.5-0.2
		c0.6-0.1,1.3-0.3,1.6-0.7c0.3-0.4,0.4-1,0-1.4c-0.3-0.5-1-0.8-1.5-0.8c-0.6,0-1.2,0.3-1.7,0.7c-1,0.9-1.7,2.4-1.5,3.8
		c0.1,0.7,0.4,1.4,0.8,2c0.5,0.6,1.1,0.9,1.8,1.2c1.4,0.5,3.1,0.4,4.7,0.2c1.6-0.3,3.3-0.7,4.8-1.3c0.2-0.1,0.4-0.1,0.6-0.2l0.6-0.3
		l0.6-0.3l0.5-0.3c0.7-0.4,1.3-1,1.9-1.5c1.3-1.1,2.8-2.1,4.3-2.9l3.8-2.2l-3.1,3.2c-0.7,0.7-1.2,1.6-1.7,2.5
		c-0.2,0.5-0.4,0.9-0.5,1.4c-0.1,0.4-0.1,0.9,0,1.1c0.1,0.1,0.1,0.1,0.2,0.2c0.1,0.1,0.3,0,0.3,0.1c0.2,0,0.5-0.4,0.7-0.8
		c0.2-0.4,0.5-0.9,0.7-1.3c0.1-0.3,0.2-0.5,0.4-0.7c0.2-0.2,0.4-0.5,0.5-0.6c1.5-1.5,3.2-2.6,4.8-3.5c1.6-0.9,3.2-1.7,4.7-2.3
		s2.9-1.3,4.2-1.9c1.3-0.6,2.4-1.1,3.3-1.6c1.8-1.1,2.9-2.3,3.4-2.9c1.3-1.6,1.8-3.4,2-5.2c0.2-1.8-0.1-3.4-0.2-4.9
		c-0.1-1.4,0.1-2.6,0.3-3.4c0.3-0.8,0.5-1.2,0.6-1.1c0.1,0,0,0.5-0.1,1.2c0,0.8-0.1,1.9,0.1,3.2c0.1,0.7,0.2,1.5,0.3,2.3
		c0.1,0.8,0.2,1.8,0.1,2.7c-0.1,1-0.2,2-0.5,3c-0.3,1-0.9,2-1.6,2.9c-0.6,0.7-1.8,2-3.8,3.2c-1,0.6-2.2,1.2-3.5,1.7
		c-1.3,0.6-2.7,1.2-4.2,1.8s-3,1.4-4.7,2.3c-1.6,0.8-3.2,1.9-4.5,3.2c-0.6,0.6-0.9,1.5-1.5,2.5c-0.2,0.2-0.3,0.5-0.6,0.7
		c-0.2,0.2-0.5,0.5-0.9,0.6s-0.9,0-1.2-0.1c-0.2,0-0.4-0.2-0.5-0.3c-0.2-0.1-0.3-0.3-0.4-0.5c-0.3-0.8-0.2-1.4-0.1-2
		c0.1-0.6,0.4-1.1,0.6-1.6c0.5-1,1.1-2,1.9-2.9c0.3,0.3,0.5,0.7,0.7,1c-1.4,0.8-2.8,1.7-4.1,2.8c-0.6,0.6-1.3,1.1-2.1,1.6l-0.6,0.4
		l-0.6,0.3l-0.6,0.3c-0.2,0.1-0.4,0.2-0.6,0.2c-1.6,0.6-3.3,1.1-5.1,1.3c-1.7,0.2-3.5,0.3-5.2-0.3c-0.8-0.3-1.7-0.8-2.3-1.5
		c-0.6-0.7-0.9-1.6-1-2.5c-0.2-1.8,0.6-3.6,1.9-4.7c0.6-0.6,1.5-1,2.4-0.9c0.9,0.1,1.8,0.5,2.2,1.3c0.2,0.4,0.4,0.8,0.4,1.3
		s-0.2,0.9-0.5,1.3c-0.6,0.7-1.4,0.8-2.2,0.9c0-0.3,0.1-0.5,0.1-0.8c1,0.5,2.3,0.2,3.2-0.5c0.9-0.7,1.7-1.5,2.3-2.4
		c0.6-0.9,1.2-1.8,1.6-2.6c0.3-0.4,0.5-0.9,0.8-1.2c0.3-0.3,0.6-0.7,0.9-1c1.2-1.1,2.3-1.7,3.1-2.1
		C136.8,157.7,137.2,157.5,137.2,157.6z"/>
	<path d="M134.7,167c0,0,0.2-0.4,0.7-1.1c0.5-0.7,1.4-1.4,2.7-2.1c0.3-0.1,0.6-0.3,1-0.5c0.3-0.1,0.8-0.3,1.1-0.4
		c0.8-0.3,1.6-0.5,2.4-0.7c1.6-0.5,3.1-1.4,3.9-2.9c0.1-0.1,0.1-0.2,0.2-0.4c0.2-0.2,0.5-0.3,0.8-0.2c0.3,0.1,0.4,0.5,0.3,0.8
		c-0.1,0.1-0.1,0.3-0.2,0.4c-0.5,0.9-1.2,1.7-2,2.2c-0.2,0.2-0.4,0.2-0.7,0.4l-0.6,0.3c-0.4,0.2-0.9,0.3-1.3,0.4
		c-0.9,0.2-1.8,0.4-2.5,0.5c-0.4,0.1-0.7,0.1-1.1,0.2c-0.3,0.1-0.7,0.2-1,0.3c-1.2,0.5-2.2,1.1-2.8,1.6
		C134.9,166.6,134.7,167,134.7,167z"/>
	<path d="M144.3,158.4c0,0-0.1,0-0.3-0.1c-0.2,0-0.5-0.1-0.8-0.2c-0.3-0.1-0.8-0.3-1.2-0.6c-0.4-0.3-0.8-0.8-1.1-1.4
		c-0.6-1.2-0.4-2.9,0-4.4c0.5-1.5,1.3-3,2.2-4.4c0.1-0.1,0.2-0.2,0.3-0.3c0.2-0.2,0.6-0.2,0.9,0c0.2,0.2,0.3,0.6,0.2,0.8
		c-0.1,0.1-0.2,0.2-0.2,0.3c-0.9,1.2-1.7,2.6-2.2,4c-0.6,1.4-0.8,2.7-0.4,3.8c0.3,1.1,1.2,1.7,1.8,2c0.3,0.1,0.6,0.3,0.8,0.3
		C144.2,158.3,144.3,158.4,144.3,158.4z"/>
	<path d="M153.4,151c-1.1,1.1-2.2,2-3.5,2.6c-0.6,0.3-1.3,0.4-1.9,0.5c-0.6,0-1.2,0-1.7-0.2c-1-0.3-1.8-1-2.2-1.5
		c-0.1-0.1-0.1-0.3-0.2-0.4c-0.1-0.1-0.1-0.2-0.1-0.3c0-0.2-0.1-0.3-0.1-0.3s0,0.1,0,0.3c0,0.1,0,0.2,0.1,0.3
		c0.1,0.1,0.1,0.3,0.2,0.5c0.3,0.6,0.9,1.5,2.1,2c0.6,0.3,1.3,0.4,2,0.5c0.7,0,1.5-0.1,2.3-0.4c1.5-0.5,2.9-1.5,4-2.7
		c1.1-1.1,2.2-2.4,2.8-3.9c0.4-0.7,0.6-1.4,0.7-2.2c0.1-0.7,0.1-1.4-0.2-2.1c-0.2-0.6-0.6-1.1-1-1.4c-0.2-0.2-0.4-0.3-0.6-0.4
		c-0.2-0.1-0.4-0.1-0.5-0.2c-0.3-0.1-0.6-0.1-0.8-0.2s-0.3,0-0.3,0s0.1,0,0.3,0.1c0.2,0.1,0.4,0.1,0.7,0.3c0.6,0.3,1.4,0.9,1.6,2
		c0.1,0.5,0,1.1-0.1,1.7c-0.2,0.6-0.4,1.2-0.8,1.8C155.5,148.7,154.4,149.9,153.4,151z"/>
	<path d="M127.7,153.1c-1.6,0.6-2.8,1.8-3.6,2.7c-0.2,0.2-0.3,0.5-0.4,0.7c-0.1,0.2-0.2,0.4-0.3,0.6c-0.1,0.3-0.2,0.5-0.2,0.5
		s0.1-0.2,0.4-0.4c0.1-0.1,0.3-0.3,0.4-0.4c0.2-0.2,0.4-0.3,0.6-0.5c0.9-0.7,2.2-1.5,3.6-2c0.3-0.2,0.7-0.2,1-0.4
		c0.3-0.1,0.7-0.3,1-0.4c0.7-0.2,1.3-0.4,1.9-0.5c1.1-0.3,1.9-0.5,1.9-0.5s-0.8-0.1-2-0.2c-0.6,0-1.3,0-2.1,0.1
		c-0.4,0-0.8,0.1-1.1,0.2C128.5,152.9,128.1,152.9,127.7,153.1z"/>
	<path d="M129.9,151.1c0,0,0.2-0.1,0.5-0.2c0.1-0.1,0.3-0.2,0.6-0.3c0.2-0.1,0.5-0.2,0.8-0.3c0.3-0.1,0.6-0.2,0.9-0.2
		c0.3-0.1,0.7-0.1,1-0.1c0.7-0.1,1.5,0,2.3,0.2c0.1,0,0.1,0.1,0.2,0.1c0.1,0.1,0.2,0.3,0.1,0.4c-0.1,0.1-0.2,0.2-0.4,0.2
		c0,0-0.1,0-0.1-0.1c-0.6-0.2-1.4-0.3-2.1-0.3c-0.3,0-0.7,0-1,0c-0.3,0-0.6,0-0.9,0.1c-0.3,0-0.5,0.1-0.8,0.1
		c-0.2,0-0.4,0.1-0.6,0.1C130.1,151,129.9,151.1,129.9,151.1z"/>
	<path d="M123.4,159.4c0.1,0.1-0.4,0.6-1.5,1c-0.3,0.1-0.6,0.2-1,0.1c-0.2,0-0.4-0.1-0.6-0.2c-0.1-0.1-0.2-0.1-0.3-0.2
		c-0.1-0.1-0.1-0.2-0.2-0.3c-0.2-0.2-0.2-0.4-0.3-0.6c0-0.2-0.1-0.4-0.1-0.7c0-0.2,0-0.5,0-0.7c0-0.2,0-0.5,0.1-0.7
		c0.2-1,0.5-2.1,1.1-3.1c0.6-1,1.5-1.9,2.5-2.7c2-1.6,4.5-2.5,7.1-3.4c2.5-0.8,5.2-1.5,7.6-2.1c1.2-0.3,2.4-0.6,3.4-1.1
		c1-0.4,1.8-1.3,2.5-2c0.4-0.4,0.8-0.8,1.1-1.1c0.4-0.4,0.8-0.7,1.1-1c0.3-0.3,0.7-0.6,1.1-0.9c0.4-0.2,0.6-0.6,1-0.7
		c1.3-0.9,2.3-1.3,2.8-1.6c2-0.8,3.8-1.2,5.2-1.4c1.4-0.1,2.2-0.2,2.2,0c0,0.2-0.8,0.5-2,0.9c-1.3,0.4-3,0.9-4.8,1.7
		c-0.4,0.2-1.4,0.7-2.6,1.5c-0.3,0.2-0.6,0.4-0.9,0.7c-0.3,0.3-0.7,0.5-1,0.8c-0.3,0.3-0.7,0.6-1,1c-0.4,0.4-0.7,0.7-1.1,1.1
		c-0.4,0.4-0.8,0.8-1.3,1.2c-0.2,0.2-0.5,0.4-0.8,0.6c-0.3,0.2-0.6,0.3-0.9,0.5c-1.2,0.5-2.5,0.8-3.7,1.1c-2.5,0.6-5.1,1.2-7.6,2
		c-2.5,0.8-4.9,1.7-6.8,3.1c-0.9,0.7-1.7,1.5-2.3,2.4c-0.6,0.9-0.9,1.8-1.1,2.7c0,0.2-0.1,0.5-0.1,0.7c0,0.2,0,0.4-0.1,0.6
		c0,0.2,0,0.4,0,0.6c0,0.2,0.1,0.4,0.2,0.5c0.3,0.6,1,0.5,1.5,0.4C122.9,159.7,123.4,159.3,123.4,159.4z"/>
	<path d="M116.6,147.1c0,0,0.1,0.1,0.2,0.4c0.1,0.3,0.1,0.7-0.1,1.2c-0.2,0.5-0.7,1.1-1.3,1.4c-0.3,0.2-0.8,0.3-1.3,0.2
		c-0.2,0-0.5-0.1-0.7-0.2c-0.1-0.1-0.2-0.2-0.3-0.3l-0.1-0.1l-0.1-0.1c-0.2-0.2-0.3-0.4-0.4-0.7c-0.1-0.2-0.2-0.5-0.3-0.7
		c-0.1-0.5-0.3-1-0.2-1.5c0-0.6,0.1-1.1,0.3-1.7c0.3-0.5,0.7-1.1,1.1-1.4c0.9-0.8,2.1-1.2,3.2-1.6c1.2-0.3,2.3-0.6,3.5-0.7
		c4.8-0.6,9.7-0.8,13.6-1.2c3.9-0.3,6.7-1.1,7.5-1.4c1.7-0.6,3.1-1.3,3.9-2.1c0.4-0.4,0.7-0.7,1-1c0.2-0.2,0.4-0.4,0.5-0.3
		c0.1,0.1,0.1,0.2-0.1,0.6c-0.1,0.3-0.3,0.8-0.7,1.3c-0.8,1.1-2.3,2.1-4.1,2.7c-0.9,0.4-3.9,1.2-7.8,1.4c-4,0.4-8.8,0.5-13.6,1
		c-1.2,0.1-2.3,0.3-3.4,0.6c-1.1,0.3-2.1,0.7-2.9,1.3c-0.4,0.3-0.7,0.7-0.9,1.1s-0.3,0.9-0.3,1.3c0,0.9,0.2,1.8,0.6,2.4
		c0.4,0.6,1.1,0.6,1.7,0.4c0.6-0.3,1-0.7,1.2-1.1c0.3-0.4,0.3-0.7,0.3-1C116.6,147.3,116.6,147.1,116.6,147.1z"/>
	<path d="M126.7,147c-0.1,0.2-2.3-0.6-4.7-0.6c-1.2-0.1-2.4,0.1-3.4,0.3c-0.9,0.2-1.6,0.5-1.8,0.7c-0.9,0.4-1.3,0.9-1.5,0.8
		c0,0-0.1-0.1,0-0.2c0-0.1,0.1-0.2,0.2-0.4c0.2-0.3,0.6-0.6,1-0.8c0.2-0.1,0.9-0.5,2-0.7c1-0.2,2.3-0.3,3.6-0.3
		C124.5,145.9,126.8,146.8,126.7,147z"/>
	<path d="M96.2,154.3c0.1,0-0.1,0.5,0,1.3c0.1,0.4,0.3,0.8,0.7,0.9c0.4,0.2,1.1,0.4,1.7,0.4c2.8,0.1,6.5-0.9,10.3-2.1
		c3.7-1.2,7.5-2.7,10.4-4.1c0.7-0.3,1.3-0.7,2-1.1c0.6-0.3,1.1-0.7,1.6-0.9c0.2-0.2,0.4-0.3,0.7-0.4c0.2-0.1,0.4-0.2,0.5-0.4
		c0.3-0.2,0.5-0.4,0.7-0.5c1.1-0.9,1.9-1.9,2.6-2.6c0.7-0.7,1.2-1.2,1.3-1.1c0.1,0.1,0,0.7-0.6,1.6c-0.5,0.9-1.3,2.2-2.6,3.1
		c-0.1,0.1-0.4,0.3-0.7,0.5c-0.2,0.1-0.4,0.2-0.5,0.4c-0.2,0.1-0.4,0.3-0.7,0.4c-0.5,0.3-1.1,0.6-1.7,1c-0.6,0.3-1.3,0.7-2,1.1
		c-3,1.4-6.8,2.9-10.6,4c-3.8,1.1-7.7,2-10.6,1.7c-0.7-0.1-1.5-0.2-2-0.6c-0.6-0.4-0.8-1-0.8-1.4C95.8,154.7,96.2,154.3,96.2,154.3z
		"/>
	<path d="M102.1,174.6c-0.1,0,0.1-0.7,0.7-1.8c0.6-1,1.8-2.4,3.3-3.7c0.4-0.4,0.8-0.7,1.2-1.1c0.5-0.3,0.9-0.7,1.4-1
		c0.5-0.3,1-0.7,1.5-1c0.2-0.2,0.4-0.3,0.6-0.5c0.1-0.1,0.1-0.1,0.2-0.2l0.1-0.1l0.1-0.1c0,0-0.1,0-0.1,0c-0.2,0-0.3,0.1-0.5,0.1
		c-0.6,0.1-1.3,0.2-1.9,0.2c-0.7,0.1-1.4,0.1-2.1,0.1l-2.2,0c-0.7,0-1.4-0.1-2.1-0.1c-1.4-0.1-2.8-0.1-4.2-0.3
		c-1.4-0.2-2.8-0.5-4-1.2c-1.2-0.6-2.3-1.6-2.9-2.7c-0.3-0.6-0.5-1.2-0.6-1.8c-0.1-0.6-0.1-1.2-0.1-1.7c0-1.1,0.3-2,0.6-2.8
		c0.6-1.6,1.3-2.6,1.7-3.1c0.4-0.4,0.8-0.9,1.4-1.2c0.5-0.3,0.9-0.5,1.4-0.7c0.5-0.2,1-0.3,1.5-0.4c0.5,0,1.1,0.1,1.5,0.5
		c0.4,0.4,0.4,0.9,0.4,1.2c0,0.3-0.1,0.6-0.2,0.8c-0.2,0.4-0.4,0.6-0.5,0.5c-0.1,0-0.1-0.3-0.1-0.6c0-0.2,0-0.4,0-0.6
		c0-0.2-0.2-0.5-0.3-0.5c-0.1-0.1-0.4-0.2-0.7-0.1c-0.3,0.1-0.7,0.2-1.1,0.4c-0.4,0.2-0.8,0.4-1.2,0.7c-0.4,0.2-0.7,0.5-1,0.9
		c-0.3,0.4-1,1.2-1.5,2.7c-0.2,0.7-0.5,1.5-0.5,2.4s0.1,1.9,0.6,2.8c0.5,0.9,1.3,1.7,2.4,2.2c1,0.5,2.3,0.9,3.6,1.1
		c1.3,0.2,2.7,0.2,4.1,0.3c0.7,0,1.4,0.1,2.1,0.1l2.1,0c0.7,0,1.4,0,2.1-0.1c0.4,0,0.7-0.1,1-0.1l0.5-0.1l0.2,0c0.1,0,0.3,0,0.4,0
		c1.1-0.2,2.3-0.3,3.3-0.5l0.4,0l0.2,0l0.1,0l0,0l0,0l-0.6,0.6c-0.4,0.4-0.8,0.7-1.3,1.1c-0.4,0.4-0.7,0.7-1.3,1
		c-0.3,0.2-0.6,0.4-0.9,0.6c-0.5,0.3-1,0.7-1.5,1c-0.5,0.3-0.9,0.7-1.4,1c-0.4,0.4-0.9,0.7-1.2,1c-1.6,1.3-2.7,2.5-3.4,3.4
		C102.5,174,102.2,174.6,102.1,174.6z"/>
	<path d="M102.3,170.6c0.1,0-0.1,0.5-0.2,1.3c-0.1,0.4-0.1,0.9-0.1,1.4c0.1,0.5,0.2,1.1,0.7,1.5c0.1,0.1,0.2,0.2,0.4,0.2l0.2,0.1
		c0.1,0,0.2,0,0.3,0c0.2,0,0.4,0.1,0.5,0.1c0.2,0,0.4,0,0.6,0.1c0.8,0.1,1.6,0,2.3-0.4c1.6-0.7,3-2,4.3-3.4c1.3-1.5,2.6-3,3.9-4.4
		c1.3-1.5,2.7-2.8,4.2-3.6c1.5-0.9,3-1.4,4.1-1.6c1.2-0.2,2-0.3,2.4-0.3c1.6-0.1,3,0.1,4,0.2c1,0.2,1.6,0.4,1.6,0.6
		c0,0.2-0.6,0.3-1.6,0.4c-1,0.1-2.4,0.1-3.9,0.2c-0.4,0-1.2,0.1-2.2,0.2c-1.1,0.2-2.3,0.6-3.7,1.4c-1.3,0.8-2.7,2-3.9,3.4
		c-1.3,1.4-2.6,2.9-4,4.4c-0.7,0.7-1.4,1.4-2.2,2c-0.8,0.6-1.6,1.2-2.5,1.5c-0.9,0.3-1.9,0.4-2.8,0.3c-0.2,0-0.4-0.1-0.6-0.1
		c-0.2-0.1-0.4-0.1-0.6-0.2c-0.1,0-0.2,0-0.3-0.1l-0.3-0.1c-0.2-0.1-0.4-0.2-0.5-0.4c-0.7-0.6-0.8-1.4-0.8-2c0-0.6,0.1-1.2,0.2-1.6
		C102,171,102.2,170.6,102.3,170.6z"/>
	<path d="M103.2,179.3c-1.4-0.5-2.7-1.3-3.4-2.5c-0.7-1.2-0.7-2.6-0.6-3.7c0.2-1.1,0.5-2.1,0.8-2.8c0.1-0.3,0.3-0.6,0.4-0.7
		c0.1-0.2,0.1-0.3,0.1-0.3s-0.1,0.1-0.2,0.2c-0.1,0.1-0.3,0.4-0.5,0.7c-0.4,0.6-0.9,1.5-1.2,2.7c-0.3,1.2-0.5,2.8,0.2,4.4
		c0.4,0.7,0.9,1.5,1.6,2l0.5,0.4c0.2,0.1,0.4,0.2,0.6,0.3c0.4,0.2,0.8,0.4,1.2,0.5c0.4,0.1,0.8,0.3,1.2,0.4c0.4,0.1,0.8,0.1,1.2,0.2
		c0.4,0.1,0.8,0.1,1.2,0.1c0.4,0,0.8,0.1,1.2,0.1c0.4,0,0.7,0,1.1,0c0.4,0,0.7-0.1,1.1-0.1c0.7,0,1.4-0.1,2-0.2c2.4-0.4,4-0.9,4-0.9
		s-1.6,0.2-4,0.2c-0.6,0-1.3,0-1.9,0c-0.3,0-0.7,0-1.1,0c-0.3,0-0.7-0.1-1.1-0.1c-0.3,0-0.7-0.1-1.1-0.2s-0.8-0.1-1.1-0.2
		c-0.4-0.1-0.8-0.2-1.1-0.2C103.9,179.6,103.6,179.4,103.2,179.3z"/>
	<path d="M82.4,196.7c-0.1-0.1,0.9-1,2.4-2.2c1.5-1.3,3.4-3.1,5.2-5.1c0.5-0.5,0.9-1.1,1.3-1.6s0.8-1,1.2-1.5c0.7-1.1,1.5-2.1,2-3
		c1.2-1.9,2-3.3,2.3-3.8c1.1-1.8,2.2-3.1,2.5-2.9c0.3,0.2-0.3,1.8-1.4,3.6c-0.3,0.5-1.1,1.9-2.3,3.8c-0.6,1-1.4,2-2.1,3.1
		c-0.4,0.5-0.9,1.1-1.3,1.6c-0.4,0.5-0.9,1.1-1.3,1.6c-1.9,2-3.9,3.8-5.6,4.9C83.6,196.2,82.5,196.8,82.4,196.7z"/>
	<path d="M81.6,194.6c0,0-0.4,0.2-0.9,0.5c-0.6,0.3-1.5,0.8-2.6,1.3c-1.1,0.5-2.4,0.9-4,1.2c-0.8,0.1-1.6,0.1-2.5,0
		c-0.4-0.1-0.9-0.2-1.3-0.5c-0.4-0.2-0.9-0.7-1-1.4c0-0.2,0-0.4,0-0.6c0.2-0.5,0.7-0.5,0.9-0.3c0.2,0.2,0.3,0.5,0.4,0.6
		c0,0,0,0.1,0,0.1c0,0.1,0.1,0.3,0.4,0.5c0.2,0.2,0.5,0.3,0.9,0.4c0.7,0.2,1.4,0.2,2.1,0.1c1.4-0.1,2.7-0.4,3.9-0.7
		c1.1-0.3,2.1-0.6,2.7-0.8C81.1,194.8,81.6,194.6,81.6,194.6z"/>
	<path d="M95.9,193.8c0.1,0.1-0.4,0.5-1.2,1.2c-0.8,0.7-2,1.8-3.6,2.9c-1.5,1.2-3.4,2.5-5.5,3.6c-2.1,1.2-4.6,2.3-7.2,2.9
		c-2.7,0.6-5.6,0.5-8.1-0.5c-1.2-0.5-2.3-1.1-3.4-1.9c-1-0.8-1.9-1.8-2.3-3c-0.5-1.2-0.4-2.4,0-3.4c0.4-1,0.9-1.8,1.5-2.4
		c1.2-1.2,2.3-1.6,2.8-1.8c0.5-0.2,1.1-0.3,1.7-0.2c0.2,0,0.3,0,0.4,0c0.2,0,0.3,0,0.4,0.1c0.2,0.1,0.4,0.1,0.7,0.2
		c0.4,0.2,0.9,0.4,1.2,0.7l0.3,0.3c0.1,0.1,0.2,0.2,0.2,0.4s0.1,0.3,0.1,0.4c0,0.1,0,0.3,0,0.4c-0.1,0.5-0.4,0.8-0.6,1
		c-0.2,0.2-0.5,0.3-0.7,0.3c-0.4,0.1-0.6,0.1-0.7,0c0-0.1,0.1-0.2,0.4-0.5c0.1-0.1,0.3-0.3,0.4-0.4c0.1-0.2,0.2-0.4,0.2-0.5
		c0-0.2-0.1-0.3-0.3-0.5c-0.2-0.2-0.6-0.3-0.9-0.4c-0.2-0.1-0.4-0.1-0.6-0.1c-0.1,0-0.2,0-0.3-0.1c-0.1,0-0.2,0-0.3,0
		c-0.4,0-0.8,0.1-1.2,0.2c-0.4,0.1-1.3,0.5-2.3,1.5c-0.5,0.5-0.9,1.1-1.2,1.9c-0.3,0.7-0.3,1.6,0,2.5c0.6,1.8,2.7,3.2,4.9,4.2
		c2.2,0.9,4.9,1,7.4,0.5c2.5-0.5,4.9-1.5,7-2.6c2.1-1.1,4-2.3,5.6-3.4c1.6-1.1,2.8-2,3.7-2.6C95.3,194.1,95.8,193.8,95.9,193.8z"/>
	<path d="M115.7,181.5c0.2-2,1.3-3.9,2.1-5.4c0.7-1.3,1.4-2.4,1.4-2.4s-0.2,0.2-0.6,0.5c-0.3,0.3-0.8,0.8-1.4,1.5
		c-0.5,0.6-1.2,1.4-1.7,2.4c-0.5,0.9-1,2.1-1.1,3.2c-0.1,1.2,0.1,2.4,0.5,3.5c0.1,0.3,0.3,0.5,0.4,0.7c0.1,0.2,0.2,0.5,0.4,0.7
		c0.3,0.4,0.6,0.8,0.9,1.1c0.3,0.3,0.6,0.6,0.8,0.8c0.3,0.2,0.5,0.4,0.7,0.5c0.4,0.3,0.6,0.5,0.6,0.5s-0.2-0.2-0.5-0.6
		c-0.2-0.2-0.4-0.4-0.5-0.7c-0.2-0.3-0.4-0.6-0.6-0.9c-0.3-0.3-0.4-0.7-0.6-1.1c-0.1-0.2-0.2-0.4-0.3-0.6c-0.1-0.2-0.2-0.4-0.2-0.7
		C115.6,183.5,115.6,182.5,115.7,181.5z"/>
	<path d="M105.4,187.8c0,0,0.4-0.1,0.9-0.2c0.6-0.1,1.4-0.3,2.3-0.7c0.4-0.2,0.9-0.4,1.4-0.7c0.2-0.2,0.5-0.3,0.7-0.5l0.7-0.5
		c0.9-0.8,1.8-1.8,2.6-2.8c0.1-0.1,0.1-0.2,0.2-0.2c0.2-0.2,0.6-0.2,0.9,0c0.2,0.2,0.3,0.5,0.2,0.8c-0.1,0.1-0.1,0.2-0.2,0.2
		c-0.9,1.1-1.9,2.1-2.9,2.8l-0.8,0.5c-0.3,0.2-0.6,0.3-0.9,0.4c-0.6,0.3-1.1,0.4-1.6,0.5c-1,0.2-1.9,0.3-2.5,0.2
		C105.7,187.8,105.4,187.8,105.4,187.8z"/>
	<path d="M99.3,203.3c0.1,0,0.3,0.5,0.1,1.4c-0.1,0.2-0.2,0.5-0.4,0.7c-0.2,0.2-0.5,0.5-0.8,0.6c-0.7,0.2-1.5,0.1-2.2-0.2
		c-0.8-0.3-1.5-1-1.9-1.9c-0.4-0.9-0.4-1.9-0.4-2.9c0.1-1,0.3-2,0.6-3c0.3-1,0.6-2,1-3c0.7-2,1.8-3.9,3-5.6c0.3-0.4,0.6-0.8,0.9-1.2
		s0.6-0.7,1-1.1c0.7-0.7,1.4-1.3,2.1-1.9c0.2-0.1,0.4-0.2,0.5-0.4c0.2-0.1,0.4-0.2,0.5-0.3c0.4-0.2,0.7-0.4,1-0.6
		c0.7-0.3,1.3-0.7,1.9-0.8c0.3-0.1,0.5-0.2,0.8-0.3c0.2-0.1,0.5-0.1,0.7-0.2c0.4-0.1,0.7-0.2,0.9-0.2c1.6-0.3,3.2-0.3,4.2-0.2
		c1.1,0.2,1.7,0.4,1.7,0.6c0,0.2-0.7,0.3-1.7,0.4c-1,0.1-2.4,0.2-3.9,0.5c-0.2,0-0.5,0.1-0.9,0.2c-0.2,0-0.4,0.1-0.6,0.2
		c-0.2,0.1-0.5,0.2-0.8,0.3c-0.5,0.2-1.1,0.5-1.7,0.8c-0.3,0.1-0.6,0.4-1,0.6c-0.2,0.1-0.3,0.2-0.5,0.3c-0.1,0.1-0.3,0.3-0.5,0.4
		c-0.7,0.5-1.3,1.1-2,1.7c-0.3,0.3-0.6,0.7-0.9,1c-0.3,0.3-0.6,0.8-0.9,1.1c-1.2,1.6-2.1,3.4-2.9,5.3c-0.4,0.9-0.7,1.9-1.1,2.9
		c-0.3,0.9-0.6,1.9-0.7,2.8c-0.1,0.9,0,1.8,0.2,2.5c0.3,0.7,0.8,1.3,1.4,1.5c0.6,0.3,1.3,0.4,1.7,0.3c0.5-0.1,0.8-0.5,0.9-0.9
		C99.2,203.8,99.2,203.3,99.3,203.3z"/>
	<path d="M130.5,189.1c0.1,0.1-0.4,0.8-1.3,2c-0.5,0.5-1,1.2-1.6,1.9c-0.3,0.3-0.7,0.7-1,1c-0.4,0.3-0.7,0.7-1.1,1
		c-0.8,0.6-1.5,1.3-2.4,1.8c-0.4,0.3-0.8,0.5-1.2,0.8c-0.4,0.2-0.8,0.4-1.2,0.6c-0.4,0.2-0.7,0.4-1,0.5c-0.3,0.1-0.6,0.2-0.9,0.4
		c-0.5,0.2-0.9,0.3-1.1,0.4c-0.7,0.3-1.4,0.3-1.9,0.4c-0.5,0.1-0.8,0-0.8,0c0-0.2,1.1-0.6,2.5-1c0.2,0,0.5-0.2,1.1-0.4
		c0.3-0.1,0.5-0.2,0.9-0.3c0.3-0.1,0.6-0.3,1-0.5c0.3-0.2,0.7-0.4,1.1-0.6c0.4-0.2,0.8-0.5,1.2-0.7c0.8-0.5,1.6-1.1,2.3-1.7
		c0.4-0.3,0.7-0.7,1.1-0.9c0.3-0.3,0.7-0.6,1-1c0.6-0.6,1.1-1.2,1.7-1.8C129.8,189.8,130.4,189,130.5,189.1z"/>
	<path d="M110.7,200.6c0,0.1-0.6,0.2-1.8,0.2s-2.8-0.1-4.7-0.9c-1-0.4-1.9-0.9-2.8-1.8c-0.4-0.4-0.9-0.9-1.1-1.5
		c-0.1-0.3-0.3-0.7-0.3-1.1c0-0.4,0-0.7,0.2-1.1s0.4-0.8,0.7-1c0.4-0.2,0.7-0.3,1.1-0.4c0.8-0.1,1.5,0,2.1,0.1
		c1.4,0.3,2.5,0.7,3.8,0.7c2.5-0.1,5-1.3,7.2-2.5c1.1-0.6,2.3-1.2,3.2-1.9c1-0.6,1.9-1.4,2.6-2.1c1.5-1.5,2.5-3.1,3.1-4.4
		c0.6-1.3,1-2.3,1.1-2.8c0.7-1.9,1.1-3.8,1.6-5c0.5-1.3,0.9-2,1.1-2c0.2,0.1,0.1,0.9-0.2,2.2c-0.2,1.3-0.6,3.2-1.3,5.2
		c-0.2,0.5-0.5,1.6-1.2,3c-0.7,1.4-1.7,3.2-3.4,4.8c-0.8,0.8-1.8,1.6-2.8,2.3c-1.1,0.7-2.2,1.3-3.3,1.9c-0.6,0.3-1.2,0.6-1.8,0.9
		c-0.6,0.3-1.2,0.6-1.9,0.8l-1,0.3c-0.3,0.1-0.7,0.2-1,0.2c-0.4,0.1-0.7,0.2-1.1,0.2l-1.1,0.1c-1.5,0-2.8-0.5-4-0.8
		c-1.2-0.3-2.5-0.3-2.8,0.5c-0.1,0.2-0.1,0.4-0.1,0.7c0,0.2,0.1,0.4,0.2,0.7c0.2,0.5,0.5,0.9,0.9,1.3c0.7,0.8,1.6,1.3,2.5,1.7
		c1.7,0.8,3.3,1,4.4,1.1C110.1,200.5,110.7,200.5,110.7,200.6z"/>
	<path d="M137.9,187.6c0.1,0,0.3,0.3,0.6,1c0.1,0.3,0.3,0.8,0.3,1.3c0,0.5,0,1.1-0.3,1.8c-0.3,0.6-0.9,1.2-1.6,1.5s-1.5,0.4-2.3,0.4
		c-0.8,0-1.7-0.1-2.5-0.6c-0.8-0.4-1.5-1.2-1.9-2s-0.5-1.8-0.5-2.7c0.1-0.9,0.3-1.8,0.6-2.6c0.6-1.6,1.8-2.8,2.6-3.8
		c1.6-2.1,2.2-4,2.3-4.5c0.2-1.1,0.4-2.2,0.3-3c0-0.4-0.1-0.7-0.1-1c0-0.2,0-0.4,0.1-0.4c0.1,0,0.2,0,0.4,0.2c0.2,0.2,0.4,0.5,0.5,1
		c0.4,0.8,0.4,2.2,0.1,3.5c-0.2,0.6-0.8,2.8-2.6,5c-0.9,1.2-1.9,2.1-2.5,3.5c-0.3,0.7-0.5,1.4-0.6,2.1c-0.1,0.7,0,1.5,0.3,2.1
		c0.3,0.6,0.8,1.2,1.4,1.5c0.6,0.3,1.3,0.5,2,0.5c1.4,0.1,2.7-0.4,3.2-1.3c0.5-0.9,0.3-1.9,0.2-2.6
		C137.9,188,137.8,187.6,137.9,187.6z"/>
	<path d="M136.2,189.7c0,0-0.2,0-0.3-0.2c-0.2-0.1-0.4-0.4-0.5-0.9c-0.2-0.5,0-1.1,0.4-1.6c0.4-0.5,0.9-1,1.4-1.5
		c2.4-1.8,5.9-3.4,9.4-5.3c1.7-0.9,3.5-1.9,4.9-3c1.4-1.2,2.5-2.6,3.1-3.9c0.6-1.4,1-2.8,1.1-3.8c0.2-1.1,0.2-1.9,0.2-2.2
		c0.1-3,0-5.5,0.4-5.5c0.2,0,0.4,0.6,0.6,1.6c0.2,1,0.4,2.4,0.3,4c0,0.4,0,1.2-0.2,2.4c-0.2,1.1-0.5,2.6-1.2,4.2
		c-0.7,1.6-1.9,3.1-3.5,4.4s-3.4,2.2-5.2,3.1c-3.6,1.8-7.1,3.3-9.5,4.9c-1.2,0.8-2,1.7-1.8,2.4c0.1,0.4,0.2,0.6,0.3,0.8
		C136.2,189.6,136.2,189.7,136.2,189.7z"/>
	<path d="M97.7,202.3c0,0-0.2-0.1-0.3-0.5c-0.1-0.4-0.1-0.9,0.2-1.5c0.4-1.1,1.4-2.6,2.9-3.4c0,0,0.1-0.1,0.2-0.1
		c0.3-0.1,0.7,0.1,0.8,0.4c0.1,0.3,0,0.6-0.2,0.8c0,0-0.1,0.1-0.1,0.1c-1.2,0.7-2.3,1.7-2.9,2.5c-0.3,0.5-0.5,0.9-0.5,1.2
		C97.5,202.1,97.7,202.3,97.7,202.3z"/>
	<path d="M117.1,200c0,0-0.2,0-0.6,0c-0.4,0-1,0.1-1.7-0.1c-0.3-0.1-0.8-0.1-1.2-0.3c-0.4-0.2-0.8-0.4-1.3-0.5
		c-0.2-0.1-0.4-0.1-0.7-0.1c-0.1,0-0.2,0.1-0.3,0.1c-0.1,0.1-0.2,0.1-0.2,0.2c-0.3,0.3-0.3,0.9-0.1,1.4c0.3,1,1.3,1.9,2.6,2.3
		c1.2,0.5,2.7,0.5,4.1,0.3c1.4-0.3,2.7-1,3.7-2c0.5-0.5,0.9-1.2,1.2-1.9c0.3-0.7,0.5-1.4,0.6-2.2c0-0.2,0-0.4,0-0.6
		c0-0.1,0.1-0.2,0.2-0.3c0.1-0.1,0.2-0.2,0.3-0.3c0.1-0.1,0.3-0.1,0.4,0c0.2,0.1,0.3,0.3,0.3,0.5c0,0.3,0,0.6,0,0.9
		c-0.2,1.8-1,3.4-2.2,4.7c-1.2,1.3-2.9,2.1-4.5,2.3c-1.6,0.2-3.2,0.1-4.6-0.6c-1.4-0.6-2.5-1.7-2.9-3c-0.2-0.7-0.2-1.4,0.3-1.9
		c0.1-0.1,0.3-0.2,0.4-0.3c0.2,0,0.3-0.1,0.4-0.1c0.3,0,0.6,0,0.8,0.2c0.5,0.2,0.9,0.5,1.3,0.6c0.4,0.2,0.8,0.3,1.1,0.4
		c0.7,0.2,1.3,0.2,1.6,0.2C116.9,200,117.1,200,117.1,200z"/>
	<path d="M165.8,151.7c-0.2-0.1,0.8-1.8,1.9-4.5c0.6-1.4,1.2-3,1.5-4.7c0.4-1.8,0.4-3.8-0.2-5.5c-0.3-0.9-0.8-1.7-1.5-2.3
		c-0.7-0.7-1.5-1.1-2.3-1.5c-1.7-0.7-3.5-0.9-5.1-0.8c-0.8,0.1-1.5,0.2-2.1,0.4c-0.7,0.2-1.3,0.4-1.8,0.6c-1.1,0.4-1.9,0.6-2.3,0.8
		c-0.8,0.3-1.6,0.4-2.3,0.4c-0.7,0-1.4-0.1-1.9-0.3c-1.1-0.4-1.5-0.9-1.4-1.1c0.1-0.2,0.7,0,1.7,0.2c0.5,0,1,0.1,1.7,0
		c0.6-0.1,1.3-0.2,2-0.5c0.4-0.1,1.1-0.3,2.2-0.7c0.5-0.2,1.2-0.4,1.9-0.6c0.7-0.2,1.6-0.3,2.5-0.4c1.7-0.1,3.7,0.1,5.7,1
		c0.9,0.4,1.9,1,2.7,1.8c0.8,0.8,1.4,1.7,1.7,2.8c0.7,2.1,0.5,4.3,0.1,6.1c-0.5,1.9-1.1,3.5-1.8,4.9
		C167.1,150.2,165.9,151.7,165.8,151.7z"/>
	<path d="M138.7,134.5c-0.3,0-0.5-0.1-0.8-0.1c-0.1,0-0.3,0-0.4-0.1c-0.1,0-0.2-0.1-0.3-0.1c-0.3-0.1-0.5-0.4-0.5-0.7
		c-0.1-0.8,0.4-1.7,1-2.1l0.2-0.1c0.1,0,0.1,0,0.2,0c0.2,0,0.3,0,0.5,0c0.3,0,0.4,0.3,0.4,0.5c0,0.5-0.2,0.7-0.2,0.8
		c0,0,0.2-0.2,0.4-0.7c0.1-0.3,0-0.7-0.4-0.9c-0.2-0.1-0.4-0.2-0.6-0.2c-0.1,0-0.3,0-0.4,0c-0.1,0-0.2,0.1-0.4,0.1
		c-0.5,0.2-0.9,0.5-1.3,1c-0.3,0.5-0.6,1-0.6,1.8c0,0.2,0,0.4,0.1,0.6c0,0.2,0.1,0.4,0.2,0.5c0.1,0.2,0.3,0.3,0.4,0.5
		c0.1,0.1,0.3,0.3,0.5,0.4c0.2,0.1,0.3,0.1,0.5,0.2c0.1,0.1,0.3,0.1,0.4,0.1c0.3,0.1,0.6,0.1,0.9,0.2c1.2,0.1,2.4,0.1,3.4,0.1
		c0.6,0,1-0.1,1.5,0c0.5,0,0.9,0.1,1.1,0.2c0.2,0.1,0.2,0.4,0.1,0.7c-0.1,0.3-0.2,0.6-0.3,0.8c-0.1,0.2-0.2,0.4-0.3,0.5
		c-0.1,0.1-0.1,0.2-0.1,0.2s0.1-0.1,0.1-0.1c0.1-0.1,0.2-0.2,0.4-0.4c0.2-0.2,0.4-0.4,0.6-0.8c0.1-0.2,0.2-0.4,0.2-0.6
		c0-0.3,0-0.6-0.3-0.8c-0.4-0.4-1-0.5-1.5-0.7c-0.5-0.1-1.1-0.2-1.6-0.2C141,134.7,139.8,134.6,138.7,134.5z"/>
	<path d="M138.7,132.5c0-0.1,0.1-0.3,0.3-0.7c0.2-0.4,0.6-1.1,1.3-1.6c0.3-0.3,0.7-0.5,1.2-0.8c0.4-0.3,0.9-0.5,1.4-0.6
		c1.1-0.4,2.3-0.4,3.5-0.1c1.2,0.3,2.2,0.8,3.2,1.2c1,0.4,1.9,0.7,2.8,0.9c0.4,0.1,0.8,0.2,1.2,0.2s0.7,0.1,1,0.1
		c0.6,0.1,1,0.1,1.2,0.1c0.4,0,0.8,0,1.2,0.1c0.3,0,0.7,0,1,0.1c0.6,0.1,0.9,0.2,0.9,0.4c0,0.2-0.3,0.4-0.9,0.6
		c-0.3,0.1-0.6,0.2-1,0.3c-0.4,0-0.8,0.1-1.3,0.1c-0.2,0-0.7,0-1.4-0.1c-0.3,0-0.7,0-1.1-0.1c-0.4-0.1-0.8-0.1-1.3-0.3
		c-0.9-0.2-1.9-0.6-3-1c-1-0.4-2-0.9-3-1.2c-1-0.3-2-0.3-2.9-0.1c-0.5,0.2-0.9,0.3-1.3,0.5c-0.4,0.2-0.8,0.4-1.1,0.6
		c-0.7,0.4-1.1,0.8-1.4,1.2C139.1,132.5,138.7,132.6,138.7,132.5z"/>
</g>
<g>
	<path d="M220.1,245.8c-0.4,0.1-0.6,1.1-0.7,1.3c0,0.1,0.1,0.1,0.1,0.2l-0.4,0.2c-0.1,1-1.1,1.3-1.3,2.4c0.6,0,1,0.2,1.8,0.2
		c0,0.2,0,0,0,0.2c0.4-0.1,1.3,0.1,1.8,0.4c0.1,0.1,0.1,0.1,0.1,0.2c0.1,0,0.3,0.1,0.5,0.1c0.1,0.3,0.3,0.5,0.6,0.4
		c0,0.1,0.1,0.1,0.1,0.2c0.1,0,0.1-0.1,0.1-0.1c0.1,0.1,0.1,0.2,0.2,0.3c0.1,0,0.1,0,0.1,0c0.1,0.1,0.1,0.4,0.1,0.5
		c0.1,0,0.2,0.1,0.3,0.1c0.1,0.3,0.3,0.5,0.6,0.6c0.1,0.6,0.8,1.1,0.9,1.6c0.1,0,0.1,0.1,0.1,0.1c0.1,0.2,0.1,0.5,0.1,0.7l0.1,0.1
		c-0.2,0.7-0.2,1.5-0.1,2.2c-0.5,0.3-2.3,2.8-2.3,3.4c-0.1,0.1-0.2,0.1-0.3,0.2c0,0.3-0.1,0.5-0.1,0.8c-0.1,0-0.1,0.1-0.2,0.1
		c0,0,0.1,0.2,0.1,0.3c-0.7,0.1-0.8,0.6-1.3,0.9c-0.1,0-0.3,0.1-0.5,0.1c0,0.1,0,0.1,0,0.1c-0.1,0.1-0.3,0.3-0.3,0.3
		c-0.1,0-0.1-0.1-0.1-0.1c-0.1,0.1-0.1,0.1-0.1,0.2c-0.3,0.2-0.9,0.4-1.2,0.6c-0.1,0-0.3,0-0.5,0c-0.1,0.1-0.1,0.2-0.2,0.3
		c-2.1,0-4.2,1.1-6.1-0.2c0-0.1,0-0.1,0-0.1c-0.5,0-0.8-0.1-0.9-0.6c-0.1,0-0.2,0-0.3,0c-0.9-0.5-2.7-1.5-2.8-2.7
		c0.1-0.1,0.1-0.1,0.1-0.3c-0.7-0.6-1.1-1.8-0.1-2.3c0-0.5,0.3-1.2,0.9-1.3c0.4,0.4,1,0.5,1.7,0.6c0.5,2,3.3,2.7,4.9,2
		c0.1,0,0.2,0.1,0.3,0.1c0.1-0.1,0.1-0.1,0.1-0.2c0.2-0.1,0.4,0,0.6-0.1c0.1-0.1,0.1-0.1,0.1-0.2c1.3-0.7,2.5-1.3,3.2-2.6
		c0-0.1,0-0.1,0-0.2c0.1-0.3,0.4-0.3,0.4-0.8c-0.1-0.1-0.1-0.1-0.1-0.2c-0.5-0.5-1-0.8-1.8-0.9c0-0.1,0-0.1,0-0.1
		c-0.1,0-0.2,0.1-0.3,0.1c-1.1-0.3-3.2-0.7-4.4-0.3c0,0.1-0.1,0.1-0.1,0.1c-1.3-0.4-2.5,0-3.9-0.6c0-0.1,0-0.5-0.1-0.6
		c-0.1,0-0.1,0-0.1,0l-0.1-0.4c0-0.1,0.1-0.2,0.1-0.3c-0.1-0.3-0.4-0.3-0.4-0.8c0.5-0.4,0.6-1.3,0.6-1.8c0.1-0.1,1.4-1.3,1.5-1.4
		c0.1,0,0.2,0,0.3,0c0-0.1,0-0.1,0-0.1c0.1-0.1,0.3-0.2,0.4-0.3c0-0.1,0-0.2,0-0.3c0.1-0.1,0.3-0.3,0.4-0.4c0-0.1,0-0.2,0-0.3
		c0.1-0.1,0.4-0.2,0.5-0.3c0-0.1,0.1-0.3,0.1-0.4c0.1,0,0.2-0.1,0.3-0.1c0.4-0.4,1-2.2,1.2-2.7c0,0-0.1,0-0.1,0
		c-0.6,0-1,0.3-1.3,0.7c-0.5,0.1-2,0.9-2,1.6c-0.1,0-0.2,0-0.3,0c-0.3,0.3-0.6,0.6-0.9,0.9c-0.1,0-0.3,0-0.5,0
		c-0.1,0.5-0.5,0.9-1.1,1.1c-0.5,0.1-0.9-0.1-1.2-0.6c-0.6,0-0.9-0.5-1.1-1.1c1-0.7,0-2,0-2.8c0.4,0,0.7,0,0.9-0.1
		c0.3-1,1.2-1.4,1.9-2c0-0.1,0-0.1,0-0.1c0.1,0,0.1,0,0.2,0c0-0.1,0-0.1,0-0.1c0.1-0.1,0.1-0.1,0.2-0.1c0-0.1,0-0.3,0-0.4
		c0.1-0.1,1.2-0.8,1.4-0.9c0-0.1,0-0.3,0-0.5c0.7-0.1,2.1-0.4,2.5-0.8c0.6,0.3,1.4-0.4,2.1-0.1c0,0.1,0.1,0.1,0.1,0.1
		c0.4,0.1,1-0.2,1.5,0.1c0.1,0.1,0.1,0.1,0.1,0.2c0.6,0,1,0.3,1.2,0.8c0.1,0,0.2,0.1,0.3,0.1c0,0.1,0.1,0.3,0.1,0.4
		c0.2,0.1,0.4,0.3,0.6,0.4c0,0.1,0,0.2,0,0.3c0.1,0.1,0.1,0.1,0.2,0.1C220,242.6,220.2,244.3,220.1,245.8z"/>
	<path d="M200.8,256.6c-0.1,0.9-0.9,1.3-1.3,2c-0.2,0,0,0-0.2,0c-0.2,0.4-0.5,0.6-0.6,0.9c2.4,0.1,8.8-1,9.7,2.3
		c-0.1,0.1-0.2,0.4-0.2,0.6c0.4,0.1,0.5,0.3,0.4,0.6c-0.3,0.1-0.5,0.2-0.8,0.3c0.2,0.1,0.2,0.2,0.2,0.6c-0.1,0.1-0.2,0.3-0.2,0.5
		c-2.5,1.1-7,0.1-9.8,0.6c0,0.1-0.1,0.1-0.1,0.1c-1.6,0-9.3,2.1-9.4-0.6c0.1-0.3-0.1-1.9,0-2.1c0.1,0,0.1,0,0.1,0
		c0.2-0.2,0.2-0.4,0.1-0.7c0.1-0.1,0.4-0.2,0.6-0.4c-0.2-0.7,1.9-2.2,2.6-2.3c0-0.1,0-0.1,0-0.2c0.2-0.4,0.4-0.5,0.8-0.6
		c0,0,0.1,0,0.1,0c0.3-0.4-0.1-0.7,0.8-0.7c0-0.8,0.9-0.9,1.1-1.6c0.9-0.8,1.6-1.5,2.2-2.5c0-0.1-0.1-0.1-0.1-0.1c0.1,0,0.1,0,0.1,0
		c0.1-0.2,0-0.4,0.1-0.6c0.3-0.2,0.5-0.4,0.6-0.9c0.3,0,0.4-0.2,0.2-0.5c0.1,0,0.1-0.1,0.2-0.1c0.1-0.1-0.1-0.3-0.1-0.3
		c0.1,0,0.1,0,0.1,0c0-0.1,0-0.3,0-0.5c0.1,0,0.1-0.1,0.2-0.1c0.3-0.6,0.4-1.4,0.4-2.5c-1.4,0.1-2.4,1.1-3.3,1.9
		c-1.3,0.3-1.7,2.2-3,2.3c-0.6,0.3-1.7-0.3-2.4-0.5c-0.1-1.4-0.4-1.8-0.3-3.4c0.1-0.1,0.3-0.1,0.5-0.1c0-0.1,0-0.2,0-0.3
		c0.1,0,0.2-0.1,0.3-0.1c0-0.1,0-0.1,0-0.2c0.1,0,0.2-0.1,0.3-0.1c0.9-0.9,1.5-1.8,2.6-2.6c0-0.1,0.1-0.1,0.1-0.2
		c0.4-0.4,0.7-0.5,1.2-0.5c0-0.1,0-0.1,0-0.1c3.2-2.1,6.7-1.2,8.5,1.7c0.1,0,0.1,0,0.1,0c0,0.1,0,0.1,0,0.1c0.1,0.1,0.1,0.1,0.2,0.1
		c0.4,0.8,0.4,4.2-0.1,5c-0.1,0-0.1,0-0.1,0c0,0.1,0,0.2,0,0.3c-0.1,0-0.1,0.1-0.1,0.1c0,0.1,0.1,0.1,0.1,0.2
		c-0.4,1.3-1,3.2-1.8,4.3c-0.1,0-0.1,0.1-0.2,0.1C201.1,256.2,201.3,256.5,200.8,256.6z"/>
	<path d="M209.5,276.9C209.5,276.9,209.6,276.9,209.5,276.9c0.4-1.1-0.2-2.4-0.2-3.5c-0.3-0.3-0.8-0.8-1-1.1c0-0.1,0-0.1,0-0.2
		c-0.6-0.8-1.8-1.7-2.8-1.7c-0.3-0.2-1.6-0.9-2-0.6c-0.3-0.1,0-0.2-0.2-0.4c-0.1,0-0.1,0-0.2,0c0-0.1-0.1-0.1-0.1-0.2
		c-2.2-1.6-3.9,0.9-4.9,2.3c-0.1,0-0.1,0.1-0.2,0.1c-0.1,0.1-0.1,0.3-0.1,0.4c-0.1,0-0.1,0-0.1,0c0,0.1,0,0.1,0,0.2
		c-0.1,0-0.1,0-0.1,0c0,0.1,0,0.1,0,0.1c-0.3,0.1-0.5,0.4-0.5,0.8c-0.1,0-0.1,0-0.1,0c0,0.1,0,0.2,0,0.3c-0.2,0.3-0.4,0.5-0.7,0.6
		c-0.2,0.4-0.3,0.7-0.3,1.2c-0.1,0-0.1,0.1-0.2,0.1c0,1.3-0.4,2.9,0.1,4c0.1,0,0.1,0.1,0.1,0.1c0,0.1-0.1,0.3-0.1,0.5
		c0.1,0,0.1,0,0.1,0c0.2,0.2,0.1,0.6,0.1,0.7c0.4,0.5,1.2,1.4,1.1,2c0.1,0,0.1,0,0.1,0c0,0.1,0,0.1,0,0.1c0.1,0,0.1-0.1,0.1-0.1
		c0.3,0.2,0.3,0.4,0.3,0.7c0.1,0.2,0.4,0.3,0.5,0.5c0,0.1,0,0.1,0,0.1c0.2,0.2,0.6,0.2,0.9,0.3c0,0.1,0,0.1,0,0.1c0.1,0,0.3,0,0.5,0
		c0,0.1,0.1,0.1,0.1,0.1c1.1,0.6,5.7,1.5,5.9-0.9c0.5-0.1,1.4-1,1.6-1.3c0-0.1,0-0.1,0-0.2c0.6-0.7,1.3-1.1,1.8-2c0-0.1,0-0.3,0-0.4
		c0.1,0,0.1-0.1,0.2-0.1C208.9,278.8,209.7,277.5,209.5,276.9z M201.7,279.7c-0.5,0.1-0.7-0.2-1.1-0.2c-0.7-2.3-0.1-3.2,1-5.3
		c0.2,0,0.3,0.1,0.6,0.1c0,0.1,0,0.1,0,0.1c-0.1-0.1-0.1,0-0.1-0.1c-0.1,0-0.3,0-0.4,0c0.1,0.1,0.3,0.1,0.4,0.2
		c0.3,0,0.2,0.1,0.2-0.1c0.1,0.1,0.2,0.3,0.3,0.3c1.1,0,1.7,0.8,2.5,1.3C204.8,278.2,203.4,279.2,201.7,279.7z"/>
	<path d="M228.2,281.8c0.2-0.8-0.5-2.4-0.9-2.9c-0.1-0.6-0.7-1-0.8-1.7c-0.4-0.1-0.9-0.5-1.4-0.6c0.4-0.6,0.6-1.3,0.6-2
		c0.1,0,0.1,0,0.1,0c-0.2-2,0.5-4.6-1.5-5.9c-0.1,0-0.3,0-0.4,0c-0.1-0.1-0.2-0.3-0.3-0.3c-0.1,0-0.1,0-0.2,0c0-0.1-0.1-0.2-0.1-0.3
		c-1.5,0-5.6-2.2-6.9-1.4c0,0.1,0,0.1,0,0.1c-0.6-0.5-2,1.1-2.5,1.2c0,0.1-0.1,0.2-0.1,0.3c-0.1,0.1-0.3,0.3-0.5,0.4
		c0,0.1,0,0.1,0,0.2c-0.4,0.5-1.1,1.3-1.8,1.4c0.2,0.2-0.4,0.6-0.5,0.7c0,0.1,0.1,0.2,0.1,0.3c-1.1,2.1-1.5,4-0.3,6.1
		c0,0.1,0,0.1,0,0.2c0.2,0.4,0.8,0.6,0.9,1c0,0,0.1,0,0.1,0c-0.6,0.7-1.3,1.6-1.9,2.2c-0.1,0-0.1,0-0.1,0c-0.4,0.4-0.5,0.7-0.6,1.3
		c-0.1,0-0.1,0.1-0.1,0.1c-0.1,0.4,0.1,0.9-0.1,1.4c0.1,0,0.1,0,0.1,0c0.2,0.4,0.1,0.6,0.2,1c-0.1-0.1-0.1-0.1-0.1-0.1
		c0,0.1,0,0.1,0,0.1c-0.1,0.3,0.2,0.6,0.2,0.9c0,0.1-0.1,0.1-0.1,0.1c0.1,0,0.1,0.1,0.1,0.1c0,0.1,0,0.2,0,0.3
		c0.2,0.1,0.4,0.3,0.4,0.6c0.1,0,0.1,0,0.1,0c0,0.1,0,0.2,0,0.3c0.1,0.1,0.1,0.1,0.2,0.1c0.2,0.6,0.6,1.1,1.2,1.5c0.1,0,0.1,0,0.2,0
		c0.1,0.1,0.1,0.3,0.1,0.5c0.8,0.2,1.9,0.8,2.7,0.7c-0.3,0.5-2.2,0.9-2.7,0.9c-0.1,0.1-0.1,0.1-0.1,0.2c-1.8,0.3-2.3,1.4-3.8,2.4
		c0.2,0.3,1.2,2,1.1,2.3c0.5,0.1,0.8,0.1,0.9,0.6c0.2,0,0.7,0,0.8,0c0.1-0.1,0.1-0.1,0.1-0.2c0.6-0.1,1.9,0,2.7-0.4
		c0-0.1,0-0.1,0-0.1c0.7,0.1,1.4-0.1,2-0.5c0.1,0,0.2,0.1,0.3,0.1c0-0.1,0-0.1,0-0.1c0.8-0.5,2.1,0,2.8-0.5c0.1,0,0.1,0,0.1,0
		c0,0.6-0.3,0.8-0.4,1.3c-0.1,0-0.1,0-0.2,0c0,1.5-0.9,1.9-1,3.4c-0.7,0.3-0.8,0.6-1.6,0.8c-0.1,0-0.1-0.1-0.2-0.1
		c-0.8,0.2-2.3,0.5-2.9,0.8c-1,0.5-1.9,2-2.8,2.2c0,0.2,0,0.5,0,0.7c0.1,0,0.1,0,0.2,0c0.3,0.7,0.6,1.2,1.1,1.6
		c0,0.1-0.1,0.1-0.1,0.1c1,0.8,2,0.1,3,0.4c0.1,0,0.3-0.1,0.5-0.1c-0.1,1.2-0.8,2.3-0.9,3.5c-0.1,0-0.1,0.1-0.1,0.1
		c0,0.1,0,0.3,0,0.4c-0.1,0-0.1,0-0.1,0c0,0.2,0,0.4,0,0.6c-0.1,0-0.1,0.1-0.1,0.1c0,0.1,0,0.1,0,0.2c-0.1,0-0.1,0-0.1,0
		c0,0.1,0,0.2,0,0.3c-0.1,0-0.1,0.1-0.1,0.1c0,1-0.6,1.9-0.6,2.9c-0.1,0-0.1,0-0.1,0c0,0.1,0,0.1,0,0.2c-0.1,0-0.1,0-0.1,0
		c0.1,0.2,0,0.5-0.1,0.6c0,0.3,0.1,0.4,0.3,0.4c0.1,0.4,0.4,0.6,0.6,0.7c-0.2,1.1,0.2,0.8,0.9,1.2c0,0,0,0.1,0,0.1
		c0,0,0.7,0.5,0.7,0.6c0.5-0.1,0.4-0.3,0.6-0.6c0.1,0,0.1,0.1,0.2,0.1c0.8-0.4,1.4-1.4,1.8-2.2c0-0.1-0.1-0.1-0.1-0.3
		c0.1-0.1,0.1-0.1,0.2-0.1c0-0.1,0-0.3,0-0.4l0.1-0.1c0-0.7,0.4-1.3,0.5-2c0.1,0,0.1,0,0.1,0c0-0.1,0-0.3,0-0.5c0.1,0,0.1,0,0.1,0
		c0-0.6,0.3-0.8,0.3-1.3c0.1,0,0.1,0,0.1,0c0.1-1,0.4-1.7,0.8-2.6c0-0.1-0.1-0.1-0.1-0.2c0.1-0.2,0.3-0.4,0.4-0.5c0-0.2,0-0.4,0-0.6
		c0.1,0,0.1-0.1,0.1-0.1c0-0.1,0-0.2,0-0.3c0.1,0,0.1,0,0.1,0c0.2-0.3,0.1-0.7,0.2-0.9c0.1,0,0.1-0.1,0.2-0.1c0-0.1-0.1-0.1-0.1-0.1
		c0.4,0,5.2-0.3,5.1-1.3c0.4,0.1,0.6,0,0.7-0.4c0.3,0,1.3-0.1,1.6-0.3c0.1,0,0.1,0,0.1,0c0.3-0.4-0.2-1.3,0.3-1.8c0-0.4,0-0.7,0-1
		c-0.9-1.2-4.3-1.2-5.5-0.8c0,0,0-0.1,0-0.1c0,0-0.1,0-0.1,0c0.1-0.4,0.3-0.8,0.5-1.2c0.1,0,0.1,0.1,0.1,0.1c0-0.1-0.1-0.3-0.1-0.4
		c0.1-0.1,0.3-0.4,0.4-0.5c-0.1-0.3,0.2-0.4,0.3-0.6c0-0.1,0-0.1,0-0.2c0.1,0,0.1,0,0.1,0c0-0.1,0-0.2,0-0.3c0.1,0,0.1,0,0.1,0
		c-0.1-0.5,0.1-0.8,0.5-1.1c-0.1-0.1-0.1-0.1-0.1-0.3c0.1,0,0.1,0,0.2,0c-0.1-0.3,0.5-1.6,0.8-1.8c0-0.8-0.4-2.1-1.1-2.6
		c-0.1,0-1.9-0.4-2-0.4c0,0-0.1,0-0.1,0c0,0,0-0.1,0-0.1c0.1-0.1,0.3-0.1,0.5-0.1c0.2-0.2,1.4-1.1,1.5-1.1c0-0.1,0-0.1,0-0.2
		c0.4-0.1,1.8-1.6,2.1-1.9c0-0.1-0.1-0.1-0.1-0.1l0.1-0.2c0.1,0,0.1-0.1,0.2-0.1c0.3-0.9,0.8-1.5,0.9-2.4c0.1,0,0.1,0,0.1,0
		C228,283.2,228.2,281.9,228.2,281.8z M216.6,271.8c1.3,0,4.2-0.9,4.9,0.9c0.6,1.6-1.9,3.3-3.2,3.2c0,0.1,0,0.1,0,0.2
		c-0.6,0.1-1.4-0.1-2,0.1c-0.3-0.4-0.6-0.6-1-0.6c-0.2-0.2-0.1-0.4-0.5-0.6C214.8,273.3,215.9,273,216.6,271.8z M223.4,282.3
		c-0.9,1.8-1.7,1.8-3.2,2.8c-0.1,0-0.1-0.1-0.1-0.1c-1,0.3-5.4,0.7-5.8-1c-0.5-2.8,7.8-3,9.3-2.7
		C223.6,281.5,223.5,282.2,223.4,282.3z"/>
	<path d="M208.9,283c0.1,0.1,0.1,0.2,0,0.3C208.9,283.2,208.9,283.1,208.9,283z"/>
	<path d="M208.9,283.4c0.1,0.1,0,0,0.1,0.1c0,0-0.1,0-0.1,0C208.9,283.5,208.9,283.5,208.9,283.4z"/>
	<path d="M208.9,283.8c0.1,0.1,0,0,0.1,0.1c0,0-0.1,0-0.1,0C208.9,283.9,208.9,283.8,208.9,283.8z"/>
	<path d="M208.9,284.1c0.1,0,0.1,0,0.1,0c0,0.1,0,0.1,0,0.1c-0.1,0-0.1,0-0.1,0C208.9,284.2,208.9,284.2,208.9,284.1z"/>
	<path d="M201.2,287.8c0,0.1,0,0.1,0,0.2c1.5,0.4,2.6,4.5,2.2,5.8c0.2,0,0.1-0.1,0.1,0.1c-0.4,0.5,0.5,4.5,0.8,5.1
		c0.1,0,0.1,0,0.1,0c0,0.1,0,0.3,0,0.5c0.4,0.9,0.6,2.6,1.1,3.4c0.1,0,0.1,0,0.1,0c0.1,0.8,0.3,2.5-0.1,3.2c-0.1,0-0.1,0-0.1,0
		c-0.2,0.4,0.1,0.7-0.3,0.9c0,0,0-0.1,0-0.1c0,0-0.1,0-0.1,0c0.2,0.9-3,0.1-3.4,0c-0.3-0.8-0.6-2-0.9-2.5c0-0.1,0.1-0.1,0.1-0.2
		c-0.3-0.7-0.6-1.3-0.7-2.1c-0.1,0-0.1,0-0.1,0c0-0.1,0.1-0.1,0.1-0.2c0,0-0.1-0.4-0.1-0.4c-0.1,0-0.1,0-0.1,0c0-0.1,0-0.3,0-0.4
		c-0.1,0-0.1,0-0.1,0c0-0.1,0-0.3,0-0.4c-0.1,0-0.1,0-0.1,0c0-0.6-0.1-1.3-0.5-1.8c0.1-0.3,0.1-0.5-0.1-0.6
		c-0.4-1.1-0.6-3.4-0.6-4.5c-0.1,0-0.1,0.1-0.1,0.1c0-0.3,0-0.6,0-0.9c-0.2-0.3,0-0.7-0.1-1c-0.1,0-0.1,0-0.1,0c0-1-1-2.2,0.4-3.1
		c0.1,0,0.1,0,0.2,0c0.1-0.1,0-0.2,0.1-0.3c0.1,0,0.1,0,0.1,0c0-0.1-0.1-0.1-0.1-0.1C199.6,287.4,200.2,287.6,201.2,287.8z"/>
	<path d="M192.2,297.4c0-0.1,0-0.1,0-0.2c-0.1,0-0.1,0-0.1,0c0-0.1,0-0.1,0-0.2c-0.3,0.2-0.6,0.1-0.6-0.4c-0.1,0-0.1,0-0.1,0
		c0-0.1,0-0.2,0-0.3c-0.2-0.3-0.9-0.6-1.1-0.8c0-0.1,0-0.2,0-0.3c-0.1,0-0.1,0-0.1,0c0-0.1,0-0.3,0-0.4c-0.1,0-0.1,0-0.1,0
		c0-0.1,0-0.1,0-0.2c-0.1,0-0.1,0-0.1,0c0-0.1,0-0.1,0-0.2c-0.1,0-0.1,0-0.1,0c-0.1-0.1-0.1-0.4-0.1-0.5c-0.1,0-0.2-0.1-0.3-0.1
		c0-0.1,0.1-0.1,0.1-0.1c-0.3-0.4-0.8-0.4-0.9-1c0.1-0.1,0.2-0.2,0.2-0.4l-0.2-0.1c-0.2-0.4,0.3-1.3-0.1-1.4c0.1,0,0.1,0,0.1,0
		c0.1-0.3,0.1-0.5,0.1-0.8c0.5-0.2,0.8-0.6,1.1-1c0,0,0-0.1,0-0.1c0.5-0.1,1,0,1.5,0.2c0.1,0.1,0.1,0.1,0.1,0.2
		c0.6,0.3,1.5,0.8,1.9,1.5c0,0.1-0.1,0.1-0.1,0.2c0.1,0.1,0.3,0,0.3,0.1c0,1,1.4,2.8,1.1,3.9c-0.1,0-0.1,0-0.1,0
		C193.8,297.1,195.3,298,192.2,297.4z"/>
	<path d="M193.9,297.6c0,0.1,0,0.1,0,0.1c0.1,0,0.1,0,0.1,0c0,0,0-0.1,0-0.1C194,297.6,193.9,297.6,193.9,297.6z"/>
</g>
<g>
	<path d="M150.3,93c-0.4-1.6-2.4-4.1-2.4-5c-0.6,0-1.5-1.1-2.1-1.5c-1.3-0.8-2.5-1.2-3.9-1.7c-1.3-0.5-3-1-4.4-1.5
		c-1.6-0.6-3.5-1-5-1.4c-0.7-0.2-3.3-0.6-3.9-1.5c-1.3-1.6,1.1-1.8,2.5-2c-0.2-0.2-0.4-0.1-0.4-0.4c1,0.2,2.1,0,3,0.2
		c0.9,0.2,0.9,0.8,1.6,0.6c-0.2,0.2-0.4,0.1-0.4,0.4c2.8,0.1,4.1,0,4.4-2.1c0.1-0.9,0.6-1.1,0-2.2c-0.4-0.7-1.2-0.9-1-1.3
		c-1,0-1.8-0.6-2.8-0.8c-1.4-0.2-3.2-0.8-5-0.4c-0.5,0.1-1.8,1.1-2.2,1.2c-1.3,0.4-2.5,1-3.5,1.6c-1.9,1.1-3.6,1.5-3.9,4.4
		c-0.2,1.7,2,5.6,4.4,5.6c-0.4,0.7,0.9,1,1.4,0.8c0,1,0.8,0.3,1.2,0.4c-0.4,0.7,6.2,2.1,7.6,2.4c0,0.3-2.3,2-2.8,2.4
		c0-0.7-1.5,1.9-1.6,2.2c-0.2,1-0.1,1.9,0.1,2.8c0.4,1.4,1.1,2.9,2.6,4c1.3,1,2.4,1.1,4.2,1.3c1.5,0.2,3.8,0.6,5.4,0.2
		c0.7-0.2,1.3-0.6,2.2-0.6c-0.2-0.3,2.3-1.2,3-1.8c1-0.9,1.9-3.4,2-3.4C150.5,95.6,151,93,150.3,93z M143.7,95.4
		c0,0.7-4.2,1.1-5,0.8c-0.8-0.4-0.5-1.2-2-1.2c0.3-1.6,0.1-2.3-0.3-4c-0.1-0.4-1.1-1.1-0.1-1.8c0.1-0.1,1.5,0.4,1.4,0.4
		c1.3,0.4,2.7,0.7,4,1.4C142.5,91.5,146,94.6,143.7,95.4z"/>
	<path d="M152.2,74.3C152.1,74.4,152.2,74.4,152.2,74.3L152.2,74.3z"/>
	<path d="M145.9,70.6c0.8,0,0.6,2.8,2,2.8c0.2,0.1-0.3,0.8,0.8,0.8c-0.5,1,3.2,1.2,3.2,0c1.5,0,0-3.9-0.1-5.1
		c-0.1-2.5,0.3-3.9-1.9-4.8c-1.2-0.5-1.9-0.4-2.9,0.3C145.1,66.1,145.9,68.3,145.9,70.6z"/>
	<path d="M161.6,99.4c0-2-1.3-3.7-1.8-5.2c-0.8-2.4-1.5-4.9-2-7.6c-0.3-1.9-0.8-4.8-2.8-6.1c-1.3-0.9-2.9-0.8-3.8-0.1
		c-2.1,1.5-1.2,3.7-1.2,5.2c0.4,0,0-0.2,0.4-0.2c-0.7,0.9,1.6,5.4,1.8,6.2c0.6,2.2,1.2,4.3,1.8,6.4c0.3,1.1,1.4,5.5,2.6,6.2
		c1.5,0.9,3.5,1.3,5-0.1C162.1,103.6,162.4,99.4,161.6,99.4z"/>
	<path d="M170.5,102c-0.4,0-2.4-8.3-2.6-9.2c-0.7-3.4-1.3-7.4-1.8-10.6c-0.5-3.6-0.8-6.9-1.2-10.1c-0.2-1.6-0.5-4.2-0.8-5.7
		c-0.2-0.8,0-1.2-0.3-1.8c-0.4-0.7-0.6-0.2-1.1-0.8c-0.4-0.5-0.8-0.3-0.6-0.8c-2.3,0-4.3,0.3-4.2,3.6c0.1,2.6,0.6,4.3,0.8,6.2
		c0.3,3.3,0.9,7.7,1.5,11.4c0.6,3.8,1.3,8.5,1.9,12.1c0.3,1.8,0.9,3.6,1.4,5.1c0.4,1.3,1.3,3.3,1.8,4.2c0.4,0.8,0.8,1.3,1.9,1.4
		c0.6,0,1.7,0.1,2-0.1c0.1,0-0.3-0.3-0.3-0.3c0.1,0,1.9-1,1.8-0.8C171.1,105,170.5,102.7,170.5,102z"/>
	<path d="M174.9,73.4c0,0,1,0.6,1,1.4c0.4,0,0-0.2,0.4-0.2c-0.4,0.8,2,3,3.6,2.8c1.6-0.2,2.5-1.1,2.4-3.4c-0.1-1.3-0.6-2.2-1.4-3.6
		c-0.4-0.7-1.6-2.1-1.6-2.2c-1.9,0-2.3-1.8-4.4,0.1C173.8,69.3,173.2,72.5,174.9,73.4z"/>
	<path d="M205.8,91.6c-0.4-1.4-3.6-2.1-4.4-2.4c-0.4-0.1-1.4-0.7-1.8-0.8c-2.3-0.5-3.5-0.2-6.4-0.2c0-3.3,1.8-6.6-0.5-10.2
		c-2.3-3.6-6.4-3-9.3-1.2c-2.8,1.8-4.7,4.3-6.4,7.4c-0.7,1.2-1.1,2.3-1.4,3.4c-0.6,1.9-0.4,4.5-0.4,6.6c0.4,0,0-0.2,0.4-0.2
		c-0.7,1.4,3.1,1.1,4.1,0.3c1.5-1.3,1.1-3.2,1.4-4.7c0.4-1.9,2.5-7.6,5.7-8c0.4,1.9,0.6,3.7,0,5.6c-0.4,1.1-1,2-1.6,3.2
		c-0.6,1.2-1.5,2.7-0.9,4c0.9,1.8,4.3,1.5,4.1,1c0.5,0.2,1.3,0.2,1-0.4c0.4,0.4,1.3,0.2,1-0.4c1.2,0.3,0.5,0,2,0
		c-0.3-0.6,0.6-0.2,1.5-0.3c0.7-0.1,1.9-0.2,2.3-0.2c0.4,0,1.3,0.3,1.4,0.3c0.7,0.2,2.2,1,3,1c0.2,1.7-3.8,3.8-5,4.2
		c-3.2,1.1-7.4,1.1-9.9-0.4c-1.2-0.8-2.8-1.6-4.5-0.9c-1.4,0.6-2.1,2.6-1.7,3.8c0.4,1.1,2.5,2.5,3.4,3.1c2.2,1.3,5,0.9,8,0.8
		c-0.4,1.3-1.9,9,0.2,9c2.2,0.1,4,1.2,4.9-1.6c0.7-2,1.1-6.5-1.1-7.6c1.1-1,3.2-1.1,4.2-1.6c2.1-1.1,3.2-1.4,4.8-3.2
		C205.1,99.7,210.1,92.4,205.8,91.6z M194.6,94.2c-0.1-0.5,0.3-0.5,1-0.2c-0.1,0.1-0.1,0.2,0,0.2C195.3,94.2,194.9,94.2,194.6,94.2z
		"/>
	<path d="M192.4,94.4L192.4,94.4C192.3,94.4,192.3,94.4,192.4,94.4z"/>
	<path d="M265.1,82.2c0.8,0,0.1-7.9,0-8.6c-0.2-1.6-0.4-3.5-0.8-4.8c-0.3-0.9-1.8-2.7-1.8-3.8c-1,0.4-2.4,0.6-2.4,1.8
		c-1.4-1.1-1,3.6-1,4.1c-0.1,4.5,0.4,9.7-0.4,14.2c-0.1,0.4-0.7,2.7-1,2.8c-0.9,0.2-1-2-1.1-2.4c-0.5-1.6-1-3-1.3-4.4
		c-0.5-2.5,0.6-14.8-5.6-12c-4.5,2-1.3,10.2-0.8,14c-0.8,0-4.3,3.3-5.4,4.1c-1.5,1.1-5.6,2.7-5.6-0.7c1.7,0.1,2.3-2.2,3.4-2.2
		c0.1-0.2,0-0.3-0.2-0.2c0.8-1,1.6-1.3,2.3-2.2c1.1-1.5,2.1-2.3,2.2-4.3c0.1-3.3-2.1-6.8-5.5-6.6c-3.1,0.1-5.6,1.1-8,3.8
		c-1.5,1.7-1.7,4.2-2,6.7c-1.1,0-1.1-3.9-1.2-4.6c-0.1-1.1-0.3-2.7-1.4-3.8c-3.1-2.9-6.4,0.7-5.9,4.2c0.3,1.9,2.5,4.8,1.2,6.9
		c-0.7,1.1-2.6,2.5-3.5,3.5c0.9-0.9-1.7,1.1-0.9,0.8c-0.4,0.2-0.3,0.5-0.8,0.5c-0.6,0-1.5-0.5-1.9-1c-0.8-1-0.6-4.9-0.5-6.2
		c0.1-1.3,0.6-2.8,1-4.1c0.2-0.9,1.2-2.6,0.9-3.7c-0.4-1.3-2.6-2.3-4.2-1.8c-5,1.8-4.6,13.3-3.4,17.4c0.8,2.7,3.8,5.5,7.2,5.8
		c1,0.1,3.1-0.5,4-1.2c1.1-0.9,4.2-3.3,4.6-4.8c1.5,0.5,2.9,6.3,3.2,7c1.1,3.1,1.5,6.2,1.3,10.2c-0.1,3.6-4,8.1-7.7,7
		c-1.4-0.4-2.9-1.9-3.9-2.9c-0.7-0.7-1.1-1.8-1.2-2.9c-0.2-3,3.8-6.6,5.7-9.1c0.8-1,2.7-2.4,2.2-3.5c-1.2-2.3-3.8-0.2-5.1,0.7
		c-5.5,3.8-11,9.1-7.3,16.2c0.9,1.8,1.8,2.9,3.8,4.4c0.7,0.5,8.1,5.4,8.1,2.9c2,1,11.3-4.5,10-7c0.8,0.4,2.2-5.3,2.2-5.8
		c0.2-3.8-0.2-7-1-10.2c-0.2-0.6-1.2-2.6-0.8-2.9c0.6-0.4,4.2,1.3,5,1.5c3.5,0.4,9.3-1.8,10.4-6.1c1.2,0.3,1.6,2.4,2.4,3.3
		c1.2,1.3,3.2,2.3,4.9,2.8c1,0.4,2.3,0.8,3.2,0.3c0.7-0.4,2.2-2.1,1.8-2.8C263.6,92.8,265.1,83.6,265.1,82.2z M237.2,79.8
		c0.1,0.3-0.1,0.3-0.4,0.2c0-0.8,0.8-3.8,2-3.5C240.2,76.7,238.2,79.8,237.2,79.8z"/>
	<path d="M294.8,88.2c-0.4-2.2-2-2.8-3.8-3.4c-0.5-0.2-1.9-0.7-2.1-0.9c-1.1-1.4,0.8-5,0.7-7c0-4.4-2.2-7.6-6.1-9
		c-2.7-0.9-5.9-0.1-8.1,0.6c-1.9,0.6-3.7,1.3-5.6,2.5c-1.6,1.1-4.1,3.6-3.9,5.7c0.2,2,3.1,3.5,5,2.6c1.6-0.8,1.4-2.7,3-3.7
		c1.3-0.8,4.2-1.6,5.8-1.8c5.3-0.7,1.8,5.4,2.3,7.4c-2.2-0.3-2.9-1.4-4.7-1.8c-1.7-0.4-4.5,0.4-6,1.1c-3.9,1.8-8,8.2-5.8,12.1
		c2.1,3.6,3.7,4.2,7.6,4c1.5-0.1,2.1-0.3,3.1-0.8c1.2-0.6,4.4-3.1,5.5-3.1c0-1.7,3.8-3.5,5.4-3c1.2,0.4,2.1,1.2,3.9,1.1
		c0.9-0.1,2.1-0.2,2.9-0.8C294.3,89.6,295.8,88.2,294.8,88.2z M278.5,87.6c-1.5,0.4-8.5,5.6-5.7,0c0.6-1.2,0.8-1.9,2.7-1.9
		c1.4,0,2.4,1.2,3.4,1C278.8,86.9,278.7,87.2,278.5,87.6z"/>
</g>
</svg>
