<svg version="1.1"
	 id="Layer_1" sketch:viewSource="501.20068 449.10458 1123.2577 1328.944" xmlns:sketch="http://www.adobe.com/sketch" xmlns:sketch-meta="http://www.adobe.com/sketch/meta" xmlns:time="http://www.adobe.com/sketch/time"
	 xmlns="http://www.w3.org/2000/svg" xmlns:xlink="http://www.w3.org/1999/xlink" x="0px" y="0px" viewBox="0 0 1123.3 941.5"
	 style="enable-background:new 0 0 1123.3 941.5;" xml:space="preserve">
<g>
	<path d="M451.7,574.8c-0.2-0.4-0.3-0.8-0.6-1.1c-0.1-0.2-0.3-0.5-0.4-0.7c-0.1-0.2-0.2-0.3-0.4-0.5c-0.2-0.3-0.5-0.6-0.8-0.8
		c-0.3-0.3-0.7-0.5-1-0.7c-0.3-0.2-0.6-0.3-1-0.3c-0.1,0-0.2,0-0.3,0.1c0,0,0,0,0,0c-0.1,0.1-0.3,0.2-0.3,0.3
		c-0.1,0.2-0.1,0.3-0.1,0.5c0,0.2,0.1,0.4,0.1,0.6c0.1,0.3,0.3,0.6,0.4,0.8c0.3,0.5,0.6,1.1,0.9,1.6c0.2,0.4,0.4,0.8,0.5,1.2
		c0.1,0.3,0.2,0.5,0.2,0.8c0.1,0.3,0.1,0.6,0.1,0.9c0,0.8,0,1.5-0.1,2.3c0,0.3-0.1,0.5-0.1,0.8c0,0,0,0,0,0c0,0.4,0,0.7,0.3,1
		c0.2,0.2,0.4,0.4,0.7,0.5c0.6,0.2,1.2-0.1,1.5-0.6c0.3-0.4,0.4-0.9,0.6-1.4c0.1-0.5,0.2-1,0.3-1.4c0-0.2,0-0.4,0-0.6
		c0-0.5,0-1.1-0.1-1.6C452.1,575.8,451.9,575.3,451.7,574.8z"/>
	<path d="M321.4,603C321.4,603,321.4,603,321.4,603c0,0-0.1-0.1-0.1-0.1C321.3,602.9,321.4,602.9,321.4,603z"/>
	<path d="M546.4,679.6C546.4,679.6,546.3,679.6,546.4,679.6C546.3,679.6,546.3,679.6,546.4,679.6
		C546.3,679.6,546.3,679.6,546.4,679.6z"/>
	<path d="M558.9,677.7C558.9,677.7,558.9,677.7,558.9,677.7C558.8,677.7,558.8,677.7,558.9,677.7
		C558.8,677.7,558.9,677.7,558.9,677.7z"/>
	<path d="M604,788C604,788,604,788,604,788C604,788,604.1,788,604,788C604.1,788,604,788,604,788z"/>
	<path d="M614.4,762.6c0,0,0.1,0,0.1,0c0,0,0.1,0,0.1,0C614.6,762.7,614.5,762.7,614.4,762.6z"/>
	<path d="M536.6,801.2c0,0-0.1,0-0.1,0.1c0,0-0.1,0-0.1,0.1C536.4,801.2,536.5,801.2,536.6,801.2z"/>
	<path d="M517.8,778.5C517.8,778.4,517.8,778.4,517.8,778.5C517.8,778.4,517.8,778.4,517.8,778.5
		C517.8,778.4,517.8,778.4,517.8,778.5z"/>
	<path d="M671.2,411.3c0.1,0,0.2,0,0.2,0c0.1,0,0.2,0,0.3,0C671.6,411.3,671.4,411.3,671.2,411.3z"/>
	<path d="M461.3,176.8c0-0.1,0-0.1,0-0.2c0-0.1,0-0.3,0-0.4C461.2,176.4,461.2,176.6,461.3,176.8z"/>
	<path d="M131.6,492.6c-0.1,0-0.1-0.1-0.2-0.1c0,0-0.1,0-0.1,0C131.4,492.5,131.5,492.5,131.6,492.6z"/>
	<path d="M85.9,286.5c0-0.1,0.1-0.1,0.1-0.2c0,0,0-0.1,0.1-0.1C86,286.3,85.9,286.4,85.9,286.5z"/>
	<path d="M131.8,397.5c-0.1-0.7-0.2-1.3-0.3-2c-0.2-1.3-0.6-2.6-1.1-3.8c-0.1-0.6-0.3-1.3-0.5-1.9c-0.2-0.7-0.5-1.5-0.8-2.2
		c-0.3-0.7-0.7-1.4-1.2-2.1c-0.9-1.1-2.3-1.7-3.8-1.7c-0.4,0-0.8,0.1-1.3,0.2c-1.1-0.3-2.3-0.2-3.4,0.3c-1.2,0.5-2.2,1.4-2.9,2.5
		c-0.3,0.2-0.7,0.4-1,0.7c-1,0.7-1.8,1.6-2.5,2.6c-0.3,0.3-0.4,0.7-0.4,1.1c0,0.5,0.2,1.1,0.6,1.4c0.7,0.6,1.7,0.7,2.5,0.2
		c0,0.2-0.1,0.4-0.1,0.6c-0.2,0.9-0.3,1.9-0.3,2.8c0,0.4,0,0.8,0,1.1c0.1,1,0.1,2,0.3,3c0.4,1.9,0.9,3.9,1.8,5.6
		c0.3,0.7,0.7,1.5,1.2,2.1c0.1,0.1,0.2,0.2,0.3,0.3c0,0,0,0,0,0c0.5,1.1,1.1,2.1,2.2,2.7c0.9,0.5,2,0.5,3,0.1c0.4,0,0.8,0,1.2-0.1
		c1.1-0.1,2.1-0.7,2.9-1.4c0.4-0.3,0.7-0.7,1-1.1c0.3-0.4,0.6-0.7,0.8-1.1c0.8-1.6,1.4-3.3,1.5-5.1c0.1-1.2,0.1-2.4,0-3.6
		C131.9,398.3,131.8,397.9,131.8,397.5z"/>
	<path d="M166.7,385.9c-0.2-0.6-0.4-1.1-0.7-1.6c-0.2-0.5-0.5-1-0.8-1.5c-0.3-0.4-0.5-0.8-0.8-1.2c-0.3-0.4-0.8-0.9-1.2-1.2
		c-0.1,0-0.1-0.1-0.2-0.1c-0.5-0.5-1.1-0.9-1.7-1.1c-0.6-0.2-1.1-0.5-1.7-0.5c-0.1,0-0.2,0-0.2,0c-0.2-0.1-0.5-0.1-0.8-0.2
		c-0.7-0.1-1.4-0.2-2.1-0.1c-0.6,0.1-1.1,0.2-1.7,0.4c-0.6,0.2-1.2,0.4-1.7,0.7c-0.2,0.1-0.4,0.3-0.6,0.4c-0.3,0.1-0.5,0.1-0.8,0.2
		c-0.6,0.2-1,0.6-1.2,1.1c-0.1,0.2-0.1,0.4-0.1,0.5c-0.7,0.8-1.3,1.8-1.7,2.8c-0.1,0.2-0.2,0.5-0.3,0.7c0,0.2-0.1,0.4-0.1,0.6
		c0,0.1,0,0.1,0,0.2c0.1,0.3,0.4,0.5,0.7,0.4c0,0,0,0,0,0c0,0,0,0,0,0c0,0,0,0,0,0c0.1,0,0.2-0.1,0.2-0.2c0.1-0.1,0.2-0.2,0.3-0.3
		c0.2-0.1,0.3-0.3,0.5-0.4c0.3-0.2,0.7-0.5,1-0.7c0.3-0.2,0.5-0.3,0.8-0.5c-0.7,1.9-0.9,4-0.9,6c0,0.1,0,0.2,0,0.3
		c-0.1,1-0.2,2-0.2,3c0,2.1,0.3,4.2,0.7,6.2c0.4,2,1.1,3.9,2,5.7c0.8,1.6,2,3,3.7,3.8c1,0.5,2,0.7,3.1,0.6c0.5,0,1-0.1,1.5-0.3
		c0.5-0.1,1-0.4,1.4-0.7c0.8-0.4,1.6-1.2,2.1-2c0.5-0.8,1-1.6,1.3-2.6c0.1-0.3,0.2-0.5,0.3-0.8c0.3-0.5,0.6-1,0.9-1.6
		c1.5-3.4,1.1-7.2,0.5-10.8C167.8,389.4,167.3,387.6,166.7,385.9z"/>
	<polygon points="148.9,386.4 148.9,386.4 148.9,386.4 	"/>
	<path d="M316.5,261.6c0.7-0.8,1.3-1.7,1.8-2.7c1-2,1.8-4.1,2.3-6.3c0.5-2.5,0.9-5.1,0.9-7.7c0-1.2-0.1-2.3-0.1-3.5
		c-0.1-1.9-0.3-3.8-0.6-5.6c-0.3-2.2-1-4.4-2.2-6.3c-0.7-1.1-1.6-1.9-2.6-2.7c-0.5-0.4-1.1-0.7-1.7-0.9c-0.6-0.2-1.1-0.5-1.7-0.6
		c-0.1,0-0.2,0-0.2,0c-1-0.3-2-0.4-3-0.4c-1.1,0-2.3,0.3-3.3,0.7c-1,0.4-2,1-2.8,1.7c-0.1,0.1-0.2,0.1-0.2,0.2
		c-0.2,0.2-0.4,0.4-0.7,0.6c-0.8,0.7-1.5,1.6-2.1,2.5c-1.3,1.9-2.3,4.1-2.8,6.4c-0.2,0.7-0.4,1.4-0.5,2.1c-0.5,2.5-0.7,5-0.7,7.5
		c0,0,0,0.1,0,0.2c0,1.3,0.1,2.6,0.2,4c0,1.1,0,2.1,0,3.2c0.1,2.1,0.5,4.4,1.7,6.1c0.5,0.7,1,1.4,1.6,1.9c0.1,0.2,0.3,0.4,0.4,0.5
		c1.6,1.9,3.9,3.2,6.3,3.5c1.4,0.2,2.8,0.2,4.1-0.2c1.1-0.3,2-0.7,3-1.3C314.6,263.7,315.6,262.6,316.5,261.6z M309.7,237.5
		c-1.1-0.7-1.7-2-1.7-3.3c0-0.2,0-0.5,0.1-0.7c0.2-0.9,0.6-1.8,1.2-2.5c0.6-0.6,1.3-1.1,2.1-1.3c1-0.3,2.2,0.1,3,0.7
		c0.8,0.7,1.3,1.7,1.3,2.8c0,0.5-0.1,1-0.3,1.5c-0.1,0.3-0.3,0.5-0.5,0.7c-0.1,0.3-0.2,0.6-0.4,0.9c-0.5,0.7-1,1.2-1.8,1.4
		C311.6,238.2,310.6,238.1,309.7,237.5z M314.8,243.4c0,0.1,0,0.3,0,0.4c0,0.1-0.1,0.3-0.1,0.4c-0.2,0.7-0.8,1.1-1.5,1.1
		c-0.2,0-0.5-0.1-0.7-0.2c-0.1,0-0.1-0.1-0.2-0.1c-0.5-0.3-0.7-0.8-0.7-1.4c0-0.2,0-0.5,0.1-0.7c0.1-0.3,0.3-0.6,0.5-0.9
		c0.6-0.5,1.4-0.5,2-0.1C314.6,242.4,314.8,242.9,314.8,243.4C314.8,243.4,314.8,243.4,314.8,243.4z"/>
	<path d="M274.2,252.2c-0.2-1.5-0.6-3.1-1-4.6c-0.3-1.1-0.7-2.1-1.2-3.1c-0.2-0.6-0.4-1.1-0.7-1.6c-0.3-0.5-0.8-0.8-1.2-1.1
		c-0.1-0.1-0.1-0.2-0.2-0.3c-0.5-0.6-1.3-1-2.1-1.2c-0.9-0.2-1.8,0-2.7,0.4c-0.9,0.4-1.6,1.1-2.2,1.8c-0.3,0.3-0.5,0.6-0.7,0.9
		c-1.4,1.3-2.5,3-3.2,4.7c-0.8,1.8-1.3,3.7-1.5,5.6c-0.1,1-0.2,2.1-0.2,3.1c0,0.8,0,1.6,0.2,2.4c0.2,1.5,0.7,3,1.6,4.3
		c0.2,0.5,0.4,1,0.7,1.5c0.8,1.5,2,2.8,3.5,3.6c0.7,0.4,1.5,0.7,2.3,0.7c0.8,0.1,1.7,0.1,2.5-0.2c0.6-0.2,1.1-0.4,1.6-0.7
		c0.4-0.3,0.8-0.6,1.2-0.9c0.6-0.6,1.1-1.2,1.5-1.9c0.9-1.5,1.5-3.2,1.8-4.9c0.4-1.9,0.6-3.9,0.4-5.8
		C274.5,254.1,274.4,253.1,274.2,252.2z M270,246.3c0,0.1,0,0.2,0,0.2c0,0.8-0.4,1.5-0.8,2.1c-0.4,0.6-1,1-1.7,1.2
		c-0.8,0.2-1.6,0-2.1-0.6c0,0-0.1-0.1-0.1-0.2c-0.3-0.4-0.5-1-0.5-1.5c0-0.2,0-0.5,0.1-0.7c0.1-0.4,0.2-0.7,0.3-1.1
		c0-0.1,0.1-0.2,0.1-0.2c0.3-0.7,1-1.2,1.7-1.4c1.1-0.2,2.1,0.3,2.7,1.2C269.8,245.6,269.9,246,270,246.3z M267.9,253.3
		c0-0.1,0-0.2,0-0.3c0,0,0,0,0,0c0,0,0,0,0,0c0-0.1-0.1-0.1-0.1-0.2c0,0,0-0.1,0-0.1c0,0,0,0,0-0.1c0-0.1,0-0.1,0-0.2
		c0-0.2,0.1-0.3,0.2-0.5c0.2-0.2,0.5-0.3,0.7-0.2c0.3,0,0.5,0.2,0.6,0.4c0.1,0.1,0.1,0.3,0.1,0.4c0,0.2-0.1,0.4-0.1,0.5
		c0,0.1-0.1,0.1-0.1,0.2c0,0.1-0.1,0.1-0.1,0.2c0,0.1-0.1,0.1-0.1,0.2c-0.1,0.1-0.3,0.2-0.5,0.2
		C268.2,253.8,267.9,253.6,267.9,253.3z"/>
	<path d="M385.6,281.7c0.1,0,0.1,0,0.2,0c0,0,0,0,0,0C385.7,281.7,385.6,281.7,385.6,281.7z"/>
	<path d="M400.9,304.9c-0.4-0.8-0.9-1.5-1.5-2.2c-0.5-0.6-0.9-1.2-1.4-1.7c-0.6-0.6-1.2-1.3-1.9-1.9c-0.6-0.5-1.2-1-1.9-1.4
		c-0.7-0.4-1.3-0.9-2-1.3c-0.7-0.4-1.4-0.9-2.2-0.9c-0.5,0-0.8,0.4-0.8,0.8c0,0.1,0,0.1,0,0.2c0.2,0.6,0.7,1.2,1.1,1.7
		c0.4,0.5,0.8,1,1.3,1.5c0.9,1,1.7,2,2.5,3c0.3,0.5,0.6,0.9,0.9,1.4c0.4,0.7,0.7,1.5,1,2.2c0.3,1,0.6,2,1,3c0.4,1.2,0.9,2.4,1.7,3.4
		c0.5,0.7,1.5,1,2.3,0.7c0.8-0.2,1.5-1,1.6-1.9c0.1-0.7,0-1.3-0.1-2C402.2,307.9,401.6,306.4,400.9,304.9z"/>
	<path d="M874.3,609.4c-0.1,0-0.3,0.1-0.4,0.1c-0.1,0-0.2,0.1-0.3,0.1C873.9,609.5,874.1,609.4,874.3,609.4z"/>
	<path d="M1035.3,416.4c0-0.1,0-0.2,0.1-0.3c0-0.1,0.1-0.2,0.1-0.4C1035.4,416,1035.4,416.2,1035.3,416.4z"/>
	<path d="M1050.6,382.4c-0.1-2-0.1-3.9-0.2-5.9c-0.2-3.4-0.5-6.8-0.6-10.2c0-1.4,0-2.8,0-4.1c0-1.6,0.1-3.2-0.1-4.8
		c-0.2-1.7-0.4-3.5-0.8-5.1c-0.5-1.8-1.1-3.5-1.9-5.2c-1-2.3-2.1-4.6-3.1-6.9c0-0.2-0.1-0.4-0.1-0.6c-0.3-1.4-0.6-2.7-0.9-4.1
		c-0.4-1.5-0.8-3-1.3-4.4c-1-2.8-2.1-5.4-3.2-8.1c-1.2-2.8-2.3-5.5-3.5-8.3c-1.2-2.7-2.6-5.4-4.1-8c-1.5-2.5-3-4.9-4.7-7.3
		c-1.6-2.2-3.1-4.4-4.9-6.5c-1.8-2.2-3.8-4.1-5.9-6c-2.2-2-4.4-4-6.6-5.9c-1.1-0.9-2.2-1.8-3.3-2.7c-1.2-0.9-2.4-1.9-3.6-2.7
		c-1.2-0.8-2.4-1.5-3.7-2.1c-1.4-0.6-2.8-1.1-4.3-1.6c-1.2-0.4-2.4-0.9-3.6-1.3c-1-0.3-2.1-0.6-3.2-0.9c-1-0.2-2.1-0.5-3.1-0.8
		c-1.3-0.3-2.5-0.6-3.8-0.8c-1.3-0.2-2.5-0.4-3.8-0.5c-1.2,0-2.4,0-3.6,0.1c-1.2,0.1-2.5,0.3-3.7,0.6c-1.1,0.2-2.2,0.5-3.3,0.8
		c-1.3,0.3-2.5,0.5-3.8,0.9c-1.4,0.4-2.8,0.7-4.1,1.3c-1.3,0.5-2.7,1.2-3.8,2.1c-0.8,0.2-1.5,0.5-2.2,0.8c-0.6,0.3-1.2,0.7-1.8,1.1
		c-0.4,0.3-0.8,0.6-1.1,1c-0.8,0.8-1.4,1.7-2,2.7c-0.6,1-1.1,2-1.4,3c0,0,0,0,0,0.1c0,0.1-0.1,0.1-0.1,0.2c0,0,0,0,0,0
		c0,0,0,0.1,0,0.1c0,0.1,0,0.1-0.1,0.2c-0.1,0.4-0.2,0.7-0.3,1.1c0,0,0,0,0,0c0,0,0,0.1,0,0.1c-0.1,0.3-0.2,0.7-0.3,1c0,0,0,0,0,0
		c0,0.1,0,0.1,0,0.2c0,0.3,0,0.6,0,0.9c0,0.2,0,0.3,0,0.5c0,0.1,0,0.2,0,0.3c0,0,0,0,0,0c0,0.2,0,0.3,0.1,0.5c0,0,0,0,0,0
		c0,0,0,0,0,0s0,0,0,0c0,0.1,0.1,0.2,0.1,0.3c0.1,0.2,0.2,0.4,0.3,0.6c0,0.1,0.1,0.1,0.1,0.2c0.5,1.1,1.1,2.2,1.8,3.3
		c0.3,0.4,0.5,0.8,0.8,1.2c0.3,0.4,0.7,0.8,1,1.2c-0.1-0.2-0.3-0.3-0.4-0.5c0,0,0,0,0,0c0,0,0,0,0,0c0,0,0,0,0,0c0,0,0,0,0,0
		c0.4,0.4,0.7,0.8,1.1,1.3c0.5,0.5,0.9,1.1,1.4,1.6c0.7,0.8,1.3,1.6,2,2.4c0.6,0.7,1.2,1.4,1.8,2.1c0.3,0.4,0.6,0.7,0.9,1.1
		c1,1.2,1.9,2.4,2.8,3.7c0.3,0.4,0.6,0.9,1,1.3c0,0,0,0,0,0c0,0.1,0.1,0.1,0.1,0.2c0,0,0,0,0,0c1.2,1.6,2.5,3.2,3.8,4.8
		c0.8,0.9,1.6,1.9,2.4,2.9c0.7,0.9,1.3,1.9,1.9,2.9c1.1,1.9,2.1,3.8,3.3,5.7c1.2,2,2.5,3.9,3.6,6c0.6,1.1,1.2,2.3,1.7,3.5
		c0.6,1.1,1.2,2.3,1.8,3.4c0.9,1.9,1.7,3.8,2.3,5.8c0,0,0,0.1,0,0.1c0,0,0,0,0,0c0.5,1.6,1,3.3,1.4,4.9c0.3,1,0.6,2.1,1,3.1
		c0,0.1,0,0.3,0,0.4c-0.7,4.4-1.9,8.8-3.1,13.1c0-0.1,0.1-0.3,0.1-0.4c-0.9,3.3-2,6.5-3.3,9.7c-1.2,2.7-2.5,5.4-4,8
		c-2.3,3.9-4.7,7.8-7.5,11.4c-1.7,2.2-3.6,4.3-5.4,6.3c-1.8,2-3.6,3.9-5.4,5.8c-2.7,2.6-5.6,5.1-8.6,7.4c-3,2.2-6.1,4.1-9.3,5.9
		c0.1-0.1,0.3-0.2,0.4-0.2c-3.9,2.2-7.8,4.4-11.8,6.4c-2.3,1.2-4.6,2.2-6.9,3.3c-2.2,1-4.4,1.9-6.6,2.8c-7.8,3-15.8,5.5-23.9,7.5
		c-5.8,1.5-11.7,2.7-17.6,3.7c-5.8,1-11.6,2-17.4,2.7c-7.2,0.8-14.4,1.3-21.7,1.3c-2.8,0-5.5-0.1-8.3-0.2c-2.8-0.2-5.5-0.4-8.2-0.8
		c-3.5-0.5-6.9-1.1-10.3-1.8c-3.3-0.7-6.6-1.5-9.9-2.2c-3.2-0.7-6.5-1.4-9.7-2.2c-3.4-0.7-6.7-1.5-10-2.4c-3.5-0.9-6.9-2-10.3-3
		c-3.3-1.1-6.7-2.2-9.9-3.5c-3.4-1.4-6.7-3-10-4.4c-3.2-1.3-6.5-2.6-9.8-3.7c-2.5-0.9-5.1-1.7-7.6-2.3c-2.7-0.7-5.4-1.3-8.1-1.9
		c-5-1.1-10-2.2-15-3.1c-2.6-0.4-5.2-0.9-7.8-1.2c-2.7-0.4-5.3-0.7-8-0.9c-2.5-0.2-5-0.4-7.6-0.5c-2.7-0.1-5.5-0.1-8.2-0.1
		c-2.4,0-4.9,0-7.3,0.1c-2.6,0.1-5.2,0.3-7.9,0.4c-4.8,0.2-9.7,0.3-14.5,0.8c-9.4,0.9-18.8,2.2-28.1,4c-2.5,0.5-5.1,1.1-7.6,1.6
		c-2.5,0.5-4.9,1-7.4,1.5c-2.6,0.5-5.1,0.9-7.7,1.3c-2.7,0.4-5.4,0.8-8,1.3c-2.3,0.4-4.7,0.8-7,1.4c-2.5,0.6-4.9,1.3-7.4,2
		c-4.8,1.4-9.5,2.7-14.3,3.9c-7.2,1.8-14.5,3.1-21.8,4.1c-2.3,0.3-4.5,0.5-6.8,0.7c-2.5,0.3-4.9,0.6-7.4,0.9
		c-4.6,0.6-9.2,1.3-13.8,1.9c-5.2,0.6-10.4,1-15.6,1c-1.7,0-3.4-0.1-5.1-0.3c-2.3-0.4-4.6-0.9-6.9-1.5c-2.8-0.8-5.7-1.6-8.4-2.7
		c-2.6-1.1-5-2.4-7.5-3.8c-0.6-0.4-1.3-0.7-1.9-1.1c-0.9,0.5-2.1,0.1-2.7-0.7c-0.2-0.3-0.4-0.6-0.6-1c-0.2-0.4-0.5-0.9-0.7-1.3
		c-0.6-0.9-1.2-1.8-1.6-2.7c-0.2-0.5-0.4-1.1-0.5-1.7c-0.2-0.6-0.3-1.2-0.5-1.8c-0.2-0.9-0.4-1.8-0.5-2.7c-0.2-1-0.4-2.1-0.5-3.1
		c0-0.4-0.1-0.8-0.1-1.2c-0.1-0.5-0.1-1-0.2-1.4c-0.3-1.9-0.6-3.8-0.7-5.7c-0.1-1-0.1-1.9-0.1-2.9c0-3.4,0.4-6.9,0.8-10.3
		c0,0,0,0,0,0c0,0,0,0,0-0.1c0,0,0,0,0,0c0,0,0-0.1,0-0.1c0-0.1,0-0.1,0-0.2c0.2-2.1,0.4-4.2,0.7-6.3c0.3-2.3,0.7-4.6,1-6.9
		c0.3-2.1,0.7-4.2,1.1-6.3c0-0.1,0.1-0.2,0.1-0.3c0.1-0.6,0.2-1.3,0.3-1.9c-0.2,0.6-0.4,1.2-0.6,1.8c-0.4,1.1-0.7,2.3-1,3.5
		c0.6-3.6,1-7.1,1.5-10.7c0.8-5.9,1.4-11.9,2-17.9c0.3-3,0.6-5.9,0.9-8.9c0.2-2.9,0.3-5.8,0.4-8.7c0.1-3.5,0.4-7,0.7-10.5
		c0.5-6,1.1-11.9,1.7-17.9c0.3-3.1,0.6-6.2,0.9-9.3c0.3-3.1,0.4-6.2,0.8-9.3c0.6-5.9,1.5-11.7,2.2-17.6c0.7-6.1,1.5-12.1,2.2-18.1
		c0.4-3.1,0.8-6.3,1.2-9.4c0.4-3,0.8-5.9,1.2-8.9c0.8-6.1,1.1-12.3,1.8-18.4c0.6-6.2,1.2-12.3,1-18.5c-0.1-3.1-0.3-6.2-0.6-9.2
		c-0.3-3-0.7-6-1.1-9c-0.4-3-0.8-6-1.2-9c-0.4-2.8-0.8-5.7-1.4-8.5c-0.5-2.6-1.1-5.2-1.8-7.7c-0.8-2.9-1.8-5.8-2.7-8.7
		c-0.8-2.7-1.6-5.4-2.7-8.1c-1-2.3-2.1-4.5-3.4-6.7c-0.7-1.1-1.4-2.2-2.2-3.3c-0.8-2.3-1.9-4.4-3.2-6.4c-1-1.6-2.1-3.1-3.3-4.6
		c-1.2-1.5-2.4-3-3.7-4.3c-1.4-1.4-2.9-2.8-4.4-4.1c-1.4-1.2-3-2.1-4.6-3.1c-3.2-1.9-6.4-3.7-9.8-5.2c-1.7-0.7-3.4-1.4-5.2-2
		c-1.9-0.6-3.8-1-5.7-1.4c-3.7-0.7-7.4-1.1-11.2-1.3c-3.9-0.2-7.9-0.2-11.9,0c-7.8,0.3-15.6,1.1-23.3,2.5c-3.7,0.7-7.4,1.6-11,2.7
		c-3.4,1-6.7,2.2-10,3.4c-3.5,1.3-7,2.6-10.5,4c-3.3,1.3-6.6,2.4-10,3.6c-3.6,1.3-7.2,2.6-10.7,4.1c-3.6,1.5-7.1,3.1-10.6,4.8
		c-6.6,3.1-13.3,6-19.9,9.1c-6.7,3.2-13.5,6.4-20.1,9.8c-6.7,3.5-13.1,7.5-19.4,11.7c-6.3,4.2-12.6,8.3-18.8,12.6
		c-6.5,4.4-13.3,8.5-19.9,12.9c-3,2-6,4-8.9,6.2c-2.9,2.2-5.8,4.6-8.6,7c-2.8,2.3-5.4,4.8-8.1,7.2c-2.8,2.5-5.7,5-8.5,7.6
		c-2.9,2.6-5.7,5.2-8.5,7.9c-2.6,2.5-5.1,5.1-7.7,7.6c-2.6,2.5-5.2,5.1-7.7,7.7c-2.5,2.6-4.9,5.3-7.4,7.9c-2.6,2.6-5.3,5.1-8,7.6
		c-2.5,2.4-5,4.7-7.4,7.2c-2.6,2.7-5.2,5.4-7.7,8.2c-1,1.1-2,2.3-3,3.5c-0.4,0.3-0.8,0.7-1.2,1c-2.9,2.5-5.6,5.1-8.4,7.6
		c0,0,0.1-0.1,0.1-0.1c-0.2,0.2-0.4,0.3-0.6,0.5c0.1-0.1,0.2-0.1,0.2-0.2c-1,0.9-2,1.7-3,2.6c-2.4,2.1-4.9,4.2-7.2,6.3
		c-2.4,2.2-4.7,4.6-6.4,7.4c-1,1.7-1.9,3.6-2.7,5.4c-0.1,0.1-0.2,0.3-0.3,0.4c-1.2,2-2.4,3.9-3.6,5.9c-1.2,2.1-2.2,4.2-3.2,6.4
		c-0.7,1.6-1.2,3.2-1.7,4.8c-0.5,1.7-0.7,3.5-1,5.2c-0.5,3.4-1,6.8-1,10.3c0,0.4,0,0.8,0,1.2c0,0.3,0,0.7,0,1
		c-0.4,2.7-0.6,5.5-0.6,8.2c0,0.5,0,0.9,0,1.4c0,2.6,0.1,5.2,0.4,7.9c0.3,3.1,0.7,6.2,1.1,9.3c0.8,6.2,1.5,12.3,2.4,18.5
		c1,6.4,2.6,12.7,4.3,18.9c1.8,6.4,3.9,12.8,5.6,19.2c1.6,6.1,3,12.2,4.5,18.3c0.8,3.1,1.5,6.1,2.1,9.2c0.6,3,1.3,6,1.9,9
		c0.8,4,1.5,8,2.5,12c0.6,2.3,1.3,4.6,2.2,6.7c0.9,1.9,1.9,3.8,3.1,5.5c0.9,1.3,1.8,2.7,2.7,4.1c0.8,1.3,1.6,2.7,2.4,4
		c1.8,2.8,3.7,5.6,6,8c2.2,2.3,4.7,4.2,7.3,6c2.6,1.8,5.2,3.5,8,4.9c1.9,1,3.9,1.8,5.9,2.6c2,0.8,4,1.5,6.1,2
		c4.2,1,8.5,1.5,12.8,1.7c3,0.2,6,0.2,9,0c0.1,0.2,0.2,0.4,0.2,0.6c0.3,0.7,0.7,1.4,1.1,2.1c0.9,1.3,1.9,2.6,3,3.8
		c0.8,0.8,1.7,1.6,2.7,2.2c0.8,0.4,1.6,0.8,2.4,1.1c0.8,0.3,1.7,0.4,2.5,0.4c1.1,0,2.2-0.3,3.2-0.8c2-1,3.6-2.8,4.7-4.6
		c1.6-2.4,2.2-5.4,2.2-8.3c2.3-0.5,4.7-1.1,7-1.8c2.8-0.8,5.6-1.8,8.5-2.8c2.9-1,5.8-2,8.6-2.9c1-0.3,1.9-0.6,2.9-0.9
		c0.1,0.1,0.1,0.2,0.2,0.3c0.5,0.8,1,1.6,1.6,2.4c1.4,1.8,3.1,3.5,5.3,4.1c1.7,0.4,3.6,0.5,5.4,0.3c0.9-0.1,1.8-0.3,2.7-0.7
		c1-0.4,2.1-0.9,2.9-1.6c2-1.7,3.2-4.3,3.6-6.9c0,0,0,0,0,0.1c0,0,0,0,0,0c0,0,0,0.1,0,0.1c0,0,0-0.1,0-0.1c0-0.1,0-0.2,0-0.3
		c0,0.1,0,0.1,0,0.2c0.2-1.3,0.3-2.7,0.4-4c0-0.5,0.1-1,0.1-1.4c3.2-1.3,6.4-2.7,9.6-3.9c2.8-1.1,5.5-2.2,8.3-3.4
		c2.9-1.3,5.7-2.7,8.4-4.3c2.7-1.5,5.3-3.2,8-4.8c1.4-0.9,2.8-1.8,4.2-2.7c1.4-0.9,2.8-1.8,4.1-2.8c2.6-2,4.9-4.5,6.7-7.2
		c1.7-2.5,3.3-5.2,5-7.8c1.5-2.2,3-4.2,4.7-6.2c0.9-1,1.9-2,3-3c1-0.9,2-1.7,3.1-2.5c1.3-0.9,2.7-1.7,4.1-2.4c1.1-0.5,2.2-1,3.3-1.4
		c0.7-0.2,1.5-0.5,2.2-0.7c-0.1,0.4-0.1,0.9-0.1,1.3c0,1.3,0.2,2.7,0.6,4c0.9,3,2.9,5.5,5.4,7.3c1.3,0.9,2.7,1.6,4.2,2.2
		c1.3,0.5,2.6,1,3.9,1.4c5.7,1.9,11.8,2.6,17.8,2.5c2.7,0,5.4-0.2,8.2-0.5c2.9-0.3,5.7-1,8.4-1.9c1.4-0.5,2.8-0.9,4.1-1.5
		c1.3-0.6,2.5-1.2,3.8-1.9c1.3-0.7,2.7-1.4,4-2.2c1.1-0.7,2.2-1.4,3.3-2.1c1-0.7,2-1.3,3-2c1-0.7,1.9-1.3,2.8-2.1c0,0,0,0,0,0
		c0,0.3-0.1,0.5-0.1,0.8c-0.1,0.8-0.3,1.6-0.5,2.4c-0.3,1.6-0.5,3.2-0.6,4.8c-0.1,0.8-0.2,1.6-0.3,2.4c-0.1,0.8-0.1,1.7-0.2,2.5
		c-0.1,1.1-0.2,2.1-0.3,3.1c-0.1,1.2-0.2,2.4-0.3,3.6c-0.1,1.8-0.1,3.5-0.2,5.3c-0.1,1.9-0.2,3.8-0.2,5.7c0,0.4,0,0.8,0,1.2
		c0,3.4,0.2,6.7,0.4,10.1c0.2,1.9,0.3,3.8,0.5,5.6c0.1,1.9,0.3,3.7,0.5,5.6c0.4,3.8,0.7,7.6,1.1,11.3c0.2,1.8,0.5,3.6,0.6,5.5
		c0.2,1.8,0.3,3.7,0.4,5.5c0.1,1.8,0.3,3.6,0.5,5.5c0.2,2,0.5,3.9,0.6,5.9c0.2,3.3,0.3,6.5,0.6,9.8c0.2,1.6,0.4,3.2,0.5,4.8
		c0.1,1.5,0.2,3,0.3,4.4c0,0.1,0,0.3,0,0.4c0-0.1,0-0.2,0-0.3c0,0.2,0,0.4,0,0.5c0,0,0,0,0,0c0.1,2,0.2,4,0.2,6
		c0,1.8,0.1,3.5,0.2,5.3c-0.2,0-0.4,0-0.7-0.1c-1-0.1-2-0.3-3-0.4c-1.1-0.1-2.2-0.2-3.3-0.2c-2.1-0.1-4.2-0.2-6.2,0
		c-2.2,0.1-4.3,0.5-6.5,0.7c-2.2,0.2-4.3,0.4-6.5,0.5c-2.2,0.1-4.5,0.2-6.7,0.7c-2.1,0.4-4.2,1-6.3,1.4c-1,0.2-2.1,0.4-3.1,0.6
		c-1,0.2-1.9,0.5-2.8,0.8c-0.2,0.1-0.3,0.1-0.5,0.2c-0.3,0.1-0.5,0.2-0.8,0.3c-1.8,0.6-3.5,1.2-5.2,2.1c-0.8,0.4-1.6,0.8-2.4,1.3
		c-0.9,0.5-1.8,1.1-2.6,1.7c-0.9,0.6-1.8,1.2-2.6,1.8c-0.9,0.6-1.7,1.3-2.6,1.9c-0.8,0.6-1.6,1.2-2.4,1.8c-0.8,0.7-1.6,1.5-2.3,2.3
		c-0.7,0.8-1.5,1.6-2.2,2.4c-0.7,0.8-1.3,1.6-1.9,2.3c-1.2,1.5-2.6,3-3.8,4.6c-0.9,1.3-1.8,2.7-2.7,4.1c-0.3,0.5-0.6,1-0.8,1.6
		c-0.1,0.4-0.3,0.7-0.3,1.1c-0.6,0.1-1.3,0.4-1.8,0.6c-0.6,0.3-1.2,0.5-1.8,0.8c-0.7,0.3-1.4,0.5-2,0.9c-0.8,0.4-1.5,0.8-2.2,1.3
		c-1.3,0.9-2.4,2.2-3.1,3.6c-0.7,1.3-1.2,2.7-1.4,4.2c-0.1,0.6-0.1,1.3-0.1,1.9c0,0.8,0.1,1.6,0.3,2.4c0.2,0.6,0.5,1.2,0.9,1.6
		c0.5,0.5,1.1,0.8,1.8,0.9c0.7,0.1,1.3,0.1,2,0c0.7-0.1,1.4-0.3,2.1-0.5c1.4-0.5,2.7-1.2,4-2.1c0,0,0,0,0,0c0,0,0.1,0,0.1-0.1
		c0,0,0.1,0,0.1-0.1c0,0,0,0,0,0c1-0.7,2-1.4,3-2.1c-0.1,0.1-0.1,0.3-0.2,0.4c-0.4,1.1-0.9,2.2-1.1,3.4c-0.3,1.2-0.6,2.5-0.8,3.7
		c-0.1,0.7-0.2,1.3-0.2,2c0,0.6,0,1.1,0,1.7c0,1.4,0.1,2.9,0.4,4.3c0.2,1.4,0.4,2.8,1.3,3.9c0.9,1.2,2.4,1.9,3.9,1.8
		c2-0.1,3.3-1.6,4.3-3.1c0.8-1.2,1.5-2.5,2-3.8c0.6-1.3,1.1-2.6,1.6-4c0.5-1.3,0.8-2.7,1-4c0.4,0.6,0.8,1.1,1.3,1.6
		c0.4,0.5,0.9,1,1.3,1.5c0.5,0.5,0.9,1.1,1.4,1.6c0.4,0.4,0.9,0.9,1.4,1.2c1.2,0.8,2.4,1.4,3.9,1.3c1,0,2-0.2,2.8-0.8
		c0.8-0.6,1.3-1.3,1.7-2.1c0.8-1.5,1.2-3.3,1.1-5c-0.1-1.5-0.5-3-1.2-4.4c-0.6-1.3-1.4-2.6-2-3.9c-0.5-1-0.9-2-1.3-2.9
		c-0.1-0.2-0.2-0.4-0.3-0.6c0,0,0,0,0,0c0.2-0.3,0.4-0.6,0.6-1c0,0,0,0,0,0.1c0,0,0-0.1,0.1-0.1c0,0,0,0,0,0c0,0,0,0,0,0
		c0.4-0.5,0.7-1,1.1-1.5c0.3-0.3,0.5-0.6,0.8-0.8c0.5-0.4,1-0.8,1.5-1.1c0.5-0.4,1-0.7,1.6-1.1c0.6-0.4,1.1-0.8,1.7-1.3
		c0.6-0.5,1.1-1,1.7-1.5c0.1-0.1,0.1-0.1,0.2-0.2c0.9-0.8,1.9-1.5,2.9-2.2c0.5-0.4,1-0.8,1.4-1.2c0.1-0.1,0.2-0.2,0.2-0.2
		c0.2,0.1,0.5,0.1,0.7,0.2c0.6,0.1,1.2,0.2,1.9,0.2c1.8,0.1,3.5,0.3,5.3,0.5c0.9,0.1,1.9,0.2,2.8,0.3c0.9,0.1,1.9,0.2,2.8,0.4
		c1.9,0.3,3.9,0.5,5.8,0.7c1.6,0.1,3.2,0.2,4.9,0.3c0.6,0,1.2,0.1,1.7,0.2c1,0.1,2.1,0.1,3.1,0.1c1.1,0,2.1,0,3.2-0.1
		c1.7-0.1,3.3-0.4,5-0.5c1.2-0.1,2.4-0.1,3.6-0.2c0.5-0.1,1-0.2,1.5-0.4c0.2-0.1,0.3-0.1,0.5-0.2c0,0.3,0.1,0.5,0.1,0.8
		c0.3,1.9,0.7,3.7,1.1,5.6c0.4,1.7,0.8,3.3,1.2,5c0.4,1.6,0.8,3.2,1.2,4.8c0.2,0.8,0.4,1.6,0.7,2.4c0.3,0.8,0.6,1.6,0.9,2.5
		c0.4,1.1,0.8,2.3,1.4,3.4c-0.1,1.3-0.1,2.7-0.1,4c0,1.7,0,3.3-0.1,5c-0.1,1.7-0.2,3.4-0.2,5.1c0,1.6,0,3.2-0.2,4.8c0,0,0,0,0,0
		c0,0,0,0.1,0,0.1c0,0,0,0,0,0c0,0,0,0,0,0c0,0,0,0,0,0.1c0,0,0,0,0,0c0,0.4-0.1,0.8-0.1,1.2c-0.1,0.1-0.3,0.2-0.4,0.3
		c-0.9,0.8-1.7,1.7-2.4,2.7c-0.8,1.1-1.5,2.3-2.2,3.6c-1.4,2.6-2.6,5.3-3.6,8.1c0,0,0,0,0,0c0,0.1,0,0.1-0.1,0.2c0,0,0,0.1-0.1,0.1
		c0,0,0,0,0,0c-0.9,2.4-1.6,5-1.9,7.5c-0.2,1.2-0.2,2.5-0.3,3.7c0,0.1,0,0.3,0,0.4c0,1.1,0.1,2.2,0.4,3.3c0.2,0.8,0.5,1.5,1.1,2
		c0.7,0.6,1.6,0.7,2.5,0.5c1.3-0.3,2.3-1.2,3.1-2.1c0.9-1,1.6-2.2,2.3-3.3c0,0.9,0.1,1.9,0.3,2.8c0.1,0.6,0.2,1.2,0.4,1.9
		c0.2,0.6,0.4,1.3,0.6,1.9c0.4,1.2,0.9,2.4,1.6,3.6c0.6,1.1,1.2,2.1,2,3c0.5,0.6,1,1.1,1.7,1.5c0.6,0.3,1.2,0.4,1.8,0.3
		c0.6-0.1,1.2-0.3,1.7-0.5c0.6-0.3,1.2-0.7,1.6-1.2c0.5-0.5,0.9-1,1.2-1.6c0.3-0.6,0.6-1.2,0.8-1.8c0.5-1.3,0.7-2.6,0.9-3.9
		c0.2-1.3,0.2-2.6,0.3-4c0-0.9,0-1.7,0-2.6c0.3,0.2,0.7,0.4,1,0.6c0.6,0.3,1.3,0.6,1.9,0.8c1.3,0.5,2.6,0.7,3.9,0.6
		c0.7-0.1,1.4-0.2,2.1-0.4c0.7-0.3,1.3-0.7,1.8-1.3c1-1.1,1.6-2.5,1.7-4c0-0.4,0-0.7,0-1.1c0.6,0.8,1.3,1.6,2,2.4
		c1.1,1.2,2.3,2.3,3.6,3.4c0,0,0,0,0,0c1,0.8,2,1.6,2.9,2.4c0.3,0.2,0.5,0.4,0.8,0.7c0,0-0.1,0-0.1-0.1c0.2,0.1,0.4,0.3,0.5,0.4
		c-0.1,0-0.1-0.1-0.2-0.1c1,0.8,2,1.7,3,2.5c1,0.8,2,1.5,3,2.3c-0.1-0.1-0.2-0.2-0.3-0.3c1.4,1.2,2.9,2.4,4.4,3.4c1.5,1,3,2,4.5,3
		c2,1.3,3.9,2.5,6,3.5c1.1,0.5,2.2,1,3.4,1.5c1,0.4,2,0.7,3.1,1.1c1,0.4,2.1,0.8,3.1,1.2c1,0.3,2,0.7,3,1c2.3,0.7,4.5,1.4,6.8,2
		c2.2,0.6,4.4,1.2,6.6,1.7c2.2,0.5,4.4,1.1,6.6,1.4c1.1,0.2,2.3,0.3,3.4,0.4c1,0.1,2,0.1,3.1,0.3c2.3,0.3,4.6,0.6,6.9,0.9
		c2.1,0.2,4.3,0.5,6.4,0.7c2.1,0.3,4.3,0.6,6.4,0.9c1.1,0.2,2.2,0.3,3.3,0.4c1.1,0.1,2.3,0.1,3.4,0.2c2.2,0.1,4.4,0,6.6,0
		c1.1,0,2.2,0,3.3,0c1.1,0,2.2-0.1,3.3-0.2c2.1-0.2,4.2-0.3,6.3-0.5c2.2-0.1,4.4-0.3,6.6-0.4c2.1-0.2,4.2-0.3,6.3-0.4
		c4.2-0.4,8.4-1,12.5-1.9c3.5-0.8,7-1.7,10.5-2.6c0.2,0.2,0.5,0.3,0.7,0.4c0.5,0.3,1.1,0.5,1.6,0.8c0.5,0.3,0.9,0.6,1.3,0.9
		c0.5,0.4,0.9,0.8,1.4,1.3c0,0,0,0,0,0c0.1,0.1,0.2,0.2,0.3,0.3v0c-0.1-0.1-0.1-0.1-0.1-0.2c0.1,0.1,0.1,0.1,0.2,0.2
		c0.4,0.7,0.9,1.5,1.3,2.2c0.5,0.8,1,1.7,1.4,2.5c0.5,1.2,1,2.4,1.5,3.5c0.3,0.6,0.5,1.2,0.8,1.8c0.1,0.6,0.1,1.1,0.1,1.7
		c0-0.1,0-0.1,0-0.2c0,0.1,0,0.1,0,0.2c0,0,0,0.1,0,0.1c0,0,0-0.1,0-0.1c0,0,0,0.1,0,0.1c0,0.9-0.1,1.9-0.3,2.8
		c-0.4,2.5-0.9,4.9-1.4,7.4c-0.5,2.6-1.1,5.2-1.8,7.7c-0.7,2.2-1.4,4.4-2.2,6.6c-0.8,2.3-1.5,4.6-2.5,6.8c-0.6,1.3-1.2,2.5-1.9,3.7
		c-1.2,1.9-2.6,3.8-4,5.5c0,0,0,0,0,0c-0.2-0.1-0.4-0.1-0.6-0.1c-0.6,0-1.1,0.3-1.4,0.8c-0.7-0.2-1.4-0.4-2.2-0.6
		c-2-0.5-4-0.8-6-1.2c-4.6-0.8-9.3-1.4-13.9-1.8c-0.3,0-0.5-0.1-0.8-0.1c-1.3-0.1-2.7-0.3-4-0.3c-1.4,0-2.7,0-4.1,0
		c-1.2,0-2.5,0-3.7,0.1c-1.2,0-2.3,0-3.5,0c-1.7,0-3.5,0.1-5.2,0.3c-0.8,0.1-1.6,0.2-2.4,0.4c-0.8,0.1-1.6,0.2-2.5,0.4
		c-0.8,0.1-1.7,0.3-2.5,0.4c-0.2,0-0.3,0.1-0.5,0.1c-1,0.1-2,0.3-3,0.5c-1.3,0.2-2.6,0.5-3.8,0.8c-1.3,0.3-2.6,0.6-3.8,1
		c-1.2,0.4-2.3,0.8-3.4,1.4c-0.6,0.2-1.2,0.4-1.7,0.7c-0.4,0.2-0.7,0.4-1,0.6c-1.2,0.7-2.4,1.3-3.6,1.9c-0.6,0.3-1.2,0.7-1.9,1
		c-0.7,0.4-1.4,0.7-2.1,1.2c-0.7,0.4-1.4,0.9-1.9,1.6c-0.5,0.6-0.8,1.4-0.9,2.2c-0.1,0.3-0.1,0.6-0.1,0.9c0,0.5,0.1,1.1,0.2,1.6
		c0.1,0.6,0.3,1.3,0.6,1.9c0.7,1.5,1.8,2.7,3.3,3.3c0.9,0.3,1.8,0.5,2.7,0.7c0.1,0,0.2,0.1,0.3,0.1c1,0.3,2,0.6,3,0.7
		c1,0.1,2,0.2,3,0.3c1.7,0.1,3.4,0,5,0.1c0,0,0,0,0,0c-0.6,0.3-1.2,0.7-1.9,1c-1.3,0.7-2.5,1.3-3.7,2.1c-1.2,0.8-2.4,1.7-3.5,2.6
		c-2.3,1.8-4.4,3.7-6.5,5.7c-2,1.9-3.9,4-5.7,6.2c-0.9,1.1-1.8,2.2-2.5,3.3c-0.8,1.2-1.5,2.4-2.2,3.6c-0.4,0.6-0.7,1.2-1,1.8
		c-0.3,0.7-0.7,1.3-0.9,2c-0.5,1.2-1,2.4-1.3,3.7c-0.3,1.1-0.7,2.2-0.9,3.3c-0.1,0.3-0.1,0.6-0.1,0.9c0,0.7,0.1,1.4,0.4,2
		c0.7,1.6,2.1,2.9,3.7,3.6c2.1,1,4.6,1.1,7,0.8c0.7-0.1,1.3-0.2,2-0.3c0.7-0.1,1.4-0.2,2.1-0.3c1.3-0.2,2.6-0.6,4-0.8
		c1.4-0.3,2.9-0.4,4.2-0.9c1.3-0.5,2.5-1,3.8-1.6c1.3-0.6,2.5-1.2,3.8-1.8c1.3-0.6,2.5-1.3,3.8-1.9c1.1-0.6,2.2-1.2,3.3-1.7
		c0.9-0.5,1.9-0.9,2.8-1.3c0,0,0,0.1-0.1,0.1c-1.5,2-2.8,4.2-4.1,6.4c-0.6,1-1.2,2.1-1.7,3.1c-0.6,1.1-1.1,2.3-1.5,3.5
		c-0.2,0.5-0.3,1-0.4,1.5c-0.1,0.4-0.1,0.9-0.1,1.3c0,0.2,0,0.3,0,0.5c0,1.5,0.3,3.1,1.4,4.2c0.4,0.5,1,0.9,1.6,1.2
		c0.6,0.3,1.1,0.6,1.8,0.9c1.2,0.4,2.6,0.6,3.9,0.6c1.2,0,2.5-0.1,3.7-0.3c1.2-0.2,2.3-0.4,3.5-0.7c0.6-0.1,1.1-0.3,1.7-0.4
		c0.6-0.2,1.3-0.4,1.9-0.6c-0.1,0-0.1,0-0.2,0.1c2-0.7,4.1-1.2,6.1-1.9c0.9-0.3,1.9-0.7,2.8-1c1-0.4,1.9-0.8,2.9-1.3
		c1.4-0.7,2.8-1.4,4.2-2.1c1.3-0.8,2.6-1.6,3.9-2.4c-0.7,0.7-1.3,1.5-2,2.2c-0.1,0.1-0.2,0.2-0.2,0.3c0,0,0,0,0,0c0,0,0,0,0,0
		c0,0-0.1,0.1-0.1,0.1c0,0,0,0,0,0c-0.9,1.1-1.8,2.1-2.7,3.2c-0.8,1.1-1.7,2.2-2.4,3.3c-0.8,1.2-1.6,2.5-2.4,3.7
		c-0.4,0.7-0.7,1.4-1,2.1c-0.3,0.7-0.5,1.4-0.7,2.1c-0.2,0.8-0.4,1.6-0.4,2.4c0,0,0,0,0,0c0,0.8,0.1,1.6,0.4,2.4
		c0.5,1.2,1.4,2.2,2.5,2.8c0.6,0.3,1.3,0.5,2,0.6c0.6,0,1.2-0.1,1.8-0.2c1.3-0.3,2.7-0.7,3.9-1.2c1.3-0.5,2.6-1,3.9-1.5
		c1.3-0.6,2.6-1.1,4-1.6c1-0.3,1.9-0.6,2.9-0.8c0.7-0.1,1.3-0.2,2-0.3c1.4-0.1,2.9-0.2,4.3-0.2c0.7,0,1.4,0,2.1,0c0,0,0.1,0,0.1,0
		c-0.4,0.5-0.7,1-1.1,1.5c0,0,0-0.1,0.1-0.1c0,0.1-0.1,0.1-0.1,0.2c0,0,0,0.1-0.1,0.1c0,0,0,0,0-0.1c-0.1,0.1-0.1,0.2-0.2,0.2
		c0,0,0-0.1,0.1-0.1c-0.9,1.4-1.8,2.9-2.6,4.4c-0.8,1.5-1.7,2.9-2.4,4.4c-0.8,1.5-1.5,3.1-2.2,4.6c-0.7,1.4-1.3,2.8-1.9,4.3
		c-0.3,0.7-0.5,1.4-0.8,2.2c-0.3,0.8-0.6,1.6-0.7,2.4c-0.3,1.5-0.5,3-0.6,4.6c0,0.5-0.1,1.1-0.1,1.6c0,1.2,0.1,2.4,0.2,3.6
		c0.1,1.5,0.3,3,0.8,4.4c0.4,1.3,0.7,2.7,1.6,3.7c0.8,0.9,1.8,1.6,3,2c0.7,0.2,1.4,0.4,2.1,0.4c0.8,0,1.6-0.2,2.3-0.4
		c0.7-0.3,1.4-0.7,2.1-1c0.6-0.3,1.1-0.6,1.7-0.9c0,0-0.1,0-0.1,0.1c0.1,0,0.1-0.1,0.2-0.1c0,0,0,0,0,0c0,0,0,0,0,0
		c0.2-0.1,0.5-0.2,0.7-0.3c0,0-0.1,0-0.1,0.1c2-1,3.9-2.2,5.7-3.5c1.9-1.4,3.7-2.9,5.6-4.4c0.6-0.5,1.2-1,1.9-1.5
		c0.6-0.5,1.3-1.1,1.9-1.6c1.2-1,2.5-2,3.7-3c1.1-1,2.3-1.9,3.5-2.8c1.2-0.9,2.5-1.8,3.8-2.6c0.9-0.6,1.8-1.1,2.7-1.6
		c0.9-0.5,1.8-1.1,2.7-1.6c0.8-0.5,1.7-1,2.5-1.5c0.9-0.6,1.7-1.2,2.6-1.7c1.1-0.7,2.1-1.3,3.2-1.9c-0.2,1-0.4,1.9-0.6,2.9
		c-0.5,1.9-1,3.8-1.4,5.8c-0.4,2-0.9,4-1.3,6c-0.4,2-0.7,4-0.8,6.1c-0.1,2-0.2,4-0.3,6c0-0.1,0-0.2,0-0.3c0,0.5-0.1,1-0.1,1.5
		c0-0.1,0-0.2,0-0.3c-0.1,2.1-0.2,4.3-0.2,6.4c0,0.2,0,0.4,0,0.7c0,1.9,0.1,3.8,1.2,5.4c1.1,1.7,3,2.6,4.8,3.3
		c0.8,0.3,1.6,0.7,2.4,0.8c0.8,0.1,1.6,0,2.4-0.1c0.9-0.2,1.7-0.6,2.5-1.1c0.8-0.5,1.6-1,2.4-1.5c1.6-1.1,3.1-2.5,4.3-3.9
		c1.2-1.4,2.1-3,3.1-4.5c0.5-0.8,0.9-1.7,1.4-2.5c0.5-0.9,1.1-1.8,1.6-2.7c1-1.7,1.8-3.4,2.7-5.1c0.9-1.7,1.6-3.4,2.5-5.1
		c0.9-1.9,2-3.8,2.8-5.7c0.9-2,1.7-4,2.5-6c0.8-1.9,1.6-3.9,2.3-5.8c0.4-1,0.7-1.9,1.1-2.9c0.3-0.8,0.7-1.7,1.1-2.5
		c1.6-3.7,3.3-7.4,4.8-11.1c0.4-0.9,0.8-1.9,1.1-2.9c0.3-0.9,0.6-1.8,0.9-2.6c0.7-1.9,1.5-3.8,2.3-5.7c0.8-1.7,1.5-3.4,2.3-5.1
		c0,0,0,0,0,0c0,0,0,0,0,0c0-0.1,0.1-0.2,0.1-0.3c0,0,0,0,0,0c0,0.1-0.1,0.1-0.1,0.2c0.6-1.2,1.3-2.3,2-3.4c0.4-0.6,0.9-1.2,1.3-1.8
		c0.5-0.3,0.9-0.5,1.4-0.9c0.6-0.4,1.2-0.9,1.9-1.4c1-0.6,2.1-1.2,3.1-1.7c2.1-1,4.2-1.8,6.4-2.5c0,0-0.1,0-0.1,0c0,0,0.1,0,0.1,0
		c0.1,0,0.1,0,0.2-0.1c0,0,0,0,0,0c0.1,0,0.2-0.1,0.2-0.1c-0.1,0-0.2,0.1-0.3,0.1c1.9-0.7,3.9-1.3,5.7-2.2c2.2-1,4.2-2.4,5.4-4.5
		c1-1.7,1.5-3.8,1-5.7c-0.4-1.7-1.7-3.3-3.3-4c-0.8-0.3-1.6-0.5-2.4-0.5c-0.4,0-0.8,0-1.1,0.1c-0.2,0-0.5,0.1-0.7,0.2
		c1.1-1.2,2.2-2.4,3.2-3.6c1.5-1.8,3-3.5,4.4-5.3c1.4-1.8,2.8-3.8,4.1-5.7c1.4-2.1,2.8-4.1,4.1-6.2c1.3-2,2.5-4.1,3.7-6.1
		c2.4-4.1,4.6-8.3,6.9-12.5c1.2-2.2,2.4-4.3,3.5-6.5c1.2-2.2,2.4-4.5,3.7-6.7c1.3-2.2,2.5-4.3,3.7-6.6c0.8-1.5,1.5-3.1,2.2-4.7
		c2.9-4.1,5.6-8.3,8.1-12.6c2.5-4.3,4.8-8.6,6.8-13.1c1.1-2.6,2.2-5.1,2.9-7.8c0.9-3,1.2-6.1,1.2-9.2c0-1-0.1-1.9-0.2-2.9
		c0.2-0.9,0.3-1.9,0.4-2.8c0.2-2.4,0.2-4.7-0.2-7c-0.4-2.1-1.1-4.2-2-6.1c-0.9-1.9-2-3.6-3.5-5.1c-0.8-0.8-1.6-1.5-2.5-2.3
		c-0.9-0.8-1.8-1.5-2.8-2.2c-1-0.7-2-1.4-3-2.1c-0.9-0.6-1.8-1.3-2.7-2c0,0,0,0,0.1,0.1c-1.6-1.3-3.2-2.6-4.9-3.8
		c-0.8-0.5-1.6-1-2.5-1.5c1.1-0.5,2.3-1,3.4-1.5c2.1-1,4.1-2.2,6.2-3.2c2.5-1.1,5-2.1,7.6-2.9c3.2-0.9,6.5-1.7,9.7-2.3
		c4.1-0.6,8.2-0.9,12.3-1.1c2.8-0.1,5.6-0.1,8.5-0.1c3.1,0,6.2,0.2,9.2,0.3c3.1,0.1,6.1,0.2,9.2,0.3c3,0,6,0.1,9,0.3
		c2.1,0.2,4.2,0.4,6.3,0.6c3.2,0.3,6.4,0.8,9.6,1.1c3.7,0.4,7.4,0.5,11.2,0.6c1.6,0,3.2,0.1,4.9,0.1c1.7,0,3.4,0.1,5.2,0
		c3.4,0,6.8-0.2,10.2-0.3c3.7-0.1,7.3-0.3,11-0.7c3.3-0.3,6.7-0.7,10-1.1c3.7-0.5,7.5-1.1,11.1-2c3.6-0.9,7.1-1.9,10.7-2.9
		c0.2-0.1,0.5-0.1,0.7-0.2c0.4-0.1,0.7-0.2,1.1-0.3c1.2-0.4,2.3-0.7,3.5-1.1c0.3-0.1,0.6-0.2,0.9-0.3c0.1,0,0.1,0,0.2-0.1
		c0,0,0,0,0,0c0.2-0.1,0.4-0.1,0.5-0.2c0.2-0.1,0.5-0.1,0.7-0.2c0,0,0,0,0,0c1.9-0.6,3.9-1.2,5.8-2c2.1-0.8,4.1-1.7,6.2-2.5
		c3.8-1.5,7.6-3,11.5-4.4c3.2-1.2,6.3-2.5,9.4-3.9c3.2-1.4,6.3-3.1,9.3-4.9c1.7-1,3.3-2,4.9-3c0,0,0.1,0,0.1-0.1c1.5-1,3-2,4.6-3
		c2.9-1.9,5.8-4,8.6-6.1c2.9-2.1,5.9-4.2,8.8-6.2c3.1-2.1,6.2-4.3,9.1-6.7c2.7-2.2,5.2-4.5,7.8-6.9c2.8-2.5,5.5-5.1,8.2-7.6
		c1.3-1.2,2.7-2.4,4-3.6c1.3-1.1,2.4-2.3,3.6-3.5c2.7-2.7,5.2-5.5,7.7-8.3c2.4-2.7,4.7-5.6,6.9-8.5c2.2-2.8,4.3-5.7,6.4-8.5
		c2.2-3,4.2-6,6.2-9.1c1.9-3,3.8-5.9,5.6-9c1.8-3.1,3.4-6.2,5-9.4c1.3-2.6,2.8-5.1,4-7.7c1.3-2.7,2.3-5.5,3.4-8.3
		c1.3-3.1,2.6-6.2,3.8-9.3c0.6-1.5,1.2-3,1.8-4.5c0.6-1.5,1.3-2.9,1.9-4.4c1.4-3.3,2.6-6.6,3.7-10c1.1-3.4,1.8-6.8,2.6-10.3
		c0,0.1,0,0.2-0.1,0.2c0-0.1,0-0.2,0.1-0.3c0-0.1,0.1-0.3,0.1-0.4c0,0.1,0,0.2-0.1,0.3c0.7-3.2,1.4-6.3,2-9.5c0.6-3,1.1-6.1,1.8-9.1
		c0.6-2.9,1.3-5.9,1.8-8.8c0.3-1.7,0.5-3.5,0.9-5.2c0.3-1.6,0.7-3.2,1-4.7c0.7-3.5,1.2-7,1.4-10.6
		C1050.7,386.1,1050.7,384.2,1050.6,382.4z M94.9,284.5c-0.2,0.2-0.4,0.5-0.6,0.7c0.1-0.3,0.3-0.6,0.4-1c0.4-0.9,0.9-1.7,1.4-2.5
		c0.1-0.1,0.1-0.2,0.2-0.3c0.1-0.1,0.1-0.1,0.2-0.2c-0.5,1-1,2-1.4,3C95.1,284.4,95,284.5,94.9,284.5z M182.9,498.3
		c-0.2,0.5-0.4,1-0.6,1.5c-0.2,0.4-0.4,0.8-0.7,1.2c0,0,0,0.1-0.1,0.1c-0.2,0.3-0.4,0.6-0.7,0.9c-0.2,0.3-0.5,0.5-0.8,0.8
		c-0.3,0.3-0.7,0.6-1.1,0.9c-0.2,0.1-0.4,0.2-0.6,0.4c-0.2,0.1-0.3,0.1-0.5,0.2c-0.1,0-0.2,0.1-0.3,0.1c-0.1,0-0.2,0-0.3,0
		c-0.1,0-0.2,0-0.3,0c-0.1,0-0.3,0-0.4,0c-0.1,0-0.3-0.1-0.4-0.1c-0.4-0.1-0.7-0.3-1-0.4c-0.6-0.3-1.2-0.6-1.8-0.9
		c-0.7-0.4-1.3-0.9-1.9-1.4c-1-0.8-1.9-1.7-2.8-2.6c-0.1-0.1-0.2-0.2-0.3-0.3c2.6-0.3,5.1-0.7,7.6-1.1c2.4-0.4,4.8-0.8,7.2-1.3
		C183.3,496.8,183.1,497.6,182.9,498.3z M230.2,484.2c0,0.4-0.1,0.8-0.1,1.2c-0.1,0.3-0.1,0.6-0.2,0.9c-0.1,0.3-0.2,0.5-0.3,0.8
		c-0.1,0.2-0.2,0.3-0.3,0.5c-0.1,0.1-0.2,0.3-0.3,0.4c-0.1,0.1-0.1,0.1-0.2,0.2c-0.1,0.1-0.2,0.2-0.4,0.3c-0.2,0.1-0.3,0.2-0.5,0.3
		c-0.3,0.1-0.5,0.3-0.8,0.4c-0.2,0.1-0.4,0.1-0.7,0.2c-0.6,0.1-1.3,0.2-1.9,0.3c-0.6,0-1.2,0.1-1.7,0.1c-0.3,0-0.6,0-0.9-0.1
		c-0.2,0-0.4-0.1-0.5-0.1c-0.2-0.1-0.5-0.2-0.7-0.3c-0.3-0.1-0.5-0.3-0.8-0.4c-0.6-0.4-1.1-0.8-1.7-1.3c-0.6-0.5-1.1-1-1.6-1.5
		c4.1-1.3,8.2-2.5,12.2-3.9c0.5-0.2,1-0.4,1.5-0.6C230.3,482.4,230.2,483.3,230.2,484.2z M386.2,574.1c-0.4,0-0.9,0-1.3,0
		c-1-0.1-1.9-0.2-2.9-0.3c-1.4-0.2-2.9-0.3-4.3-0.5c-1.5-0.2-3.1-0.5-4.6-0.7c-1.6-0.2-3.1-0.4-4.7-0.5c0.1,0,0.1,0,0.2,0
		c-0.1,0-0.2,0-0.2,0c-0.1,0-0.1,0-0.2,0c0,0,0.1,0,0.1,0c-1.7-0.1-3.4-0.2-5.1-0.3c-1.8-0.2-3.6-0.4-5.3-0.5
		c-1.9-0.1-3.9,0-5.8,0.3c-1.5,0.3-3,0.6-4.5,1.2c-0.3,0-0.6,0.1-1,0.1c-0.5,0.1-1,0.2-1.4,0.3c-0.2-0.2-0.3-0.4-0.6-0.5
		c-0.3-0.1-0.6-0.2-1-0.1c-0.6,0.1-1.1,0.3-1.6,0.7c-0.4,0.3-0.8,0.6-1.1,0.9c-0.7,0.5-1.4,1-2.2,1.5c-0.8,0.5-1.5,1.1-2.2,1.7
		c-1.5,1.2-2.9,2.5-4.2,4c-1,1.1-1.8,2.5-2.4,3.9c-0.2,0.7-0.4,1.3-0.6,2c-0.1-0.2-0.3-0.3-0.4-0.5c-0.5-0.5-1.2-0.6-1.8-0.2
		c-0.5,0.3-0.8,0.9-0.7,1.5c0.1,0.6,0.3,1.2,0.5,1.8c0.3,0.7,0.6,1.5,0.9,2.2c0.7,1.5,1.5,2.9,2.2,4.4c0.3,0.7,0.7,1.4,0.9,2.1
		c0.1,0.3,0.2,0.6,0.2,0.9c0.1,0.3,0.1,0.6,0.1,1c0,0.3,0,0.5,0,0.8c0,0.3-0.1,0.6-0.1,0.8c-0.1,0.2-0.1,0.4-0.2,0.7
		c-0.1,0.3-0.2,0.6-0.4,0.8c-0.1,0.2-0.2,0.3-0.3,0.5c-0.1,0.1-0.2,0.3-0.3,0.4c0,0-0.1,0.1-0.1,0.1c0,0,0,0,0,0c-0.1,0-0.2,0-0.3,0
		c-0.1,0-0.3,0-0.4,0c-0.1,0-0.1,0-0.2,0c0,0-0.1,0-0.1,0c-0.1,0-0.2-0.1-0.4-0.2c-0.2-0.1-0.4-0.2-0.5-0.3
		c-0.3-0.2-0.5-0.4-0.8-0.6c-0.7-0.6-1.3-1.3-1.9-1.9c-0.7-0.7-1.3-1.3-1.9-2c-0.4-0.5-0.8-1-1.1-1.5c-0.4-0.6-0.7-1.2-1-1.8
		c-0.1-0.2-0.2-0.5-0.4-0.7c-0.3-0.4-0.8-0.7-1.3-0.8c-1.1-0.1-1.6,1.2-1.8,2.1c-0.2,1-0.4,2-0.6,2.9c-0.3,1.5-0.8,3-1.3,4.5
		c-0.7,2-1.5,4.1-2.4,6c0,0.1-0.1,0.1-0.1,0.2c0,0,0,0,0,0c-0.3,0.5-0.5,0.9-0.8,1.4c-0.1,0.2-0.2,0.3-0.4,0.5
		c-0.1,0.1-0.2,0.2-0.3,0.3c-0.1,0.1-0.2,0.1-0.2,0.2c-0.1,0-0.1,0.1-0.2,0.1c0,0,0,0,0,0c0,0-0.1,0-0.1,0c0,0-0.1,0-0.1,0
		c0,0-0.1,0-0.1,0c0,0-0.1,0-0.1,0c0,0-0.1,0-0.1,0c-0.1,0-0.1-0.1-0.2-0.1c-0.1,0-0.1-0.1-0.2-0.1c-0.1-0.1-0.2-0.1-0.3-0.2
		c-0.1-0.1-0.2-0.1-0.2-0.2c0,0-0.1-0.1-0.1-0.1c0-0.1-0.1-0.1-0.1-0.2c-0.1-0.1-0.1-0.3-0.1-0.4c-0.2-0.7-0.4-1.5-0.5-2.2
		c-0.2-1.3-0.4-2.6-0.5-3.9c0-0.9,0-1.8,0-2.8c0.1-1.2,0.3-2.4,0.5-3.5c0.2-0.8,0.4-1.6,0.7-2.3c0,0,0,0,0,0.1c0,0,0,0,0-0.1
		c0,0,0,0,0-0.1c0,0,0,0,0,0c0.2-0.7,0.5-1.3,0.8-2c0.3-0.6,0.6-1.3,0.8-1.9c0.1-0.3,0.2-0.7,0.1-1.1c-0.1-0.4-0.4-0.7-0.7-0.8
		c-0.4-0.2-0.9-0.1-1.3,0c-0.7,0.2-1.4,0.5-2,0.8c-1.2,0.6-2.3,1.3-3.4,2c-1.1,0.7-2.2,1.5-3.4,2.1c-0.2,0.1-0.4,0.2-0.6,0.3
		c-0.2,0.1-0.5,0.1-0.7,0.2c0,0,0.1,0,0.1,0c0,0-0.1,0-0.1,0c0,0-0.1,0-0.1,0c0,0,0.1,0,0.1,0c0,0-0.1,0-0.1,0c0,0,0,0,0.1,0
		c-0.2,0-0.3,0.1-0.5,0.1c-0.1,0-0.2,0-0.3,0c0,0-0.1,0-0.1,0c0,0,0-0.1,0-0.1c0-0.2,0-0.3,0.1-0.5c0.1-0.4,0.2-0.7,0.3-1.1
		c0.3-0.8,0.6-1.5,0.9-2.3c0.3-0.6,0.6-1.1,1-1.7c0.7-1,1.4-1.9,2.2-2.8c0.5-0.6,1.1-1.2,1.6-1.9c0.9-1,1.8-1.9,2.7-2.9
		c0.1-0.1,0.2-0.2,0.3-0.3c0.1,0.3,0.7,0.2,0.6-0.2c0-0.1,0-0.1-0.1-0.2c0.7-0.8,1.2-1.7,1.8-2.5c0,0-0.1,0.1-0.1,0.1
		c0-0.1,0.1-0.1,0.1-0.2c0,0,0,0.1-0.1,0.1c0.1-0.2,0.3-0.4,0.4-0.6c0,0-0.1,0.1-0.1,0.1c0.1-0.1,0.2-0.2,0.2-0.3
		c0,0-0.1,0.1-0.1,0.1c0.5-0.8,1.1-1.6,1.6-2.4c0.8-1.2,1.7-2.3,2.6-3.4c1-1.2,1.9-2.4,2.9-3.6c1.3-1.5,2.7-2.9,4.2-4.3
		c0.8-0.7,1.7-1.3,2.6-1.9c2.3-1.5,4.6-3,7.1-4.2c0.7-0.3,1.4-0.6,2.1-0.9c0.9-0.3,1.9-0.6,2.9-0.8c2.1-0.4,4.2-0.7,6.3-0.8
		c1,0,2,0,3-0.1c1.2,0,2.4-0.2,3.6-0.3c1.1-0.2,2.2-0.3,3.3-0.5c1-0.1,2-0.3,3-0.3c1.7-0.1,3.5-0.1,5.2-0.3c1.6-0.1,3.2-0.3,4.8-0.6
		c2.2-0.3,4.4-0.7,6.6-0.9c2-0.2,4-0.4,6.1-0.8c1.1-0.2,2.2-0.4,3.2-0.6c1-0.2,2.1-0.4,3.1-0.6c0.2,0,0.3-0.1,0.5-0.1
		c0,1.7,0.1,3.5,0.2,5.2c0.1,1.8,0.2,3.7,0.3,5.5c0.1,1.8,0.3,3.6,0.5,5.3c0.2,1.7,0.3,3.5,0.6,5.2c0,0.3,0.1,0.6,0.1,0.9
		C386.3,574.1,386.2,574.1,386.2,574.1z M541,795c-0.9,0.3-1.8,0.7-2.7,1c-0.9,0.4-1.8,0.7-2.7,1.1c-1.1,0.5-2.2,1-3.3,1.5
		c-1.1,0.5-2.2,0.9-3.4,1.4c-1.2,0.5-2.4,0.9-3.6,1.3c-1.1,0.4-2.3,0.9-3.4,1.3c-0.8,0.3-1.6,0.5-2.4,0.7c-0.8,0.2-1.7,0.5-2.5,0.7
		c-0.4,0.1-0.8,0.1-1.2,0.2c-0.1,0-0.2,0-0.3,0c-0.5,0-1,0-1.4,0c-0.6,0-1.2-0.1-1.8-0.2c-0.2,0-0.4-0.1-0.6-0.2
		c-0.2-0.1-0.3-0.1-0.5-0.2c-0.5-0.3-1-0.6-1.4-0.9c-0.1-0.1-0.3-0.2-0.4-0.3c0,0,0,0,0,0c0,0,0-0.1-0.1-0.1c0,0-0.1-0.1-0.1-0.1
		c0-0.1-0.1-0.2-0.1-0.2c-0.1-0.2-0.1-0.4-0.1-0.6c0-0.2-0.1-0.5-0.1-0.7c0-0.2,0-0.4,0-0.7c0-0.2,0-0.4,0.1-0.7
		c0.1-0.3,0.1-0.5,0.2-0.7c0.2-0.5,0.4-0.9,0.6-1.4c0.7-1.4,1.5-2.7,2.4-4.1c0.8-1.3,1.6-2.7,2.5-4c0.8-1.2,1.6-2.3,2.4-3.4
		c0.9-1.2,1.7-2.3,2.6-3.5c0.2-0.3,0.5-0.6,0.7-0.9c0,0,0.1,0,0.1,0c0,0,0,0,0-0.1c0.2-0.3,0.5-0.7,0.8-1c0.5-0.6,1-1.2,1.6-1.8
		c0.1-0.1,0.3-0.3,0.4-0.4c-0.2,0-0.3,0.1-0.5,0.1c0.5-0.6,1-1.2,1.5-1.8c0.4-0.5,0.7-0.9,1.1-1.4c1-0.8,2.1-1.7,3.1-2.5
		c0.5-0.4,1-0.8,1.5-1.2c0.6-0.3,1.2-0.7,1.8-1c0.7-0.4,1.3-0.7,2-1.1c0.6-0.3,1.3-0.7,1.9-1c0.3-0.2,0.6-0.3,0.9-0.5
		c0.3-0.2,0.7-0.5,1-0.7c1.3-0.9,2.5-1.8,3.8-2.6c0,0,0.1,0,0.1-0.1c0.9-0.6,1.9-1.2,2.9-1.8c0,0,0,0,0,0c0-0.2-0.1-0.5-0.3-0.6
		c-0.2-0.2-0.4-0.3-0.7-0.3c-0.1,0-0.1,0-0.2,0c0-0.1-0.1-0.1-0.1-0.1c-0.4-0.2-0.9-0.1-1.3,0c-0.4,0.1-0.8,0.2-1.2,0.3
		c-0.8,0.3-1.7,0.6-2.5,0.9c-0.7,0.3-1.4,0.7-2.1,1c0,0,0,0,0,0c-0.1,0.1-0.3,0.1-0.4,0.2c0,0,0,0,0,0c-1.1,0.6-2.2,1.2-3.3,1.9
		c-1.1,0.7-2.3,1.5-3.3,2.3c-1,0.8-1.9,1.6-2.9,2.4c-0.9,0.8-1.9,1.7-2.8,2.5c-0.9,0.9-1.9,1.7-2.8,2.6c-0.8,0.9-1.7,1.8-2.5,2.8
		c0,0.1-0.1,0.1-0.1,0.2c0,0,0,0,0,0c0,0,0,0,0,0c-0.4,0.5-0.8,0.9-1.2,1.4c-0.9,0.3-1.8,0.6-2.7,0.9c0,0,0,0,0,0
		c-1.1,0.4-2.2,0.7-3.4,1.1c-1.2,0.4-2.5,0.7-3.7,1.1c-1.4,0.4-2.8,0.9-4.2,1.4c-2.6,1-5.1,2.5-7.5,4c0.1,0,0.1-0.1,0.2-0.1
		c-0.5,0.3-1,0.6-1.5,0.9c-0.3,0.1-0.6,0.2-0.8,0.3c-0.7,0.2-1.4,0.4-2.1,0.6c-0.7,0.2-1.5,0.5-2.2,0.7c-0.4,0.1-0.9,0.3-1.3,0.4
		c-0.9,0.2-1.8,0.3-2.7,0.4c-0.8,0.1-1.6,0.2-2.4,0.3c-0.1,0-0.2,0-0.3,0c0,0,0,0,0,0c-0.5,0-1,0.1-1.5,0c-0.3,0-0.6-0.1-0.9-0.1
		c-0.2,0-0.5-0.1-0.7-0.2c-0.2-0.1-0.4-0.1-0.6-0.2c-0.3-0.1-0.5-0.3-0.8-0.5c-0.3-0.2-0.6-0.4-0.9-0.7c-0.1-0.1-0.1-0.1-0.2-0.2
		c-0.1-0.1-0.1-0.1-0.2-0.2c-0.1-0.1-0.1-0.2-0.2-0.3c0-0.1-0.1-0.2-0.1-0.3c0-0.1,0-0.1-0.1-0.2c0-0.1,0-0.1,0-0.2
		c0-0.1,0-0.1,0-0.2c0-0.1,0-0.2,0-0.3c0-0.2,0.1-0.3,0.1-0.5c0.2-0.5,0.4-1,0.6-1.5c0.3-0.7,0.6-1.4,0.8-2.1c0.5-1.4,1.1-2.7,1.7-4
		c0.4-0.8,0.8-1.6,1.3-2.3c0.4-0.7,0.8-1.4,1.3-2.1c1-1.4,2.1-2.7,3.2-4c-0.1,0.1-0.1,0.1-0.2,0.2c0.2-0.2,0.3-0.3,0.5-0.5
		c0.9-1,1.9-2,2.8-3c0.9-0.9,1.8-1.9,2.7-2.8c2-2,4-3.9,6.1-5.7c1.4-1.3,2.9-2.4,4.5-3.5c1-0.6,1.9-1.2,2.9-1.8c1-0.6,2-1.3,3-1.8
		c1.1-0.5,2.3-0.9,3.4-1.3c0,0,0,0,0,0c0,0,0,0,0,0c0,0,0,0,0,0c0,0,0,0,0,0c1.1-0.4,2.2-0.7,3.4-0.9c1.3-0.3,2.6-0.5,3.9-0.8
		c1.4-0.3,2.7-0.5,4.1-0.7c1.4-0.2,2.9-0.5,4.3-0.6c1.4-0.2,2.9-0.4,4.3-0.6c0.7-0.1,1.4-0.2,2.1-0.3c0.7-0.1,1.5-0.1,2.2-0.2
		c1.4-0.2,2.7-0.4,4.1-0.6c0.4,0,0.9,0,1.3,0c0.2,0,0.4,0,0.6,0.1c0.1,0,0.1,0,0.2,0.1c0.1,0,0.2,0.1,0.3,0.1c0,0,0,0,0,0
		c0,0,0,0,0,0c0,0,0,0,0.1,0.1c0,0,0,0,0,0c0,0,0,0,0.1,0.1c0,0,0,0,0,0.1c0,0.1,0.1,0.2,0.1,0.3c0.1,0.2,0.5,0.3,0.7,0.2
		c0.2-0.1,0.3-0.5,0.2-0.7c-0.1-0.1-0.1-0.2-0.2-0.2c0-0.1-0.1-0.1-0.1-0.2c-0.1-0.2-0.2-0.4-0.3-0.6c-0.2-0.3-0.5-0.4-0.8-0.6
		c-0.2-0.1-0.5-0.2-0.7-0.2c-0.9-0.2-1.9-0.3-2.8-0.3c-0.9,0-1.8,0.1-2.7,0.1c-0.9,0-1.8,0.1-2.6,0.1c0,0,0,0,0,0
		c-0.2,0-0.4,0-0.6,0c-1.5,0.1-2.9,0.3-4.4,0.5c-1.4,0.1-2.9,0.3-4.3,0.5c-1.5,0.2-2.9,0.4-4.4,0.6c-1.4,0.3-2.8,0.6-4.3,0.9
		c0.1,0,0.1,0,0.2,0c-1,0.2-1.9,0.4-2.9,0.6c-0.9,0.2-1.7,0.5-2.5,0.8c-0.8,0.3-1.5,0.6-2.3,0.9c-0.1,0-0.1,0-0.2,0
		c-0.4-0.1-0.7-0.1-1.1-0.2c0,0-0.1,0-0.1,0c-0.1-0.2-0.3-0.3-0.6-0.4c-3.3-0.8-6.6-1.6-9.8-2.7c-0.6-0.2-1.2-0.5-1.8-0.8
		c-0.4-0.2-0.7-0.4-1-0.6c-0.1-0.1-0.3-0.2-0.4-0.3c0,0-0.1-0.1-0.1-0.1c0,0,0,0-0.1-0.1c-0.2-0.3-0.3-0.6-0.5-0.9
		c-0.2-0.4-0.4-0.8-0.6-1.3c0.1-0.1,0.1-0.1,0.2-0.2c0.4-0.3,0.8-0.6,1.2-0.9c1-0.7,2.1-1.3,3.2-1.9c1-0.6,2-1.2,3.1-1.8
		c0.5-0.2,0.9-0.4,1.4-0.6c1.9-0.6,3.8-1.1,5.7-1.5c1.2-0.2,2.4-0.4,3.6-0.6c1.3-0.2,2.7-0.5,4-0.6c1.3-0.1,2.7-0.2,4-0.4
		c1.3-0.2,2.7-0.3,4-0.4c1.2-0.1,2.4-0.1,3.6-0.1c3.4,0,6.8,0,10.1-0.1c1.6,0,3.3-0.1,4.9-0.1c1.7,0,3.3,0,5,0.1c0,0,0,0-0.1,0
		c0.2,0,0.5,0,0.7,0c-0.1,0-0.2,0-0.3,0c0.1,0,0.3,0,0.4,0c0,0,0,0-0.1,0c0,0,0.1,0,0.1,0c0.1,0,0.1,0,0.2,0c0,0,0,0,0,0
		c0.1,0,0.2,0,0.3,0c-0.1,0-0.2,0-0.3,0c0.7,0,1.3,0.1,2,0.1c1.6,0.1,3.2,0.2,4.7,0.2c1.7,0,3.3,0,5,0c1.2,0,2.4,0,3.5,0.1
		c0.2,0,0.3,0.1,0.5,0.1c0.9,0.2,1.7,0.4,2.6,0.6c0.2,0,0.4,0.1,0.5,0.1c0.3,0,0.6,0.1,0.9,0c0.1,0,0.2-0.1,0.3-0.2
		c0.2,0,0.4-0.1,0.5-0.2c0.1,0.1,0.2,0.1,0.2,0.2c0.3,0.2,0.7,0.3,1.1,0.2c0.6,0,1.1-0.3,1.6-0.8c0.2-0.2,0.3-0.4,0.5-0.6
		c0.3-0.4,0.7-0.8,1-1.3c0.5-0.6,1-1.2,1.5-1.8c0.6-0.7,1.1-1.4,1.7-2.1c0.5-0.6,1-1.1,1.4-1.7c0.4-0.6,0.8-1.1,1.2-1.7
		c0.2-0.4,0.5-0.8,0.7-1.1c1.7-3.2,3-6.7,4.2-10.1c0.6-1.8,1.2-3.5,1.6-5.3c0.1-0.6,0.3-1.3,0.4-1.9c0.3-0.6,0.5-1.2,0.7-1.8
		c0.6-1.5,1.2-3.1,1.6-4.7c0.4-1.5,0.8-2.9,0.9-4.5c0.1-0.9,0.1-1.7,0-2.6c-0.1-0.9-0.2-1.8-0.4-2.7c-0.4-1.6-1-3.1-1.7-4.5
		c0-0.1-0.1-0.2-0.1-0.2c-0.1-0.3-0.2-0.5-0.3-0.8c-0.4-1-0.9-1.9-1.4-2.7c-0.1-0.2-0.2-0.4-0.3-0.6c-0.8-1.4-1.9-2.6-3-3.7
		c-1.2-1.2-2.4-2.3-3.8-3.1c-0.4-0.2-0.8-0.4-1.2-0.6c2.9-0.8,5.8-1.6,8.7-2.2c3.5-0.8,7.1-1.6,10.5-2.6c2.1-0.6,4.1-1.3,6.2-2
		c2-0.7,4-1.2,6.1-1.8c1.2-0.4,2.3-0.7,3.5-1.1c0.9,0.3,1.8,0.6,2.7,0.8c1.4,0.4,2.7,0.9,4,1.4c1.2,0.5,2.4,1.1,3.7,1.6
		c2.2,0.9,4.3,2,6.3,3.2c1.1,0.7,2.3,1.3,3.4,2c1.3,0.8,2.5,1.6,3.7,2.5c0.7,0.6,1.4,1.1,2.1,1.8c0.8,0.7,1.5,1.4,2.2,2.1
		c0.9,0.9,1.8,1.9,2.7,2.8c0.1,0.2,0.3,0.4,0.4,0.6c0.1,0.1,0.1,0.3,0.2,0.4c-0.1,0.1-0.1,0.1-0.2,0.2c-0.5,0.7-0.9,1.4-1.4,2.1
		c-0.9,1.4-1.7,2.8-2.5,4.3c-0.8,1.3-1.5,2.7-2.1,4.1c-0.7,1.5-1.4,2.9-2.1,4.4c-1.9,3.9-4,7.8-6.1,11.6c-1.9,3.6-3.8,7.2-5.9,10.7
		c-0.3,0.4-0.7,0.9-1,1.3c-1.7,2.1-3.3,4.2-5,6.3c-1.7,2.1-3.3,4.2-4.9,6.2c-1.6,2-3.2,4.1-4.8,6.1c-1.6,2-3.2,3.9-4.8,5.8
		c-1,1.1-2,2.2-3.1,3.2c-0.2,0.2-0.4,0.3-0.6,0.5c-0.4,0.4-0.8,0.8-0.9,1.3c0,0.2-0.1,0.3-0.1,0.5c0,0.6,0.3,1.2,0.8,1.6
		c0.5,0.4,1.3,0.5,1.9,0.3c0.5-0.2,0.8-0.6,1.2-1c0.2-0.3,0.5-0.6,0.7-0.8c0.2-0.2,0.4-0.4,0.6-0.6c0-0.1,0.1-0.1,0.1-0.2
		c0,0,0.1,0,0.1,0c0.1,0,0.2,0,0.3,0.1c0.1,0,0.3,0.1,0.4,0.1c0,0,0,0,0,0c0,0,0,0,0,0c0.3,0.1,0.6,0.1,0.9,0.2
		c0.5,0.1,1,0.2,1.5,0.4c0.2,0.1,0.4,0.2,0.6,0.2c0.1,0,0.2,0.1,0.3,0.1c0.3,0.2,0.5,0.4,0.8,0.6c0,0,0.1,0.1,0.1,0.1
		c0.1,0.2,0.2,0.3,0.4,0.5c0.1,0.1,0.1,0.2,0.2,0.2c0.1,0.1,0.2,0.3,0.3,0.4c0.1,0.1,0.1,0.2,0.1,0.4c0,0.1,0.1,0.3,0.1,0.4
		c0,0.1,0,0.2,0,0.3c0,0.3,0,0.5,0,0.8c0,0.1,0,0.2,0,0.3c0,0.2-0.1,0.4-0.2,0.6c-0.1,0.2-0.2,0.4-0.2,0.6c-0.2,0.3-0.4,0.7-0.6,1
		c0,0,0,0,0,0.1c0,0,0,0,0,0c-0.2,0.3-0.4,0.6-0.6,0.8c-0.9,1-1.9,1.9-2.9,2.8c-0.5,0.4-1.1,0.8-1.6,1.2c-0.8,0.2-1.6,0.4-2.4,0.6
		c-3,0.7-6,1.5-8.9,2.5c-1.4,0.5-2.8,1.1-4.3,1.6c-1.4,0.6-2.9,1.1-4.3,1.7c-2.8,1.2-5.5,2.7-8.1,4.3c-2.7,1.6-5.3,3.2-7.7,5.1
		c-1.2,0.9-2.3,1.9-3.4,2.8c-1.2,1-2.4,1.9-3.6,2.9c0,0,0,0,0,0c-0.7,0.6-1.3,1.1-2,1.7c-1.1,0.9-2.1,1.9-3.2,2.8
		c-1,0.6-2.1,1.3-3.2,1.8c-0.9,0.4-1.8,0.9-2.7,1.3c0,0,0.1,0,0.1,0c-0.9,0.4-1.7,0.8-2.6,1.2C542.8,794.2,541.9,794.6,541,795z
		 M610.1,752.6c-0.1-0.5-0.3-1.1-0.6-1.5c-0.3-0.6-0.8-1.1-1.3-1.4c-0.6-0.4-1.2-0.6-1.8-0.8c-0.7-0.2-1.4-0.2-2.2-0.1
		c-0.7,0.1-1.3,0.3-2,0.4c-0.2,0-0.4,0.1-0.6,0.1c0.5-0.5,1-1.1,1.5-1.6c0,0,0,0,0,0c0.6-0.4,1.2-0.8,1.7-1.3
		c1.6-1.3,2.8-2.9,4.2-4.4c1.4-1.6,2.9-3.2,4.4-4.8c1.5-1.6,3-3.3,4.4-5c0.4-0.5,0.9-1,1.3-1.6c2.9-3.5,5.5-7.2,8.3-10.8
		c1.4-1.8,2.7-3.5,4.1-5.3c1.3-1.7,2.6-3.4,3.8-5.2c1.3-2,2.5-4,3.5-6.1c0.5-1.1,1.1-2.3,1.5-3.5c0.4-1.2,0.7-2.4,1-3.6
		c0.4-1.8,0.8-3.6,1.1-5.4c0-0.1,0.1-0.2,0.1-0.3c0-0.1,0-0.1,0.1-0.2c0.3,2.7,0.4,5.3,0.4,8c0,3.7-0.1,7.4-0.5,11.1
		c-0.4,2.6-0.9,5.2-1.6,7.8c-0.7,2.5-1.5,5-2.4,7.4c-0.8,2.5-1.7,4.9-2.7,7.3c-0.9,2.1-1.8,4.1-2.7,6.2c-0.8,1.9-1.5,3.8-2.3,5.6
		c-0.9,2.2-1.7,4.3-2.6,6.5c-0.4,0.9-0.8,1.9-1.1,2.9c-0.4,1.1-0.6,2.2-0.9,3.4c-0.4,1.3-0.8,2.5-1.2,3.7c0,0,0,0,0,0.1
		c-0.6,1.1-1.2,2.2-1.8,3.3c-0.2,0.3-0.4,0.7-0.6,1c-0.7-0.2-1.4-0.4-2.1-0.5c-1.9-0.5-3.8-1-5.7-1.4c-1.3-0.3-2.7-0.5-4-0.5
		c-1.3-0.1-2.6,0-3.9,0.2c-0.1,0-0.2,0-0.4,0c0.3-0.3,0.6-0.5,0.8-0.8c1-1.1,1.7-2.2,2.3-3.5c0.5-1.1,0.7-2.3,0.8-3.5
		C610.3,753.9,610.2,753.2,610.1,752.6z M1040.2,359.1c-0.2,2.4-0.5,4.8-0.5,7.3c0,2.4,0.1,4.7,0.2,7.1c0.1,2.5,0.2,4.9,0.2,7.4
		c0,2.5,0,5-0.1,7.5c-0.2,2.2-0.4,4.5-0.8,6.7c-0.4,2.3-0.9,4.6-1.4,6.9c-0.5,2.5-0.7,5.1-1,7.7c-0.3,2.2-0.8,4.4-1.3,6.6
		c-0.7,3.4-1.5,6.8-2.2,10.2c-0.7,3.1-1.5,6.1-2.2,9.1c-0.4,1.6-0.7,3.2-1.2,4.7c-0.4,1.3-0.8,2.6-1.2,3.8c-1.1,3-2.2,5.9-3.5,8.8
		c-0.6,1.5-1.3,2.9-1.9,4.4c-0.6,1.5-1.2,2.9-1.8,4.4c-1.2,3-2.5,6.1-3.8,9.1c-1.2,3-2.4,6.1-3.8,9c-1.5,2.8-2.9,5.6-4.4,8.4
		c-1.7,3.3-3.6,6.6-5.6,9.8c-2,3.3-4.1,6.6-6.2,9.8c-0.1,0.1-0.1,0.2-0.2,0.2c-3,4.3-6.1,8.5-9.3,12.6c-1.7,2.2-3.4,4.4-5.2,6.4
		c-1.6,1.8-3.2,3.6-4.8,5.4c-2,2.2-4,4.3-6.2,6.2c-2.2,2.1-4.5,4-6.8,6.1c-4.4,4-8.7,8.1-13.2,11.9c-1.3,1-2.5,2-3.8,3
		c-2.9,2.1-6,4.1-8.9,6.1c-3,2.1-5.8,4.3-8.8,6.4c-1.4,1-2.8,1.9-4.2,2.8c-0.8,0.5-1.5,1-2.3,1.5c-0.3,0.2-0.7,0.5-1,0.7
		c0,0-0.1,0-0.1,0.1c-0.2,0.1-0.4,0.2-0.5,0.3c-0.2,0.1-0.4,0.2-0.5,0.3c-3.9,2.4-7.8,4.7-11.9,6.6c-5.2,2.3-10.4,4.3-15.7,6.3
		c-2.9,1.1-5.7,2.2-8.5,3.3c-2.6,1.1-5.3,2-7.9,2.9c-0.1,0-0.3,0.1-0.4,0.1c-0.1,0-0.1,0-0.2,0.1c-0.2,0-0.3,0.1-0.5,0.1
		c-0.1,0-0.2,0.1-0.3,0.1c-1.8,0.5-3.5,1.1-5.3,1.6c-0.4,0.1-0.8,0.3-1.3,0.4c-2.4,0.7-4.8,1.4-7.2,2c-2.4,0.6-4.9,1.2-7.4,1.7
		c-4,0.7-8,1.1-12.1,1.5c-4.2,0.5-8.5,0.8-12.8,0.9c0.2,0,0.3,0,0.5,0c-0.2,0-0.4,0-0.6,0c0,0-0.1,0-0.1,0c0,0,0.1,0,0.1,0
		c-4.7,0.2-9.3,0.4-14,0.3c-4.9-0.1-9.7-0.2-14.6-0.5c-1-0.1-2.1-0.2-3.1-0.3c-1.6-0.2-3.1-0.4-4.7-0.6c-1.7-0.2-3.5-0.3-5.2-0.5
		c-1.8-0.2-3.7-0.4-5.5-0.6c-1.8-0.1-3.7-0.2-5.5-0.2c-3.6-0.1-7.3-0.1-10.9-0.3c-3.6-0.1-7.1-0.4-10.7-0.4c-3.6,0-7.3,0-10.9,0.2
		c-3.3,0.2-6.7,0.4-10,0.9c-3.2,0.5-6.4,1.2-9.6,2c-3.2,0.8-6.3,1.8-9.4,3.1c-1.6,0.7-3.2,1.5-4.8,2.4c-1.4,0.8-2.8,1.7-4.2,2.5
		c-2.2,1.2-4.5,2.2-6.6,3.5c-0.5,0.3-1,0.6-1.5,1c-0.2-0.2-0.3-0.4-0.5-0.5c-0.5-0.7-0.9-1.4-1.4-2.1c-0.4-0.7-0.7-1.4-1.1-2.1
		c-0.4-0.9-0.7-1.7-0.9-2.7c-0.1-0.5-0.2-0.9-0.3-1.4c-0.1-0.9-0.1-1.8-0.1-2.7c0-1.1,0.1-2.2,0.2-3.3c0-0.3,0-0.6,0.1-0.8
		c0.3-1,0.7-2,1.1-2.9c1.7-3.9,3.8-7.7,5.8-11.5c1-1.8,1.9-3.6,2.9-5.4c0.6-1.2,1.2-2.3,1.9-3.5c-0.4,0.3-0.9,0.6-1.3,0.8
		c-2.2,3.1-4.4,6.2-6.6,9.3c-0.5,0.8-1.1,1.5-1.6,2.3c0,0,0,0,0,0c-0.4,0.5-0.7,1-1,1.5c-2,2.8-3.9,5.7-5.9,8.5
		c-0.1,0.2-0.2,0.3-0.3,0.5c0,0,0,0,0,0c-0.2,0.2-0.3,0.5-0.5,0.7c-0.3,0.7-0.7,1.4-1,2.1c-0.6,1.2-1.2,2.4-1.8,3.6
		c0,1,0.1,2,0.2,2.9c0.4,3.1,1.1,6.1,2.3,9c1.2,2.9,2.6,5.6,4.7,8c2,2.4,4.5,4.4,7.1,6c2.3,1.5,4.7,2.8,7,4.1
		c1.6,0.9,3.1,1.9,4.6,2.9c1.3,0.8,2.7,1.7,4,2.6c0.9,0.7,1.7,1.4,2.5,2.2c0.9,0.9,1.7,1.8,2.5,2.7c0.7,0.9,1.4,1.9,2,2.9
		c0.2,0.4,0.4,0.8,0.6,1.2c0.2,0.5,0.4,1,0.5,1.5c0.2,0.6,0.3,1.3,0.4,1.9c0.1,0.6,0.1,1.2,0.1,1.8c0,1.5-0.1,2.9-0.3,4.4
		c-0.3,1.8-0.6,3.5-1,5.3c-0.8,2.6-1.9,5.1-2.7,7.7c-0.8,2.2-1.5,4.5-2.4,6.7c-0.6,1.4-1.2,2.7-1.9,4.1c-0.7,1.3-1.4,2.7-2.2,4
		c-1.3,2.2-2.7,4.3-3.9,6.5c-1.3,2.3-2.7,4.4-4.2,6.6c-1.4,2.2-2.8,4.3-4.2,6.5c-1.4,2.3-2.9,4.5-4.4,6.7c-1.6,2.4-3.2,4.7-4.9,7.1
		c-1.6,2.2-3.1,4.3-4.6,6.5c-1.6,2.4-3.2,4.7-4.8,7.1c-1.6,2.3-3,4.7-4.4,7.1h0c0,0,0,0,0,0c0,0,0,0,0,0c0,0,0,0,0,0c0,0,0,0,0,0
		c0,0,0,0,0,0c0,0,0,0,0,0c0,0,0,0,0,0c-0.1,0.1-0.1,0.2-0.2,0.3c-0.1,0.1-0.1,0.2-0.2,0.3c-1.3,2.3-2.7,4.5-4.1,6.7
		c-1.4,2.1-2.8,4.2-4.1,6.4c-1.4,2.2-2.8,4.5-4,6.9c-0.6,1.2-1.3,2.3-1.8,3.5c-0.3,0.6-0.8,1.5-0.8,2.2c0,0.2,0,0.3,0.1,0.5
		c0,0.1-0.1,0.1-0.1,0.1c-0.2,0.3-0.3,0.7-0.3,1.1c0,0.7,0.3,1.4,0.8,1.8c0.7,0.6,1.8,0.8,2.7,0.4c0.5-0.3,1-0.7,1.4-1.1
		c0.4-0.3,0.8-0.7,1.1-1c0,0,0.1-0.1,0.1-0.1c0.3,0.1,0.5,0.1,0.8,0.2c0.7,0.2,1.3,0.3,2,0.5c0.2,0.1,0.4,0.2,0.6,0.2
		c0.1,0,0.1,0.1,0.2,0.1c0.2,0.1,0.4,0.3,0.5,0.4c0,0,0,0.1,0,0.1c-0.2,0.6-0.5,1.1-0.7,1.7c-0.2,0.3-0.4,0.7-0.6,1
		c-0.1,0.2-0.3,0.3-0.4,0.5c-0.4,0.4-0.8,0.8-1.2,1.2c-0.4,0.4-0.9,0.7-1.4,1c-0.7,0.4-1.4,0.8-2.1,1.2c-1.5,0.7-3.1,1.2-4.6,1.8
		c-1.7,0.7-3.4,1.5-5,2.3c-0.8,0.4-1.5,0.8-2.2,1.3c-0.4,0.3-0.8,0.7-1.2,1c-0.4,0.3-0.7,0.6-1.1,1c-0.3,0.3-0.5,0.7-0.8,1
		c-0.4,0.4-0.7,0.9-1.1,1.3c-0.6,0.7-1.1,1.5-1.6,2.3c-0.5,0.7-0.9,1.5-1.3,2.2c0,0,0,0,0,0.1c0,0.1-0.1,0.2-0.1,0.2
		c0,0,0,0.1,0,0.1c-0.4,0.9-0.9,1.8-1.3,2.7c-0.8,1.8-1.5,3.5-2.2,5.4c-0.7,1.9-1.3,3.9-2,5.8c0-0.1,0.1-0.2,0.1-0.3
		c-1.3,3.9-2.9,7.7-4.6,11.4c-0.7,1.3-1.4,2.6-2,4c-0.6,1.3-1.2,2.6-1.8,3.8c-0.8,1.6-1.7,3.2-2.5,4.9c-1,1.9-2,3.8-2.9,5.7
		c-0.8,1.7-1.5,3.5-2.3,5.2c-0.7,1.7-1.5,3.4-2.2,5.1c-0.7,1.6-1.4,3.3-2.2,4.9c-0.9,1.8-1.9,3.5-2.8,5.3c-0.8,1.6-1.6,3.2-2.5,4.7
		c-0.5,0.8-1.1,1.5-1.7,2.3c-0.4,0.5-0.8,0.9-1.3,1.3c-1,0.8-2,1.5-3.1,2.2c-0.3,0.2-0.6,0.4-0.9,0.5c-0.1,0.1-0.3,0.1-0.4,0.2
		c-0.2,0.1-0.3,0.1-0.5,0.1c-0.2,0-0.3,0-0.5,0.1c-0.1,0-0.2,0-0.3,0c0,0-0.1,0-0.1,0c-0.2,0-0.4-0.1-0.6-0.2
		c-0.4-0.1-0.7-0.3-1.1-0.5c-0.5-0.2-1-0.5-1.4-0.8c-0.1-0.1-0.2-0.1-0.3-0.2c-0.1-0.1-0.2-0.2-0.3-0.3c-0.1-0.1-0.1-0.2-0.2-0.3
		c-0.1-0.1-0.1-0.2-0.2-0.4c0-0.1-0.1-0.2-0.1-0.3c0-0.1-0.1-0.2-0.1-0.3c0-0.2-0.1-0.5-0.1-0.7c0-0.5,0-0.9,0-1.4
		c0.1-1.1,0.2-2.2,0.3-3.2c0.1-1.2,0.2-2.4,0.3-3.6c0.1-1.3,0.3-2.7,0.4-4c0.1-1,0.1-2,0.1-3c0.1-2,0.4-3.9,0.7-5.9
		c0-0.1,0.1-0.3,0.1-0.4c0.4-2,0.9-3.9,1.3-5.9c0.4-1.9,0.9-3.8,1.3-5.7c0.2-1,0.4-2,0.7-2.9c0.3-0.9,0.6-1.9,0.8-2.8
		c0.5-1.8,1-3.6,1.5-5.3c0.3-0.8,0.6-1.6,0.9-2.3c0.3-0.8,0.5-1.5,0.8-2.3c0.3-0.9,0.6-1.7,1-2.6c0.3-0.8,0.7-1.5,1.1-2.3
		c0.5-1,1.1-2,1.1-3.2c0-0.9-0.6-1.8-1.5-2.2c-0.8-0.3-1.6-0.2-2.3,0.3c-0.9,0.6-1.4,1.7-1.9,2.7c-0.4,0.8-0.9,1.6-1.3,2.4
		c-0.4,0.9-0.8,1.8-1.1,2.8c-0.6,1.9-1.3,3.7-1.8,5.6c-0.2,0.9-0.5,1.9-0.7,2.8c0,0-0.1,0-0.1,0c-0.9,0.3-1.7,0.6-2.5,1
		c-1.5,0.8-2.8,1.7-4.2,2.6c-1.5,1-2.9,2-4.4,3c0.1-0.1,0.2-0.1,0.2-0.2c-1.2,0.8-2.4,1.7-3.6,2.5c-1.3,0.8-2.6,1.7-3.8,2.6
		c-1.2,0.9-2.4,1.8-3.6,2.7c-1.2,0.9-2.3,1.8-3.5,2.7c-1.2,0.9-2.5,1.8-3.7,2.7c-1.3,1-2.6,1.9-3.9,2.8c-1.3,0.9-2.7,1.8-4,2.7
		c-1.2,0.9-2.3,1.7-3.5,2.6c-1,0.7-2,1.5-3.1,2.2c-0.6,0.4-1.2,0.8-1.8,1.1c-0.2,0.1-0.4,0.2-0.6,0.3c-0.1,0-0.2,0.1-0.3,0.1
		c-0.1,0-0.1,0-0.2,0c0,0,0,0,0,0c0,0,0,0,0,0c-0.1,0-0.2-0.1-0.3-0.1c-0.1,0-0.2-0.1-0.2-0.1c-0.1,0-0.1-0.1-0.2-0.1
		c-0.2-0.2-0.4-0.3-0.6-0.5c-0.2-0.2-0.4-0.3-0.6-0.5c-0.1-0.1-0.1-0.1-0.2-0.2c-0.1-0.1-0.1-0.2-0.2-0.3c-0.1-0.2-0.2-0.4-0.4-0.6
		c-0.1-0.3-0.3-0.6-0.4-1c-0.2-0.5-0.3-1-0.4-1.5c-0.1-0.7-0.2-1.3-0.3-2c-0.1-1.4-0.2-2.7-0.1-4.1c0.1-1.3,0.2-2.6,0.4-3.8
		c0.3-1.2,0.6-2.4,1-3.6c0.9-2.6,1.9-5.1,3.1-7.6c0.7-1.3,1.4-2.5,2.1-3.8c0.7-1.1,1.4-2.3,2.2-3.4c0.8-1.1,1.6-2.2,2.4-3.3
		c0.9-1.1,1.8-2.2,2.7-3.2c1.9-2.2,4-4.3,6.1-6.4c2-1.9,4.1-3.8,6.2-5.6c0.7-0.6,1.4-1.2,2.1-1.8c0,0,0,0,0,0
		c0.9-0.8,1.8-1.6,2.8-2.4c1.6-1.4,3.3-2.8,4.9-4.2c0.8-0.6,1.6-1.3,2.4-1.9c0.8-0.7,1.7-1.3,2.6-1.9c1.5-0.9,3-1.8,4.6-2.6
		c0,0,0,0,0,0c0,0,0,0,0,0c0,0,0,0,0,0c0,0,0,0,0,0c0.7-0.3,1.3-0.6,2-0.9c0.1,0,0.2-0.1,0.4-0.1c0.1,0,0.1,0,0.2,0c0,0,0,0,0,0
		c0,0,0.1,0,0.1,0c0,0,0,0,0,0c0,0,0,0,0,0c0,0,0,0,0,0c0.3,0.2,0.7-0.3,0.3-0.5c0,0,0,0,0,0c0,0,0,0,0,0c-0.3-0.1-0.6,0-0.8,0
		c-0.5,0.1-1,0.2-1.5,0.4c-1,0.3-2.1,0.7-3.1,1.1c-1.5,0.6-3,1.2-4.5,1.9c-1.4,0.7-2.8,1.4-4.2,2.1c-1.4,0.7-2.8,1.5-4.2,2.3
		c-1.4,0.9-2.9,1.8-4.3,2.7c0,0,0.1-0.1,0.1-0.1c-2.1,1.4-4.2,2.8-6.1,4.3c-2.7,2.1-5.3,4.3-7.6,6.8c-0.5,0.6-1,1.2-1.6,1.8
		c-0.1,0-0.2-0.1-0.2-0.1c-0.5-0.1-1-0.2-1.5-0.3c-0.7-0.1-1.4-0.1-2-0.1c-1.4,0-2.7,0.3-4.1,0.6c-1.3,0.3-2.5,0.6-3.8,0.9
		c-0.7,0.2-1.3,0.3-2,0.5c-0.8,0.2-1.5,0.5-2.2,0.7c-0.7,0.2-1.3,0.5-2,0.8c-0.7,0.3-1.3,0.6-2,0.9c-1.3,0.6-2.5,1.1-3.9,1.5
		c0,0,0.1,0,0.1,0c-0.1,0-0.1,0-0.2,0.1c0,0,0,0,0,0c-0.8,0.2-1.5,0.5-2.3,0.6c-0.4,0.1-0.7,0.1-1.1,0.1c-0.2,0-0.3,0-0.5,0
		c-0.1,0-0.1,0-0.2,0c0,0-0.1,0-0.1,0c0,0,0,0,0,0c0,0-0.1-0.1-0.1-0.1c-0.1-0.1-0.2-0.3-0.2-0.4c0-0.1-0.1-0.2-0.1-0.3
		c-0.1-0.2-0.1-0.4-0.1-0.5c0-0.1,0-0.3-0.1-0.4c0-0.2,0-0.4,0-0.6c0-0.6,0.1-1.1,0.2-1.7c0,0,0,0,0,0c0,0,0,0,0-0.1c0,0,0,0,0,0
		c0,0,0,0,0-0.1c0,0,0,0,0,0c0.1-0.4,0.2-0.9,0.3-1.3c0.2-0.6,0.5-1.2,0.7-1.7c0.6-1.2,1.2-2.3,1.9-3.4c1.1-1.5,2.2-3,3.4-4.5
		c1.2-1.5,2.5-2.9,3.7-4.3c1.7-1.9,3.6-3.8,5.4-5.5c1.9-1.9,4-3.6,6-5.4c1.4-1.2,2.8-2.3,4.2-3.4c1.4-1.1,2.8-2.2,4.2-3.2
		c3.1-2,6.4-3.8,9.7-5.4c0.2-0.1,0.3-0.2,0.5-0.3c0,0,0,0,0,0c0,0,0,0,0,0c0.1,0,0.1-0.1,0.2-0.1c0,0-0.1,0-0.1,0
		c1.7-0.8,3.4-1.5,5.1-2.1c0,0,0,0-0.1,0c0.1,0,0.1,0,0.2-0.1c0,0,0.1,0,0.1,0c0,0,0,0,0,0c0.2-0.1,0.3-0.1,0.5-0.2
		c1.4-0.5,2.9-0.9,4.3-1.4c1.5-0.4,3-0.8,4.5-1.2c1.5-0.3,2.9-0.7,4.4-1c1.4-0.3,2.7-0.6,4.1-0.9c0,0,0,0,0,0c0.1,0,0.2,0,0.3-0.1
		c0,0,0,0,0,0c0.1,0,0.1,0,0.2,0c0,0,0.1,0,0.1,0c0,0,0,0-0.1,0c0.1,0,0.1,0,0.2,0c-0.1,0-0.1,0-0.2,0c1.8-0.3,3.5-0.6,5.3-0.9
		c1.6-0.3,3.3-0.5,4.9-0.7c1.5-0.1,3-0.1,4.4,0c1.5,0.1,3,0.2,4.4,0.2c0.2,0,0.3,0,0.5,0c0,0.1,0,0.1-0.1,0.2
		c-0.1,0.5-0.2,1.1,0.1,1.6c0.2,0.4,0.5,0.7,0.9,0.9c0.4,0.2,0.9,0.3,1.3,0.2c0,0,0,0,0,0c0.7,0.4,1.4-0.2,1.9-0.7
		c0.3-0.4,0.7-0.8,1-1.2c0.4-0.1,0.8-0.2,1.1-0.4c1.2-0.8,1.9-2.3,2.7-3.5c1.2-1.9,2.3-3.8,3.4-5.8c-0.1,0.1-0.2,0.3-0.3,0.4
		c0.5-0.9,1-1.8,1.5-2.6c1.3-2.3,2.6-4.7,3.7-7.1c1-2.2,1.9-4.5,2.9-6.8c1-2.4,2.1-4.7,3.1-7.1c0.9-2.2,1.7-4.5,2.5-6.8
		c0.8-2.3,1.6-4.6,2.4-6.9c1.7-5.1,3-10.2,3.1-15.6c0-2.6,0-5.2-0.3-7.8c-0.1-1.3-0.3-2.6-0.5-3.9c-0.1-1-0.3-2.1-0.5-3.1
		c-0.9-4.8-2.8-9.5-5.8-13.4c-0.8-1.1-1.7-2-2.7-3c-1.1-1.1-2.1-2.2-3.3-3.2c-1.1-1-2.3-2-3.5-2.9c-0.9-0.7-1.9-1.3-2.8-2
		c-3.6-2.7-7.3-5.1-11.2-7.3c-2-1.2-4.1-2.2-6.4-3c-2.3-0.8-4.7-1.5-7-2.3c-2-0.7-4-1.3-6-1.7c-1-0.1-2.1-0.3-3.1-0.5
		c-1.1-0.2-2.2-0.5-3.3-0.7c-1.3-0.4-2.6-0.8-3.8-1.3c-1.8-0.8-3.5-1.6-5.2-2.4c-1.6-0.7-3.3-1.4-5-2.2c-1.4-0.7-2.8-1.5-4.2-2.2
		c-1.4-0.8-2.8-1.6-4.2-2.4c-0.3-0.2-0.7-0.4-1-0.6c-0.2-0.1-0.3-0.3-0.5-0.4c-0.5-0.5-1-1.1-1.4-1.6c-0.3-0.4-0.5-0.8-0.8-1.2
		c-0.2-0.4-0.4-0.8-0.6-1.2c-0.4-1-0.8-2-1.1-3.1c-0.6-2.1-1-4.2-1.3-6.3c-0.2-1.5-0.2-3-0.3-4.6c-0.1-1.6-0.1-3.2-0.1-4.7
		c0-3.4,0.2-6.7,0.4-10.1c0.2-3.2,0.4-6.4,0.8-9.5c0.7-4.7,1.6-9.4,2.8-14.1c0.6-2.1,1.3-4.2,1.9-6.4c0.6-2.3,1.3-4.6,2-6.8
		c1.5-4.5,3-9.1,4.8-13.5c1.5-3.6,3.1-7.1,5.1-10.5c1.2-2,2.6-3.9,4-5.8c0.7-0.9,1.4-1.8,2.1-2.7c0.6-0.9,1.2-1.7,1.9-2.6
		c1.5-2,3.1-3.9,4.7-5.8c0.8-1,1.6-1.9,2.4-2.9c0.4-0.5,0.8-0.9,1.2-1.4c0.3-0.3,0.6-0.6,0.9-0.9c0.2-0.1,0.4-0.3,0.4-0.5
		c0-0.1-0.1-0.2-0.2-0.3c0,0,0,0,0,0c0,0,0,0,0,0c-0.4-0.2-0.8,0-1.2,0.2c-0.1,0-0.2,0.1-0.3,0.2c0.6-0.7,1.2-1.3,1.8-2
		c0.1-0.1,0.1-0.1,0.2-0.2c0,0,0,0,0,0c0.1-0.1,0.2-0.2,0.2-0.3c0.6-0.6,1.1-1.1,1.8-1.7c0.6-0.5,1.2-1.1,1.9-1.6
		c0.3-0.1,0.7-0.4,0.6-0.7c-0.1-0.3-0.4-0.4-0.7-0.4c-0.6,0-1.2,0.2-1.8,0.4c-0.3,0.1-0.6,0.2-0.9,0.4c0,0,0-0.1-0.1-0.1
		c-0.1-0.1-0.2-0.2-0.4-0.2c-0.3,0-0.6,0.1-0.9,0.2c-0.3,0.2-0.6,0.4-0.9,0.6c-1.3,0.8-2.5,1.6-3.7,2.5c-1.2,0.9-2.3,1.7-3.5,2.7
		c-0.6,0.5-1.3,1-1.9,1.5c-0.5,0.5-1,0.9-1.6,1.4c-0.9,0.9-1.8,1.8-2.7,2.8c-0.9,1-1.8,2.1-2.7,3.1c-0.8,1-1.7,2-2.5,3
		c-0.8,1-1.6,2-2.4,3.1c-0.8,1-1.4,2.1-2.1,3.2c-0.7,1.1-1.5,2.3-2.2,3.4c-1.4,2.3-2.7,4.6-3.9,7c-0.5,1.1-1.1,2.3-1.6,3.4
		c-0.5,1.2-1.1,2.4-1.5,3.6c-0.5,1.2-0.9,2.5-1.3,3.8c-0.4,1.2-0.7,2.3-1.1,3.5c0,0.1-0.1,0.2-0.1,0.4c-0.4,0.9-0.7,1.9-1.1,2.8
		c-0.9,2.4-1.6,4.9-2.4,7.4c-0.9,2.7-1.7,5.3-2.3,8c-0.6,2.5-1.2,5.1-1.6,7.7c-0.2,1-0.3,2.1-0.5,3.1c0,0.1,0,0.2,0,0.2
		c-0.4,2.3-0.7,4.5-0.9,6.8c-0.2,2-0.4,4.1-0.4,6.1c0,0.1,0,0.2,0,0.3c0,0.4,0,0.9,0,1.3c0,0.4,0,0.8-0.1,1.2
		c-0.2,1.6-0.5,3.1-0.6,4.7c-0.2,1.9-0.2,3.9-0.2,5.8c0,2.4,0.1,4.8,0.6,7.2c0.3,1.2,0.6,2.5,1,3.7c0.4,1.3,0.8,2.5,1.3,3.8
		c1,2.5,2.4,4.8,4.1,6.9c1.5,2,3.3,3.7,5.2,5.3c0.9,0.8,1.9,1.6,2.9,2.3c0.5,0.3,1,0.6,1.5,0.9c1.6,1.1,3.3,2,5.2,2.7
		c0.7,0.2,1.3,0.4,2,0.6c0.3,0.1,0.6,0.2,0.9,0.4c1.1,0.4,2.1,0.8,3.2,1.2c1.1,0.4,2.2,0.9,3.3,1.3c2.1,0.9,4.3,1.6,6.4,2.3
		c1,0.3,2.1,0.7,3.1,1c1,0.4,2.1,0.8,3.1,1.1c0.3,0.1,0.6,0.2,0.9,0.3c-4,1-7.9,2.1-11.9,3c-2.2,0.5-4.5,1-6.7,1.3
		c-2.5,0.4-4.9,0.9-7.4,1.4c-2.3,0.5-4.6,0.9-6.9,1.4c-2.1,0.4-4.3,0.9-6.4,1.3c-2.1,0.4-4.3,0.8-6.5,1.2c-2.1,0.3-4.2,0.6-6.3,0.8
		c-2.1,0.2-4.1,0.2-6.2,0.3c-2.2,0.1-4.3,0.2-6.5,0.3c-2.1,0.2-4.2,0.3-6.3,0.5c-2,0.2-4,0.5-5.9,0.6c-1.8,0.1-3.7,0.2-5.5,0.3
		c-1.7,0.1-3.4,0.1-5.1,0c-1.6-0.1-3.1-0.2-4.7-0.5c-1.5-0.3-2.9-0.5-4.4-0.8c0,0,0.1,0,0.1,0c-0.3,0-0.5-0.1-0.8-0.1
		c0,0,0.1,0,0.1,0c-0.1,0-0.1,0-0.2,0c-0.1,0-0.2,0-0.2,0c0.1,0,0.1,0,0.2,0c-0.2,0-0.4-0.1-0.6-0.1c-3.2-0.5-6.3-1.1-9.5-1.7
		c-1.6-0.3-3.2-0.7-4.8-1c-1.6-0.3-3.2-0.5-4.7-0.8c-0.9-0.2-1.7-0.3-2.6-0.5c-0.8-0.2-1.7-0.4-2.5-0.7c-1.7-0.5-3.4-0.9-5.1-1.3
		c-3.5-0.9-7-1.7-10.5-2.8c0,0,0.1,0,0.1,0c-0.1,0-0.1,0-0.2-0.1c-1.9-0.6-3.7-1.3-5.6-1.9c-0.9-0.3-1.8-0.6-2.7-1
		c-0.8-0.3-1.7-0.7-2.5-1c-1.8-0.9-3.6-1.8-5.4-2.8c-3.8-2-7.6-4-11.4-6c-1-0.5-2-0.9-2.9-1.4c-1-0.5-1.9-1-2.9-1.5
		c-2-0.9-4-1.8-5.8-2.9c-0.8-0.5-1.5-1-2.2-1.6c-0.9-0.7-1.7-1.5-2.5-2.4c0,0,0,0,0,0c0,0,0,0-0.1-0.1c0,0,0,0,0,0c0,0,0,0,0,0
		c-0.7-0.8-1.4-1.6-2.1-2.5c-0.2-0.5-0.5-1-0.8-1.5c-0.6-1.1-1.2-2.1-1.8-3.1c-0.4-0.6-0.8-1.2-1.2-1.8c-0.4-0.5-0.8-1.1-1.3-1.6
		c-0.4-0.5-0.8-0.9-1.3-1.3c-0.1-0.2-0.2-0.4-0.3-0.6c0-0.1,0-0.2-0.1-0.2c-0.1-0.1-0.2-0.2-0.3-0.3c0-0.1-0.1-0.1-0.1-0.2
		c0,0,0,0,0,0c-0.1-0.1-0.3-0.2-0.4-0.1c0-0.3,0-0.5,0-0.8c0.1-0.7,0.2-1.3,0.3-1.9c0.1-0.6,0.3-1.2,0.5-1.9
		c0.2-0.6,0.5-1.3,0.8-1.9c0.4-0.8,0.9-1.5,1.4-2.3c0.7-1.1,1.5-2.1,2.2-3.2c0.7-1,1.3-2,2-3c1-1.4,2.1-2.8,3.2-4.1c0,0,0,0,0,0
		c0-0.1,0.1-0.1,0.1-0.2c0.9-1,1.8-1.9,2.7-2.9c0.9-0.9,1.9-1.9,2.8-2.8c0.9-0.9,1.8-1.8,2.8-2.7c1-0.9,1.9-1.9,2.9-2.8
		c-0.1,0-0.1,0.1-0.2,0.1c0.1-0.1,0.1-0.1,0.2-0.2c0,0,0,0,0.1-0.1c0,0,0,0,0,0c1.3-1.2,2.7-2.3,4.1-3.3c1.4-1,2.9-2.1,4.2-3.2
		c0.6-0.5,1.2-1,1.7-1.5c0.6-0.6,1.1-1.2,1.7-1.8c0.9-1.1,1.7-2.2,2.5-3.3c0.3-0.4,0.5-0.9,0.6-1.4c0.2-0.7,0.4-1.5,0.5-2.2
		c0.3-1.7,0.5-3.6-0.2-5.2c-0.3-0.9-1.4-1.4-2.3-1.1c-0.9,0.2-1.5,1.1-1.4,2.1c0.1,0.7,0.2,1.4,0.2,2.1c0,0.4,0,0.7,0,1.1
		c0,0.5-0.1,0.9-0.2,1.4c-0.1,0.2-0.1,0.4-0.2,0.7c0,0,0,0.1-0.1,0.1c0,0,0,0,0,0.1c-0.1,0.1-0.1,0.2-0.2,0.2
		c-0.4,0.4-0.7,0.8-1.1,1.2c-0.7,0.7-1.5,1.4-2.2,2.1c-2.1,1.8-4.3,3.4-6.6,4.9c-1.3,0.9-2.5,1.8-3.7,2.8c-1.3,1-2.5,2.1-3.7,3.1
		c0.1-0.1,0.2-0.1,0.3-0.2c-0.1,0.1-0.2,0.1-0.2,0.2c0,0,0.1-0.1,0.1-0.1c-0.1,0.1-0.3,0.3-0.4,0.4c-1.3,1.1-2.7,2-3.9,3.2
		c-1.1,1-2.2,2.1-3.3,3.3c-1.2,1.4-2.4,2.7-3.5,4.2c-1.1,1.4-2.1,2.9-2.9,4.4c-1.7,3-3,6.2-3.3,9.7c-0.1,0.8-0.1,1.7-0.1,2.5
		c0,0.8,0,1.6,0.1,2.5c0.1,0.8,0.1,1.6,0.5,2.3c0,0,0,0.1,0.1,0.1c-0.4,0.1-0.8,0.4-1,0.8c-0.2,0.4-0.1,0.9,0.1,1.3
		c0.2,0.3,0.4,0.6,0.7,0.9c0.2,0.2,0.4,0.4,0.6,0.7c0.4,0.4,0.8,0.9,1.2,1.3c0.5,0.6,0.9,1.1,1.3,1.8c0.7,1.1,1.4,2.3,2,3.5
		c0.4,0.9,0.8,1.7,1.1,2.7c0.1,0.5,0.3,0.9,0.4,1.4c0,0.3,0.1,0.5,0.1,0.8c0,0.2,0,0.3,0,0.5c0,0.1,0,0.2-0.1,0.4
		c0,0.1-0.1,0.3-0.1,0.4c0,0.1-0.1,0.2-0.1,0.2c-0.1,0.1-0.1,0.2-0.2,0.4c-0.1,0.1-0.1,0.2-0.2,0.3c0,0-0.1,0.1-0.1,0.1
		c-0.1,0-0.1,0.1-0.2,0.1c0,0-0.1,0-0.1,0.1c0,0-0.1,0-0.1,0c-0.1,0-0.1,0-0.2,0c-0.2,0-0.3,0-0.5,0.1c-0.2,0-0.3,0-0.5,0
		c-0.2,0-0.4-0.1-0.6-0.1c-0.8-0.2-1.7-0.4-2.5-0.6c0,0,0.1,0,0.1,0c-0.1,0-0.1,0-0.2,0c0,0,0,0,0,0c0,0,0,0,0,0
		c-0.4-0.1-0.7-0.2-1.1-0.2c-0.2-0.1-0.4-0.1-0.7-0.2c-0.2-0.1-0.4-0.2-0.7-0.3c-0.4-0.2-0.8-0.5-1.2-0.7c-0.1-0.4-0.2-0.7-0.3-1
		c-0.3-0.7-1-1.1-1.8-1c-0.7,0.1-1.2,0.6-1.4,1.2c-0.5,1.5-0.4,3.1-0.2,4.7c0.1,1.4,0.3,2.9,0.3,4.3c0.1,1.1,0.1,2.3,0,3.4
		c0,0.4-0.1,0.8-0.2,1.2c-0.1,0.4-0.2,0.8-0.3,1.1c-0.1,0.2-0.2,0.4-0.3,0.7c0-0.1,0.1-0.1,0.1-0.2c-0.1,0.2-0.2,0.3-0.2,0.5
		c0-0.1,0.1-0.1,0.1-0.2c-0.1,0.2-0.2,0.3-0.3,0.5c-0.1,0.2-0.2,0.3-0.4,0.5c-0.1,0.1-0.2,0.2-0.4,0.4c0,0-0.1,0.1-0.1,0.1
		c0,0,0,0-0.1,0c0,0-0.1,0-0.2,0.1c-0.1,0-0.1,0-0.2,0c-0.1,0-0.1,0-0.2,0c0,0,0,0-0.1,0c0,0,0,0,0,0c-0.1-0.1-0.2-0.3-0.3-0.4
		c-0.6-1-1.2-2-1.8-3c-0.4-0.9-0.9-1.9-1.3-2.8c-0.4-0.9-0.8-1.9-1.1-2.8c-0.4-1.2-0.8-2.5-1.1-3.8c-0.1-0.7-0.2-1.3-0.2-2
		c0-0.9,0-1.8,0-2.7c0-0.4,0-0.9,0-1.3c0-0.4,0-0.9-0.3-1.2c-0.2-0.1-0.4-0.2-0.6,0c0,0-0.1,0.1-0.1,0.1c-0.2,0.3-0.3,0.7-0.4,1
		c-0.1,0.4-0.2,0.7-0.3,1.1c-0.1,0.3-0.2,0.6-0.2,1c-1.1,1.4-1.8,3-2.8,4.5c-0.2,0.3-0.5,0.6-0.7,0.9c-0.1,0.1-0.2,0.2-0.3,0.3
		c-0.4,0.4-0.9,0.7-1.4,1c-0.1,0.1-0.2,0.1-0.3,0.2c0-0.7,0-1.5,0.1-2.2c0.1-1.3,0.3-2.6,0.5-3.9c0.5-2.2,1.2-4.3,1.9-6.4
		c0,0,0,0.1,0,0.1c0,0,0-0.1,0.1-0.1c0-0.1,0-0.1,0.1-0.2c0,0,0,0.1,0,0.1c0.4-1.1,0.8-2.1,1.1-3.2c0.4-1.2,0.9-2.4,1.4-3.6
		c0.4-1.1,0.9-2.2,1.4-3.2c0.5-1,1.1-1.9,1.6-2.8c0.1-0.2,0.3-0.4,0.4-0.7c0.2-0.4,0.4-0.8,0.4-1.3c0,0,0,0,0,0c0-0.3,0-0.6,0.1-1
		c0-0.5,0.1-1.1,0.1-1.6c0,0,0,0,0,0c0,0,0-0.1,0-0.1c0,0,0,0,0,0c0,0,0,0,0,0c0.1-0.6,0.1-1.3,0.2-1.9c0.1-0.7,0.2-1.4,0.3-2.2
		c0.2-1.5,0.3-3,0.5-4.6c0.1-1.5,0.2-3,0.2-4.5c0-1.2,0-2.3,0.1-3.5c0.4-0.4,0.7-0.9,0.8-1.5c0-0.6,0-1.1-0.1-1.7
		c0-0.2-0.1-0.3-0.1-0.5c0.1-0.2,0.1-0.5,0.2-0.7c0.2-0.5,0.4-0.9,0.6-1.4c0.8-1.5,1.8-3,2.7-4.4c1-1.5,1.9-3.1,2.9-4.6
		c1.8-2.6,3.6-5.3,5.7-7.7c1.6-1.7,3.2-3.4,4.8-5.1c2.4-2.4,5-4.7,7.5-7c1.3-1.2,2.5-2.4,3.8-3.6c1.2-1.1,2.3-2.3,3.5-3.4
		c0.5-0.5,1.1-0.9,1.7-1.3c0.3-0.2,0.6-0.4,0.9-0.6c0,0,0,0,0,0c0,0,0,0,0.1,0c0,0,0,0,0,0c0,0,0,0,0.1,0c0,0,0,0,0.1,0
		c0,0,0.1,0,0.1,0c0.2,0,0.4-0.3,0.3-0.5c-0.1-0.2-0.2-0.3-0.4-0.2c-0.1-0.1-0.2-0.2-0.2-0.2c-0.2-0.2-0.5-0.3-0.8-0.3
		c-0.7-0.1-1.5,0.1-2.2,0.3c-0.7,0.2-1.4,0.6-2.1,0.9c-0.7,0.3-1.3,0.7-2,1.1c-2.7,1.7-5.3,3.6-7.8,5.6c-1.3,1-2.7,2.1-4,3.1
		c-1.4,1.1-2.8,2.3-4.1,3.6c-1.3,1.3-2.6,2.7-3.8,4.1c-1.1,1.4-2.1,2.9-3,4.4c-0.9,1.5-1.7,3-2.6,4.5c-0.9,1.6-1.6,3.2-2.4,4.8
		c-0.4,0.8-0.9,1.7-1.3,2.5c0-0.1-0.1-0.3-0.1-0.4c-0.4-1.6-0.7-3.1-1.1-4.7c-0.8-3.3-1.6-6.7-2.3-10.1c-0.2-1.3-0.5-2.7-0.7-4
		c-0.2-1.4-0.5-2.9-0.6-4.4c-0.3-2.7-0.5-5.3-0.8-8c-0.2-1.9-0.4-3.7-0.5-5.6c-0.1-1.8-0.3-3.6-0.4-5.4c-0.2-1.8-0.4-3.6-0.6-5.4
		c-0.2-1.9-0.3-3.8-0.4-5.7c-0.3-3.7-0.6-7.4-1.1-11.1c-0.5-3.6-0.8-7.3-1-10.9c0,0,0,0,0,0c0-0.1,0-0.1,0-0.2c0,0,0,0,0,0
		c0,0,0,0,0,0c0-0.1,0-0.2,0-0.3c0,0,0,0,0,0c0,0,0,0,0,0c0,0,0,0,0,0c0,0,0,0,0,0c0,0,0,0,0,0c0,0,0,0,0,0c0-0.2,0-0.5,0-0.7
		c0,0,0,0,0,0c0,0,0,0,0,0c0,0,0,0,0,0c0,0,0,0,0,0c0-0.1,0-0.1,0-0.2c0,0,0,0,0,0c0,0,0,0,0,0c0-0.1,0-0.2,0-0.3
		c-0.1-1.9-0.3-3.8-0.5-5.8c-0.1-1.7-0.3-3.4-0.3-5.1c0,0.1,0,0.2,0,0.2c-0.1-2.4-0.2-4.8-0.4-7.2c-0.2-2.4-0.4-4.8-0.5-7.2
		c-0.1-2.5-0.2-4.9-0.3-7.4c-0.1-1.9-0.1-3.8-0.2-5.6c0-1.8,0-3.7,0.1-5.5c0.1-3.7,0.2-7.4,0.4-11c0.3-3.4,0.7-6.7,0.7-10.1
		c0-1.7,0-3.5,0-5.2c0-1.7-0.1-3.4-0.2-5c0-0.1,0-0.1,0-0.2c0,0,0-0.1,0-0.1c0,0,0,0,0,0c0,0,0,0,0,0c0,0,0,0,0,0c0,0,0,0,0,0
		c0,0,0,0,0,0c0,0,0-0.1,0-0.1c0,0,0,0,0,0c-0.1-0.9-0.1-1.8-0.2-2.7c-0.1-1-0.1-1.9-0.2-2.9c-0.2-1.7-0.4-3.5-0.6-5.2
		c-0.1-0.7-0.1-1.3-0.2-2c0.1-0.1,0.2-0.1,0.2-0.2c0.9-0.7,1.7-1.5,2.5-2.2c0.7-0.7,1.4-1.5,2.1-2.2c0.7-0.8,1.5-1.5,2.2-2.2
		c1.5-1.5,2.9-3,4.3-4.5c1.3-1.5,2.7-2.9,4.1-4.4c1.4-1.5,2.7-3.1,3.9-4.8c1.3-1.7,2.4-3.5,3.2-5.5c0.4-1,0.7-2,1-3
		c0.2-1.1,0.4-2.2,0.1-3.3c-0.3-1.1-1.1-2-2.1-2.3c-0.3,1.1-0.7,2.3-1.1,3.4c-0.3,0.9-0.8,1.8-1.2,2.7c-0.1,0.1-0.1,0.3-0.2,0.4
		c-0.5,0.8-0.9,1.6-1.5,2.5c-1.1,1.7-2.3,3.4-3.6,5.1c-1.1,1.5-2.2,3-3.4,4.4c-1.3,1.6-2.8,3.1-4.3,4.4c-1.5,1.3-3,2.6-4.6,3.9
		c-1.3,1-2.6,2-3.9,2.9c-0.1,0.1-0.3,0.3-0.4,0.4c-0.7,0.7-1.5,1.3-2.3,1.9c-1.4,1-2.9,1.9-4.5,2.7c-2.2,1.2-4.6,2.1-6.9,3
		c-2.4,0.8-4.9,1.5-7.4,2.3c-2.3,0.7-4.6,1.4-7,2c-1.3,0.3-2.6,0.4-4,0.6c-1.3,0.1-2.6,0.3-3.9,0.4c-2.7,0.2-5.5,0.2-8.3,0.2
		c-1.5,0-3,0-4.6,0c-0.5-0.2-1-0.3-1.5-0.5c-0.7-0.3-1.5-0.7-2.2-1.1c-1.4-0.9-2.9-1.7-4.2-2.7c-0.3-0.2-0.6-0.5-0.8-0.7
		c-0.1-0.1-0.2-0.3-0.3-0.4c-0.1-0.1-0.1-0.2-0.2-0.3c-0.3-0.7-0.6-1.3-0.9-2c-0.3-0.5-0.5-1.1-0.7-1.6c-0.1-0.4-0.3-0.8-0.4-1.2
		c-0.1-0.3-0.1-0.6-0.2-1c0-0.4-0.1-0.7-0.1-1.1c0.6-0.1,1.2-0.2,1.8-0.3c3-0.5,6.1-0.9,9.1-1.5c3.2-0.6,6.4-1.3,9.6-2
		c3-0.7,6-1.6,9-2.7c2.8-1,5.6-2,8.3-3.2c1.6-0.8,3.2-1.6,4.7-2.6c0,0,0,0,0,0c0.6,0.7,1.3,1.4,2.1,1.9c0.9,0.5,1.8,0.9,2.8,1.1
		c1,0.2,1.9,0.2,2.9,0.2c0,0-0.1,0-0.1,0c0,0,0.1,0,0.1,0c0.1,0,0.1,0,0.2,0c-0.1,0-0.1,0-0.2,0c0.8-0.1,1.6-0.2,2.4-0.6
		c0.6-0.3,1.2-0.7,1.8-1.1c1.2-0.9,2-2.2,2.5-3.6c0.2-0.7,0.3-1.4,0.3-2.2c0-0.8-0.1-1.6-0.3-2.3c-0.3-1.1-0.9-2-1.6-2.8
		c-0.3-0.3-0.7-0.6-1.1-0.9c1.5-1.5,2.9-3.1,4-4.9c1.4-2.2,2.3-4.8,2.9-7.3c0.7-2.9,1.2-6,1.3-9c0.1-1.6,0-3.2,0-4.7
		c0-1.5-0.1-2.9-0.2-4.4c-0.2-2.4-0.6-4.8-1-7.2c-0.2-1.5-0.4-3-0.5-4.5c0,0,0-0.1,0-0.1c0.1,0,0.1,0,0.2,0c1.2-0.3,2.3-0.7,3.4-1.2
		c0.7-0.3,1.4-0.6,2.2-0.9c0.7-0.3,1.3-0.5,2-0.8c1.5-0.7,2.9-1.5,4.2-2.4c1.3-0.9,2.6-1.9,3.6-3.2c1.1-1.3,2.1-2.8,2.6-4.4
		c0.2-0.9,0.3-1.9,0.1-2.8c-0.3-1.2-1.1-2.2-2-3c-1.2-1.1-2.5-1.9-3.9-2.8c-0.6-0.4-1.3-0.8-1.9-1.2c-0.7-0.4-1.4-0.8-2.2-1.1
		c-0.3-0.1-0.6-0.3-1-0.4c0.9-0.9,1.8-1.8,2.6-2.8c0.8-1,1.6-2,2.1-3.2c0.4-0.8,0.7-1.7,0.9-2.6c0.2-0.8,0.5-1.6,0.6-2.4
		c0.2-1.1,0.5-2.1,0.6-3.2c0.1-1.2,0.2-2.4,0-3.6c-0.1-1-0.4-2-0.6-2.9c-0.3-1.3-0.7-2.5-1.2-3.7c-0.5-1.2-1-2.5-1.6-3.7
		c-0.7-1.4-1.5-2.8-2.6-4c-1-1.2-2.1-2.2-3.3-3.2c-1.1-0.9-2.4-1.8-3.7-2.5c-1.4-0.8-2.8-1.5-4.3-1.9c-0.5-0.2-1-0.3-1.5-0.4
		c0.5-0.4,0.9-0.8,1.4-1.2c0.9-0.6,1.7-1.1,2.6-1.6c1-0.6,2-1.2,2.9-1.9c1-0.7,1.9-1.4,2.8-2.2c0.9-0.8,1.9-1.7,2.3-2.9
		c0.4-1,0.1-2.3-0.9-2.9c-0.4-0.3-0.8-0.5-1.2-0.6c-0.4-0.1-0.7-0.1-1.1-0.1c-0.6,0-1.1,0-1.7,0.1c-0.7,0.1-1.3,0.3-1.9,0.5
		c-1,0.4-2,0.9-2.9,1.5c-0.9,0.6-1.8,1.2-2.7,1.9c-0.8,0.6-1.5,1.4-2.2,2.1c-0.7,0.8-1.4,1.6-2,2.5c-0.3,0.5-0.7,1-1,1.5
		c-0.2,0.4-0.4,0.8-0.6,1.2c-0.8,1.7-1.6,3.5-2.2,5.3c0,0,0,0,0,0c0,0.1-0.1,0.2-0.1,0.3c0-0.1,0-0.2,0.1-0.2
		c-0.1,0.2-0.2,0.5-0.2,0.7c0,0,0,0,0,0c0,0,0,0,0,0.1c0,0.1,0,0.1-0.1,0.2c0,0,0-0.1,0-0.1c-0.4,1.2-0.5,2.6-0.6,3.8
		c0,0.1,0,0.2,0,0.4c0,0.2,0,0.4,0,0.6c0,0.4,0.1,0.9,0.3,1.2c0.2,0.3,0.4,0.4,0.7,0.5c0.4,0.3,1.1,0,0.9-0.6c0-0.2-0.2-0.3-0.3-0.3
		c0,0,0,0,0,0c0.1-0.4,0.3-0.8,0.5-1.2c0.3-0.7,0.7-1.3,1.1-1.9c0.6-0.9,1.2-1.8,1.9-2.7c0.6-0.7,1.2-1.3,1.8-1.9
		c0.9,0.3,1.8,0.7,2.6,1.2c0.8,0.4,1.6,0.9,2.4,1.4c0.8,0.6,1.6,1.2,2.4,1.8c0.6,0.5,1.1,1.1,1.7,1.7c0.8,1,1.6,2,2.3,3
		c0.2,0.4,0.5,0.7,0.7,1.1c0.3,0.6,0.5,1.1,0.7,1.7c0.3,1.1,0.6,2.3,0.9,3.4c0.3,1.4,0.4,2.8,0.5,4.2c0,0.7,0,1.3,0,2
		c-0.1,0.9-0.2,1.8-0.4,2.6c-0.4,1.7-0.7,3.4-1.3,5c-0.1,0.2-0.2,0.4-0.3,0.6c-0.1,0.2-0.2,0.4-0.4,0.6c-1.2,1.6-2.5,3-3.8,4.6
		c-1.3,1.6-2.4,3.3-3.3,5.2c-1.1,2.4-1.8,5.1-2.4,7.7c-0.4,1.4-0.7,2.9-0.8,4.4c-0.2,1.6-0.4,3.3-0.4,4.9c0,1.6,0,3.2,0.1,4.8
		c0,1.4,0.1,2.8,0.2,4.2c0.2,2.5,0.5,5.1,0.7,7.6c0.1,1.4,0.1,2.9,0.1,4.3c0,1.8,0.1,3.7,0,5.5c-0.1,1.4-0.4,2.7-0.6,4.1
		c-0.3,1.3-0.6,2.6-1.1,3.9c-0.3,0.9-0.7,1.8-1.1,2.7c-0.3,0.5-0.6,1-0.9,1.5c-0.4,0.5-0.8,1-1.2,1.5c-1.5,1.7-3.3,3.2-5,4.7
		c0,0,0.1-0.1,0.1-0.1c-1.2,1.1-2.5,2.2-3.8,3.2c-1.3,1.1-2.7,2.1-4.2,3.1c-1.3,0.9-2.6,1.7-4,2.4c-1.3,0.6-2.7,1.2-4.1,1.7
		c-4.3,1.4-8.6,2.6-13,3.5c-4.6,0.9-9.3,1.5-13.9,2.4c-2.9,0.6-5.7,1.2-8.5,2c-3.2,0.9-6.5,1.9-9.6,3.2c-5.6,2.4-10.4,6.3-14.4,10.9
		c0,0,0-0.1,0.1-0.1c0,0-0.1,0.1-0.1,0.1c0,0,0,0,0,0c0,0,0,0,0,0c0,0,0,0-0.1,0.1c0,0,0,0,0,0c0,0,0,0,0,0c-2,2.4-3.9,4.9-5.6,7.5
		c-1.6,2.5-3.1,5-4.7,7.5c-0.8,1.2-1.7,2.3-2.6,3.4c-0.7,0.7-1.4,1.4-2.1,2.1c-0.7,0.6-1.4,1.1-2.1,1.6c-2.9,1.9-6,3.6-9.1,5.2
		c-2.9,1.5-5.8,3.1-8.7,4.6c-2.2,1.1-4.5,2.2-6.8,3.1c-2.4,0.9-4.9,1.9-7.3,2.8c-4.8,1.9-9.6,3.9-14.5,5.6c-0.2,0.1-0.4,0.1-0.6,0.2
		c-5.8,1.9-11.6,3.8-17.4,5.7c-3,1-5.9,2-8.8,3c-2.8,1-5.5,2.1-8.3,3c-4.5,1.5-9.1,2.7-13.7,3.7c-4.1,0.8-8.2,1.4-12.3,1.6
		c-2.2,0.1-4.3,0.1-6.5-0.1c-4.7-0.4-9.3-0.9-13.9-1.8c-1.8-0.4-3.6-0.9-5.4-1.4c-1.8-0.6-3.6-1.4-5.4-2.2c-1.8-0.9-3.5-1.9-5.2-3.1
		c-2.3-1.5-4.4-3.2-6.5-5c-0.9-0.8-1.7-1.6-2.6-2.5c-0.5-0.6-0.9-1.1-1.3-1.7c-0.7-1.1-1.3-2.2-1.9-3.4c-0.9-1.8-1.6-3.6-2.5-5.4
		c-1-2-2-4-3.1-6c-0.5-1.1-1-2.3-1.5-3.4c-0.7-2.1-1.2-4.2-1.7-6.3c-0.9-4.6-1.7-9.2-2.6-13.8c-1-4.8-1.9-9.6-3.1-14.4
		c-1.2-4.8-2.3-9.6-3.4-14.3c-0.8-3.1-1.6-6.3-2.5-9.4c-0.9-3.2-1.9-6.3-2.8-9.5c-1.8-6.1-3.5-12.2-4.8-18.4
		c-0.1-0.4-0.1-0.7-0.2-1.1c-0.5-3-1-6-1.4-9c-0.5-3.2-0.9-6.4-1.4-9.6c0-0.1,0-0.1,0-0.2c0.1,0.2,0.3,0.4,0.5,0.6
		c0.1,0.1,0.3,0.2,0.4,0.2c-0.1-0.7-0.1-1.4-0.2-2.1c-0.2-0.8-0.3-1.6-0.5-2.4c-0.4-2.4-0.6-4.8-0.7-7.2c-0.2-2.4-0.3-4.9-0.3-7.3
		c0-1.7,0-3.3,0-5c0-0.1,0-0.3,0-0.4c0-1.7,0.1-3.5,0.1-5.2c0-0.9,0.1-1.8,0.1-2.8c0.1-1,0.2-1.9,0.4-2.8c0.3-1.8,0.6-3.7,1-5.5
		c0-0.1,0-0.1,0-0.2c0,0,0-0.1,0-0.1c0,0,0,0,0,0c0.2-1,0.3-2,0.4-3.1c0.2-1.2,0.4-2.5,0.6-3.7c0,0,0,0,0,0c0.2-0.7,0.3-1.4,0.5-2.2
		c0.1-0.2,0.1-0.4,0.2-0.7c0.1-0.6,0.3-1.1,0.5-1.7c0.3-0.9,0.5-1.8,0.8-2.7c0.8-2.3,1.7-4.4,2.8-6.5c0.3-0.6,0.7-1.3,1.1-1.9
		c0,0,0,0,0,0c0.2-0.3,0.3-0.5,0.5-0.8c0.5-0.9,1.1-1.8,1.6-2.7c0.6-1,1.3-2,2-3s1.4-1.9,2.2-2.9c1.6-2,3.2-4,4.9-5.8
		c0.9-1,2-1.9,3-2.8c0.9-0.8,1.8-1.7,2.8-2.5c1.7-1.5,3.5-3,5.3-4.4c1.3-1,2.7-2,4-3.1c1.4-1.3,2.7-2.5,4.1-3.7
		c3.2-2.8,6.4-5.4,9.6-8.3c3.1-2.8,6.4-5.4,9.8-7.8c0.6-0.4,1.1-0.8,1.7-1.2c2.1-1.9,4-3.9,5.9-6c3-3.1,6.1-6.2,9.3-9.3
		c3.2-3,6.2-6.2,9.3-9.3c2.7-2.7,5.5-5.3,8.2-8c2.8-2.7,5.6-5.3,8.4-8c2.6-2.5,5.3-4.9,8-7.3c2.5-2.2,5.1-4.4,7.7-6.5
		c3.3-2.6,6.7-5,10.2-7.3c3.9-2.6,7.8-5.2,11.8-7.8c3.2-2.1,6.4-4.3,9.6-6.6c3-2.1,6-4.1,8.9-6.2c6.2-4.3,12.3-8.7,18.7-12.6
		c2.6-1.6,5.3-3.1,8-4.6c2.9-1.5,5.8-2.9,8.7-4.3c6.6-3.1,13.2-6.1,19.8-9.1c3.3-1.5,6.5-3,9.7-4.5c3.3-1.6,6.6-3.2,9.9-4.7
		c0.6-0.3,1.2-0.5,1.8-0.8c6.8-2.7,13.8-5,20.6-7.8c6.7-2.7,13.4-5.3,20.4-7.3c2.3-0.6,4.5-1.2,6.8-1.7c2.2-0.5,4.5-0.8,6.7-1.1
		c6.4-0.9,12.8-1.4,19.3-1.6c3.9,0,7.8,0.1,11.7,0.6c2.3,0.3,4.6,0.8,6.9,1.3c1.8,0.5,3.5,1,5.2,1.6c1.5,0.6,2.9,1.3,4.3,2
		c2.9,1.6,5.8,3.4,8.5,5.4c1.2,0.9,2.3,1.8,3.4,2.9c1.9,1.9,3.6,3.9,5.3,5.9c1.4,1.7,2.7,3.5,4,5.3c1.3,1.8,2.7,3.6,4.2,5.3
		c0.6,0.6,1.4,1,2.2,1.2c0.8,1.9,1.6,3.8,2.3,5.8c0,0.1,0,0.1,0.1,0.2c0,0,0-0.1,0-0.1c0,0.1,0.1,0.1,0.1,0.2c0,0,0,0,0,0
		c0,0.1,0.1,0.3,0.1,0.4c0,0,0-0.1,0-0.1c0,0.1,0.1,0.2,0.1,0.4c0,0,0-0.1,0-0.1c0,0.1,0,0.1,0.1,0.2c0.6,1.5,1.1,3,1.6,4.6
		c0.1,0.4,0.3,0.8,0.4,1.1c0.2,0.8,0.4,1.6,0.7,2.4c0.1,0.2,0.1,0.3,0.3,0.4c0.1,0.3,0.2,0.6,0.3,0.8c0.5,1.6,1,3.3,1.4,4.9
		c0.3,1.1,0.5,2.3,0.7,3.4c0.2,1.1,0.4,2.3,0.7,3.4c0,0,0,0,0,0c0,0.2,0.1,0.4,0.1,0.6c0,0,0,0,0,0c0,0.1,0,0.1,0,0.2c0,0,0,0,0,0
		c0,0,0,0,0,0c0.2,0.8,0.4,1.6,0.6,2.4c0.2,2.6,0.3,5.2,0.5,7.8c0.3,3.5,0.5,7.1,0.9,10.6c0,0.4,0.1,0.8,0.1,1.2
		c0.4,3.8,0.6,7.7,0.8,11.5c0.1,3.9,0.1,7.7,0,11.6c-0.1,3.1-0.3,6.3-0.4,9.4c-0.1,3.1-0.1,6.1-0.3,9.2c0,1.2-0.1,2.4-0.1,3.6
		c-0.1,2.3-0.2,4.5-0.3,6.8c-0.2,3.1-0.5,6.2-0.8,9.3c-0.3,3.1-0.6,6.1-0.9,9.2c-0.3,3-0.5,6-0.8,9c-0.3,3-0.6,6-0.8,9
		c-0.3,2.9-0.5,5.8-0.7,8.7c-0.3,3-0.6,6-0.8,9.1c-0.2,3.1-0.4,6.2-0.8,9.2c-0.3,3.2-0.7,6.3-1,9.5c-0.6,6-1.4,12-2.2,17.9
		c-0.8,5.9-1.4,11.8-2,17.8s-1.2,11.9-1.9,17.8c-0.4,3.1-0.9,6.3-1.4,9.4c-0.5,2.8-0.9,5.6-1.4,8.4c-0.6,3.4-1.2,6.7-1.8,10.1
		c-0.5,3-0.9,6.1-1.3,9.1c-0.4,2.9-0.7,5.7-1,8.6c-0.1,0.7-0.2,1.5-0.2,2.2c0,0.5,0.1,1.1,0.1,1.6c0.1,1.3,0.2,2.6,0.3,3.9
		c0.1,1,0.2,2,0.3,3c0,0,0,0,0,0c0.1,1,0.2,2.1,0.4,3.1c0.6,1.2,1.3,2.3,2,3.5c0.3,0.5,0.6,1,0.9,1.4c0.2,0.4,0.3,0.9,0.5,1.3
		c1,2.6,2.3,5,3.7,7.3c0.3,0.6,0.5,1.3,0.8,1.9c0.5,1.1,1.1,2.1,1.8,3.1c0.8,1,1.6,2,2.7,2.7c0.5,0.3,1,0.6,1.5,0.8c0,0,0,0,0.1,0
		c0.2,0.2,0.4,0.3,0.5,0.5c0.5,0.4,1,0.9,1.7,1c0.4,0.1,0.8,0,1.1-0.1c0.8,0.4,1.6,0.8,2.4,1.2c2.3,1.2,4.7,2.2,7.2,3.1
		c2.4,0.8,4.7,1.5,7.2,2.2c2.7,0.7,5.5,1.3,8.4,1.6c2.3,0.2,4.5,0.2,6.8,0.2c2.5,0,4.9-0.1,7.4-0.2c2.6-0.1,5.1-0.4,7.7-0.7
		c5-0.6,10-1.4,15-2c4.7-0.6,9.4-0.9,14-1.6c4.8-0.7,9.6-1.6,14.4-2.6c4.8-1,9.5-2.3,14.2-3.6c4.3-1.2,8.7-2.5,13-3.6
		c4.7-1.2,9.4-1.8,14.2-2.6c4.8-0.8,9.6-1.6,14.4-2.6c2.4-0.5,4.8-1,7.2-1.5c2.4-0.5,4.8-1,7.3-1.4c4.7-0.8,9.4-1.6,14.2-2.2
		c3.6-0.4,7.1-0.9,10.7-1.1c3.7-0.3,7.4-0.4,11.1-0.6c3.8-0.2,7.6-0.6,11.5-0.7c3.6-0.2,7.2-0.2,10.9-0.2c3.3,0,6.6,0.1,9.9,0.3
		c3.3,0.2,6.7,0.6,10,1c4.5,0.6,9,1.4,13.5,2.3c4.6,0.9,9.2,1.8,13.8,3c6,1.7,11.9,3.9,17.7,6.2c2.3,1,4.5,2,6.8,2.9
		c2.2,0.9,4.5,1.7,6.8,2.4c4.5,1.5,9.1,2.8,13.7,4c5.1,1.3,10.2,2.3,15.3,3.4c5,1.1,9.9,2.1,14.9,3.2c5.2,1.1,10.4,1.9,15.7,2.4
		c5.3,0.5,10.7,0.7,16.1,0.6c5-0.1,10-0.3,15-0.7c5-0.4,9.9-1,14.8-1.8c5.3-0.8,10.7-1.6,16-2.5c5.2-0.9,10.4-2.2,15.5-3.6
		c5-1.4,10-2.9,14.9-4.6c2.3-0.8,4.6-1.6,6.9-2.4c2.6-1,5.2-2.1,7.7-3.2c4.4-1.9,8.6-4.3,12.8-6.7c1.8-1,3.6-2.1,5.4-3.2
		c2-1.2,3.9-2.6,5.8-4c1.6-1.2,3.2-2.4,4.7-3.8c2-1.7,3.9-3.6,5.7-5.5c1.8-2,3.6-4,5.3-6.1c1.8-2.2,3.6-4.4,5.4-6.6
		c1.6-2,3-4,4.4-6.1c1.3-2,2.6-4.1,3.9-6.2c0.4-0.1,0.7-0.3,0.9-0.7c1.3-2.2,2.7-4.3,4-6.4c1.3-2.1,2.5-4.3,3.4-6.6
		c1-2.6,2-5.2,2.7-7.9c0.7-2.8,1.3-5.6,1.8-8.5c0.2-1.3,0.5-2.6,0.7-3.9c0.2-1.4,0.3-2.8,0.4-4.2c0.2-2.7,0.4-5.4,0.6-8.2
		c0,0,0,0,0,0c0,0,0-0.1,0-0.1c0,0,0,0,0,0c0,0,0-0.1,0-0.1c0,0,0,0,0,0c0-0.1,0-0.3,0-0.4c0,0,0,0,0,0c0-0.2,0-0.3,0-0.5
		c0,0,0,0,0,0c0-0.4,0.1-0.8,0.1-1.2c0,0,0,0,0,0c0.1-0.7,0.1-1.3,0.2-2c0.2-2.8,0.3-5.6,0.3-8.4c0-1.4-0.1-2.9-0.1-4.3
		c0-0.7-0.1-1.4-0.2-2.1c0-0.3-0.1-0.6-0.1-1c0-0.3-0.1-0.6-0.3-0.8c-0.1-0.1-0.2-0.1-0.4,0c-0.2,0.1-0.2,0.4-0.3,0.7
		c-0.1,0.3-0.1,0.5-0.2,0.8c-0.1,0.4,0.5,0.5,0.6,0.2c0-0.1,0-0.2,0.1-0.2c0,0.1,0,0.2,0,0.3c0.1,1.9,0,3.7-0.1,5.6
		c0-0.2,0-0.3,0-0.5c0-0.5-0.5-0.8-0.9-0.7c-0.4,0-0.7,0.4-0.7,0.8c0,1.5-0.1,3.1-0.2,4.6c0,0,0,0,0-0.1c0,0,0,0.1,0,0.1
		c0,0,0,0,0,0c0,0,0,0,0,0c-0.1,1.1-0.2,2.1-0.4,3.2c-0.2,1.6-0.3,3.3-0.5,4.9c-0.1,0.8-0.2,1.6-0.3,2.4c0,0.3-0.1,0.5-0.2,0.8
		c0,0,0-0.1,0-0.1c-0.5-2.3-1-4.5-1.8-6.7c-0.7-2.1-1.6-4.2-2.7-6.2c-1.1-1.9-2.2-3.8-3.6-5.5c-1.3-1.6-2.6-3.2-3.9-4.8
		c-1.4-1.9-2.6-4-3.9-6c-1.1-1.6-2.1-3.2-3.5-4.6c-0.3-0.3-0.7-0.7-1.1-1c-0.4-0.5-0.7-1.1-1.1-1.6c-0.7-1-1.4-2-2.1-2.9
		c-0.7-0.9-1.4-1.8-2.2-2.7c-1.2-1.3-2.4-2.5-3.8-3.6c-1.1-0.9-2.1-1.9-3.2-2.8c-0.3-0.3-0.6-0.5-1-0.8c-0.1-0.3-0.3-0.5-0.4-0.8
		c-0.2-0.5-0.4-1-0.6-1.6c-0.2-0.5-0.3-1.1-0.4-1.6c-0.1-0.6-0.2-1.2-0.2-1.8c0-0.5,0-1,0-1.5c0-0.3,0.1-0.6,0.1-0.9
		c0.1-0.3,0.1-0.5,0.2-0.8c0,0,0,0,0,0c0,0,0,0,0,0.1c0,0,0,0,0-0.1c1.1-0.7,2.3-1.4,3.5-2c0.5-0.2,0.9-0.4,1.4-0.5
		c0.3-0.1,0.7-0.2,1-0.3c0.6-0.1,1.2-0.1,1.8-0.2c1,0,1.9,0,2.9-0.1c1,0,2.1,0.1,3.1,0c1.3,0,2.5-0.2,3.8-0.4
		c0.9-0.2,1.7-0.4,2.6-0.5c1-0.2,1.9-0.3,2.9-0.3c0.5,0,1,0,1.5,0c0.9,0.1,1.7,0.2,2.6,0.3c1,0.1,2,0.2,3,0.3c1.5,0.1,3,0.4,4.5,0.7
		c2.3,0.5,4.6,1.1,6.8,1.9c0.8,0.3,1.5,0.6,2.2,0.9c0.8,0.4,1.6,0.9,2.3,1.3c1.9,1.3,3.7,2.8,5.5,4.2c1.8,1.4,3.5,2.9,5.3,4.3
		c2,1.8,4,3.7,5.8,5.7c1.1,1.4,2.2,2.8,3.3,4.2c1.1,1.5,2.2,2.9,3.2,4.5c0.9,1.5,1.8,3,2.6,4.5c0.8,1.5,1.6,2.9,2.3,4.4
		c1,2.1,1.9,4.3,2.8,6.4c1,2.2,2.1,4.4,3.1,6.6c-0.1-0.2-0.1-0.3-0.2-0.5c1.5,3.1,2.9,6.3,4.1,9.6c0,0,0,0,0,0
		c0.1,0.2,0.1,0.4,0.2,0.6c0,0,0-0.1,0-0.1c0.7,2.1,1.2,4.2,1.8,6.3c0.5,1.8,1.1,3.5,1.6,5.3c0.1,0.4,0.1,0.7,0.2,1.1
		c0.2,1.2,0.3,2.3,0.4,3.5C1040.3,356,1040.3,357.5,1040.2,359.1z M372.5,403.9c0.2,0.2,0.3,0.4,0.5,0.6c0.2,0.3,0.4,0.6,0.6,0.9
		c0.1,0.1,0.1,0.2,0.2,0.4c0,0.1,0.1,0.3,0.1,0.4c0,0.2,0,0.3,0.1,0.5c0,0.2,0,0.4,0,0.6c0,0.2,0,0.3,0,0.5c0,0.1-0.1,0.2-0.1,0.3
		c0,0.1-0.1,0.2-0.1,0.3c-0.1,0.1-0.1,0.2-0.2,0.3c-0.1,0.1-0.2,0.2-0.3,0.4c-0.1,0.1-0.2,0.2-0.3,0.3c-0.2,0.1-0.3,0.3-0.5,0.4
		c-0.2,0.1-0.4,0.2-0.6,0.3c-0.2,0.1-0.5,0.2-0.8,0.3c-0.5,0.2-1.1,0.4-1.6,0.5c-0.3,0.1-0.6,0.1-0.9,0.1c-0.2,0-0.4,0-0.7,0
		c-0.3,0-0.6-0.1-0.9-0.1c-0.2-0.1-0.5-0.1-0.7-0.2c-0.1,0-0.1,0-0.2-0.1c0,0,0,0,0,0c-0.2-0.1-0.4-0.2-0.6-0.2
		c-0.1-0.1-0.2-0.1-0.3-0.2c0.5-0.4,1.1-0.8,1.6-1.2C368.8,407.5,370.7,405.7,372.5,403.9z M384.6,340.8c0.2-0.4,0.4-0.8,0.7-1.1
		c0.3,0,0.6,0,0.9,0.1c0.5,0,1,0.1,1.5,0.2c0.6,0.1,1.3,0.3,1.9,0.5c0.9,0.3,1.7,0.6,2.6,1c0.8,0.4,1.5,0.7,2.2,1.2
		c0.3,0.2,0.6,0.4,0.9,0.7c0.1,0.1,0.2,0.2,0.4,0.3c0.1,0.1,0.2,0.2,0.3,0.3c0,0,0.1,0.1,0.1,0.1c0,0.1,0.1,0.1,0.1,0.2
		c0,0,0,0,0,0.1c0,0,0,0,0,0.1c0,0,0,0.1,0,0.1c0,0.1,0,0.2,0,0.3c0,0.1,0,0.1,0,0.2c0,0.1,0,0.1-0.1,0.2c0,0.1-0.1,0.1-0.1,0.2
		c-0.1,0.2-0.3,0.4-0.4,0.6c-0.4,0.5-0.8,0.9-1.2,1.3c-2.2,2.1-4.6,4-7.1,5.8c-1,0.7-2,1.4-3,2.1c-1,0.7-2,1.3-3,1.9
		c-0.1-0.5-0.1-0.9-0.1-1.4c0-1,0-1.9,0-2.9c0.1-1.2,0.3-2.4,0.5-3.7c0.2-0.8,0.4-1.6,0.7-2.4C382.9,344.6,383.7,342.7,384.6,340.8z
		"/>
	<path d="M467.5,626.5c-0.3-0.5-0.9-0.8-1.4-1.1c-0.7-0.3-1.5-0.3-2.3-0.2c-0.6,0.1-1.1,0.4-1.6,0.7c-0.9,0.6-1.6,1.5-2,2.5
		c-0.3,0.6-0.4,1.3-0.4,1.9c0,0.2,0,0.4,0,0.6c0,0,0,0.1,0,0.1c-0.1,1,0.5,1.9,1.2,2.5c0.5,0.4,1.2,0.6,1.8,0.6
		c0.6,0,1.1-0.1,1.6-0.3c0.5-0.2,1.1-0.6,1.5-1c0.4-0.4,0.8-0.8,1.1-1.2c0.7-1,1.3-2.2,1.1-3.4C468.1,627.6,467.8,627.1,467.5,626.5
		z"/>
	<path d="M471.1,616.2c-0.7-0.4-1.6-0.5-2.4-0.2c-0.6,0.2-1.2,0.7-1.6,1.3c0,0.1-0.1,0.2-0.1,0.2c0,0.1-0.1,0.1-0.1,0.1c0,0,0,0,0,0
		c-0.4,0.4-0.6,1-0.6,1.6c0,0,0,0,0,0c0,1,0.6,2,1.6,2.4c0.8,0.3,1.8,0.3,2.6-0.2c0.3-0.2,0.6-0.4,0.8-0.6c0.3-0.3,0.5-0.5,0.7-0.8
		c0.4-0.6,0.5-1.4,0.4-2C472.2,617.3,471.8,616.6,471.1,616.2z"/>
	<path d="M480.6,624.3c-1.3-0.8-2.8-0.9-4.2-0.3c-1,0.4-1.8,1.1-2.3,2c-0.4,0.4-0.7,0.9-1,1.4c-0.3,0.6-0.4,1.3-0.4,1.9
		c0,0.8,0.2,1.6,0.6,2.3c0.8,1.4,2.4,2.3,4,2.3c1.3,0,2.6-0.6,3.5-1.5c0.2-0.2,0.4-0.4,0.6-0.6c0.3-0.3,0.6-0.6,0.8-1
		c0.6-0.9,0.8-2,0.7-3.1C482.6,626.3,481.8,625.1,480.6,624.3z"/>
	<path d="M617.7,732.1C617.7,732.1,617.7,732.1,617.7,732.1C617.6,732.2,617.6,732.2,617.7,732.1
		C617.7,732.1,617.7,732.1,617.7,732.1z"/>
	<path d="M576.2,724.8c0,0-0.1,0.1-0.1,0.1c0,0.1-0.1,0.1-0.1,0.2C576,725,576.1,724.9,576.2,724.8z"/>
	<path d="M322.5,260.6c-0.8-0.4-1.9-0.2-2.5,0.5c-0.6,0.7-1.2,1.5-1.7,2.2c0,0,0,0,0-0.1c-0.1,0.1-0.2,0.3-0.3,0.4
		c0.1-0.1,0.1-0.1,0.2-0.2c-0.5,0.7-1.1,1.4-1.6,2.1c0,0,0,0,0,0c0,0.1-0.1,0.1-0.1,0.2c-0.2,0.3-0.4,0.5-0.6,0.8
		c-0.3,0.4-0.6,0.7-0.9,1c0,0,0,0,0,0c-0.1,0.1-0.2,0.3-0.2,0.5c0,0.1,0,0.3,0.1,0.4c0.3,0.5,1,0.5,1.5,0.3c0.4-0.1,0.8-0.3,1.2-0.4
		c0.7-0.3,1.5-0.7,2.2-1.1c0.8-0.4,1.4-0.9,2.1-1.5c0.8-0.8,1.3-1.7,1.6-2.7C324,262.2,323.4,261,322.5,260.6z"/>
	<path d="M263.8,272.9c-0.7-0.3-1.5-0.4-2.3-0.5c-0.2-0.1-0.5-0.1-0.7-0.2c-0.1-0.1-0.3-0.1-0.4-0.2c-0.2-0.1-0.4-0.2-0.5-0.3
		c-0.2-0.1-0.4-0.3-0.5-0.4c-0.1-0.1-0.3-0.3-0.4-0.4c-0.1-0.2-0.2-0.3-0.3-0.5c-0.2-0.3-0.3-0.7-0.6-0.9c0,0,0,0,0,0
		c0,0,0,0-0.1-0.1c-0.4-0.3-0.9-0.2-1.2,0.3c-0.1,0.2-0.1,0.5-0.1,0.7c0,0.1,0,0.1,0,0.2c0,0.5,0.1,1,0.3,1.4c0.3,0.6,0.6,1.2,1,1.7
		c0.4,0.4,0.8,0.8,1.3,1.1c0.8,0.5,1.6,0.7,2.5,0.9c0.6,0.1,1.2,0.1,1.8,0c0.7,0,1.2-0.6,1.2-1.3
		C264.7,273.6,264.4,273.1,263.8,272.9z"/>
	<path d="M257.9,237.3c0.5-0.4,1-0.7,1.6-1.1c0.6-0.3,1.1-0.7,1.7-1c0.3-0.1,0.6-0.3,1-0.4c-0.1,0.1-0.2,0.1-0.4,0.2
		c0.7-0.3,1.4-0.6,2-0.9c-0.1,0.1-0.3,0.1-0.4,0.2c1.2-0.6,2.6-1,3.7-1.7c1.1-0.6,2.4-1.4,3-2.6c0.4-1.1,0.3-2.4-0.7-3.1
		c-1.3-1-3.1-0.9-4.6-0.4c-0.8,0.2-1.6,0.5-2.4,0.9c-0.7,0.4-1.4,0.8-2,1.2c-1.2,0.7-2.1,1.8-3,2.7c-1.1,1-2.1,2.2-3,3.4
		c-0.3,0.4-0.5,0.9-0.8,1.4c-0.4,0.7-0.8,1.3-1.1,2c-0.2,0.4-0.3,0.9-0.3,1.3c0,0.3,0.1,0.6,0.3,0.9c0.4,0.5,1.1,0.7,1.6,0.4
		c0.1,0,0.1-0.1,0.2-0.1c0.5-0.3,0.9-0.8,1.3-1.2c0.4-0.4,0.8-0.8,1.2-1.1C257.2,237.9,257.5,237.6,257.9,237.3z"/>
	<path d="M296.8,223.9C296.8,223.9,296.8,224,296.8,223.9c0.6-0.5,1.1-1.1,1.7-1.6c0.5-0.5,1.1-0.9,1.6-1.4c0.4-0.3,0.7-0.6,1.1-0.8
		c0.4-0.2,0.8-0.5,1.1-0.7c0.8-0.4,1.5-0.8,2.3-1.1c0.7-0.3,1.3-0.6,2-0.8c0.5-0.1,1-0.3,1.5-0.4c1.3-0.4,2.7-0.8,4.1-1
		c0.3,0,0.6-0.1,1-0.1c0.1,0,0.3,0,0.4,0c1,0,2-0.2,2.8-0.8c1-0.8,1.7-1.9,1.7-3.2c0.1-1.2-0.5-2.6-1.5-3.3c-0.6-0.5-1.2-0.8-2-0.9
		c-0.8-0.1-1.5-0.1-2.3,0.2c-0.5,0.2-0.9,0.5-1.3,0.8c-0.5,0.4-1.1,0.8-1.7,1.1c-0.6,0.3-1.2,0.7-1.7,1.1c-0.5,0.3-1,0.7-1.5,1.1
		c-0.6,0.4-1.1,0.9-1.7,1.4c-0.4,0.4-0.8,0.7-1.2,1.1c-2.1,1.8-4,3.8-5.6,6c-0.4,0.6-0.8,1.1-1.2,1.7c-0.3,0.4-0.7,1-0.7,1.6
		c0,0,0,0.1,0,0.1C295.9,224,296.5,224.2,296.8,223.9z"/>
	<path d="M541.1,117.4c0.1,0.9,0.1,1.9,0.3,2.8c0.3,1.5,0.7,3,1.3,4.4c0.4,1,0.9,1.9,1.4,2.9c2.1,3.8,5.5,6.9,9.7,8.1
		c2.7,0.8,5.6,1,8.4,0.4c2.2-0.5,4.5-1.5,6.3-3c0.9-0.8,1.9-1.6,2.6-2.6c0.2,0.4,0.3,0.7,0.5,1.1c0.4,0.8,0.7,1.7,1.3,2.4
		c1,1.3,2.5,2,4.2,2c1.4,0,2.8-0.6,3.8-1.6c1.5-1.5,1.9-3.9,1.1-5.8c-0.2-0.5-0.4-1.1-0.7-1.6c-0.3-0.8-0.7-1.6-1-2.4
		c-0.7-1.5-1.4-3.1-2.1-4.6c-0.7-1.5-1.4-3-2.1-4.5c-0.7-1.3-1.3-2.8-2.5-3.7c-0.3-0.2-0.6-0.4-0.9-0.6c-0.4-0.2-0.9-0.4-1.4-0.5
		c-0.3-0.1-0.6-0.1-1-0.2c-0.1-0.2-0.2-0.3-0.2-0.5c-0.5-0.9-1-1.9-2.1-2.2c0,0,0,0,0,0c-0.3-0.1-0.6-0.1-0.9,0
		c-0.7,0.1-1.1,0.6-1.4,1.2c-0.7,0.3-1.3,1-1.5,1.8c-0.1,0.5-0.2,1-0.2,1.5c0,1.1,0.3,2.2,0.6,3.2c0.1,0.4,0.3,0.8,0.4,1.2
		c0,0.3,0.1,0.6,0.2,0.8c0.2,0.6,0.4,1.2,0.7,1.8c0,0-0.1,0.1-0.1,0.1c-1,1.5-2,3-3.1,4.4c-0.2,0.2-0.4,0.5-0.7,0.7
		c-0.2,0.2-0.4,0.3-0.6,0.5c-0.1,0.1-0.2,0.1-0.3,0.2c-0.2,0.1-0.3,0.1-0.5,0.2c-0.3,0.1-0.6,0.2-0.8,0.2c-0.2,0-0.3,0-0.5,0.1
		c-0.2,0-0.4,0-0.6,0c-0.4,0-0.7-0.1-1.1-0.1c-0.2-0.1-0.4-0.1-0.7-0.2c-0.3-0.1-0.6-0.2-1-0.4c-0.1-0.1-0.3-0.1-0.4-0.2
		c-0.2-0.1-0.4-0.3-0.5-0.4c-0.2-0.2-0.4-0.4-0.7-0.6c-0.2-0.3-0.5-0.6-0.7-0.9c-0.4-0.7-0.9-1.4-1.3-2.1c-0.2-0.5-0.4-1-0.6-1.5
		c-0.1-0.3-0.2-0.6-0.2-0.9c-0.3-1.5-0.4-3.1-0.6-4.7c-0.1-1-0.1-2-0.1-3c0-1.1,0-2.1,0.1-3.2c0.1-1.2,0.3-2.4,0.5-3.6
		c0.2-0.9,0.4-1.7,0.6-2.6c0.2-0.7,0.4-1.4,0.7-2.2c0.4-1,0.8-1.9,1.3-2.9c0.2-0.4,0.4-0.8,0.7-1.2c0.2-0.3,0.4-0.5,0.6-0.8
		c0.3-0.3,0.5-0.5,0.8-0.8c0.5-0.4,0.9-0.8,1.5-1.2c0.4-0.2,0.7-0.4,1.1-0.6c0.2-0.1,0.4-0.2,0.6-0.3c0.2,0,0.3-0.1,0.5-0.1
		c0.3,0,0.5-0.1,0.8-0.1c0.5,0,0.9,0,1.4,0c1.7,0.2,3.6,0.3,5-0.7c0.8-0.3,1.4-1,1.4-1.9c0-0.7-0.3-1.3-0.9-1.7
		c-0.7-1-1.5-1.8-2.5-2.4c-1.9-1.1-4.1-1.6-6.3-1.4c-2.9,0.2-5.6,1.5-7.9,3.2c-1.7,1.2-3.2,2.7-4.3,4.5c-0.8,1.3-1.5,2.7-2.2,4.2
		c-1,2.2-1.7,4.5-2.2,6.9c-0.5,2-0.7,4.1-0.9,6.2c-0.1,1.2-0.1,2.3-0.1,3.5c0,0.9,0,1.8,0,2.7C540.9,115.3,541,116.3,541.1,117.4z"
		/>
	<path d="M580.9,97c0.3,1.5,0.6,3,0.9,4.4c0.7,2.8,1.4,5.6,2.2,8.4c0.8,2.7,1.5,5.3,2.3,8c0.4,1.2,0.7,2.5,1.1,3.7
		c0.2,0.6,0.4,1.2,0.6,1.8c0.5,1.6,1.6,3.2,3.3,3.8c1.2,0.4,2.5,0.5,3.7,0c1.1-0.5,2.1-1.4,2.5-2.6c0.5-1.1,0.6-2.4,0.2-3.6
		c-0.2-0.6-0.4-1.1-0.7-1.6c-0.3-0.7-0.7-1.4-1-2.1c0,0,0-0.1-0.1-0.1c1.1-0.1,2.2-0.2,3.3-0.4c2.9-0.4,5.7-0.8,8.5-1.3
		c2.9-0.5,5.7-1,8.5-1.5c1.3-0.2,2.6-0.5,3.9-0.8c1.3-0.3,2.7-0.5,3.9-1c2.5-1,3.8-3.9,3.1-6.5c-0.7-2.5-3.3-4.3-6-3.9
		c-0.5,0.1-1.1,0.2-1.6,0.4c-0.4,0.1-0.9,0.2-1.3,0.3c-4.3,0.9-8.6,1.7-12.9,2.4c-0.5,0.1-1,0.2-1.5,0.2c0.7-0.9,1.4-1.8,2.1-2.8
		c0.5-0.6,0.9-1.3,1.4-2c0.6-0.8,1.1-1.7,1.6-2.6c0.6-1.1,1.2-2.3,1.4-3.6c0.2-1,0.4-2,0.4-3c-0.1-1-0.2-1.9-0.4-2.8
		c-0.2-0.8-0.6-1.6-1.1-2.4c-1-1.5-2.4-2.8-4.1-3.6c-1.4-0.6-2.8-0.9-4.3-1c-3.4-0.2-6.6,0.7-9.8,1.7c-1.5,0.4-2.9,0.9-4.3,1.5
		c-1.5,0.7-3.3,1.3-4.2,2.8c0,0,0,0.1-0.1,0.1c-0.6,0.2-1.2,0.6-1.5,1.1c-0.4,0.7-0.6,1.4-0.7,2.1c0,0.5-0.1,1-0.1,1.6
		c0,0.1,0,0.3,0,0.4C580.4,94.2,580.6,95.6,580.9,97z M587.6,91.4c1-0.1,2.1-0.3,3.1-0.4c2-0.3,4-0.5,6-0.7c0.6,0,1.1,0,1.7,0
		c0.4,0,0.8,0.1,1.2,0.1c0.3,0.1,0.5,0.1,0.8,0.2c0.1,0,0.2,0.1,0.3,0.1c0,0,0.1,0,0.1,0.1c0,0,0,0,0,0c0,0,0,0,0,0c0,0,0,0.1,0,0.1
		c0,0,0,0.1,0,0.1c0,0.2-0.1,0.3-0.1,0.5c-0.1,0.2-0.2,0.5-0.3,0.7c-0.3,0.5-0.6,1-0.9,1.4c-1.8,2.5-3.7,4.9-5.7,7.3
		c-1,1.1-1.9,2.2-3,3.2c-0.1-0.4-0.3-0.7-0.4-1.1c-0.8-2.4-1.7-4.8-2.4-7.2c-0.4-1.3-0.8-2.5-1.2-3.8c-0.1-0.2-0.1-0.4-0.2-0.7
		C587,91.4,587.3,91.4,587.6,91.4z"/>
	<path d="M622.6,72.8c0,0.1,0,0.1,0,0.2c0,1,0.1,1.9,0.3,2.9c0.3,1.8,0.7,3.5,1.1,5.2c0.9,3.2,1.8,6.3,2.8,9.4c1,3,2,5.9,3,8.9
		c2,5.8,4.3,11.4,6.3,17.2c0.7,2,1.3,3.9,1.9,5.9c0.3,1,0.6,2,0.9,3c0.4,1.3,0.6,2.7,1.2,3.8c1.1,1.9,3.5,2.8,5.6,2.2c0,0,0,0,0.1,0
		c1.2-0.3,2.3-1.2,2.9-2.3c0.6-1,0.7-2,0.6-3.1c0-0.1,0-0.1,0-0.2c-0.1-1-0.5-1.8-1.2-2.5c-1.1-2.5-2.1-5.2-3.1-7.7
		c-1.1-2.6-2.2-5.1-3.3-7.6c0.2,0,0.3,0,0.5-0.1c1.8-0.3,3.7-0.7,5.5-1.1c6.1-1.3,12.3-2.3,18.4-3.2c3.1-0.5,6.2-0.9,9.3-1.6
		c1.6-0.4,3.3-0.8,4.6-1.8c2-1.5,2.7-4.3,1.7-6.5c-0.8-1.9-3-3.4-5.1-3.3c-1,0.1-2,0.3-2.9,0.8c-0.7,0.2-1.4,0.4-2.2,0.5
		c-5.1,1-10.3,1.6-15.4,2.5c-2,0.4-4.1,0.7-6.1,1.1c2.3-2.8,4.4-5.7,6.1-8.9c1.3-2.6,2.3-5.4,2.6-8.3c0.2-2.3,0-4.8-1.3-6.8
		c-1-1.6-2.2-2.8-3.9-3.5c-2-0.9-4.1-1.2-6.3-1.3c-1.5-0.1-3.1-0.1-4.6,0c-3.3,0.2-6.5,0.5-9.7,1c-1.5,0.2-3,0.4-4.5,0.7
		c-0.8,0.1-1.6,0.3-2.4,0.4c-0.9,0.2-1.8,0.3-2.6,0.7c-0.9,0.4-1.3,1.1-1.3,2c0,0.4,0.1,0.9,0.4,1.2
		C622.6,72.6,622.6,72.7,622.6,72.8z M628.9,74.5c1.5,0.1,3.1,0,4.6,0c3.2-0.1,6.3-0.1,9.5,0.1c1,0.1,2.1,0.2,3.1,0.4
		c0.6,0.1,1.2,0.3,1.8,0.4c0.4,0.1,0.7,0.3,1,0.4c0,0,0.1,0,0.1,0.1c0,0,0,0,0,0c0,0.1,0,0.1,0,0.2c0,0.2,0,0.3,0,0.5
		c0,0.3-0.1,0.7-0.1,1c-0.1,0.5-0.2,0.9-0.4,1.3c-0.3,0.8-0.7,1.6-1,2.4c-0.5,0.9-1,1.7-1.5,2.6c-0.7,1-1.4,2.1-2.2,3
		c-0.8,0.9-1.6,1.9-2.4,2.8c-1.2,1.3-2.4,2.7-3.5,4c-0.5,0.6-1.1,1.2-1.6,1.8c-0.9-2.1-1.7-4.1-2.6-6.2c-1.2-2.9-2.3-5.8-3.4-8.7
		c-0.6-1.5-1.1-3-1.6-4.4c-0.2-0.6-0.5-1.2-0.7-1.8C628.3,74.4,628.6,74.4,628.9,74.5z"/>
	<path d="M676.5,59.2c0.1,0.3,0.1,0.7,0.2,1c0.3,1.3,0.7,2.5,1,3.8c1.3,4.5,2.6,9,4.1,13.4c-0.8,0.9-1.4,1.8-1.7,3
		c-0.6,2.5,0.5,5.1,2.7,6.4c0.8,0.5,1.6,0.7,2.5,0.9c0.4,1.2,0.8,2.3,1.3,3.5c1.1,2.8,2.3,5.7,3.3,8.5c0.3,0.8,0.5,1.5,0.7,2.3
		c0.4,1.8,2.2,3.4,4.1,3.5c0,0,0,0,0,0c1.5,0.1,3-0.3,4.1-1.4c1-1.1,1.6-2.6,1.3-4.1c0-0.1,0-0.1,0-0.2c-0.2-1.2-0.8-2.3-1.7-3.1
		c-1.5-2.4-2.8-4.8-4.1-7.3c-0.3-0.6-0.6-1.1-0.8-1.7c1.3-0.1,2.7-0.2,4-0.3c3-0.3,6-0.6,9.1-0.8c2.3-0.2,4.5-0.3,6.8-0.4
		c1.1-0.1,2.1-0.1,3.2-0.2c0.5,0,1.1,0,1.7-0.1c1.5-0.2,2.9-0.9,3.7-2.2c0.8-1.2,1.2-2.5,1-4c-0.2-1.4-1-2.6-2.1-3.5
		c-1-0.8-2.4-1.2-3.6-1.1c-0.4,0-0.8,0.1-1.3,0.1c-1,0.1-2,0.1-3,0.2c-2.4,0.1-4.9,0.3-7.3,0.4c-2.3,0.2-4.7,0.4-7,0.6
		c3.6-3.3,6.9-7.1,8.6-11.7c0.5-1.2,0.8-2.5,0.9-3.8c0.1-1,0.1-2.1-0.1-3.1c-0.2-1.1-0.5-2-1-3c-0.5-1-1.1-1.8-1.9-2.6
		c-2.3-2.3-5.6-2.8-8.7-2.9c-1.6-0.1-3.3,0-5,0.2c-1.8,0.2-3.5,0.6-5.3,1c-1.5,0.4-3.1,0.8-4.5,1.4c-1.3,0.5-2.5,1-3.5,1.9
		c-0.5,0.4-1,1.1-1.1,1.7c0,0.1,0,0.2,0,0.4c-0.3,0.2-0.5,0.4-0.6,0.8c-0.1,0.3-0.1,0.5-0.1,0.8c0,0.2,0,0.4,0,0.6
		C676.3,58.6,676.4,58.9,676.5,59.2z M682.4,58.3c0.8-0.1,1.7-0.3,2.5-0.4c1.4-0.2,2.7-0.3,4.1-0.5c0.8,0,1.7-0.1,2.5-0.1
		c0.7,0,1.5,0,2.2,0.1c0.8,0.1,1.6,0.2,2.4,0.3c0.4,0.1,0.9,0.2,1.3,0.3c0.2,0.1,0.4,0.2,0.6,0.3c0.1,0,0.1,0.1,0.2,0.1
		c0,0,0.1,0,0.1,0.1c0,0,0,0,0,0c0,0,0,0,0,0.1c0,0,0,0.1,0.1,0.1c0,0,0,0,0,0c0,0.1,0,0.1,0.1,0.2c0,0,0,0,0,0.1c0,0.2,0,0.4,0,0.6
		c0,0.1,0,0.3-0.1,0.4c-0.1,0.3-0.1,0.6-0.2,0.9c-0.1,0.3-0.3,0.7-0.4,1c-0.3,0.6-0.6,1.1-0.9,1.6c-0.5,0.7-1,1.4-1.5,2
		c-0.5,0.5-0.9,1.1-1.5,1.6c-0.5,0.5-1,1-1.6,1.5c-0.2,0.2-0.5,0.4-0.7,0.6c-1.5,1.3-3.2,2.6-4.8,3.9c0,0,0-0.1-0.1-0.1
		c-1.1-2.6-2.1-5.3-3.2-7.8c-0.6-1.5-1.3-3-2-4.4c-0.3-0.7-0.6-1.4-1-2.1C681.3,58.5,681.9,58.4,682.4,58.3z"/>
	<path d="M734,78.8c3,0,5.4-2.5,5.4-5.5c0-3-2.5-5.4-5.5-5.4c-3,0-5.4,2.5-5.4,5.5C728.6,76.4,731.1,78.8,734,78.8z"/>
	<path d="M756.6,70.7c3,0,5.4-2.5,5.4-5.5c0-3-2.5-5.4-5.5-5.4c-3,0-5.4,2.5-5.4,5.5C751.2,68.3,753.7,70.8,756.6,70.7z"/>
	<path d="M635,755.6c-0.1,0.1-0.1,0.2-0.2,0.3c0,0.1-0.1,0.1-0.1,0.2C634.9,755.9,635,755.7,635,755.6z"/>
</g>
</svg>
