<svg version="1.1" id="work"
	xmlns="http://www.w3.org/2000/svg"
	xmlns:xlink="http://www.w3.org/1999/xlink" x="0px" y="0px" viewBox="0 0 650.7 212.8" style="enable-background:new 0 0 650.7 212.8;" xml:space="preserve">
	<g class="title-group">
		<path d="M70.2,171.8c-10.2-2.9-9.1-26.3-12.5-35.5c-2.4-11.8-5.3-23.4-7.9-35.1c-7.2-25.5,6-25.3,5-11.3c1.1,4,2.3,7.9,3.6,11.8
		c-0.1-0.4-0.3-0.8-0.4-1.2c4.7,13,7.7,26.5,11.8,39.7C71.1,147.7,81.7,169.2,70.2,171.8z"/>


		<path d="M104,176.2c-6.1-3.1-7-10.7-9.1-16.6c-3.1-10-6.4-20-8.9-30.3c-1.2-9.1-19.4-62-9.8-63.7c6.6,2.4,3.7,11,6,16.3
		c4.9,16.9,10.6,33.5,15.9,50.3c0-0.1,0-0.1-0.1-0.2c3.7,10.1,8.5,19.9,11.7,30.2C110.9,166.8,111.1,177.8,104,176.2z"/>
		<path d="M31,149.1c-2.8-0.8-4.4-7.4-1.5-8.8c0,0,0,0,0,0c14.7-5.9,30-9.7,44.8-15.2c4.2-1.6,8.3-3.5,11.9-6.3
		c1.7-1.4,3.9-2.9,6.1-1.8c4.9,2.7,6.5,9.2,6.4,14.5c0,0,0,0,0,0c0.4,10.5-12.1,11-19.8,12.6C63,147,46.9,147.5,31,149.1z"/>
		<path d="M126.6,179.8c-3.4-5-3-11.3-4.4-17c0.1,0.3,0.1,0.7,0.2,1c-2.5-16.2-8.9-31.8-10.2-48.1c2.1-6.6,6.9,10.2,8,11.9
		c3.7,9.9,7,19.9,10.4,29.8c1.9,5.6,5.4,10.9,5.5,17C137,181.3,131.5,187.7,126.6,179.8z"/>


		<path d="M103.4,105.6c-7.8,0.5-12.2-13.3-4-15.8c4.1-1.8,8.5-3,12.4-5.2c2.3-1.9,5.5-1.2,7.2,1.2c3.6,4.9,5.9,13.9,1,18.5
		c-0.7,0.6-1.7,0.7-2.6,0.7C112.8,104.8,108.1,106.1,103.4,105.6z"/>

		<path d="M146.3,146.8c-5.6-6.9-6.6-16.5-9.4-24.7c-3.3-11.9-4.9-24.2-4.8-36.6c1.5-19.3,3.3-39.9,11.7-57.4
		c6.2-4.7,10.9,5.9,11.8,10.8c1.3,5.3,0.9,11.2-3,15.3c-2.1,4.3-3.1,8.9-4.1,13.5c-2.8,14.7-5.7,29.8-2.8,44.7
		c1.3,7,3,13.8,4.8,20.7c1.5,2.5,2.2,5.5,2.1,8.4C152.8,144.7,149.8,150.3,146.3,146.8z"/>

		<path d="M160.4,181.9c-7.8-2-10.5-13.2-8-20.1c0.4-4.9,1.7-13.2,8.7-11.2C171.1,155.4,172.9,179.8,160.4,181.9z"/>

		<path d="M232.6,181.1c-6.4-9.2-5.3-21.5-8.3-32c-5.5-25.4-8.7-51.2-11-77.1c-0.1-4.8-0.5-9.9,0.9-14.6c1.6-4.4,5.8-0.5,6.3,2.5
		c1.8,12,3.9,24,6.1,35.9c0-0.1,0-0.3-0.1-0.4c0.6,3.1,1.1,6.3,1.6,9.5c0-0.1,0-0.2,0-0.3c2.4,15,6.4,29.8,9.6,44.6
		c1.4,9.8,6.6,19.7,4.6,29.7C241.4,184.5,235.8,185.8,232.6,181.1z"/>

		<path d="M199.1,70.4c-1.8-0.8-2.6-2.9-3-4.6c-1.8-5.8,4.7-8.9,8.7-11.6c8.6-5.4,17.9-9.8,26.9-14.4c8.8-5.7,12.9,11.3,11,17.5
		c-0.5,2.8-2.7,4.9-5.7,4.3c-3.3,0.1-6.6,1-9.8,1.7C217.8,65.3,208.8,70.8,199.1,70.4z"/>
		<path d="M253.3,190.3c-10.7-1.5-22.2,0.3-32.9-2.3c-4.2-1.3-6.6-8.8-3.2-11.8c0,0,0-0.1-0.1-0.1c9.3-4.7,20.3-4.6,29.9-9
		c1.6-1.1,3.1-2.9,5.3-1.9C259.9,167.6,264.7,192.3,253.3,190.3z"/>

		<path d="M315.4,153.4c-11.8-5-8.3-21.6-11.3-32c-2.3-14.4-10-28.7-25.3-16.3c-1.1,11-16.8-4.4,2.7-19.1c18-15,31,15.3,34.4,29.5
		C316.7,123.6,327.1,151.8,315.4,153.4z"/>
		<path d="M300,139.3c-8.3,0.9-16.2,4.8-22.8,9.8c10.3,1.2,20.4-3.6,28.9-8.9C304.1,139.4,302,139.2,300,139.3z M285.1,174.2
		c-19.8,1-34.3-29.9-16.5-41.6c12.8-7.3,34.1-11.5,42.5,4c11.2-10.9,17.9,11.1,13.2,19.2C317.3,167.6,298.4,173.7,285.1,174.2z"/>
		<path d="M341.8,159.4c-7.8-1.6-11.8-22.8-14.4-29.9c0.1,0.4,0.2,0.7,0.3,1.1c-2.8-11.1-6.7-22.4-6-34c2.3-10.9,9.8,1.9,7.3,7.2
		c2.9,11.4,7.6,22.5,13.3,32.8C346.3,141.8,351.1,157.6,341.8,159.4z"/>
		<path d="M365.5,159.2c-8.9-8.9-4.6-22.2-6.3-33.4c0.1,0.7,0.1,1.4,0.2,2.2c-0.9-9.2-1.2-18.5-2.6-27.7
		c-11.1,4.9-11.3,18.9-12.9,29.2c-0.6,3.8,1.6,7.5,1.5,11.2c1,13.3-9.1,15-13.7,2.8c0.2,0.5,0.5,1,0.7,1.5c-0.3-0.8-0.7-1.5-1-2.3
		c0.1,0.2,0.1,0.3,0.2,0.5c-6-16,0.4-50.1,12.3-62.5c16.5-18.2,25.7,8.2,27.3,22.3C371.3,110.2,383,172.2,365.5,159.2z"/>
		<path d="M409.2,158.3c-9.3-5.4-9.4-21-10.7-30.7c-1.5-6.8,2.3-25.1-3-28.7c-9.5-4-20.2,2.9-23.7,11.8c2.7,9.3-4.2,7.1-5-0.3
		c-0.8-13.3,18.8-35.6,32.5-26.5c12.6,10.4,10.7,29,12.1,43.7c-0.1,9,6.4,17.1,4,26.1C414.6,156.4,412.3,159.6,409.2,158.3z"/>
		<path d="M494.8,174.7c-14.2-0.6-27-35.6-10.1-29.6c2.6,0.9,4.3,8.8,0.4,8.6c-1.1-0.3-2.1-0.7-3.2-0.7c5.8,14.4,25.2,5.3,32.5-3.2
		c-17.8-11.5-38.1-22.1-47.2-42.3c-18.8-39,3.4-77.8,40.1-95.3c9.7-4.8,21.8-7.6,27.8,4c8.2,13.5,5.5,30,0.1,43.9
		c-2.5,7.7-5.9,15.1-8,22.9c0.9,7.9-4.1,17.5-10.8,7.6c-11.7-17.5,1.4-37.1,6.6-54.5c-20.7,6.5-40.4,22.7-47.5,43.6
		c-4.6,21.3,18.5,33,33,43.4c14.7,7.7,29.9,30.6,13.3,43.8C514.5,173,504.4,176.7,494.8,174.7z"/>
		<path d="M540.6,188.5c-7.1-7.5-5.5-18.8-6-28.3c0,0.5,0,1.1,0,1.6c0.1-14.6,2.3-29.2,5.5-43.5c0.6-3.9,2.1-16,7.5-8.6
		c4.3,7,1.4,15.6,0.7,23.2c-1.3,9.8-2.3,19.7-2.2,29.6c-0.6,6.8,3.5,12.7,3.1,19.4C549.7,186.7,545.2,193.3,540.6,188.5z"/>
		<path d="M538.2,88.5C538.2,88.5,538.2,88.5,538.2,88.5c-6.4-5.6,0.2-11.5,5.5-14.4c4.4-2.6,8-6.2,12.2-9c7.3-1.6,9.5,10.2,8.9,15.6
		c-0.2,3.2-2.4,6-5.9,5.5C552,87.1,545,89.9,538.2,88.5z"/>

		<path d="M564.8,171.3c-5.5-5-2.5-14.2-2.6-20.8c2.3-26.2,5.7-52.8,16.8-76.9c8.8-20.6,22.9-39.7,24.9-62.3c3.2-7.9,10.8-1.6,12.4,4
		c4.4,9.2-0.4,18.4-3.8,27c-9.4,22.2-24.3,41.8-31.8,64.8c-4.6,14.1-6.9,28.8-9.4,43.4c-1.5,4.9-1.6,18.6-5.7,20.9c0,0,0,0,0,0
		C565.3,171.4,565.1,171.4,564.8,171.3z"/>









	</g>
</svg>
