<svg version="1.1" id="work"
	xmlns="http://www.w3.org/2000/svg"
	xmlns:xlink="http://www.w3.org/1999/xlink" x="0px" y="0px" viewBox="0 0 650.7 121.5" style="enable-background:new 0 0 650.7 121.5;" xml:space="preserve">
	<g class="title-group">
		<path d="M29.5,110.4c-11.9-16.2-16-36.5-21.3-55.5c-0.9-2.9,2-6.3,4.9-4.4c3.4,4.5,4.6,10.7,7.1,15.8
	c4.4,12,11.4,22.8,15.6,34.8c0.7,2.2,1.1,4.5,1.4,6.7C37.7,112,31.5,114.2,29.5,110.4z"/>
		<path d="M31.2,107.7c-1.7-5.3,2.2-11,2.8-16.4c4-14.9,6.1-30.6,12.5-44.6c1.9-4.8,6.5-10,10.9-4.2
	c2.3,6.2-6.4,26.2-9.1,32.9c-4,9.2-7.1,18.7-11,27.9C36,106,34.9,111.6,31.2,107.7z"/>
		<path d="M74.7,116C64,103.3,59.4,89.7,56.2,73.6c-2.1-11.2-7.3-22.3-6.9-33.7c0.2-1.7,1.9-3,3.6-2.7
	c3.8,0.6,2.4,5.1,3.7,7.7c3.4,9.3,8.3,18,11.9,27.3c3.6,8.9,6,18.2,9.9,27c1.8,4.1,3.4,8.3,4.7,12.7C84.6,116.6,77.8,120.1,74.7,116
	z"/>
		<path d="M76.5,113.9c-1.9-2.7-0.6-6.6-0.9-9.7c0.6-7.5,2.4-14.8,3.4-22.2c2.6-16,3.9-32.4,10.4-47.5
	c0.7-1.7,1.5-3.4,2.1-5.1c2.4-6,11.9-3.4,10.9,3c-0.4,12.4-5.7,23.8-9.1,35.6c-3.3,12.2-8.2,23.9-10.8,36.4c-1,3-0.1,6.5-1.4,9.3
	C80.2,115.1,77.8,115.3,76.5,113.9z"/>
		<path d="M118.8,106.8c-20.1-7.1-26.5-27.5-11.3-43.2c-2.6-8.1,5.9-11.6,11.9-14.2c13.5-7.4,33.2-5.8,42,7.9
	C173.7,80.4,144.2,116.6,118.8,106.8z M127,94.7c18-2.5,34.6-37.5,3.9-30c0.2,0,0.4-0.1,0.6-0.1c-5.7,0.9-10.7,5.6-16.6,5.1
	C105.2,81.4,113,93.9,127,94.7z"/>
		<path d="M179.8,104.7c-5-1.4-5.6-6.9-5.5-11.3c-0.6-7.2-1.5-14.5-2.5-21.7c0.2-5.4-6.8-31.3,0.7-31.1
	c2.6,0,2.7,2.6,3,4.5c1,5,2.5,10,3.9,14.9c2.4,8.5,5.3,17,7.2,25.7C188.6,92.7,191.3,106.6,179.8,104.7z"/>
		<path d="M177.4,86.1c-5-0.5-7-7.5-2.8-10.4c2.2-1.7,5.2-0.7,7.7-1.9c4.2-1.2,7.6-3.9,10.9-6.6l0,0
	c23.9-20.5,0.4-25.1-19.1-23c-8.5,2.2-6.9-6.4-0.2-5.2c11.1-1.5,26.4-3.8,35.5,4.1c8,8.5,1.5,21-5.6,27.8
	C196.5,77.7,187.7,85,177.4,86.1z"/>
		<path d="M234.4,93.7c-19.2-0.7-37.6-7.3-56.4-9.2c-2.5-1.1-2.8-4.7-0.5-6.2c6.2-2.6,13.5-0.2,20.1-0.2
	c13,1.1,26.2,0,39.2,1.4C248.3,81.3,246,95.3,234.4,93.7z"/>
		<path d="M250.5,82.8c-2.6-6.4-1.4-13.7-2.6-20.4c-0.8-10.1-1.5-20.2-2.8-30.2c-0.9-8-3.4-16-3.4-24
	c1.1-4.1,7.4-4.1,8.4,0.1c0.5,6,2.2,11.9,3.4,17.8c4.5,15.8,5.5,32.3,10.9,47.8C269.7,83.7,256.6,92.3,250.5,82.8z"/>
		<path d="M247.1,76.8c-4.5-2.6-5.7-9-2.3-13l0,0c8.7-7,15.8-15.7,23-24.3c4.6-4.6,7.1-12,13.2-14.8
	c2.2-0.6,4.6,1.5,4,3.8v0c-3.5,15.6-15.8,27.3-24.3,40.3C261.1,75.7,252.8,80.5,247.1,76.8z"/>
		<path d="M296.1,84c-9.6-7.6-21.9-9.2-33.3-12.6c-4.2-1.6-12.2-1.4-11.6-7.7c1.5-8,14.8-1.9,20.3-2
	c11.9,2.2,25.5,1.6,35.2,9.9C314.9,79.5,305,90.6,296.1,84z"/>
	</g>
</svg>
