<svg version="1.1" id="work"
	xmlns="http://www.w3.org/2000/svg"
	xmlns:xlink="http://www.w3.org/1999/xlink" x="0px" y="0px" viewBox="0 0 650.7 121.5" style="enable-background:new 0 0 650.7 121.5;" xml:space="preserve">

	<g class="title-group">

		<path d="M32,106.6c-45.4-13.5,5.9-123.2,36.2-75.9c1.1,6.4-7.2,11.1-12.1,6.8c-3.1-3.9-6.4-3.5-9.3,0.4C38,50,30,67.6,35.6,82.3
	c7.5,7.9,17.6-5.8,24.8-9c7.5-5.9,19.3,1,17.7,10.5c-1,6.8-8.1,9.9-12.7,14.1C56.4,105.7,43.9,111.4,32,106.6z"/>
		<path d="M92.5,100.9C77,99.1,75.3,79.4,80.1,67.6c-8.2-10.4,13.9-13.7,20.4-16C135.5,49.4,122.2,106.3,92.5,100.9z M94.3,87.1
	c17.9-1.7,23.3-34.5-4.2-19.9C87.7,73.1,86.3,85.6,94.3,87.1z"/>
		<path d="M126.2,91.2c-4.5-7.7-4.3-17-6-25.6c-1.7-8.6-1.4-26.4,11.7-22.1c8.9,4.3,1.9,14.9,5.8,22.3c1.9,7.4,5.5,14.6,4.3,22.4
	C141.2,96.1,129.9,98.2,126.2,91.2z"/>
		<path d="M156.7,101.2c-1.1-5.2,0.3-10.5,1.3-15.7c0,0.1,0,0.2-0.1,0.3c1.9-10.5,5.1-21.4,4.2-32.1c-13.1,5.2-21.3,17.6-25.4,30.2
	c-2.3,2.3-6.2,2.2-8.4-0.1c-5.1-8.6,4.3-19.1,9.3-25.8C155.8,36,180,33.1,175.1,68.7c-2.4,9.6,1.7,37.2-11.2,38.1
	C160.7,106.7,157.4,104.4,156.7,101.2z"/>
		<path d="M189.5,98.9c-11.5-5.4-12-19.8-11.1-30.9c0,0.4-0.1,0.7-0.1,1.1c0.9-9.2,8-49.5,17.8-50.5c4.5-0.6,8.6,3.5,7.9,8
	c-5.3,16.4-13.1,34.6-7.9,52c6.9-4.5,10.5-14.3,19-15.9c5.7-0.8,11.3,3.5,11.9,9.2C225.8,86.2,204.6,106.1,189.5,98.9z"/>
		<path d="M176.4,45.8c0.1,0,0.2,0.1,0.3,0.1c-3.6-0.7-5.3-5.3-3-8.1c5.9-4.6,14.9-2.3,22-3.4c12.3,0.6,26.8-3.8,38,1.9
	c4.5,4.4,1,12.7-5.3,12.5c-5.1-0.1-10.2-0.3-15.4-0.6C200.8,47.1,188.4,46.1,176.4,45.8z"/>
		<path d="M235.1,105.5c-32.2-12.3-4.6-56.2,20.7-58.9c21.7-4.8,17,18.5,7.6,8.7c-18.2-1-36.8,39.2-17.5,28.3
	c7.2-4.3,13.3-18.4,23.1-11.2c8,6.6-0.4,15.2-4.9,21.1C257.6,102.5,246.2,108.6,235.1,105.5z"/>
		<path d="M263.1,101.4c-3.7-4.6-3.6-10.7-3-16.2c0,0.1,0,0.1,0,0.2c1.5-6.3-0.3-30.3,8.9-29c2.1,0.7,2.4,2.9,1.8,4.7
	c-0.2,6.9,0.6,13.9,1.9,20.6c0.8,4.5,3.2,8.6,4.4,13C279.5,102.7,267.9,108.3,263.1,101.4z"/>
		<path d="M299,110.1c-19.1-3.2-17.3-25.8-12.4-39.9c2.9-14.2,17.8-27.1,31.7-17.3c5.5,1.9,4.1,9.9-1.8,7.5
	c-15-9.8-18.6,13.6-17.7,24.1c-0.7,15.4,20.6-4.3,26.7-6.9c4.2-2.6,10.2-1.2,13,2.8C349.7,94.4,310.2,113.7,299,110.1z"/>
		<path d="M350.4,105.3c-19.9-3.3-21.3-26.2-15.2-41.7c4.1-14.1,7.9-28.4,12.4-42.4c0,0.1-0.1,0.2-0.1,0.3c1.3-4.5,7.2-6.4,10.7-3.1
	c-0.1-0.1-0.2-0.2-0.3-0.2c5.9,5-1,12.2-1.3,18.2c-2.8,15.2-10.1,31.1-7.7,46.6c10,9.5,20.5-15.9,30.1-16.6
	c9.2-1.5,15.7,10.2,9.7,17.3C380.1,96.1,366.4,107.4,350.4,105.3z"/>
		<path d="M320.3,54.3c-5.4-5.9,2.2-13.7,8.7-10c8.9,0.2,17.8-0.9,26.7-1.5c8.8-0.7,17.5-1.2,26.3-1.3c9.4-0.1,9.3,14.6-0.1,14.5
	c-12.8,0.5-25.7,0.2-38.6,0.7C335.9,56.3,326.6,59.3,320.3,54.3z"/>
	</g>

</svg>
