<?xml version="1.0" encoding="utf-8"?>
<!-- Generator: Adobe Illustrator 27.1.1, SVG Export Plug-In . SVG Version: 6.00 Build 0)  -->
<svg version="1.1" id="work" xmlns="http://www.w3.org/2000/svg" xmlns:xlink="http://www.w3.org/1999/xlink" x="0px" y="0px"
	 viewBox="0 0 650.7 212.8" style="enable-background:new 0 0 650.7 212.8;" xml:space="preserve">
<path d="M62.6,181.1c-6.4-9.2-5.3-21.5-8.3-32c-5.5-25.4-8.7-51.2-11-77.1c-0.1-4.8-0.5-9.9,0.9-14.6c1.6-4.4,5.8-0.5,6.3,2.5
	c1.8,12,3.9,24,6.1,35.9c0-0.1,0-0.3-0.1-0.4c0.6,3.1,1.1,6.3,1.6,9.5c0-0.1,0-0.2,0-0.3c2.4,15,6.4,29.8,9.6,44.6
	c1.4,9.8,6.6,19.7,4.6,29.7C71.4,184.5,65.8,185.8,62.6,181.1z"/>
<path d="M29.1,70.4c-1.8-0.8-2.6-2.9-3-4.6c-1.8-5.8,4.7-8.9,8.7-11.6c8.6-5.4,17.9-9.8,26.9-14.4c8.8-5.7,12.9,11.3,11,17.5
	c-0.5,2.8-2.7,4.9-5.7,4.3c-3.3,0.1-6.6,1-9.8,1.7C47.8,65.3,38.8,70.8,29.1,70.4z"/>
<path d="M83.3,190.3c-10.7-1.5-22.2,0.3-32.9-2.3c-4.2-1.3-6.6-8.8-3.2-11.8c0,0,0-0.1-0.1-0.1c9.3-4.7,20.3-4.6,29.9-9
	c1.6-1.1,3.1-2.9,5.3-1.9C89.9,167.6,94.7,192.3,83.3,190.3z"/>
<path d="M175.4,153.4c-11.8-5-8.3-21.6-11.3-32c-2.3-14.4-10-28.7-25.3-16.3c-1.1,11-16.8-4.4,2.7-19.1c18-15,31,15.3,34.4,29.5
	C176.7,123.6,187.1,151.8,175.4,153.4z"/>
<path d="M160,139.3c-8.3,0.9-16.2,4.8-22.8,9.8c10.3,1.2,20.4-3.6,28.9-8.9C164.1,139.4,162,139.2,160,139.3z M145.1,174.2
	c-19.8,1-34.3-29.9-16.5-41.6c12.8-7.3,34.1-11.5,42.5,4c11.2-10.9,17.9,11.1,13.2,19.2C177.3,167.6,158.4,173.7,145.1,174.2z"/>
<path d="M201.8,159.4c-7.8-1.6-11.8-22.8-14.4-29.9c0.1,0.4,0.2,0.7,0.3,1.1c-2.8-11.1-6.7-22.4-6-34c2.3-10.9,9.8,1.9,7.3,7.2
	c2.9,11.4,7.6,22.5,13.3,32.8C206.3,141.8,211.1,157.6,201.8,159.4z"/>
<path d="M225.5,159.2c-8.9-8.9-4.6-22.2-6.3-33.4c0.1,0.7,0.1,1.4,0.2,2.2c-0.9-9.2-1.2-18.5-2.6-27.7
	c-11.1,4.9-11.3,18.9-12.9,29.2c-0.6,3.8,1.6,7.5,1.5,11.2c1,13.3-9.1,15-13.7,2.8c0.2,0.5,0.5,1,0.7,1.5c-0.3-0.8-0.7-1.5-1-2.3
	c0.1,0.2,0.1,0.3,0.2,0.5c-6-16,0.4-50.1,12.3-62.5c16.5-18.2,25.7,8.2,27.3,22.3C231.3,110.2,243,172.2,225.5,159.2z"/>
<path d="M269.2,158.3c-9.3-5.4-9.4-21-10.7-30.7c-1.5-6.8,2.3-25.1-3-28.7c-9.5-4-20.2,2.9-23.7,11.8c2.7,9.3-4.2,7.1-5-0.3
	c-0.8-13.3,18.8-35.6,32.5-26.5c12.6,10.4,10.7,29,12.1,43.7c-0.1,9,6.4,17.1,4,26.1C274.6,156.4,272.3,159.6,269.2,158.3z"/>
<path d="M354.8,174.7c-14.2-0.6-27-35.6-10.1-29.6c2.6,0.9,4.3,8.8,0.4,8.6c-1.1-0.3-2.1-0.7-3.2-0.7c5.8,14.4,25.2,5.3,32.5-3.2
	c-17.8-11.5-38.1-22.1-47.2-42.3c-18.8-39,3.4-77.8,40.1-95.3c9.7-4.8,21.8-7.6,27.8,4c8.2,13.5,5.5,30,0.1,43.9
	c-2.5,7.7-5.9,15.1-8,22.9c0.9,7.9-4.1,17.5-10.8,7.6c-11.7-17.5,1.4-37.1,6.6-54.5c-20.7,6.5-40.4,22.7-47.5,43.6
	c-4.6,21.3,18.5,33,33,43.4c14.7,7.7,29.9,30.6,13.3,43.8C374.5,173,364.4,176.7,354.8,174.7z"/>
<path d="M400.6,188.5c-7.1-7.5-5.5-18.8-6-28.3c0,0.5,0,1.1,0,1.6c0.1-14.6,2.3-29.2,5.5-43.5c0.6-3.9,2.1-16,7.5-8.6
	c4.3,7,1.4,15.6,0.7,23.2c-1.3,9.8-2.3,19.7-2.2,29.6c-0.6,6.8,3.5,12.7,3.1,19.4C409.7,186.7,405.2,193.3,400.6,188.5z"/>
<path d="M398.2,88.5L398.2,88.5c-6.4-5.6,0.2-11.5,5.5-14.4c4.4-2.6,8-6.2,12.2-9c7.3-1.6,9.5,10.2,8.9,15.6c-0.2,3.2-2.4,6-5.9,5.5
	C412,87.1,405,89.9,398.2,88.5z"/>
<path d="M424.8,171.3c-5.5-5-2.5-14.2-2.6-20.8c2.3-26.2,5.7-52.8,16.8-76.9c8.8-20.6,22.9-39.7,24.9-62.3c3.2-7.9,10.8-1.6,12.4,4
	c4.4,9.2-0.4,18.4-3.8,27c-9.4,22.2-24.3,41.8-31.8,64.8c-4.6,14.1-6.9,28.8-9.4,43.4c-1.5,4.9-1.6,18.6-5.7,20.9l0,0
	C425.3,171.4,425.1,171.4,424.8,171.3z"/>
</svg>
