<?xml version="1.0" encoding="utf-8"?>
<!-- Generator: Adobe Illustrator 27.1.1, SVG Export Plug-In . SVG Version: 6.00 Build 0)  -->
<svg version="1.1" id="work" xmlns="http://www.w3.org/2000/svg" xmlns:xlink="http://www.w3.org/1999/xlink" x="0px" y="0px"
	 viewBox="0 0 650.7 212.8" style="enable-background:new 0 0 650.7 212.8;" xml:space="preserve">
<g>
	<path d="M78.3,185.5c-12.1-3.4-10.8-31.2-14.8-42.2c-2.9-14-6.3-27.8-9.4-41.7c-8.6-30.3,7.1-30,5.9-13.4c1.3,4.8,2.7,9.4,4.3,14
		c-0.1-0.5-0.4-1-0.5-1.4c5.6,15.4,9.1,31.5,14,47.1C79.3,156.9,91.9,182.4,78.3,185.5z"/>
	<path d="M118.4,190.7c-7.2-3.7-8.3-12.7-10.8-19.7c-3.7-11.9-7.6-23.8-10.6-36c-1.4-10.8-23-73.6-11.6-75.6
		c7.8,2.9,4.4,13.1,7.1,19.4c5.8,20.1,12.6,39.8,18.9,59.7c0-0.1,0-0.1-0.1-0.2c4.4,12,10.1,23.6,13.9,35.9
		C126.6,179.6,126.8,192.6,118.4,190.7z"/>
	<path d="M31.7,158.6c-3.3-1-5.2-8.8-1.8-10.5l0,0c17.5-7,35.6-11.5,53.2-18.1c5-1.9,9.9-4.2,14.1-7.5c2-1.7,4.6-3.4,7.2-2.1
		c5.8,3.2,7.7,10.9,7.6,17.2l0,0c0.5,12.5-14.4,13.1-23.5,15C69.7,156.1,50.6,156.7,31.7,158.6z"/>
	<path d="M145.3,195c-4-5.9-3.6-13.4-5.2-20.2c0.1,0.4,0.1,0.8,0.2,1.2c-3-19.2-10.6-37.8-12.1-57.1c2.5-7.8,8.2,12.1,9.5,14.1
		c4.4,11.8,8.3,23.6,12.4,35.4c2.3,6.7,6.4,12.9,6.5,20.2C157.6,196.8,151.1,204.4,145.3,195z"/>
	<path d="M117.7,106.9c-9.3,0.6-14.5-15.8-4.8-18.8c4.9-2.1,10.1-3.6,14.7-6.2c2.7-2.3,6.5-1.4,8.6,1.4c4.3,5.8,7,16.5,1.2,22
		c-0.8,0.7-2,0.8-3.1,0.8C128.9,105.9,123.3,107.5,117.7,106.9z"/>
	<path d="M168.7,155.8c-6.7-8.2-7.8-19.6-11.2-29.3c-3.9-14.1-5.8-28.7-5.7-43.5c1.8-22.9,3.9-47.4,13.9-68.2
		c7.4-5.6,12.9,7,14,12.8c1.5,6.3,1.1,13.3-3.6,18.2c-2.5,5.1-3.7,10.6-4.9,16c-3.3,17.5-6.8,35.4-3.3,53.1
		c1.5,8.3,3.6,16.4,5.7,24.6c1.8,3,2.6,6.5,2.5,10C176.4,153.3,172.8,160,168.7,155.8z"/>
	<path d="M185.4,197.5c-9.3-2.4-12.5-15.7-9.5-23.9c0.5-5.8,2-15.7,10.3-13.3C198.1,166,200.2,195,185.4,197.5z"/>
</g>
</svg>
